<svg width="449" height="430" viewBox="0 0 449 430" fill="none" xmlns="http://www.w3.org/2000/svg">
<path fill-rule="evenodd" clip-rule="evenodd" d="M220.408 0.0460574C310.853 2.09023 366.687 87.0398 394.498 173.127C422.121 258.631 428.883 363.904 353.997 413.563C284.196 459.85 204.996 393.384 137.859 343.311C74.6833 296.192 1.86 241.298 20.2875 164.67C42.6159 71.8206 124.936 -2.11172 220.408 0.0460574Z" fill="#8ACAC3"/>
<g clip-path="url(#clip0_67_192)">
<path d="M441.185 237.445V361.751H129.75C113.266 362.324 97.2295 356.326 85.1683 345.075C73.1071 333.824 66.0092 318.243 65.436 301.759C64.8629 285.275 70.8615 269.239 82.1122 257.177C93.363 245.116 108.944 238.018 125.428 237.445C126.869 237.395 128.311 237.395 129.753 237.445H441.185Z" fill="#F2F2F2"/>
<path d="M448.838 360.795C448.838 362.063 448.334 363.28 447.437 364.177C446.54 365.074 445.323 365.578 444.054 365.578H124.208C106.836 365.578 90.1755 358.677 77.8917 346.394C65.608 334.11 58.707 317.45 58.707 300.078C58.707 282.706 65.608 266.046 77.8917 253.762C90.1755 241.478 106.836 234.577 124.208 234.577H444.06C444.701 234.555 445.34 234.663 445.94 234.893C446.539 235.124 447.085 235.473 447.547 235.919C448.008 236.365 448.375 236.899 448.626 237.49C448.877 238.081 449.006 238.716 449.006 239.358C449.006 240 448.877 240.635 448.626 241.226C448.375 241.817 448.008 242.352 447.547 242.798C447.085 243.244 446.539 243.593 445.94 243.823C445.34 244.053 444.701 244.161 444.06 244.139H124.208C109.404 244.188 95.2236 250.103 84.7733 260.588C74.3229 271.073 68.4549 285.273 68.4549 300.077C68.4549 314.88 74.3229 329.08 84.7733 339.565C95.2236 350.051 109.404 355.966 124.208 356.015H444.06C445.327 356.016 446.542 356.52 447.437 357.416C448.333 358.313 448.837 359.527 448.838 360.795Z" fill="#17B8A6"/>
<path d="M441.19 266.131H106.52C106.266 266.133 106.022 266.035 105.841 265.857C105.66 265.679 105.557 265.437 105.555 265.184C105.552 264.93 105.651 264.686 105.828 264.505C106.006 264.324 106.248 264.221 106.502 264.219H441.19C441.444 264.219 441.687 264.319 441.866 264.499C442.046 264.678 442.146 264.921 442.146 265.175C442.146 265.428 442.046 265.672 441.866 265.851C441.687 266.03 441.444 266.131 441.19 266.131Z" fill="#CCCCCC"/>
<path d="M441.19 289.08H106.52C106.394 289.081 106.27 289.058 106.153 289.011C106.037 288.964 105.931 288.894 105.841 288.806C105.751 288.718 105.68 288.614 105.631 288.498C105.582 288.382 105.556 288.258 105.555 288.133C105.554 288.007 105.577 287.883 105.624 287.766C105.671 287.65 105.741 287.544 105.828 287.454C105.916 287.365 106.021 287.293 106.137 287.244C106.252 287.195 106.376 287.169 106.502 287.168H441.19C441.444 287.168 441.687 287.269 441.866 287.448C442.046 287.627 442.146 287.87 442.146 288.124C442.146 288.378 442.046 288.621 441.866 288.8C441.687 288.979 441.444 289.08 441.19 289.08Z" fill="#CCCCCC"/>
<path d="M441.19 312.028H106.52C106.266 312.03 106.022 311.932 105.841 311.754C105.66 311.577 105.557 311.334 105.555 311.081C105.552 310.827 105.651 310.583 105.828 310.402C106.006 310.221 106.248 310.118 106.502 310.116H441.19C441.444 310.116 441.687 310.216 441.866 310.396C442.046 310.575 442.146 310.818 442.146 311.072C442.146 311.325 442.046 311.569 441.866 311.748C441.687 311.927 441.444 312.028 441.19 312.028Z" fill="#CCCCCC"/>
<path d="M441.19 334.977H106.52C106.394 334.978 106.27 334.955 106.153 334.908C106.037 334.861 105.931 334.791 105.841 334.703C105.751 334.615 105.68 334.511 105.631 334.395C105.582 334.279 105.556 334.155 105.555 334.03C105.554 333.904 105.577 333.78 105.624 333.663C105.671 333.547 105.741 333.441 105.828 333.351C105.916 333.262 106.021 333.19 106.137 333.141C106.252 333.092 106.376 333.066 106.502 333.065H441.19C441.444 333.065 441.687 333.166 441.866 333.345C442.046 333.524 442.146 333.767 442.146 334.021C442.146 334.275 442.046 334.518 441.866 334.697C441.687 334.876 441.444 334.977 441.19 334.977Z" fill="#CCCCCC"/>
<path d="M382.479 106.482V230.788H71.0444C54.5604 231.361 38.5237 225.363 26.4622 214.112C14.4007 202.862 7.3025 187.281 6.72905 170.797C6.1556 154.313 12.1539 138.276 23.4044 126.214C34.6549 114.153 50.236 107.055 66.72 106.481C68.1609 106.431 69.6023 106.431 71.0444 106.481L382.479 106.482Z" fill="#F2F2F2"/>
<path d="M390.131 229.831C390.131 231.1 389.627 232.317 388.73 233.214C387.833 234.111 386.616 234.615 385.347 234.615H65.5006C48.1288 234.615 31.4684 227.714 19.1847 215.431C6.90094 203.147 0 186.487 0 169.115C0 151.743 6.90094 135.083 19.1847 122.799C31.4684 110.515 48.1288 103.614 65.5006 103.614H385.351C385.992 103.592 386.632 103.7 387.231 103.93C387.83 104.161 388.376 104.509 388.838 104.955C389.299 105.402 389.666 105.936 389.917 106.527C390.168 107.118 390.297 107.753 390.297 108.395C390.297 109.037 390.168 109.672 389.917 110.263C389.666 110.854 389.299 111.389 388.838 111.835C388.376 112.281 387.83 112.629 387.231 112.86C386.632 113.09 385.992 113.198 385.351 113.176H65.5006C50.6971 113.225 36.5166 119.14 26.0662 129.625C15.6159 140.11 9.74782 154.31 9.74782 169.114C9.74782 183.917 15.6159 198.117 26.0662 208.602C36.5166 219.087 50.6971 225.002 65.5006 225.051H385.351C386.619 225.051 387.836 225.555 388.733 226.453C389.63 227.35 390.134 228.566 390.134 229.835L390.131 229.831Z" fill="#17B8A6"/>
<path d="M382.479 135.167H47.8088C47.6833 135.168 47.5587 135.145 47.4423 135.098C47.3258 135.051 47.2197 134.981 47.1301 134.893C46.9492 134.716 46.8461 134.474 46.8438 134.22C46.8414 133.966 46.9399 133.722 47.1176 133.541C47.2952 133.36 47.5375 133.257 47.7911 133.255H382.479C382.733 133.255 382.976 133.356 383.155 133.535C383.335 133.714 383.436 133.957 383.436 134.211C383.436 134.465 383.335 134.708 383.155 134.887C382.976 135.066 382.733 135.167 382.479 135.167Z" fill="#CCCCCC"/>
<path d="M382.479 158.116H47.8088C47.6833 158.117 47.5587 158.093 47.4423 158.046C47.3258 157.999 47.2197 157.93 47.1301 157.842C47.0405 157.754 46.9691 157.649 46.92 157.534C46.8709 157.418 46.845 157.294 46.8438 157.168C46.8426 157.043 46.8662 156.918 46.9132 156.802C46.9601 156.685 47.0296 156.579 47.1176 156.49C47.2055 156.4 47.3103 156.329 47.4258 156.28C47.5414 156.23 47.6655 156.205 47.7911 156.203H382.479C382.605 156.203 382.729 156.228 382.845 156.276C382.961 156.324 383.067 156.395 383.155 156.483C383.244 156.572 383.315 156.678 383.363 156.794C383.411 156.91 383.436 157.034 383.436 157.16C383.436 157.285 383.411 157.409 383.363 157.525C383.315 157.641 383.244 157.747 383.155 157.836C383.067 157.924 382.961 157.995 382.845 158.043C382.729 158.091 382.605 158.116 382.479 158.116Z" fill="#CCCCCC"/>
<path d="M382.479 181.064H47.8088C47.6833 181.065 47.5587 181.042 47.4423 180.995C47.3258 180.948 47.2197 180.878 47.1301 180.79C46.9492 180.613 46.8461 180.371 46.8438 180.117C46.8414 179.863 46.9399 179.619 47.1176 179.438C47.2952 179.257 47.5375 179.154 47.7911 179.152H382.479C382.733 179.152 382.976 179.253 383.155 179.432C383.335 179.611 383.436 179.854 383.436 180.108C383.436 180.362 383.335 180.605 383.155 180.784C382.976 180.963 382.733 181.064 382.479 181.064Z" fill="#CCCCCC"/>
<path d="M382.479 204.013H47.8088C47.5552 204.016 47.3111 203.917 47.1301 203.74C46.9492 203.562 46.8461 203.32 46.8438 203.066C46.8414 202.813 46.9399 202.568 47.1176 202.387C47.2952 202.206 47.5375 202.103 47.7911 202.101H382.479C382.733 202.101 382.976 202.202 383.155 202.381C383.335 202.56 383.436 202.804 383.436 203.057C383.436 203.311 383.335 203.554 383.155 203.733C382.976 203.913 382.733 204.013 382.479 204.013Z" fill="#CCCCCC"/>
<path d="M328.32 65.0129H186.428C185.081 65.0118 183.753 65.3209 182.545 65.9163L146.732 83.8449C145.553 84.3457 144.548 85.1823 143.841 86.2503C143.135 87.3183 142.758 88.5707 142.758 89.8513C142.758 91.1319 143.135 92.3842 143.841 93.4523C144.548 94.5203 145.553 95.3568 146.732 95.8576L182.544 113.786C183.752 114.382 185.081 114.691 186.428 114.69H328.32C330.275 114.803 332.196 114.141 333.667 112.848C335.138 111.555 336.04 109.734 336.179 107.78V71.9242C336.041 69.9701 335.139 68.149 333.668 66.8554C332.197 65.5618 330.275 64.8998 328.32 65.0129Z" fill="#090814"/>
<path d="M336.182 71.9254V107.782C336.044 109.736 335.141 111.556 333.67 112.849C332.199 114.142 330.278 114.803 328.322 114.69H300.055V65.0123H328.322C330.278 64.8989 332.201 65.5609 333.672 66.855C335.143 68.149 336.045 69.9708 336.182 71.9254Z" fill="#17B8A6"/>
</g>
<defs>
<clipPath id="clip0_67_192">
<rect width="448.836" height="300.577" fill="white" transform="translate(0 65)"/>
</clipPath>
</defs>
</svg>
