<svg width="485" height="476" viewBox="0 0 485 476" fill="none" xmlns="http://www.w3.org/2000/svg">
<path fill-rule="evenodd" clip-rule="evenodd" d="M224.753 0.0509864C324.877 2.31393 386.686 96.3547 417.474 191.655C448.053 286.309 455.539 402.849 372.639 457.822C295.367 509.063 207.692 435.484 133.37 380.052C63.4328 327.89 -17.1841 267.121 3.21552 182.293C27.9335 79.5068 119.063 -2.33772 224.753 0.0509864Z" fill="#8ACAC3"/>
<path d="M368.68 424.875L144.557 322.558L259.961 69.7659L484.085 172.083L368.68 424.875Z" fill="#F2F2F2"/>
<path d="M402.823 278.016L233.155 200.559C232.836 200.413 232.587 200.147 232.464 199.817C232.342 199.488 232.355 199.124 232.5 198.804C232.646 198.485 232.913 198.236 233.242 198.113C233.572 197.99 233.936 198.003 234.256 198.149L403.923 275.606C404.243 275.752 404.491 276.019 404.614 276.348C404.737 276.677 404.724 277.041 404.578 277.361C404.432 277.681 404.165 277.929 403.836 278.052C403.507 278.175 403.143 278.162 402.823 278.016Z" fill="white"/>
<path d="M412.257 257.349L242.589 179.893C242.431 179.821 242.288 179.718 242.17 179.591C242.051 179.463 241.959 179.314 241.898 179.151C241.837 178.988 241.809 178.815 241.815 178.641C241.821 178.467 241.862 178.296 241.934 178.138C242.006 177.979 242.109 177.837 242.236 177.718C242.364 177.6 242.513 177.508 242.676 177.447C242.839 177.386 243.012 177.358 243.186 177.364C243.36 177.37 243.531 177.411 243.689 177.483L413.357 254.939C413.515 255.012 413.658 255.114 413.776 255.242C413.895 255.369 413.987 255.518 414.048 255.681C414.109 255.844 414.137 256.018 414.131 256.191C414.124 256.365 414.084 256.536 414.012 256.694C413.939 256.853 413.837 256.995 413.71 257.114C413.582 257.232 413.433 257.325 413.27 257.385C413.107 257.446 412.934 257.474 412.76 257.468C412.586 257.462 412.415 257.422 412.257 257.349Z" fill="white"/>
<path d="M421.69 236.683L252.023 159.226C251.864 159.154 251.722 159.051 251.603 158.924C251.485 158.797 251.392 158.647 251.332 158.484C251.271 158.321 251.243 158.148 251.249 157.974C251.255 157.8 251.295 157.629 251.368 157.471C251.44 157.313 251.543 157.17 251.67 157.052C251.797 156.933 251.947 156.841 252.11 156.78C252.273 156.719 252.446 156.691 252.62 156.698C252.794 156.704 252.965 156.744 253.123 156.816L422.79 234.273C423.109 234.419 423.357 234.686 423.48 235.015C423.602 235.344 423.589 235.708 423.443 236.027C423.297 236.346 423.031 236.594 422.702 236.717C422.374 236.84 422.01 236.828 421.69 236.683Z" fill="white"/>
<path d="M431.126 216.016L261.458 138.56C261.3 138.487 261.157 138.385 261.039 138.257C260.92 138.13 260.828 137.981 260.767 137.818C260.706 137.655 260.678 137.481 260.684 137.308C260.691 137.134 260.731 136.963 260.803 136.805C260.875 136.646 260.978 136.504 261.105 136.385C261.233 136.267 261.382 136.175 261.545 136.114C261.708 136.053 261.881 136.025 262.055 136.031C262.229 136.037 262.4 136.078 262.558 136.15L432.226 213.606C432.384 213.679 432.527 213.781 432.645 213.909C432.764 214.036 432.856 214.185 432.917 214.348C432.978 214.511 433.006 214.685 433 214.858C432.993 215.032 432.953 215.203 432.881 215.361C432.809 215.52 432.706 215.662 432.579 215.781C432.451 215.899 432.302 215.991 432.139 216.052C431.976 216.113 431.803 216.141 431.629 216.135C431.455 216.129 431.284 216.088 431.126 216.016Z" fill="white"/>
<path d="M394.296 296.693L224.628 219.236C224.47 219.164 224.327 219.061 224.209 218.934C224.09 218.807 223.998 218.657 223.937 218.494C223.876 218.331 223.848 218.158 223.854 217.984C223.861 217.81 223.901 217.64 223.973 217.481C224.045 217.323 224.148 217.181 224.275 217.062C224.403 216.943 224.552 216.851 224.715 216.79C224.878 216.73 225.051 216.701 225.225 216.708C225.399 216.714 225.57 216.754 225.728 216.826L395.396 294.283C395.716 294.429 395.964 294.696 396.087 295.025C396.21 295.354 396.197 295.718 396.051 296.038C395.905 296.358 395.638 296.606 395.309 296.729C394.98 296.852 394.615 296.839 394.296 296.693Z" fill="white"/>
<path d="M422.627 185.701L290.095 125.197C289.349 124.876 288.748 124.292 288.404 123.556C288.061 122.82 288 121.984 288.233 121.206C288.375 120.783 288.605 120.395 288.907 120.066C289.209 119.738 289.577 119.477 289.986 119.299C290.396 119.122 290.838 119.033 291.284 119.037C291.73 119.041 292.17 119.139 292.576 119.325L425.068 179.81C425.827 180.132 426.44 180.725 426.789 181.473C427.138 182.221 427.197 183.071 426.956 183.86C426.809 184.278 426.577 184.66 426.274 184.983C425.971 185.305 425.605 185.561 425.197 185.734C424.79 185.907 424.351 185.994 423.909 185.988C423.466 185.982 423.03 185.884 422.627 185.701Z" fill="white"/>
<path d="M365.132 427H30V49H365.132V427Z" fill="white"/>
<path d="M324.418 225.988H70.7139C70.4773 225.988 70.243 225.942 70.0244 225.851C69.8058 225.761 69.6071 225.628 69.4398 225.461C69.2725 225.293 69.1398 225.095 69.0493 224.876C68.9587 224.658 68.9121 224.423 68.9121 224.187C68.9121 223.95 68.9587 223.716 69.0493 223.497C69.1398 223.279 69.2725 223.08 69.4398 222.913C69.6071 222.745 69.8058 222.613 70.0244 222.522C70.243 222.431 70.4773 222.385 70.7139 222.385H324.418C324.896 222.385 325.354 222.575 325.692 222.913C326.03 223.251 326.22 223.709 326.22 224.187C326.22 224.665 326.03 225.123 325.692 225.461C325.354 225.799 324.896 225.988 324.418 225.988Z" fill="#E4E4E4"/>
<path d="M324.418 195.086H70.7139C70.236 195.086 69.7777 194.896 69.4398 194.558C69.1019 194.22 68.9121 193.762 68.9121 193.284C68.9121 192.806 69.1019 192.348 69.4398 192.01C69.7777 191.672 70.236 191.482 70.7139 191.482H324.418C324.896 191.482 325.354 191.672 325.692 192.01C326.03 192.348 326.22 192.806 326.22 193.284C326.22 193.762 326.03 194.22 325.692 194.558C325.354 194.896 324.896 195.086 324.418 195.086Z" fill="#E4E4E4"/>
<path d="M324.418 164.183H70.7139C70.4773 164.183 70.243 164.137 70.0244 164.046C69.8058 163.956 69.6071 163.823 69.4398 163.655C69.2725 163.488 69.1398 163.29 69.0493 163.071C68.9587 162.852 68.9121 162.618 68.9121 162.381C68.9121 162.145 68.9587 161.91 69.0493 161.692C69.1398 161.473 69.2725 161.275 69.4398 161.107C69.6071 160.94 69.8058 160.807 70.0244 160.717C70.243 160.626 70.4773 160.58 70.7139 160.58H324.418C324.896 160.58 325.354 160.769 325.692 161.107C326.03 161.445 326.22 161.904 326.22 162.381C326.22 162.859 326.03 163.318 325.692 163.655C325.354 163.993 324.896 164.183 324.418 164.183Z" fill="#E4E4E4"/>
<path d="M324.418 133.281H70.7139C70.236 133.281 69.7777 133.091 69.4398 132.753C69.1019 132.415 68.9121 131.957 68.9121 131.479C68.9121 131.001 69.1019 130.543 69.4398 130.205C69.7777 129.867 70.236 129.677 70.7139 129.677H324.418C324.896 129.677 325.354 129.867 325.692 130.205C326.03 130.543 326.22 131.001 326.22 131.479C326.22 131.957 326.03 132.415 325.692 132.753C325.354 133.091 324.896 133.281 324.418 133.281Z" fill="#E4E4E4"/>
<path d="M324.418 253.916H70.7139C70.236 253.916 69.7777 253.726 69.4398 253.388C69.1019 253.05 68.9121 252.592 68.9121 252.114C68.9121 251.636 69.1019 251.178 69.4398 250.84C69.7777 250.502 70.236 250.313 70.7139 250.313H324.418C324.896 250.313 325.354 250.502 325.692 250.84C326.03 251.178 326.22 251.636 326.22 252.114C326.22 252.592 326.03 253.05 325.692 253.388C325.354 253.726 324.896 253.916 324.418 253.916Z" fill="#E4E4E4"/>
<path d="M324.418 392.56H70.7139C70.236 392.56 69.7777 392.371 69.4398 392.033C69.1019 391.695 68.9121 391.236 68.9121 390.759C68.9121 390.281 69.1019 389.822 69.4398 389.485C69.7777 389.147 70.236 388.957 70.7139 388.957H324.418C324.896 388.957 325.354 389.147 325.692 389.485C326.03 389.822 326.22 390.281 326.22 390.759C326.22 391.236 326.03 391.695 325.692 392.033C325.354 392.371 324.896 392.56 324.418 392.56Z" fill="#E4E4E4"/>
<path d="M263.643 363.638H131.488C130.605 363.637 129.758 363.285 129.133 362.661C128.509 362.036 128.157 361.189 128.156 360.306V282.567C128.157 281.684 128.509 280.837 129.133 280.213C129.758 279.588 130.605 279.237 131.488 279.236H263.643C264.527 279.237 265.374 279.588 265.998 280.213C266.623 280.837 266.974 281.684 266.975 282.567V360.306C266.974 361.189 266.623 362.036 265.998 362.661C265.374 363.285 264.527 363.637 263.643 363.638Z" fill="white"/>
<path d="M219.512 319.227C218.839 318.507 218.028 317.929 217.128 317.528C216.228 317.128 215.256 316.912 214.271 316.895C213.285 316.877 212.307 317.058 211.393 317.426C210.479 317.794 209.648 318.342 208.95 319.038L171.758 356.23C170.775 357.211 169.445 357.762 168.057 357.764C166.669 357.766 165.336 357.219 164.351 356.241L158.842 350.744C158.161 350.063 157.353 349.522 156.463 349.154C155.573 348.785 154.619 348.595 153.656 348.595C152.693 348.595 151.739 348.785 150.849 349.154C149.959 349.522 149.15 350.063 148.469 350.744L137.809 361.417H257.326V359.895L219.512 319.227Z" fill="#17B8A6"/>
<path d="M263.643 363.638H131.488C130.605 363.637 129.758 363.285 129.133 362.661C128.509 362.036 128.157 361.189 128.156 360.306V282.567C128.157 281.684 128.509 280.837 129.133 280.213C129.758 279.588 130.605 279.237 131.488 279.236H263.643C264.527 279.237 265.374 279.588 265.998 280.213C266.623 280.837 266.974 281.684 266.975 282.567V360.306C266.974 361.189 266.623 362.036 265.998 362.661C265.374 363.285 264.527 363.637 263.643 363.638ZM131.488 281.457C131.193 281.457 130.911 281.574 130.703 281.782C130.495 281.991 130.378 282.273 130.377 282.567V360.306C130.378 360.6 130.495 360.883 130.703 361.091C130.911 361.299 131.193 361.416 131.488 361.416H263.643C263.938 361.416 264.22 361.299 264.428 361.091C264.637 360.883 264.754 360.6 264.754 360.306V282.567C264.754 282.273 264.637 281.991 264.428 281.782C264.22 281.574 263.938 281.457 263.643 281.457L131.488 281.457Z" fill="#3F3D56"/>
<path d="M296.777 100.568H98.6018C97.4974 100.592 96.4228 100.209 95.5823 99.4925C94.7417 98.7758 94.1937 97.7753 94.0425 96.6811C93.9801 96.0774 94.0451 95.4674 94.2333 94.8904C94.4215 94.3134 94.7288 93.7824 95.1352 93.3317C95.5417 92.8809 96.0383 92.5206 96.5928 92.2739C97.1473 92.0272 97.7474 91.8997 98.3543 91.8996H296.469C297.591 91.8702 298.684 92.2569 299.538 92.9854C300.392 93.714 300.946 94.7327 301.094 95.8455C301.148 96.445 301.076 97.0491 300.884 97.6194C300.691 98.1897 300.382 98.7137 299.976 99.1579C299.57 99.6022 299.076 99.957 298.525 100.2C297.974 100.443 297.379 100.568 296.777 100.568Z" fill="#17B8A6"/>
</svg>
