<svg width="270" height="270" viewBox="0 0 270 270" fill="none" xmlns="http://www.w3.org/2000/svg">
<circle cx="135" cy="135" r="134.5" fill="#B1CAC7" stroke="black"/>
<path d="M193.37 204.327C193.729 204.327 194.084 204.264 194.421 204.141L217.228 195.846C217.86 195.616 218.4 195.185 218.764 194.619C219.128 194.053 219.297 193.383 219.245 192.712C219.193 192.04 218.922 191.405 218.475 190.902C218.028 190.399 217.428 190.057 216.767 189.927L153.779 177.587C153.27 177.487 152.743 177.518 152.249 177.676L134.649 183.321C134.013 183.524 133.461 183.929 133.076 184.474C132.69 185.019 132.492 185.674 132.51 186.342C132.529 187.009 132.764 187.652 133.18 188.175C133.596 188.697 134.17 189.07 134.815 189.237L192.597 204.228C192.849 204.294 193.109 204.327 193.37 204.327L193.37 204.327Z" fill="#090814"/>
<path d="M147.241 175.311L114.162 179.29L120.193 190.929L149.358 186.693C151.759 188.397 155.096 189.156 158.566 188.51C164.637 187.379 168.801 182.387 167.866 177.358C166.93 172.329 161.251 169.172 155.18 170.302C151.71 170.947 148.869 172.857 147.241 175.311Z" fill="#ED9DA0"/>
<path d="M101.31 81.9053C102.581 77.2046 105.128 72.9483 108.67 69.6091C112.212 66.2698 116.609 63.9781 121.374 62.9886C126.138 61.9991 131.084 62.3504 135.661 64.0036C140.238 65.6567 144.267 68.547 147.302 72.3534C150.337 76.1599 152.258 80.7337 152.853 85.5668C153.447 90.4 152.691 95.3035 150.669 99.7328C148.647 104.162 145.438 107.944 141.398 110.658C137.358 113.373 132.646 114.914 127.784 115.11L114.095 146.276L94.6901 118.613C94.6901 118.613 101.964 113.179 106.966 106.187C104.091 102.923 102.069 98.9966 101.082 94.759C100.095 90.5215 100.174 86.1051 101.31 81.9053Z" fill="#ED9DA0"/>
<path d="M74.6812 136.311C76.4182 132.026 79.3851 128.352 83.2072 125.754C87.0292 123.155 91.535 121.749 96.1555 121.711C108.076 121.596 123.248 124.716 123.874 141.202C124.91 168.499 123.874 157.512 123.874 157.512C123.874 157.512 132.103 178.017 123.874 187.907C115.645 197.797 108.47 217.291 108.47 217.291H58.4651C58.4651 217.291 67.0975 194.46 65.6142 178.883C64.6079 168.31 69.4077 149.364 74.6812 136.311Z" fill="#17B8A6"/>
<path d="M50.0622 145.884C51.432 148.356 55.3882 148.216 57.3402 146.173C59.2923 144.131 59.6183 141.016 59.312 138.207C59.0056 135.397 58.1784 132.634 58.2354 129.809C58.3441 124.417 61.6302 119.624 65.2399 115.62C68.8496 111.615 72.9769 107.937 75.443 103.142L75.7409 102.835C74.6873 99.3522 77.2427 95.7945 80.1195 93.5696C82.9962 91.3447 86.4461 89.6466 88.4103 86.5843C90.0814 83.9791 90.4191 80.774 91.1504 77.7658C93.9841 66.1109 103.78 56.4433 115.464 53.7692C127.148 51.0951 140.169 55.5416 147.783 64.8055L147.6 64.4215C152.546 65.4234 156.753 69.4395 157.986 74.3359C158.343 75.7544 158.462 77.2793 157.986 78.6626C157.51 80.0458 156.352 81.2541 154.909 81.4831C153.36 81.7289 151.811 80.8171 150.857 79.572C149.902 78.3269 149.427 76.7907 148.969 75.2901C147.25 81.6086 141.855 86.778 135.472 88.2218C135.584 89.0849 135.461 89.9622 135.116 90.761C134.771 91.5598 134.216 92.2505 133.511 92.7602C132.807 93.2698 131.977 93.5795 131.111 93.6565C130.245 93.7335 129.374 93.5749 128.59 93.1976L128.223 92.8478L122.815 93.0913C124.269 95.0729 125.305 97.3296 125.86 99.7242C126.415 102.119 126.477 104.601 126.044 107.021C125.611 109.441 124.69 111.747 123.339 113.8C121.987 115.852 120.233 117.608 118.182 118.961C114.917 121.116 111.06 122.152 107.271 123.12C103.482 124.089 99.6169 125.05 96.2756 127.084C92.9342 129.119 90.1343 132.44 89.7497 136.335C89.365 140.231 92.0491 144.483 95.9345 144.93L87.0654 150.379C87.3293 157.08 82.3594 163.617 75.8361 165.15C76.4332 167.155 77.0302 169.16 77.6271 171.166C73.9986 169.874 70.0261 171.05 66.1948 171.442C62.3636 171.833 57.7183 170.902 56.2463 167.341C54.681 163.555 57.6698 159.54 60.45 156.532C54.7895 157.097 49.363 151.535 50.0608 145.886L50.0622 145.884Z" fill="#090814"/>
<path d="M158.793 193.926L126.581 202.441L134.161 213.134L162.461 204.903C165.074 206.259 168.485 206.549 171.832 205.43C177.688 203.47 181.122 197.949 179.502 193.099C177.882 188.248 171.82 185.906 165.962 187.865C162.615 188.985 160.065 191.27 158.792 193.926L158.793 193.926Z" fill="#ED9DA0"/>
<path d="M94.6901 157.512C94.6901 157.512 96.0965 219.353 116.248 217.291C136.399 215.229 143.069 212.633 143.069 212.633C143.069 212.633 147.146 197.057 140.105 196.685C133.063 196.313 123.874 194.58 123.874 194.58V149.728" fill="#17B8A6"/>
</svg>
