<svg width="270" height="270" viewBox="0 0 270 270" fill="none" xmlns="http://www.w3.org/2000/svg">
<circle cx="135" cy="135" r="134.5" fill="#B1CAC7" stroke="black"/>
<path d="M181.028 173.084H64.1709C63.1296 173.083 62.1314 172.667 61.3951 171.928C60.6589 171.189 60.2447 170.188 60.2435 169.143V73.6426C60.2447 72.5976 60.6589 71.5957 61.3951 70.8568C62.1314 70.1178 63.1296 69.7021 64.1709 69.7009H181.028C182.07 69.7021 183.068 70.1178 183.804 70.8568C184.54 71.5957 184.954 72.5976 184.956 73.6426V169.143C184.954 170.188 184.54 171.189 183.804 171.928C183.068 172.667 182.07 173.083 181.028 173.084Z" fill="#E6E6E6"/>
<path d="M66.8205 72.5065C65.8175 72.5076 64.8559 72.9081 64.1467 73.6199C63.4375 74.3317 63.0386 75.2968 63.0375 76.3034V166.484C63.0387 167.491 63.4376 168.456 64.1468 169.167C64.856 169.879 65.8175 170.279 66.8205 170.281H146.805C156.179 170.27 165.166 166.528 171.795 159.875C178.423 153.222 182.152 144.202 182.162 134.794V76.3034C182.161 75.2968 181.762 74.3317 181.053 73.6199C180.344 72.9081 179.382 72.5076 178.379 72.5065L66.8205 72.5065Z" fill="white"/>
<path d="M159.719 113.065H138.53C138.088 113.064 137.665 112.888 137.352 112.574C137.04 112.26 136.864 111.835 136.863 111.392V100.807C136.864 100.363 137.04 99.9382 137.352 99.6246C137.665 99.3109 138.088 99.1345 138.53 99.134H159.719C160.161 99.1345 160.585 99.3109 160.897 99.6246C161.21 99.9382 161.386 100.363 161.386 100.807C162.697 104.553 162.883 108.112 161.386 111.392C161.386 111.835 161.21 112.26 160.897 112.574C160.585 112.888 160.161 113.064 159.719 113.065Z" fill="#E6E6E6"/>
<path d="M157.209 112.042H139.207C138.831 112.041 138.471 111.891 138.206 111.625C137.94 111.358 137.791 110.997 137.791 110.62V101.628C137.791 101.251 137.94 100.889 138.206 100.623C138.471 100.356 138.831 100.207 139.207 100.206H157.209C157.584 100.207 157.944 100.356 158.21 100.623C158.475 100.889 158.625 101.251 158.625 101.628C159.84 104.83 160.036 107.861 158.625 110.62C158.625 110.997 158.475 111.358 158.21 111.625C157.944 111.891 157.584 112.041 157.209 112.042Z" fill="white"/>
<path d="M156.238 118.609H141.964C141.544 118.61 141.142 118.443 140.844 118.146C140.547 117.848 140.379 117.444 140.378 117.023C140.378 116.601 140.544 116.197 140.84 115.898C141.136 115.6 141.539 115.431 141.958 115.43H156.238C156.658 115.431 157.06 115.599 157.356 115.897C157.652 116.195 157.819 116.599 157.819 117.02C157.819 117.441 157.652 117.845 157.356 118.143C157.06 118.441 156.658 118.608 156.238 118.609Z" fill="#E6E6E6"/>
<path d="M146.641 102.634C146.477 102.635 146.32 102.701 146.203 102.817C146.087 102.934 146.022 103.092 146.022 103.257V109.994C146.022 110.103 146.05 110.21 146.104 110.304C146.158 110.398 146.236 110.477 146.33 110.531C146.424 110.586 146.53 110.615 146.638 110.615C146.747 110.616 146.853 110.588 146.948 110.534L152.872 107.143C152.968 107.089 153.047 107.01 153.102 106.915C153.157 106.82 153.185 106.712 153.185 106.602C153.185 106.492 153.155 106.384 153.1 106.289C153.045 106.194 152.965 106.116 152.869 106.062L146.945 102.715C146.852 102.662 146.748 102.635 146.641 102.634Z" fill="#E6E6E6"/>
<path d="M160.894 103.701C160.951 103.996 161.071 104.275 161.247 104.519C161.423 104.762 161.649 104.964 161.911 105.11C162.173 105.255 162.464 105.342 162.762 105.363C163.061 105.384 163.361 105.339 163.64 105.231L172.088 115.095L173.158 111.453L164.782 102.429C164.571 101.97 164.198 101.604 163.736 101.402C163.274 101.2 162.754 101.175 162.275 101.332C161.796 101.488 161.39 101.816 161.136 102.253C160.881 102.69 160.795 103.205 160.894 103.701Z" fill="#FFB8B8"/>
<path d="M194.942 212.921H192.146L190.816 202.098H194.943L194.942 212.921Z" fill="#FFB6B6"/>
<path d="M194.868 212.005L191.883 210.786L191.797 210.751L190.149 212.005C189.218 212.005 188.326 212.376 187.668 213.037C187.01 213.697 186.64 214.593 186.64 215.527V215.641H195.654V212.005H194.868Z" fill="#2F2E41"/>
<path d="M214.887 212.921H212.091L210.761 202.098H214.887L214.887 212.921Z" fill="#FFB6B6"/>
<path d="M214.812 212.005L211.827 210.786L211.742 210.751L210.093 212.005C209.163 212.005 208.27 212.376 207.612 213.037C206.954 213.697 206.585 214.593 206.584 215.527V215.641H215.599V212.005H214.812Z" fill="#2F2E41"/>
<path d="M208.288 148.289C208.288 148.289 211.795 151.951 211.795 154.959C211.795 157.968 210.918 162.099 211.795 163.003C212.672 163.907 213.768 165.007 212.453 166.327C211.138 167.646 210.48 168.306 211.357 169.186C212.233 170.066 211.795 185.464 211.795 185.464L216.398 206.141H210.599L203.247 185.464L201.275 168.306L194.896 184.804L195.6 206.319L189.538 206.141L187.029 183.264C187.029 183.264 190.755 161.503 190.097 160.945C189.44 160.387 190.097 159.262 190.097 159.262L191.85 150.929L208.288 148.289Z" fill="#2F2E41"/>
<path d="M201.422 122.328C201.422 122.328 202.615 117.612 197.121 116.26C191.628 114.908 175.925 113.171 175.925 113.171L167.989 104.719L165.3 108.639L174.197 119.734L195.276 124.08L201.422 122.328Z" fill="#3F3D56"/>
<path d="M166.607 108.35C166.854 108.03 167.047 107.671 167.178 107.288L168.316 104.482L168.021 104.469C167.612 104.392 167.192 104.402 166.787 104.5C166.383 104.597 166.003 104.779 165.674 105.034C165.344 105.289 165.072 105.61 164.875 105.978C164.678 106.346 164.561 106.751 164.531 107.167C164.493 107.528 164.558 107.891 164.717 108.216C164.797 108.377 164.915 108.517 165.06 108.624C165.205 108.731 165.373 108.801 165.551 108.83C165.752 108.841 165.954 108.803 166.138 108.72C166.321 108.636 166.483 108.509 166.607 108.35Z" fill="#E6E6E6"/>
<path d="M190.731 152.052L190.074 156.836C190.074 156.836 191.389 158.254 192.046 158.076C192.704 157.899 195.115 156.868 195.115 156.868C195.115 156.868 197.964 158.431 199.498 158.608C201.032 158.785 209.142 157.722 209.361 157.191C209.58 156.659 212.127 154.578 212.127 154.578L211.114 148.509L190.731 152.052Z" fill="#E6E6E6"/>
<path d="M212.085 135.317C212.085 135.317 211.528 139.93 211.967 140.355C212.405 140.777 211.528 143.45 210.652 145.209C209.775 146.969 211.309 147.189 211.309 148.509C211.309 149.829 211.967 154.668 211.967 154.668C211.967 154.668 205.172 155.108 204.077 154.008C202.981 152.908 201.227 153.788 198.817 156.208C196.406 158.628 191.17 156.648 190.074 155.548C188.978 154.448 190.926 150.489 191.584 149.721C192.241 148.953 190.95 149.842 190.293 147.409C189.635 144.976 190.926 145.209 192.022 144.109C193.118 143.01 192.022 141.03 191.146 139.05C190.269 137.07 190.926 122.332 190.926 118.813C190.926 115.293 195.748 114.853 195.748 114.853L197.657 112.445L199.06 110.674L201.808 110.564L201.88 110.562L204.539 110.454L205.83 111.963L208.679 115.293L211.967 115.953C214.597 116.833 213.939 122.332 213.939 122.332L212.085 135.317Z" fill="#3F3D56"/>
<path d="M201.673 109.61C204.784 109.61 207.306 107.078 207.306 103.955C207.306 100.832 204.784 98.3008 201.673 98.3008C198.561 98.3008 196.039 100.832 196.039 103.955C196.039 107.078 198.561 109.61 201.673 109.61Z" fill="#FFB6B6"/>
<path d="M208.205 102.053C206.655 101.099 206.854 98.6054 205.361 97.7345C204.619 97.3052 203.784 97.0621 202.928 97.0261C202.073 96.99 201.221 97.162 200.446 97.5273C199.394 97.0758 198.134 97.4361 197.293 98.2515C196.451 99.0669 195.996 100.27 195.862 101.48C195.765 102.695 195.852 103.918 196.12 105.107C196.203 104.63 196.287 104.152 196.37 103.674L200.812 102.7C200.419 103.054 200.025 103.409 199.632 103.763C201.644 104.223 203.754 103.892 205.53 102.838C207.463 103.708 207.113 105.661 205.416 108.254C206.073 109.354 209.97 103.14 208.205 102.053Z" fill="#2F2E41"/>
<path d="M205.83 111.963C205.817 111.973 205.804 111.983 205.791 111.991C205.326 112.269 204.795 112.414 204.254 112.409C203.547 112.469 202.844 112.248 202.297 111.794C202.01 111.521 200.868 112.097 200.118 112.416C199.332 112.743 198.451 112.753 197.657 112.445L199.06 110.674L201.372 110.159H201.949L204.539 110.454L205.83 111.963Z" fill="#E6E6E6"/>
<path d="M149.758 100.095H149.181V58.6642H171.88V59.2435H149.758V100.095Z" fill="#3F3D56"/>
<path d="M189.533 55H174.239C173.244 55 172.289 55.3967 171.586 56.1028C170.882 56.809 170.487 57.7667 170.487 58.7653C170.487 59.7639 170.882 60.7216 171.586 61.4277C172.289 62.1339 173.244 62.5306 174.239 62.5306H189.533C190.528 62.5306 191.483 62.1339 192.186 61.4277C192.89 60.7216 193.285 59.7639 193.285 58.7653C193.285 57.7667 192.89 56.809 192.186 56.1028C191.483 55.3967 190.528 55 189.533 55Z" fill="#17B8A6"/>
<path d="M149.135 103.885C151.039 103.885 152.582 102.336 152.582 100.425C152.582 98.5142 151.039 96.9651 149.135 96.9651C147.231 96.9651 145.687 98.5142 145.687 100.425C145.687 102.336 147.231 103.885 149.135 103.885Z" fill="#17B8A6"/>
<path d="M107.593 113.426L122.717 109.914L127.058 108.906C127.601 108.779 127.375 107.94 126.832 108.067L111.708 111.579L107.367 112.587C106.824 112.713 107.05 113.552 107.593 113.426Z" fill="#F2F2F2"/>
<path d="M123.21 104.279L131.306 108.017C131.583 108.113 131.841 108.253 132.072 108.433C132.296 108.653 132.133 108.864 131.951 109.055C131.406 109.566 130.83 110.043 130.228 110.483L126.778 113.297C126.345 113.651 126.956 114.267 127.385 113.917L130.389 111.466L131.891 110.24C132.317 109.893 132.835 109.539 133.006 108.985C133.365 107.823 131.947 107.361 131.159 106.997L127.634 105.37L123.651 103.531C123.149 103.299 122.704 104.045 123.21 104.279Z" fill="#F2F2F2"/>
<path d="M234.936 132.734C233.493 131.752 231.741 131.388 230.028 131.264C228.082 131.158 226.131 131.16 224.184 131.271C222.162 131.351 220.144 131.498 218.131 131.711C216.12 131.925 214.117 132.205 212.123 132.551C210.338 132.83 208.571 133.218 206.833 133.713C205.188 134.17 203.638 134.921 202.259 135.93C201.048 136.844 200.116 138.081 199.57 139.5C199.035 140.831 198.944 142.3 199.311 143.687C199.507 144.361 199.842 144.986 200.294 145.521C200.817 146.108 201.437 146.6 202.126 146.976C203.557 147.796 205.178 148.289 206.472 149.339C206.814 149.614 207.125 149.924 207.4 150.265C207.587 150.529 207.846 150.733 208.146 150.854C208.429 150.953 208.736 150.966 209.027 150.891C209.318 150.816 209.581 150.656 209.781 150.431C210.041 150.075 210.257 149.689 210.425 149.282L211.108 147.96C211.154 147.845 211.211 147.734 211.279 147.63C211.33 147.568 211.238 147.631 211.256 147.615C211.265 147.606 211.285 147.606 211.296 147.599C211.352 147.571 211.411 147.548 211.472 147.531C212.104 147.29 212.738 147.056 213.375 146.829C215.727 145.988 218.107 145.213 220.525 144.585C221.769 144.25 223.031 143.985 224.304 143.791C225.953 143.555 227.628 143.583 229.285 143.421C231.069 143.248 232.91 142.885 234.439 141.9C235.704 141.128 236.679 139.957 237.21 138.571C237.441 137.91 237.52 137.206 237.442 136.51C237.243 134.936 236.218 133.606 234.936 132.734Z" fill="#E6E6E6"/>
<path d="M231.984 133.618C230.68 132.731 229.097 132.402 227.549 132.29C225.79 132.194 224.027 132.196 222.268 132.296C220.441 132.369 218.617 132.502 216.797 132.694C214.98 132.887 213.171 133.14 211.369 133.453C209.755 133.705 208.159 134.056 206.588 134.503C205.102 134.916 203.701 135.595 202.454 136.507C201.36 137.333 200.518 138.451 200.025 139.733C199.541 140.935 199.459 142.263 199.791 143.516C199.967 144.125 200.27 144.69 200.679 145.173C201.152 145.704 201.712 146.149 202.335 146.489C203.628 147.23 205.093 147.675 206.262 148.624C206.571 148.872 206.852 149.153 207.101 149.461C207.27 149.699 207.504 149.884 207.774 149.993C208.031 150.083 208.308 150.094 208.571 150.026C208.834 149.958 209.071 149.814 209.253 149.611C209.487 149.289 209.682 148.94 209.834 148.572L210.451 147.378C210.492 147.273 210.544 147.173 210.605 147.079C210.652 147.024 210.569 147.08 210.585 147.066C210.593 147.058 210.611 147.058 210.621 147.052C210.672 147.026 210.726 147.006 210.781 146.99C211.351 146.772 211.924 146.561 212.5 146.356C214.625 145.596 216.776 144.895 218.961 144.327C220.085 144.025 221.225 143.785 222.376 143.61C223.867 143.397 225.38 143.422 226.877 143.276C228.489 143.119 230.153 142.792 231.535 141.901C232.679 141.204 233.559 140.146 234.039 138.893C234.248 138.296 234.319 137.659 234.248 137.031C234.069 135.608 233.143 134.407 231.984 133.618Z" fill="white"/>
<path d="M229.254 135.22L208.014 139.152C207.953 139.163 207.891 139.163 207.83 139.15C207.77 139.138 207.712 139.113 207.661 139.078C207.61 139.043 207.566 138.998 207.532 138.946C207.499 138.894 207.475 138.836 207.464 138.775C207.453 138.714 207.453 138.652 207.466 138.591C207.479 138.53 207.503 138.473 207.538 138.421C207.573 138.37 207.618 138.327 207.67 138.293C207.722 138.259 207.78 138.236 207.841 138.225L207.843 138.224L229.083 134.292C229.144 134.281 229.206 134.282 229.267 134.295C229.327 134.308 229.384 134.332 229.435 134.368C229.486 134.403 229.529 134.448 229.563 134.5C229.597 134.552 229.62 134.61 229.631 134.671C229.642 134.731 229.641 134.794 229.628 134.855C229.615 134.915 229.591 134.973 229.556 135.024C229.521 135.075 229.476 135.118 229.424 135.152C229.372 135.186 229.315 135.209 229.254 135.22Z" fill="#E6E6E6"/>
<path d="M229.777 138.067L208.537 141.999C208.476 142.01 208.414 142.01 208.353 141.997C208.293 141.984 208.235 141.96 208.184 141.925C208.133 141.89 208.09 141.845 208.056 141.793C208.022 141.741 207.999 141.683 207.987 141.622C207.976 141.561 207.976 141.499 207.989 141.438C208.002 141.377 208.027 141.32 208.062 141.268C208.097 141.217 208.141 141.173 208.193 141.14C208.245 141.106 208.303 141.083 208.364 141.071L208.367 141.071L229.607 137.139C229.667 137.128 229.73 137.129 229.79 137.142C229.85 137.155 229.907 137.179 229.958 137.215C230.009 137.25 230.053 137.294 230.086 137.346C230.12 137.398 230.143 137.457 230.154 137.517C230.165 137.578 230.164 137.641 230.151 137.701C230.138 137.762 230.114 137.819 230.079 137.87C230.044 137.921 229.999 137.965 229.947 137.999C229.896 138.032 229.838 138.056 229.777 138.067Z" fill="#E6E6E6"/>
<path d="M211.535 144.387L209.06 144.846C208.938 144.868 208.812 144.84 208.709 144.769C208.607 144.698 208.537 144.59 208.515 144.467C208.492 144.344 208.519 144.218 208.589 144.115C208.659 144.012 208.768 143.941 208.89 143.918L211.365 143.46C211.487 143.437 211.614 143.465 211.716 143.536C211.818 143.607 211.889 143.715 211.911 143.838C211.934 143.961 211.907 144.088 211.836 144.191C211.766 144.294 211.658 144.364 211.535 144.387Z" fill="#E6E6E6"/>
<path d="M209.742 156.223C210.827 156.022 211.544 154.977 211.344 153.888C211.144 152.799 210.103 152.08 209.018 152.28C207.933 152.481 207.216 153.527 207.416 154.615C207.616 155.704 208.657 156.424 209.742 156.223Z" fill="#D1D3D4"/>
<path d="M99.8213 112.528H81.6792C80.837 112.527 80.0295 112.191 79.434 111.594C78.8385 110.996 78.5035 110.185 78.5025 109.34V97.3397C78.5035 96.4945 78.8385 95.6841 79.434 95.0864C80.0295 94.4887 80.837 94.1525 81.6792 94.1515H99.8213C100.663 94.1525 101.471 94.4887 102.066 95.0864C102.662 95.6841 102.997 96.4945 102.998 97.3397V109.34C102.997 110.185 102.662 110.996 102.066 111.594C101.471 112.191 100.663 112.527 99.8213 112.528Z" fill="#E6E6E6"/>
<path d="M97.8276 111.882H82.0383C81.3053 111.881 80.6026 111.588 80.0843 111.068C79.566 110.548 79.2744 109.843 79.2736 109.107V98.663C79.2744 97.9273 79.566 97.222 80.0843 96.7019C80.6026 96.1817 81.3053 95.889 82.0383 95.8882H97.8276C98.5606 95.889 99.2633 96.1817 99.7816 96.7019C100.3 97.222 100.591 97.9273 100.592 98.663V109.107C100.591 109.843 100.3 110.548 99.7816 111.068C99.2633 111.588 98.5606 111.881 97.8276 111.882Z" fill="white"/>
<path d="M102.377 123.34H79.0979C78.954 123.34 78.8162 123.282 78.7146 123.18C78.613 123.078 78.556 122.939 78.556 122.795C78.556 122.651 78.613 122.512 78.7146 122.41C78.8162 122.308 78.954 122.25 79.0979 122.25H102.377C102.52 122.25 102.658 122.308 102.76 122.41C102.861 122.512 102.919 122.651 102.919 122.795C102.919 122.939 102.861 123.078 102.76 123.18C102.658 123.282 102.52 123.34 102.377 123.34Z" fill="#E6E6E6"/>
<path d="M102.377 120.225H79.0979C78.954 120.224 78.8162 120.167 78.7146 120.065C78.613 119.963 78.556 119.824 78.556 119.68C78.556 119.535 78.613 119.397 78.7146 119.295C78.8162 119.192 78.954 119.135 79.0979 119.135H102.377C102.52 119.135 102.658 119.192 102.76 119.295C102.861 119.397 102.919 119.535 102.919 119.68C102.919 119.824 102.861 119.963 102.76 120.065C102.658 120.167 102.52 120.224 102.377 120.225Z" fill="#E6E6E6"/>
<path d="M102.377 126.455H79.0979C78.9539 126.455 78.8157 126.398 78.7138 126.296C78.612 126.193 78.5547 126.055 78.5547 125.91C78.5547 125.765 78.612 125.627 78.7138 125.525C78.8157 125.422 78.9539 125.365 79.0979 125.365H102.377C102.521 125.365 102.659 125.422 102.761 125.525C102.863 125.627 102.92 125.765 102.92 125.91C102.92 126.055 102.863 126.193 102.761 126.296C102.659 126.398 102.521 126.455 102.377 126.455Z" fill="#E6E6E6"/>
<path d="M102.377 129.57H79.0979C78.9539 129.57 78.8157 129.513 78.7138 129.411C78.612 129.309 78.5547 129.17 78.5547 129.025C78.5547 128.881 78.612 128.742 78.7138 128.64C78.8157 128.538 78.9539 128.48 79.0979 128.48H102.377C102.521 128.48 102.659 128.538 102.761 128.64C102.863 128.742 102.92 128.881 102.92 129.025C102.92 129.17 102.863 129.309 102.761 129.411C102.659 129.513 102.521 129.57 102.377 129.57Z" fill="#E6E6E6"/>
<path d="M102.377 132.686H79.0979C78.9539 132.686 78.8157 132.628 78.7138 132.526C78.612 132.424 78.5547 132.285 78.5547 132.14C78.5547 131.996 78.612 131.857 78.7138 131.755C78.8157 131.653 78.9539 131.595 79.0979 131.595H102.377C102.521 131.595 102.659 131.653 102.761 131.755C102.863 131.857 102.92 131.996 102.92 132.14C102.92 132.285 102.863 132.424 102.761 132.526C102.659 132.628 102.521 132.686 102.377 132.686Z" fill="#E6E6E6"/>
<path d="M102.377 135.801H79.0979C78.954 135.8 78.8162 135.743 78.7146 135.641C78.613 135.538 78.556 135.4 78.556 135.256C78.556 135.111 78.613 134.973 78.7146 134.871C78.8162 134.768 78.954 134.711 79.0979 134.71H102.377C102.52 134.711 102.658 134.768 102.76 134.871C102.861 134.973 102.919 135.111 102.919 135.256C102.919 135.4 102.861 135.538 102.76 135.641C102.658 135.743 102.52 135.8 102.377 135.801Z" fill="#E6E6E6"/>
<path d="M89.5734 128.656H90.1506V150.971H48.405V150.392H89.5734V128.656Z" fill="#3F3D56"/>
<path d="M30.7516 154.635H46.0465C47.0414 154.635 47.9957 154.238 48.6992 153.532C49.4028 152.826 49.798 151.869 49.798 150.87C49.798 149.871 49.4028 148.914 48.6992 148.207C47.9957 147.501 47.0414 147.105 46.0465 147.105H30.7516C29.7566 147.105 28.8024 147.501 28.0988 148.207C27.3953 148.914 27 149.871 27 150.87C27 151.869 27.3953 152.826 28.0988 153.532C28.8024 154.238 29.7566 154.635 30.7516 154.635Z" fill="#17B8A6"/>
<path d="M90.2639 130.338C92.1678 130.338 93.7113 128.789 93.7113 126.878C93.7113 124.967 92.1678 123.418 90.2639 123.418C88.36 123.418 86.8165 124.967 86.8165 126.878C86.8165 128.789 88.36 130.338 90.2639 130.338Z" fill="#17B8A6"/>
<path d="M108.082 127.839C113.144 128.919 111.856 129.13 116.918 130.209L121.276 131.139C121.821 131.255 121.97 130.399 121.425 130.283C116.364 129.203 117.651 128.993 112.59 127.913L108.231 126.983C107.686 126.867 107.537 127.723 108.082 127.839Z" fill="#F2F2F2"/>
<path d="M119.74 125.313L125.5 132.138C125.71 132.342 125.886 132.579 126.019 132.84C126.129 133.134 125.893 133.256 125.647 133.352C124.938 133.584 124.215 133.771 123.483 133.914L119.172 135C118.63 135.136 118.924 135.954 119.46 135.819L123.216 134.874L125.093 134.401C125.625 134.267 126.244 134.166 126.632 133.737C127.448 132.837 126.358 131.816 125.797 131.152L123.289 128.18L120.455 124.822C120.098 124.399 119.38 124.887 119.74 125.313Z" fill="#F2F2F2"/>
<path d="M138.004 155.062C142.432 155.062 146.021 151.46 146.021 147.016C146.021 142.572 142.432 138.97 138.004 138.97C133.577 138.97 129.987 142.572 129.987 147.016C129.987 151.46 133.577 155.062 138.004 155.062Z" fill="#E6E6E6"/>
<path d="M137.223 154.036C140.589 154.036 143.317 151.298 143.317 147.92C143.317 144.541 140.589 141.803 137.223 141.803C133.857 141.803 131.128 144.541 131.128 147.92C131.128 151.298 133.857 154.036 137.223 154.036Z" fill="white"/>
<path d="M136.129 152.107C135.991 152.107 135.854 152.075 135.73 152.013C135.607 151.951 135.499 151.86 135.416 151.749L133.229 148.822C133.158 148.728 133.107 148.621 133.078 148.508C133.049 148.394 133.043 148.275 133.059 148.159C133.076 148.043 133.115 147.931 133.174 147.829C133.234 147.728 133.313 147.64 133.406 147.569C133.5 147.499 133.607 147.447 133.72 147.418C133.834 147.389 133.952 147.382 134.068 147.399C134.183 147.416 134.295 147.455 134.396 147.515C134.497 147.575 134.585 147.654 134.655 147.748L134.656 147.748L136.086 149.663L139.761 144.13C139.826 144.033 139.91 143.948 140.007 143.883C140.104 143.817 140.214 143.772 140.329 143.748C140.444 143.725 140.562 143.725 140.677 143.748C140.792 143.771 140.901 143.816 140.999 143.881C141.096 143.947 141.18 144.03 141.245 144.128C141.31 144.226 141.356 144.336 141.379 144.451C141.402 144.566 141.402 144.685 141.379 144.801C141.356 144.916 141.311 145.026 141.245 145.123L136.871 151.709C136.792 151.828 136.686 151.926 136.561 151.995C136.436 152.065 136.297 152.103 136.154 152.107C136.146 152.107 136.137 152.107 136.129 152.107Z" fill="#E6E6E6"/>
<path d="M212.862 155.305C213.12 155.153 213.342 154.945 213.511 154.698C213.681 154.45 213.795 154.168 213.844 153.872C213.893 153.575 213.877 153.272 213.797 152.982C213.717 152.692 213.574 152.424 213.38 152.196L219.817 140.906L216.04 141.112L210.367 152.052C210.006 152.406 209.788 152.88 209.752 153.385C209.717 153.89 209.867 154.39 210.175 154.791C210.483 155.192 210.926 155.466 211.421 155.56C211.916 155.655 212.429 155.564 212.862 155.305Z" fill="#FFB8B8"/>
<path d="M205.612 115.733C205.612 115.733 212.429 113.533 214.183 118.813C215.936 124.092 221.83 138.39 221.83 138.39L215.498 151.369L212.648 148.289L215.693 139.27L206.927 126.072L205.612 115.733Z" fill="#3F3D56"/>
<path d="M215.715 150.043C215.51 149.695 215.249 149.382 214.944 149.117L212.769 147.016L212.648 147.287C212.425 147.639 212.278 148.035 212.219 148.448C212.159 148.861 212.186 149.283 212.3 149.684C212.413 150.086 212.61 150.459 212.878 150.779C213.145 151.099 213.476 151.358 213.851 151.541C214.17 151.709 214.53 151.784 214.89 151.756C215.069 151.741 215.242 151.683 215.395 151.587C215.547 151.491 215.675 151.361 215.768 151.206C215.852 151.022 215.892 150.821 215.883 150.618C215.873 150.416 215.816 150.219 215.715 150.043Z" fill="#E6E6E6"/>
<path d="M137.935 157.841H137.358V180.155H156.882V179.576H137.935V157.841Z" fill="#3F3D56"/>
<path d="M178.287 180.054C178.286 179.056 177.891 178.099 177.187 177.393C176.484 176.687 175.53 176.29 174.536 176.289H159.241C158.246 176.289 157.292 176.686 156.588 177.392C155.884 178.098 155.489 179.056 155.489 180.054C155.489 181.053 155.884 182.011 156.588 182.717C157.292 183.423 158.246 183.82 159.241 183.82H174.536C175.53 183.819 176.484 183.422 177.187 182.716C177.891 182.01 178.286 181.053 178.287 180.054Z" fill="#17B8A6"/>
<path d="M137.244 159.522C139.148 159.522 140.692 157.973 140.692 156.062C140.692 154.151 139.148 152.602 137.244 152.602C135.34 152.602 133.797 154.151 133.797 156.062C133.797 157.973 135.34 159.522 137.244 159.522Z" fill="#17B8A6"/>
</svg>
