<svg width="454" height="430" viewBox="0 0 454 430" fill="none" xmlns="http://www.w3.org/2000/svg">
<path fill-rule="evenodd" clip-rule="evenodd" d="M231.408 0.0460574C321.853 2.09023 377.687 87.0398 405.498 173.127C433.121 258.631 439.883 363.904 364.997 413.563C295.196 459.85 215.996 393.384 148.859 343.311C85.6833 296.192 12.86 241.298 31.2875 164.67C53.6159 71.8206 135.936 -2.11172 231.408 0.0460574Z" fill="#8ACAC3"/>
<g clip-path="url(#clip0_61_2092)">
<path d="M69.9781 316.735C73.6957 330.477 86.4291 338.988 86.4291 338.988C86.4291 338.988 93.1353 325.219 89.4177 311.476C85.7002 297.734 72.9667 289.223 72.9667 289.223C72.9667 289.223 66.2606 302.993 69.9781 316.735Z" fill="#3F3D56"/>
<path d="M75.4434 313.782C85.6444 323.712 86.8904 338.977 86.8904 338.977C86.8904 338.977 71.5973 338.142 61.3962 328.212C51.1952 318.282 49.9492 303.016 49.9492 303.016C49.9492 303.016 65.2424 303.851 75.4434 313.782Z" fill="#17B8A6"/>
<path d="M408.463 352.059H49.2539V353.167H408.463V352.059Z" fill="#2F2E41"/>
<path d="M91.4674 352.613H77.0547V338.2H91.4674V352.613ZM78.1634 351.504H90.3587V339.309H78.1634V351.504Z" fill="#3F3D56"/>
<path d="M122.146 86.9906H0V209.136H122.146V86.9906Z" fill="#3F3D56"/>
<path d="M122.146 117.38V120.183C120.284 118.95 118.781 117.247 117.79 115.246C116.163 111.92 116.215 108.086 116.266 104.378C116.325 99.9704 116.384 95.813 113.588 93.1052C110.512 90.1325 105.59 90.5519 100.829 90.9566C100.27 91.0008 99.7105 91.0523 99.1586 91.0964C94.3832 91.457 89.0632 90.2502 86.4805 86.9906H89.7033C92.0653 88.5799 95.6782 89.1391 98.9967 88.8889C99.5339 88.8522 100.086 88.8006 100.638 88.7565C105.649 88.3298 111.329 87.8441 115.119 91.5158C118.606 94.8859 118.54 99.7276 118.474 104.407C118.422 107.858 118.378 111.42 119.776 114.275C120.356 115.454 121.161 116.509 122.146 117.38Z" fill="#17B8A6"/>
<path d="M122.145 136.769V140.05C121.609 139.35 121.008 138.702 120.35 138.115C116.553 134.767 111.101 134.031 105.832 133.31C105.148 133.222 104.478 133.126 103.809 133.031C95.2658 131.802 89.968 128.866 87.6207 124.076C85.9945 120.75 86.046 116.916 86.0976 113.208C86.1564 108.8 86.2153 104.643 83.4192 101.935C80.3435 98.9623 75.4208 99.3817 70.6601 99.7864C70.1009 99.8306 69.5416 99.8821 68.9898 99.9262C62.853 100.39 55.8112 98.2633 54.8473 92.5165C54.5162 90.5445 55.0092 88.7344 55.7377 86.9905H58.1512C57.3418 88.7418 56.7384 90.4342 57.0254 92.1486C57.7538 96.5341 63.6551 98.1088 68.8279 97.7187C69.3651 97.682 69.9169 97.6304 70.4688 97.5863C75.4797 97.1596 81.1602 96.6739 84.9497 100.346C88.4375 103.716 88.3712 108.557 88.305 113.237C88.2535 116.688 88.2094 120.25 89.6074 123.104C91.6088 127.196 96.3549 129.727 104.125 130.845C104.787 130.941 105.457 131.037 106.127 131.125C111.719 131.883 117.51 132.67 121.814 136.46C121.925 136.555 122.035 136.658 122.145 136.769Z" fill="#17B8A6"/>
<path d="M122.147 192.087V196.62C119.491 193.795 117.269 189.917 115.569 185.068C115.208 184.038 114.862 182.985 114.517 181.933C112.611 176.172 110.639 170.219 105.944 166.415C100.926 162.353 93.7371 161.455 86.7837 160.587C85.8933 160.477 85.003 160.366 84.12 160.249C72.8472 158.755 65.8643 155.201 62.7665 149.388C60.6179 145.348 60.6841 140.698 60.7504 136.202C60.8313 130.86 60.9123 125.812 57.2185 122.531C53.1641 118.925 46.6668 119.433 40.3903 119.926C39.6471 119.985 38.9113 120.044 38.1902 120.095C30.0888 120.654 20.7954 118.079 19.5298 111.111C18.9044 107.697 20.5011 104.672 22.039 101.744C22.922 100.066 23.7608 98.4693 24.1875 96.8285C25.0853 93.451 23.9742 89.6469 21.5092 86.9906H25.1147C26.1551 88.5016 26.863 90.2163 27.1916 92.0213C27.5201 93.8263 27.4618 95.6805 27.0204 97.4612C26.5128 99.3817 25.5709 101.177 24.6585 102.914C23.253 105.577 21.9359 108.094 22.3995 110.669C23.3708 115.982 31.1484 117.895 37.9694 117.424C38.6832 117.372 39.4116 117.314 40.1401 117.262C46.7478 116.74 54.2384 116.158 59.2419 120.61C63.8408 124.694 63.7525 130.566 63.6642 136.239C63.6053 140.426 63.5391 144.745 65.3786 148.211C68.0203 153.163 74.2894 156.238 84.5394 157.6C85.4077 157.717 86.2906 157.828 87.1736 157.938C94.5612 158.858 102.192 159.807 107.865 164.406C113.185 168.718 115.282 175.039 117.298 181.153C117.644 182.198 117.99 183.228 118.343 184.251C119.278 187.012 120.556 189.645 122.147 192.087Z" fill="#17B8A6"/>
<path d="M0 136.312C3.35533 140.374 10.4707 141.875 16.8502 141.434C17.5713 141.382 18.3072 141.323 19.0503 141.265C25.3269 140.772 31.8242 140.264 35.8785 143.869C39.5723 147.151 39.4914 152.199 39.4104 157.541C39.3442 162.037 39.278 166.687 41.4266 170.727C44.5244 176.54 51.5073 180.094 62.78 181.587C63.663 181.705 64.5534 181.816 65.4437 181.926C72.3972 182.794 79.5861 183.692 84.6044 187.754C89.2989 191.558 91.2709 197.511 93.1767 203.272C93.5225 204.324 93.8684 205.376 94.2289 206.407C94.56 207.356 94.9132 208.261 95.2811 209.136H98.4304C97.8786 207.937 97.4077 206.738 97.003 205.59C96.6498 204.567 96.3039 203.537 95.9581 202.492C93.9419 196.377 91.8449 190.057 86.5249 185.745C80.8517 181.146 73.2213 180.197 65.8337 179.277C64.9507 179.167 64.0677 179.056 63.1995 178.938C52.9495 177.577 46.6803 174.502 44.0387 169.549C42.1992 166.084 42.2654 161.764 42.3243 157.578C42.4126 151.905 42.5009 146.033 37.902 141.949C32.8985 137.497 25.4078 138.078 18.8002 138.601C18.0717 138.652 17.3433 138.711 16.6295 138.763C9.80848 139.234 2.03088 137.321 1.05959 132.008C0.596046 129.433 1.91315 126.916 3.31856 124.252C4.23097 122.516 5.17282 120.721 5.68054 118.8C7.06388 113.546 4.73133 107.726 1.65571e-05 104.547V108.153C2.58274 110.816 3.76006 114.709 2.84764 118.167C2.42086 119.808 1.58203 121.405 0.699044 123.083C0.463585 123.531 0.228115 123.973 1.65571e-05 124.429L0 136.312Z" fill="#17B8A6"/>
<path d="M54.0311 209.136H50.9775C50.8156 208.658 50.6611 208.173 50.4992 207.687C48.5934 201.925 46.6214 195.973 41.9269 192.168C36.9086 188.107 29.7197 187.209 22.7662 186.341C21.8759 186.23 20.9855 186.12 20.1025 186.002C10.1543 184.685 3.53929 181.757 0 177.092V169.77C0.227467 171.232 0.687008 172.648 1.36125 173.964C4.00286 178.916 10.272 181.992 20.522 183.353C21.3902 183.471 22.2732 183.581 23.1562 183.692C30.5438 184.612 38.1743 185.561 43.8474 190.16C49.1674 194.472 51.2645 200.792 53.2806 206.907C53.5308 207.657 53.7736 208.401 54.0311 209.136Z" fill="#17B8A6"/>
<path d="M287.704 86.9906H165.559V209.136H287.704V86.9906Z" fill="#3F3D56"/>
<path d="M224.424 95.8204C224.424 102.702 222.602 109.461 219.145 115.411C215.688 121.361 210.718 126.291 204.74 129.699C198.761 133.107 191.988 134.873 185.106 134.817C178.225 134.762 171.481 132.886 165.559 129.381V86.9905H223.416C224.089 89.8854 224.428 92.8482 224.424 95.8204Z" fill="#17B8A6"/>
<path d="M256.066 143.649C269.07 143.649 279.612 133.107 279.612 120.102C279.612 107.098 269.07 96.5562 256.066 96.5562C243.062 96.5562 232.52 107.098 232.52 120.102C232.52 133.107 243.062 143.649 256.066 143.649Z" fill="#17B8A6"/>
<path d="M203.088 187.062C212.435 187.062 220.012 179.485 220.012 170.138C220.012 160.791 212.435 153.214 203.088 153.214C193.741 153.214 186.164 160.791 186.164 170.138C186.164 179.485 193.741 187.062 203.088 187.062Z" fill="#17B8A6"/>
<path d="M287.706 189.122V209.136H263.49C262.462 205.917 262.421 202.463 263.373 199.221C264.324 195.978 266.225 193.094 268.83 190.941C271.435 188.788 274.625 187.464 277.989 187.14C281.353 186.816 284.737 187.506 287.706 189.122Z" fill="#17B8A6"/>
<path d="M245.763 173.817C248.201 173.817 250.177 171.841 250.177 169.402C250.177 166.964 248.201 164.987 245.763 164.987C243.324 164.987 241.348 166.964 241.348 169.402C241.348 171.841 243.324 173.817 245.763 173.817Z" fill="#17B8A6"/>
<path d="M454.001 86.9906H331.855V209.136H454.001V86.9906Z" fill="#3F3D56"/>
<path d="M391.457 86.9905V137.026H331.855V139.969H394.4V86.9905H391.457Z" fill="#17B8A6"/>
<path d="M448.947 209.136L454.002 201.947V196.834L445.349 209.136H448.947ZM428.418 156.467L401.332 194.987L421.457 209.136H426.571L405.431 194.273L429.131 160.565L454.002 178.055V174.457L428.418 156.467Z" fill="#17B8A6"/>
<path d="M383.361 151.588L367.754 167.195L383.361 182.801L398.967 167.195L383.361 151.588ZM371.911 167.195L383.361 155.745L394.81 167.195L383.361 178.644L371.911 167.195Z" fill="#17B8A6"/>
<path d="M59.8679 98.1734C65.991 98.1734 70.9546 93.2097 70.9546 87.0867C70.9546 80.9637 65.991 76 59.8679 76C53.7449 76 48.7812 80.9637 48.7812 87.0867C48.7812 93.2097 53.7449 98.1734 59.8679 98.1734Z" fill="#F2F2F2"/>
<path d="M231.157 98.1734C237.28 98.1734 242.244 93.2097 242.244 87.0867C242.244 80.9637 237.28 76 231.157 76C225.034 76 220.07 80.9637 220.07 87.0867C220.07 93.2097 225.034 98.1734 231.157 98.1734Z" fill="#F2F2F2"/>
<path d="M394.684 98.1734C400.807 98.1734 405.771 93.2097 405.771 87.0867C405.771 80.9637 400.807 76 394.684 76C388.561 76 383.598 80.9637 383.598 87.0867C383.598 93.2097 388.561 98.1734 394.684 98.1734Z" fill="#F2F2F2"/>
<path d="M219.794 151.667C225.611 151.667 230.326 146.951 230.326 141.134C230.326 135.317 225.611 130.602 219.794 130.602C213.977 130.602 209.262 135.317 209.262 141.134C209.262 146.951 213.977 151.667 219.794 151.667Z" fill="#FFB8B8"/>
<path d="M214.25 146.123C214.25 146.123 217.022 160.536 215.913 163.308C214.804 166.079 231.434 162.199 231.434 162.199C231.434 162.199 228.108 147.786 228.663 144.46C229.217 141.134 214.25 146.123 214.25 146.123Z" fill="#FFB8B8"/>
<path d="M195.957 196.014L197.066 210.98L202.568 234.486L204.272 240.914L207.044 230.936L204.272 208.209L203.33 197.976L195.957 196.014Z" fill="#FFB8B8"/>
<path d="M254.162 193.796V209.317C254.162 209.317 252.499 229.273 249.173 234.263C245.847 239.252 244.738 214.306 244.738 214.306L247.345 196.013L254.162 193.796Z" fill="#FFB8B8"/>
<path d="M204.824 242.023C204.824 242.023 202.053 245.349 204.27 279.164C206.487 312.978 203.161 337.369 210.368 337.369C210.368 337.369 208.15 344.575 214.248 345.129C220.346 345.684 223.117 346.238 223.672 344.575C224.226 342.912 225.335 335.151 223.672 335.151C223.672 335.151 223.672 337.369 224.78 328.499C225.889 319.63 225.889 277.501 228.661 271.957L237.53 292.468C237.53 292.468 237.53 301.891 239.193 306.326C240.856 310.761 243.628 336.26 243.628 336.26L243.073 340.14C243.073 340.14 256.377 342.358 256.932 340.14C257.486 337.923 257.486 334.597 256.932 333.488C256.377 332.38 256.377 332.38 257.486 330.162C258.595 327.945 258.595 326.282 258.04 324.619C257.486 322.956 257.486 286.924 257.486 286.924C257.486 286.924 256.377 243.132 249.725 240.914C243.073 238.697 204.824 242.023 204.824 242.023Z" fill="#2F2E41"/>
<path d="M212.032 340.695L207.598 348.455C207.598 348.455 200.669 345.961 202.054 352.336C213.973 353.167 222.288 352.059 222.288 352.059C222.288 352.059 225.059 353.167 225.614 351.504C226.168 349.841 224.228 344.021 222.565 344.021C220.902 344.021 212.032 340.695 212.032 340.695Z" fill="#2F2E41"/>
<path d="M244.184 338.477C244.184 338.477 239.749 348.455 241.412 349.01C243.075 349.564 258.042 351.781 259.151 352.336C260.26 352.89 265.803 353.444 266.357 350.118C266.912 346.792 263.586 345.684 263.586 345.684C263.586 345.684 257.488 344.575 255.825 339.032C254.162 333.488 244.184 338.477 244.184 338.477Z" fill="#2F2E41"/>
<path d="M232.544 160.536C232.544 160.536 217.577 157.764 214.251 160.536C210.925 163.308 197.066 168.851 197.066 171.623C197.066 174.394 204.273 201.557 204.273 201.557C204.273 201.557 200.392 242.578 204.273 243.686C208.153 244.795 214.805 241.469 222.566 245.349C230.326 249.23 252.5 242.023 252.5 242.023C252.5 242.023 244.185 206.546 246.402 199.894C248.619 193.242 250.282 170.514 250.282 170.514C250.282 170.514 240.859 160.536 232.544 160.536Z" fill="#8985A8"/>
<path d="M200.948 169.96L197.067 171.068C197.067 171.068 188.752 197.122 192.078 198.231C195.404 199.339 204.828 201.557 205.937 201.557C207.045 201.557 200.948 169.96 200.948 169.96Z" fill="#8985A8"/>
<path d="M241.414 167.188L250.283 170.514C250.283 170.514 261.924 192.133 259.153 194.905C256.381 197.676 244.186 200.448 244.186 200.448L241.414 167.188Z" fill="#8985A8"/>
<path d="M219.473 128.125C218.597 127.967 217.697 128.006 216.838 128.242C216.151 128.546 215.519 128.961 214.966 129.47C213.963 130.269 212.892 130.979 211.764 131.591C210.866 132.079 209.901 132.53 209.274 133.337C208.977 133.745 208.74 134.193 208.57 134.668C207.49 137.427 207.2 140.432 207.732 143.347C207.792 143.761 207.916 144.163 208.101 144.538C208.677 145.6 209.95 146.018 211.022 146.575C213.057 147.631 214.6 149.41 216.269 150.982C216.889 151.601 217.586 152.138 218.342 152.58C220.724 153.878 223.634 153.455 226.308 152.996C226.497 152.995 226.685 152.958 226.859 152.884C227.034 152.811 227.193 152.704 227.326 152.569C227.459 152.435 227.564 152.275 227.635 152.099C227.706 151.924 227.742 151.736 227.74 151.547L229.85 142.056C230.233 140.65 230.415 139.197 230.391 137.74C230.244 135.436 228.997 132.245 227.306 130.608C225.336 128.701 222.048 128.398 219.473 128.125Z" fill="#2F2E41"/>
<path d="M148.14 344.254C150.556 344.254 152.515 342.295 152.515 339.879C152.515 337.464 150.556 335.505 148.14 335.505C145.724 335.505 143.766 337.464 143.766 339.879C143.766 342.295 145.724 344.254 148.14 344.254Z" fill="#17B8A6"/>
<path d="M148.141 352.517C145.642 352.517 143.199 351.776 141.12 350.387C139.042 348.998 137.422 347.025 136.466 344.716C135.509 342.406 135.259 339.865 135.747 337.414C136.234 334.963 137.438 332.711 139.205 330.944C140.973 329.176 143.224 327.973 145.676 327.485C148.127 326.997 150.668 327.248 152.977 328.204C155.287 329.161 157.26 330.78 158.649 332.859C160.037 334.937 160.779 337.38 160.779 339.879C160.775 343.23 159.442 346.442 157.073 348.811C154.704 351.18 151.492 352.513 148.141 352.517ZM148.141 328.214C145.834 328.214 143.579 328.898 141.66 330.18C139.742 331.462 138.247 333.284 137.364 335.415C136.481 337.547 136.25 339.892 136.7 342.155C137.15 344.418 138.261 346.497 139.893 348.128C141.524 349.759 143.603 350.87 145.865 351.321C148.128 351.771 150.474 351.54 152.605 350.657C154.737 349.774 156.559 348.279 157.841 346.36C159.122 344.442 159.806 342.187 159.806 339.879C159.803 336.787 158.573 333.822 156.386 331.635C154.199 329.448 151.234 328.218 148.141 328.214Z" fill="#2F2E41"/>
<path d="M361.003 344.808C363.419 344.808 365.378 342.85 365.378 340.434C365.378 338.018 363.419 336.059 361.003 336.059C358.587 336.059 356.629 338.018 356.629 340.434C356.629 342.85 358.587 344.808 361.003 344.808Z" fill="#17B8A6"/>
<path d="M361.005 353.071C358.505 353.071 356.062 352.33 353.984 350.941C351.905 349.553 350.286 347.579 349.329 345.27C348.373 342.961 348.122 340.42 348.61 337.968C349.098 335.517 350.301 333.265 352.069 331.498C353.836 329.73 356.088 328.527 358.539 328.039C360.991 327.552 363.531 327.802 365.841 328.758C368.15 329.715 370.124 331.335 371.512 333.413C372.901 335.491 373.642 337.934 373.642 340.434C373.638 343.784 372.306 346.996 369.936 349.366C367.567 351.735 364.355 353.067 361.005 353.071ZM361.005 328.769C358.697 328.769 356.442 329.453 354.524 330.734C352.605 332.016 351.11 333.838 350.227 335.97C349.344 338.101 349.113 340.447 349.563 342.71C350.014 344.972 351.125 347.051 352.756 348.682C354.387 350.314 356.466 351.425 358.729 351.875C360.992 352.325 363.337 352.094 365.469 351.211C367.6 350.328 369.422 348.833 370.704 346.915C371.986 344.996 372.67 342.741 372.67 340.434C372.666 337.341 371.436 334.376 369.249 332.189C367.062 330.002 364.097 328.772 361.005 328.769Z" fill="#2F2E41"/>
<path d="M361.003 320.418C363.419 320.418 365.378 318.459 365.378 316.043C365.378 313.627 363.419 311.669 361.003 311.669C358.587 311.669 356.629 313.627 356.629 316.043C356.629 318.459 358.587 320.418 361.003 320.418Z" fill="#17B8A6"/>
<path d="M361.005 328.68C358.505 328.68 356.062 327.939 353.984 326.551C351.905 325.162 350.286 323.188 349.329 320.879C348.373 318.57 348.122 316.029 348.61 313.578C349.098 311.126 350.301 308.874 352.069 307.107C353.836 305.34 356.088 304.136 358.539 303.649C360.991 303.161 363.531 303.411 365.841 304.368C368.15 305.324 370.124 306.944 371.512 309.022C372.901 311.1 373.642 313.544 373.642 316.043C373.638 319.394 372.306 322.606 369.936 324.975C367.567 327.344 364.355 328.677 361.005 328.68ZM361.005 304.378C358.697 304.378 356.442 305.062 354.524 306.344C352.605 307.626 351.11 309.447 350.227 311.579C349.344 313.711 349.113 316.056 349.563 318.319C350.014 320.582 351.125 322.66 352.756 324.292C354.387 325.923 356.466 327.034 358.729 327.484C360.992 327.934 363.337 327.703 365.469 326.82C367.6 325.937 369.422 324.442 370.704 322.524C371.986 320.606 372.67 318.35 372.67 316.043C372.666 312.95 371.436 309.985 369.249 307.798C367.062 305.612 364.097 304.381 361.005 304.378Z" fill="#2F2E41"/>
</g>
<defs>
<clipPath id="clip0_61_2092">
<rect width="454" height="277.167" fill="white" transform="translate(0 76)"/>
</clipPath>
</defs>
</svg>
