<svg width="111" height="112" viewBox="0 0 111 112" fill="none" xmlns="http://www.w3.org/2000/svg">
<path d="M55.3825 110.765C85.9695 110.765 110.765 85.9695 110.765 55.3825C110.765 24.7956 85.9695 0 55.3825 0C24.7956 0 0 24.7956 0 55.3825C0 85.9695 24.7956 110.765 55.3825 110.765Z" fill="#F2F2F2"/>
<path d="M53.8541 62.2431C63.6178 62.2431 71.5328 54.3281 71.5328 44.5644C71.5328 34.8008 63.6178 26.8857 53.8541 26.8857C44.0904 26.8857 36.1754 34.8008 36.1754 44.5644C36.1754 54.3281 44.0904 62.2431 53.8541 62.2431Z" fill="#FFB6B6"/>
<path d="M96.9317 92.4375C87.3368 103.355 73.8336 110.061 59.3368 111.109C44.8401 112.157 30.5128 107.462 19.4479 98.0373L24.1981 84.7824C25.2716 82.4281 26.9657 80.4105 29.0987 78.9458C31.2316 77.4811 33.7231 76.6246 36.3058 76.4681L39.3278 76.2826L46.5338 70.0677C46.5338 70.0677 65.9499 69.3744 65.6618 69.0425L77.4228 76.1166L77.413 76.0678L82.0364 76.351C84.6193 76.5068 87.111 77.363 89.2441 78.8277C91.3772 80.2925 93.0711 82.3105 94.144 84.6652L96.9317 92.4375Z" fill="#17B8A6"/>
<path d="M72.4992 33.6004C71.0053 28.2533 67.6111 23.6354 62.9539 20.6133C59.2423 18.2394 54.6109 17.0274 50.4061 18.2829C46.2012 19.5383 42.72 23.6648 42.9952 28.1233C41.4774 27.6068 39.7519 28.294 38.6409 29.468C37.5299 30.642 36.9325 32.2213 36.5046 33.7933C35.1553 38.7921 35.2447 44.0702 36.7625 49.0205L36.679 49.731C38.7304 49.3916 40.2865 47.6315 41.2541 45.7562C42.2216 43.8809 42.7784 41.8004 43.8271 39.9709C44.8758 38.1415 46.6173 36.5096 48.6948 36.4525L48.5117 39.6281C50.2991 38.7072 52.0865 37.7863 53.8738 36.8654C53.4487 37.8824 53.0235 38.8994 52.5984 39.9164C54.1593 39.264 55.7203 38.6116 57.2812 37.9592C57.1067 38.9372 56.9322 39.9151 56.7577 40.893C58.3058 37.3694 63.0933 35.8215 66.35 37.7916C68.2414 38.9357 69.4823 40.9747 70.135 43.1161C70.7877 45.2574 70.9168 47.5226 71.0414 49.7613C73.4534 44.7245 73.9709 38.9875 72.4992 33.6004Z" fill="#2F2E41"/>
</svg>
