<svg width="509" height="527" viewBox="0 0 509 527" fill="none" xmlns="http://www.w3.org/2000/svg">
<path fill-rule="evenodd" clip-rule="evenodd" d="M297.376 46.0744C348.473 49.3407 389.337 89.1654 423.035 127.723C451.371 160.145 456.619 203.691 470.697 244.387C485.137 286.13 515.942 325.515 506.371 368.636C496.521 413.018 458.191 444.803 420.556 470.295C383.923 495.108 341.131 503.642 297.376 510.197C245.582 517.957 186.328 542.712 144.112 511.711C101.891 480.705 114.174 415.311 99.6301 364.98C85.7507 316.95 49.4734 272.538 60.9354 223.874C72.6817 174.003 118.536 141.665 159.48 110.876C201.092 79.5846 245.423 42.7534 297.376 46.0744Z" fill="#76BDB5" fill-opacity="0.35"/>
<path d="M357.654 410.077L354.326 421.782C349.017 423.163 343.642 424.278 338.221 425.122H338.216C334.421 425.711 330.589 426.17 326.719 426.499L337.545 411.04L339.082 410.903L357.654 410.077Z" fill="#2F2E41"/>
<path d="M441.321 365.188C437.974 369.384 434.427 373.408 430.68 377.257L417.845 377.267L348.818 377.345L336.391 377.359L328.13 377.369L315.84 377.379L306.386 377.389L288.924 377.408L278.623 377.423L256.933 377.442L246.579 377.457L217.887 377.486L199.865 377.505L195.029 377.51C193.954 376.411 192.895 375.296 191.852 374.165C189.254 371.349 186.754 368.446 184.354 365.455L194.367 365.445L201.189 365.441L216.982 365.421L247.46 365.392L257.76 365.382L261.925 365.377H261.939L265.209 365.373L266.674 365.368L270.425 365.363H272.011L283.134 365.353L307.125 365.324L317.684 365.314L327.794 365.304L337.272 365.295L350.871 365.28L423.504 365.207L441.321 365.188Z" fill="#CCCCCC"/>
<path d="M267.004 373.259C272.414 373.259 276.8 371.861 276.8 370.135C276.8 368.409 272.414 367.01 267.004 367.01C261.594 367.01 257.209 368.409 257.209 370.135C257.209 371.861 261.594 373.259 267.004 373.259Z" fill="#3F3D56"/>
<path d="M267.004 371.176C272.414 371.176 276.8 369.778 276.8 368.052C276.8 366.326 272.414 364.927 267.004 364.927C261.594 364.927 257.209 366.326 257.209 368.052C257.209 369.778 261.594 371.176 267.004 371.176Z" fill="#3F3D56"/>
<path d="M265.282 370.146L266.742 370.124L266.339 342.883C266.281 338.438 267.39 334.056 269.556 330.173C271.721 326.291 274.868 323.044 278.682 320.757L306.542 304.113L305.793 302.861L277.934 319.505C273.9 321.924 270.572 325.357 268.281 329.463C265.99 333.569 264.817 338.204 264.879 342.905L265.282 370.146Z" fill="#3F3D56"/>
<path d="M302.276 312.853C302.276 314.808 303.862 316.394 305.819 316.394C307.776 316.394 309.362 314.808 309.362 312.853V290.773C309.362 288.817 307.776 287.232 305.819 287.232C303.862 287.232 302.276 288.817 302.276 290.773V312.853Z" fill="#17B8A6"/>
<path d="M305.695 252.551L343.901 297.676L376.476 311.612L385.159 294.744C377.193 285.272 351.203 273.903 351.203 273.903L315.911 242.266C315.848 242.033 315.78 241.801 315.696 241.57C315.201 240.216 314.365 239.013 313.268 238.076C312.172 237.14 310.853 236.502 309.438 236.224C308.023 235.946 306.56 236.038 305.19 236.49C303.821 236.942 302.592 237.74 301.621 238.806C300.65 239.872 299.971 241.17 299.649 242.575C299.327 243.98 299.373 245.444 299.783 246.826C300.192 248.208 300.952 249.461 301.987 250.464C303.023 251.467 304.3 252.186 305.695 252.551Z" fill="#FAD7B5"/>
<path d="M381.754 289.618L373.327 311.182L373.335 311.266C374.175 319.55 387.125 327.222 397.841 332.198C401.375 333.836 405.4 334.071 409.102 332.857C412.804 331.642 415.906 329.068 417.782 325.655C419.148 323.128 419.78 320.269 419.606 317.402C419.432 314.534 418.46 311.773 416.798 309.429L408.29 297.521L381.754 289.618Z" fill="#17B8A6"/>
<path d="M430.602 330.457L426.121 346.578L423.504 365.207L422.696 370.936L422.676 371.057L417.699 375.784L417.845 377.267L418.234 381.221L418.881 388.262C395.9 407.732 367.989 420.487 338.221 425.122C338.216 425.127 338.216 425.122 338.216 425.122C334.241 423.985 331.122 422.749 329.867 421.85C329.37 421.5 329.147 421.188 329.156 420.872C329.21 418.767 335.19 411.21 336.095 410.077L338.469 400.254L343.315 398.328L342.118 391.418L348.599 384.581L348.784 377.544L348.818 377.345L350.871 365.28L354.968 341.253L355.386 338.792L355.007 319.817L354.895 314.07L354.764 307.514C354.729 305.829 354.853 304.144 355.133 302.481C355.341 301.229 355.64 299.994 356.029 298.786C357.108 295.421 358.842 292.302 361.129 289.607C363.417 286.913 366.214 284.696 369.36 283.083C369.608 282.957 369.856 282.835 370.109 282.714C370.109 282.714 370.109 282.709 370.114 282.714C372.061 281.794 374.111 281.114 376.221 280.686L376.834 279.597L382.838 268.937L401.239 269.409L412.216 286.58L421.377 295.668C425.864 300.128 429.083 305.701 430.705 311.814C432.326 317.928 432.29 324.362 430.602 330.457Z" fill="#17B8A6"/>
<path d="M390.432 263.672C403.896 263.672 414.81 252.764 414.81 239.308C414.81 225.852 403.896 214.943 390.432 214.943C376.969 214.943 366.054 225.852 366.054 239.308C366.054 252.764 376.969 263.672 390.432 263.672Z" fill="#FAD7B5"/>
<path d="M387.458 263.998C391.234 264.057 395.007 263.794 398.737 263.211C402.434 262.459 410.706 256.401 413.012 252.756C414.725 250.047 415.82 245.818 416.438 242.746C417.269 238.683 417.238 234.489 416.345 230.438C415.452 226.387 413.717 222.569 411.254 219.231C410.307 217.834 409.001 216.72 407.472 216.004C407.337 215.952 407.197 215.905 407.056 215.864C404.829 215.279 402.828 214.041 401.309 212.31C401.015 211.96 400.696 211.632 400.354 211.328C398.638 209.88 396.603 208.859 394.417 208.348C390.887 207.404 385.779 208.341 379.235 211.136C375.948 212.54 372.352 212.032 369.586 211.432C369.431 211.402 369.271 211.414 369.121 211.465C368.972 211.516 368.838 211.605 368.734 211.724C367.557 212.828 366.006 213.446 364.392 213.454C363.403 213.498 362.366 214.866 361.112 216.65C360.827 217.055 360.495 217.528 360.256 217.815L360.224 217.263L359.665 217.879C358.785 218.847 358.166 220.022 357.863 221.295C357.561 222.567 357.586 223.895 357.935 225.155C358.285 226.415 358.947 227.566 359.862 228.501C360.776 229.437 361.912 230.125 363.165 230.503C364.159 230.768 365.178 230.93 366.206 230.988C366.828 231.044 367.472 231.102 368.089 231.209C370.069 231.614 371.91 232.525 373.433 233.854C374.955 235.183 376.107 236.883 376.775 238.79C376.933 239.23 377.191 239.629 377.527 239.954C377.864 240.28 378.271 240.524 378.717 240.667C379.163 240.81 379.636 240.85 380.099 240.781C380.562 240.713 381.004 240.539 381.389 240.273C382.032 239.773 382.786 239.436 383.587 239.29C384.389 239.144 385.214 239.194 385.992 239.436C386.664 239.809 387.187 240.402 387.474 241.116C387.822 241.91 388.399 242.583 389.132 243.049C391.637 244.34 391.81 250.06 390.91 254.828C390.043 259.424 388.328 262.749 386.74 262.913C385.518 263.039 385.378 263.126 385.29 263.342L385.211 263.536L385.348 263.716C386.023 263.961 386.743 264.057 387.458 263.998Z" fill="#2F2E41"/>
<path d="M371.668 331.349L362.268 312.62C348.625 313.551 321.547 329.317 321.547 329.317L270.314 340.174C268.796 339.591 267.151 339.418 265.545 339.672C263.939 339.926 262.429 340.598 261.165 341.622C259.902 342.645 258.931 343.982 258.349 345.5C257.767 347.018 257.596 348.662 257.852 350.266C258.108 351.871 258.783 353.38 259.808 354.642C260.834 355.903 262.173 356.872 263.692 357.452C265.211 358.031 266.856 358.2 268.462 357.942C270.067 357.684 271.576 357.008 272.837 355.982L338.009 351.313L371.668 331.349Z" fill="#FAD7B5"/>
<path d="M367.877 334.425L392.425 316.192L396.749 300.617C397.587 297.557 397.552 294.323 396.647 291.281C395.743 288.24 394.005 285.512 391.63 283.406C388.392 280.572 384.199 279.073 379.897 279.212C375.596 279.351 371.507 281.117 368.459 284.153C359.221 293.369 348.684 306.225 350.948 315.14L350.971 315.231L367.877 334.425Z" fill="#17B8A6"/>
<path d="M54.5511 342.017H29.9595C29.2936 342.016 28.6552 341.752 28.1843 341.281C27.7134 340.811 27.4485 340.173 27.4478 339.507V258.524C27.4485 257.858 27.7134 257.22 28.1843 256.75C28.6552 256.279 29.2936 256.014 29.9595 256.014H54.5511C55.217 256.014 55.8554 256.279 56.3263 256.75C56.7972 257.22 57.0621 257.858 57.0629 258.524V339.507C57.0621 340.173 56.7972 340.811 56.3263 341.281C55.8554 341.752 55.217 342.016 54.5511 342.017Z" fill="#17B8A6"/>
<path d="M99.3969 342.017H74.8054C74.1395 342.016 73.501 341.752 73.0302 341.281C72.5593 340.811 72.2944 340.173 72.2936 339.507V226.388C72.2944 225.722 72.5593 225.084 73.0302 224.614C73.501 224.143 74.1395 223.878 74.8054 223.878H99.3969C100.063 223.878 100.701 224.143 101.172 224.614C101.643 225.084 101.908 225.722 101.909 226.388V339.507C101.908 340.173 101.643 340.811 101.172 341.281C100.701 341.752 100.063 342.016 99.3969 342.017Z" fill="#17B8A6"/>
<path d="M144.243 342.017H119.651C118.985 342.016 118.347 341.752 117.876 341.281C117.405 340.811 117.14 340.173 117.139 339.507V258.524C117.14 257.858 117.405 257.22 117.876 256.75C118.347 256.279 118.985 256.014 119.651 256.014H144.243C144.909 256.014 145.547 256.279 146.018 256.75C146.489 257.22 146.754 257.858 146.754 258.524V339.507C146.754 340.173 146.489 340.811 146.018 341.281C145.547 341.752 144.909 342.016 144.243 342.017Z" fill="#17B8A6"/>
<path d="M189.088 342.017H164.497C163.846 342.031 163.216 341.787 162.745 341.338C162.275 340.888 162.001 340.271 161.985 339.621V213.589C162.001 212.939 162.275 212.321 162.745 211.872C163.216 211.423 163.846 211.178 164.497 211.192H189.088C189.739 211.178 190.369 211.423 190.84 211.872C191.31 212.321 191.584 212.939 191.6 213.589V339.621C191.584 340.271 191.31 340.888 190.84 341.338C190.369 341.787 189.739 342.031 189.088 342.017Z" fill="#17B8A6"/>
<path d="M233.934 342.017H209.343C208.677 342.016 208.038 341.752 207.567 341.281C207.096 340.811 206.832 340.173 206.831 339.507V190.869C206.832 190.204 207.096 189.566 207.567 189.095C208.038 188.624 208.677 188.36 209.343 188.359H233.934C234.6 188.36 235.238 188.624 235.709 189.095C236.18 189.566 236.445 190.204 236.446 190.869V339.507C236.445 340.173 236.18 340.811 235.709 341.281C235.238 341.752 234.6 342.016 233.934 342.017Z" fill="#17B8A6"/>
<path d="M42.2553 245.865C45.0592 245.865 47.3322 243.594 47.3322 240.791C47.3322 237.989 45.0592 235.717 42.2553 235.717C39.4515 235.717 37.1785 237.989 37.1785 240.791C37.1785 243.594 39.4515 245.865 42.2553 245.865Z" fill="#3F3D56"/>
<path d="M87.1011 212.884C89.905 212.884 92.178 210.612 92.178 207.81C92.178 205.007 89.905 202.736 87.1011 202.736C84.2972 202.736 82.0242 205.007 82.0242 207.81C82.0242 210.612 84.2972 212.884 87.1011 212.884Z" fill="#3F3D56"/>
<path d="M131.947 245.865C134.751 245.865 137.024 243.594 137.024 240.791C137.024 237.989 134.751 235.717 131.947 235.717C129.143 235.717 126.87 237.989 126.87 240.791C126.87 243.594 129.143 245.865 131.947 245.865Z" fill="#3F3D56"/>
<path d="M176.793 196.816C179.596 196.816 181.869 194.544 181.869 191.742C181.869 188.939 179.596 186.668 176.793 186.668C173.989 186.668 171.716 188.939 171.716 191.742C171.716 194.544 173.989 196.816 176.793 196.816Z" fill="#3F3D56"/>
<path d="M221.638 178.211C224.442 178.211 226.715 175.939 226.715 173.137C226.715 170.334 224.442 168.063 221.638 168.063C218.834 168.063 216.561 170.334 216.561 173.137C216.561 175.939 218.834 178.211 221.638 178.211Z" fill="#3F3D56"/>
<path d="M262.751 342.96H0.577368C0.472334 342.96 0.371601 342.918 0.29733 342.844C0.22306 342.77 0.181335 342.669 0.181335 342.564C0.181335 342.459 0.22306 342.358 0.29733 342.284C0.371601 342.21 0.472334 342.168 0.577368 342.168H262.751C262.856 342.168 262.957 342.21 263.031 342.284C263.105 342.358 263.147 342.459 263.147 342.564C263.147 342.669 263.105 342.77 263.031 342.844C262.957 342.918 262.856 342.96 262.751 342.96Z" fill="#CBCBCB"/>
<path d="M328.096 410.644H199.782C199.677 410.644 199.576 410.603 199.502 410.528C199.427 410.454 199.386 410.353 199.386 410.248C199.386 410.143 199.427 410.043 199.502 409.968C199.576 409.894 199.677 409.853 199.782 409.853H328.096C328.201 409.853 328.302 409.894 328.376 409.968C328.451 410.043 328.492 410.143 328.492 410.248C328.492 410.353 328.451 410.454 328.376 410.528C328.302 410.603 328.201 410.644 328.096 410.644Z" fill="#CBCBCB"/>
<path d="M41.9846 241.109L41.5117 240.474L87.1014 206.551L131.802 239.875L177.114 190.705L177.196 190.672L221.171 172.532L221.473 173.264L177.579 191.37L131.901 240.936L87.101 207.539L41.9846 241.109Z" fill="#3F3D56"/>
<path d="M299.06 70.1597C303.62 78.5789 305.29 88.2616 303.813 97.7213C302.337 107.181 297.795 115.895 290.886 122.525C283.976 129.155 275.081 133.334 265.566 134.422C256.05 135.51 246.441 133.446 238.213 128.546C229.984 123.647 223.592 116.183 220.017 107.301C216.442 98.4186 215.882 88.6089 218.423 79.3779C220.964 70.1469 226.466 62.0047 234.083 56.2015C241.701 50.3982 251.013 47.2546 260.59 47.2534C260.937 47.2534 261.283 47.2585 261.628 47.2665L261.166 28.5885C260.974 28.5868 260.783 28.5812 260.59 28.5812C246.811 28.5852 233.42 33.1492 222.507 41.561C211.595 49.9728 203.775 61.7591 200.268 75.0808C196.761 88.4025 197.764 102.51 203.12 115.202C208.477 127.894 217.886 138.456 229.879 145.241C241.871 152.025 255.773 154.65 269.415 152.705C283.057 150.761 295.671 144.357 305.29 134.493C314.908 124.628 320.989 111.858 322.584 98.1752C324.179 84.4925 321.198 70.6669 314.107 58.8558L299.06 70.1597Z" fill="#17B8A6"/>
<path d="M299.06 70.1597L314.107 58.8558C308.612 49.7025 300.858 42.1127 291.589 36.8131C282.319 31.5134 271.844 28.6815 261.166 28.5885L261.628 47.2665C269.332 47.4469 276.851 49.6593 283.425 53.6795C289.998 57.6997 295.392 63.385 299.06 70.1597Z" fill="#E6E6E6"/>
<path d="M292.361 144.529L291.589 145.294L313.506 167.411L314.278 166.646L292.361 144.529Z" fill="#3F3D56"/>
<path d="M306.432 9.14582L291.197 36.2985L292.146 36.8302L307.38 9.67746L306.432 9.14582Z" fill="#3F3D56"/>
<path d="M330.292 175.571H297.947C297.372 175.571 296.821 175.342 296.415 174.936C296.008 174.53 295.779 173.979 295.779 173.404V168.85C295.779 168.276 296.008 167.725 296.415 167.318C296.821 166.912 297.372 166.683 297.947 166.683H330.292C330.867 166.683 331.418 166.912 331.825 167.318C332.231 167.725 332.46 168.276 332.461 168.85V173.404C332.46 173.979 332.231 174.53 331.825 174.936C331.418 175.342 330.867 175.571 330.292 175.571Z" fill="#17B8A6"/>
<path d="M322.092 9.79936H289.747C289.172 9.79866 288.621 9.57008 288.215 9.16376C287.808 8.75744 287.579 8.20656 287.579 7.63193V3.07785C287.579 2.50322 287.808 1.95232 288.215 1.546C288.621 1.13967 289.172 0.911096 289.747 0.9104H322.092C322.667 0.911096 323.218 1.13967 323.625 1.546C324.031 1.95232 324.26 2.50322 324.261 3.07785V7.63193C324.26 8.20656 324.031 8.75745 323.625 9.16377C323.218 9.57009 322.667 9.79867 322.092 9.79936Z" fill="#E6E6E6"/>
</svg>
