<svg width="118" height="117" viewBox="0 0 118 117" fill="none" xmlns="http://www.w3.org/2000/svg">
<path d="M62.3285 113.686C92.8677 111.977 116.239 85.8353 114.531 55.2961C112.822 24.7569 86.68 1.38521 56.1408 3.0939C25.6016 4.80258 2.22992 30.9446 3.93861 61.4838C5.64729 92.023 31.7893 115.395 62.3285 113.686Z" fill="#F2F2F2"/>
<path d="M59.2275 64.0486C69.1857 63.4915 76.8068 54.967 76.2497 45.0087C75.6925 35.0504 67.168 27.4293 57.2098 27.9865C47.2515 28.5437 39.6304 37.0681 40.1876 47.0264C40.7447 56.9847 49.2692 64.6058 59.2275 64.0486Z" fill="#FFB8B8"/>
<path d="M73.46 33.2158C73.46 33.2158 77.6525 23.9784 67.2784 23.7404C67.2784 23.7404 58.0265 16.2457 49.4169 23.275C49.4169 23.275 44.5216 23.5489 42.1546 29.2383C42.1546 29.2383 38.2228 27.9935 37.5953 31.9487C37.5953 31.9487 35.2345 40.2652 38.4626 47.4506C41.6908 54.636 42.6722 55.3995 42.6722 55.3995C42.6722 55.3995 40.1857 46.3979 51.4083 44.9515C62.631 43.5051 72.5736 35.8676 74.0148 44.7898C75.4561 53.7121 76.2615 49.6 76.2615 49.6C76.2615 49.6 84.4636 36.2832 73.46 33.2158Z" fill="#2F2E41"/>
<path d="M99.1147 97.9364C89.0144 108.388 75.2092 114.449 60.6791 114.81C46.1491 115.171 32.0598 109.804 21.4528 99.8669L26.8243 86.8514C28.0079 84.5505 29.7955 82.6152 31.9953 81.253C34.1951 79.8908 36.7243 79.153 39.3115 79.1189L42.3389 79.0764L49.8306 73.2091C49.8306 73.2091 69.2578 73.4345 68.9858 73.0893L80.3992 80.7116L80.3917 80.6623L84.9965 81.1637C87.5692 81.4415 90.0176 82.4145 92.0791 83.9785C94.1405 85.5425 95.7371 87.6383 96.6975 90.0411L99.1147 97.9364Z" fill="#17B8A6"/>
</svg>
