<svg width="270" height="270" viewBox="0 0 270 270" fill="none" xmlns="http://www.w3.org/2000/svg">
<circle cx="135" cy="135" r="134.5" fill="#B1CAC7" stroke="black"/>
<g clip-path="url(#clip0_67_405)">
<path opacity="0.1" d="M96.7194 63.0273H78.1088C77.0353 63.0273 76.165 63.9264 76.165 65.0355V68.0465C76.165 69.1555 77.0353 70.0546 78.1088 70.0546H96.7194C97.7929 70.0546 98.6632 69.1555 98.6632 68.0465V65.0355C98.6632 63.9264 97.7929 63.0273 96.7194 63.0273Z" fill="#17B8A6"/>
<path opacity="0.1" d="M120.264 70.0546H101.653C100.58 70.0546 99.7096 70.9537 99.7096 72.0628V75.0737C99.7096 76.1828 100.58 77.0819 101.653 77.0819H120.264C121.337 77.0819 122.208 76.1828 122.208 75.0737V72.0628C122.208 70.9537 121.337 70.0546 120.264 70.0546Z" fill="#17B8A6"/>
<path opacity="0.1" d="M120.264 59.5137H101.653C100.58 59.5137 99.7096 60.4128 99.7096 61.5219V64.5328C99.7096 65.6419 100.58 66.541 101.653 66.541H120.264C121.337 66.541 122.208 65.6419 122.208 64.5328V61.5219C122.208 60.4128 121.337 59.5137 120.264 59.5137Z" fill="#17B8A6"/>
<path opacity="0.1" d="M146.425 56H127.814C126.74 56 125.87 56.8991 125.87 58.0082V61.0191C125.87 62.1282 126.74 63.0273 127.814 63.0273H146.425C147.498 63.0273 148.368 62.1282 148.368 61.0191V58.0082C148.368 56.8991 147.498 56 146.425 56Z" fill="#17B8A6"/>
<path opacity="0.1" d="M169.969 63.0273H151.359C150.285 63.0273 149.415 63.9264 149.415 65.0355V68.0465C149.415 69.1555 150.285 70.0546 151.359 70.0546H169.969C171.043 70.0546 171.913 69.1555 171.913 68.0465V65.0355C171.913 63.9264 171.043 63.0273 169.969 63.0273Z" fill="#17B8A6"/>
<path opacity="0.1" d="M193.514 70.0546H174.903C173.83 70.0546 172.959 70.9537 172.959 72.0628V75.0737C172.959 76.1828 173.83 77.0819 174.903 77.0819H193.514C194.587 77.0819 195.457 76.1828 195.457 75.0737V72.0628C195.457 70.9537 194.587 70.0546 193.514 70.0546Z" fill="#17B8A6"/>
<path opacity="0.1" d="M193.514 59.5137H174.903C173.83 59.5137 172.959 60.4128 172.959 61.5219V64.5328C172.959 65.6419 173.83 66.541 174.903 66.541H193.514C194.587 66.541 195.457 65.6419 195.457 64.5328V61.5219C195.457 60.4128 194.587 59.5137 193.514 59.5137Z" fill="#17B8A6"/>
<path opacity="0.1" d="M73.1749 146.004H54.5642C53.4907 146.004 52.6205 146.903 52.6205 148.012V151.023C52.6205 152.132 53.4907 153.031 54.5642 153.031H73.1749C74.2484 153.031 75.1186 152.132 75.1186 151.023V148.012C75.1186 146.903 74.2484 146.004 73.1749 146.004Z" fill="#17B8A6"/>
<path opacity="0.1" d="M146.425 146.004H127.814C126.74 146.004 125.87 146.903 125.87 148.012V151.023C125.87 152.132 126.74 153.031 127.814 153.031H146.425C147.498 153.031 148.368 152.132 148.368 151.023V148.012C148.368 146.903 147.498 146.004 146.425 146.004Z" fill="#17B8A6"/>
<path opacity="0.1" d="M193.514 160.058H174.903C173.83 160.058 172.959 160.957 172.959 162.066V165.077C172.959 166.186 173.83 167.085 174.903 167.085H193.514C194.587 167.085 195.457 166.186 195.457 165.077V162.066C195.457 160.957 194.587 160.058 193.514 160.058Z" fill="#17B8A6"/>
<path d="M221.825 58.4325H34.8862C33.8445 58.4325 33 59.305 33 60.3812V155.136C33 156.213 33.8445 157.085 34.8862 157.085H221.825C222.866 157.085 223.711 156.213 223.711 155.136V60.3812C223.711 59.305 222.866 58.4325 221.825 58.4325Z" fill="#3F3D56"/>
<path d="M219.723 60.574H37.4063C36.3646 60.574 35.5201 61.4464 35.5201 62.5227V152.995C35.5201 154.071 36.3646 154.944 37.4063 154.944H219.723C220.765 154.944 221.609 154.071 221.609 152.995V62.5227C221.609 61.4464 220.765 60.574 219.723 60.574Z" fill="white"/>
<path opacity="0.1" d="M33.0002 151.139H223.711V155.136C223.711 155.653 223.512 156.149 223.159 156.514C222.805 156.88 222.325 157.085 221.825 157.085H34.8864C34.3862 157.085 33.9064 156.88 33.5527 156.514C33.199 156.149 33.0002 155.653 33.0002 155.136V151.139Z" fill="black"/>
<path d="M65.0468 143.841H52.2281C51.8668 143.841 51.574 144.144 51.574 144.517V150.463C51.574 150.836 51.8668 151.139 52.2281 151.139H65.0468C65.408 151.139 65.7008 150.836 65.7008 150.463V144.517C65.7008 144.144 65.408 143.841 65.0468 143.841Z" fill="#090814"/>
<path d="M78.7811 150.058H70.1481C69.8591 150.058 69.6249 150.3 69.6249 150.598C69.6249 150.897 69.8591 151.139 70.1481 151.139H78.7811C79.0701 151.139 79.3043 150.897 79.3043 150.598C79.3043 150.3 79.0701 150.058 78.7811 150.058Z" fill="#090814"/>
<path d="M61.0314 77.7252C67.9351 79.0415 74.9776 77.7252 81.8526 76.8333L102.747 74.1305C103.592 74.0196 104.822 73.498 105.319 74.5656C105.599 75.1629 105.41 76.4576 105.431 77.1441C105.486 79.0361 105.481 80.928 105.431 82.82C105.337 86.4363 105.081 90.0446 104.754 93.6447C104.118 100.691 103.218 107.699 102.768 114.773C102.538 118.373 102.423 121.984 102.525 125.584C102.548 126.443 102.582 127.303 102.632 128.16C102.687 129.119 103.103 130.543 102.09 131.184C101.512 131.552 100.374 131.533 99.7124 131.641C98.666 131.811 97.6196 131.946 96.5522 132.057C89.5176 132.784 82.3915 132.481 75.3307 132.438L54.0098 132.325L48.8091 132.295C48.3382 132.295 46.6404 132.587 46.35 132.008C46.2271 131.762 46.5541 130.611 46.6116 130.303C46.6918 129.795 46.779 129.288 46.8732 128.781C47.4802 125.227 48.197 121.694 48.919 118.165C50.4703 110.597 52.0583 102.991 52.6966 95.261C53.0131 91.3825 52.8038 87.4688 53.191 83.5984C53.3715 81.801 53.586 77.7901 55.9013 77.6306C57.8633 77.4955 59.8829 77.6306 61.8502 77.6306C61.9543 77.6306 62.0541 77.5879 62.1277 77.5119C62.2012 77.4358 62.2426 77.3327 62.2426 77.2252C62.2426 77.1176 62.2012 77.0145 62.1277 76.9385C62.0541 76.8625 61.9543 76.8198 61.8502 76.8198C59.9928 76.8198 58.1328 76.7684 56.2754 76.8062C55.0406 76.8306 54.1825 77.1333 53.5939 78.3063C52.0897 81.3172 52.244 85.3336 52.1969 88.6202C52.0844 96.4881 50.915 104.188 49.3925 111.883C48.626 115.756 47.7993 119.616 47.038 123.492C46.6796 125.343 46.3369 127.2 46.023 129.062C45.8765 129.949 45.1362 131.903 45.7876 132.717C46.439 133.53 48.4429 133.092 49.3402 133.098L55.5821 133.135L67.5427 133.206C75.2706 133.252 83.0246 133.476 90.7498 133.241C94.4385 133.127 98.3364 132.971 101.928 132.06C102.998 131.789 103.514 131.281 103.555 130.103C103.618 128.276 103.33 126.392 103.294 124.557C103.032 108.853 106.603 93.369 106.237 77.6603C106.213 76.5927 106.603 73.9007 105.473 73.2547C104.965 72.9628 104.306 73.1223 103.773 73.1872C102.752 73.3088 101.735 73.4575 100.714 73.5818L87.464 75.29C83.2286 75.8305 78.9958 76.4143 74.7526 76.9116C70.2608 77.4522 65.7246 77.7738 61.2485 76.9116C60.7541 76.817 60.5421 77.5982 61.0392 77.6928L61.0314 77.7252Z" fill="#17B8A6"/>
<path d="M52.7019 87.2796L104.976 84.6308C105.481 84.6038 105.484 83.793 104.976 83.82L52.7019 86.4688C52.1996 86.4931 52.197 87.3039 52.7019 87.2796Z" fill="#17B8A6"/>
<path d="M68.8063 80.5955C68.6601 80.7556 68.554 80.9501 68.4971 81.1622C68.4403 81.3743 68.4344 81.5975 68.48 81.8125C68.5257 82.0275 68.6214 82.2277 68.759 82.3957C68.8965 82.5637 69.0717 82.6945 69.2694 82.7767C69.9731 83.1091 70.7998 82.8307 71.4983 82.6497C72.5447 82.3794 73.5911 82.1388 74.6663 81.9415C77.0065 81.5135 79.3768 81.2857 81.7532 81.2604C82.8363 81.2469 83.9115 81.2982 84.9945 81.3469C85.7793 81.3793 86.6243 81.4442 87.2888 80.9415C88.0475 80.3685 88.2934 79.2495 87.5504 78.5522C86.504 77.5657 84.2489 78.1387 83.0403 78.2414C78.6547 78.6178 74.2975 79.2895 69.9966 80.2523C69.5048 80.3604 69.7115 81.1442 70.2059 81.0334C73.0435 80.4009 75.9028 79.8928 78.784 79.509C80.2001 79.3288 81.6189 79.1765 83.0403 79.0522C83.71 78.9955 84.3797 78.9441 85.0494 78.9036C85.3111 78.8873 85.5884 78.8576 85.8552 78.8657C86.6845 78.8846 86.7813 78.7306 86.2842 79.7658C85.8421 80.682 85.9834 80.5766 85.2169 80.5469C84.8925 80.5469 84.5681 80.509 84.2437 80.4928C83.5792 80.464 82.9147 80.4487 82.2503 80.4469C80.8358 80.4469 79.4249 80.5171 78.0175 80.6577C76.8245 80.7766 75.6342 80.9442 74.4544 81.1604C73.7167 81.2955 72.9842 81.4523 72.2543 81.6253C71.9325 81.7037 71.6081 81.7848 71.2864 81.8685C71.132 81.9118 70.975 81.9496 70.8207 81.9902C70.2486 82.1956 69.7612 81.9253 69.3583 81.1793C69.7089 80.8036 69.1569 80.2279 68.8037 80.6063L68.8063 80.5955Z" fill="#17B8A6"/>
<path d="M78.2817 92.1312C74.4963 91.9798 70.4074 93.0366 67.9142 96.1854C65.9627 98.6477 64.8508 102.872 66.9175 105.645C69.1386 108.618 74.0097 108.094 76.9475 106.826C80.0554 105.475 83.4563 102.688 84.3902 99.2017C85.5544 94.8475 81.7741 91.5555 77.837 91.5068C77.7329 91.5068 77.6331 91.5495 77.5595 91.6256C77.4859 91.7016 77.4446 91.8047 77.4446 91.9123C77.4446 92.0198 77.4859 92.1229 77.5595 92.1989C77.6331 92.275 77.7329 92.3177 77.837 92.3177C80.0815 92.3447 82.2843 93.3393 83.3307 95.4989C84.4268 97.7747 83.4824 100.164 82.0227 101.986C79.6839 104.886 76.0267 107.072 72.3014 107.01C70.0647 106.975 67.5925 106.183 66.8992 103.745C66.3289 101.769 66.7632 99.6099 67.7573 97.8584C69.9077 94.0745 74.2844 92.7934 78.2974 92.9555C78.8023 92.9745 78.8023 92.1636 78.2974 92.1447L78.2817 92.1312Z" fill="#17B8A6"/>
<path d="M74.5224 98.1367C74.361 98.0749 74.1871 98.0563 74.0169 98.0826C73.8467 98.109 73.6857 98.1794 73.5488 98.2873C73.412 98.3952 73.3039 98.5371 73.2344 98.6998C73.1649 98.8625 73.1365 99.0407 73.1516 99.2178C73.2301 100.272 74.355 100.569 75.2 100.507C75.9299 100.442 76.7827 100.164 76.5263 99.2205C76.4791 99.0536 76.3977 98.8991 76.2876 98.7676C76.1774 98.636 76.0411 98.5306 75.888 98.4584C75.6539 98.3624 75.4 98.3298 75.1503 98.3638C75.0535 98.3638 74.1666 98.6989 74.5433 98.2962L73.926 98.2124C73.9945 98.2822 74.047 98.367 74.0796 98.4606C74.1122 98.5541 74.124 98.654 74.1143 98.753C74.1155 98.8236 74.1344 98.8927 74.1692 98.9535C74.204 99.0144 74.2535 99.0648 74.3128 99.1C74.3721 99.1351 74.4393 99.1537 74.5076 99.154C74.576 99.1543 74.6433 99.1363 74.7029 99.1016C74.7927 99.0628 74.8911 99.0506 74.9872 99.0664C75.0833 99.0822 75.1732 99.1254 75.2469 99.1911C75.3205 99.2568 75.375 99.3424 75.4041 99.4383C75.4333 99.5343 75.436 99.6367 75.4119 99.7341C75.3908 99.8277 75.4024 99.926 75.4446 100.012C75.4868 100.097 75.5569 100.165 75.6426 100.202C75.7283 100.24 75.824 100.245 75.913 100.217C76.0019 100.188 76.0783 100.128 76.1287 100.048C76.3903 99.5611 76.7068 98.5935 76.3144 98.0854C76.0528 97.7421 75.5479 97.8448 75.234 98.0448C75.0402 98.1865 74.8598 98.3466 74.6951 98.5232C74.3785 98.8124 74.1719 98.9476 74.2896 98.3935C74.4858 97.3853 75.4171 96.5826 76.2673 96.1799L75.6918 95.7231C75.3901 96.8946 74.8505 97.9864 74.1091 98.9259L74.7788 99.2124C74.7598 98.8413 74.8521 98.4732 75.0431 98.1583C75.2342 97.8434 75.5146 97.597 75.8461 97.4529H75.4616L75.6656 97.7989C75.5898 98.3097 76.3458 98.5286 76.4217 98.0124C76.5211 97.3448 76.113 96.4772 75.3569 96.8042C74.4544 97.1934 73.9861 98.261 74.0044 99.2124C74.0044 99.5368 74.4492 99.7881 74.6768 99.5016C75.5087 98.4574 76.116 97.2421 76.4583 95.9366C76.4765 95.8592 76.4725 95.7779 76.4467 95.7028C76.421 95.6276 76.3747 95.5619 76.3134 95.5134C76.2521 95.465 76.1785 95.4361 76.1016 95.4301C76.0247 95.4241 75.9477 95.4414 75.8801 95.4799C75.0965 95.8458 74.4342 96.4417 73.9757 97.1934C73.6565 97.734 73.2562 98.5773 73.5806 99.1989C73.6338 99.2984 73.7055 99.386 73.7917 99.4566C73.8778 99.5272 73.9767 99.5795 74.0825 99.6104C74.1883 99.6414 74.299 99.6503 74.4082 99.6367C74.5174 99.6231 74.6229 99.5873 74.7186 99.5314C74.9605 99.3832 75.1814 99.2013 75.3753 98.9908C75.472 98.9016 75.5793 98.7476 75.7075 98.7205C75.8226 98.6394 75.8174 98.6854 75.6892 98.8638C75.6875 99.1438 75.6085 99.4176 75.4616 99.653L76.1784 99.9638C76.243 99.7115 76.2354 99.4452 76.1567 99.1971C76.0779 98.9491 75.9313 98.7299 75.7346 98.5661C75.5379 98.4023 75.2994 98.3009 75.0481 98.2741C74.7968 98.2473 74.5433 98.2963 74.3184 98.4151L74.9096 98.7665C74.922 98.4225 74.8174 98.085 74.614 97.8124C74.5831 97.7598 74.5412 97.7151 74.4914 97.6815C74.4415 97.6479 74.385 97.6263 74.326 97.6182C74.267 97.6102 74.207 97.6159 74.1505 97.635C74.0939 97.6541 74.0422 97.6861 73.9992 97.7286C73.6016 98.1583 73.5257 98.9016 74.0254 99.2989C74.3995 99.5935 74.5826 99.2989 74.9933 99.2314C76.3877 99.0449 75.5741 99.6935 75.0822 99.7152C74.8623 99.7395 74.6399 99.723 74.4256 99.6665C73.8797 99.4755 73.8457 99.2295 74.3236 98.9286C74.7919 99.1259 74.9933 98.3421 74.5329 98.1475L74.5224 98.1367Z" fill="#17B8A6"/>
<path d="M73.8919 99.6179C74.2137 100.699 72.8847 101.056 72.2543 101.429C71.8118 101.685 71.426 102.034 71.1215 102.453C70.4623 103.367 70.2164 104.529 69.9992 105.624C69.8998 106.134 70.6559 106.351 70.7579 105.84C70.8776 105.035 71.1001 104.251 71.4197 103.507C71.8906 102.54 72.5656 102.215 73.4446 101.718C74.3236 101.221 74.9593 100.45 74.648 99.4016C74.5015 98.9043 73.7428 99.1179 73.8919 99.6179Z" fill="#17B8A6"/>
<path d="M75.1999 99.0746C75.0128 99.1013 74.842 99.1993 74.721 99.3492C74.6001 99.4992 74.5376 99.6904 74.5459 99.8854C74.5459 100.207 74.7526 100.412 74.8939 100.669C75.2292 101.195 75.485 101.77 75.6525 102.375C75.7781 102.956 75.901 103.996 75.608 104.537C75.0665 105.54 74.0881 105.348 73.2536 105.348C72.4688 105.348 71.8618 105.618 71.888 104.488C71.9037 103.853 72.3327 103.21 72.6728 102.71L71.956 102.613C72.1072 103.438 72.1869 104.275 72.1941 105.115C72.1941 105.491 72.7513 105.699 72.924 105.318C73.3445 104.404 73.6783 103.45 73.9207 102.469L73.1489 102.361L73.285 104.415C73.2872 104.503 73.3168 104.588 73.3692 104.657C73.4216 104.726 73.4942 104.775 73.576 104.798C73.6579 104.821 73.7448 104.816 73.8239 104.785C73.9029 104.753 73.9699 104.695 74.0149 104.621C74.1065 104.516 74.1736 104.391 74.2111 104.256C74.2372 104.129 73.9965 103.272 73.8998 103.577L74.6689 103.686L74.7238 101.734L73.939 101.842C74.1049 102.393 74.1548 102.973 74.0855 103.545C74.0358 103.996 74.7709 104.099 74.8703 103.653L75.3621 101.031L74.6453 101.126C74.8156 101.489 74.8626 101.9 74.7788 102.294C74.7212 102.813 75.506 102.807 75.5636 102.294C75.6302 101.755 75.5467 101.209 75.3229 100.718C75.2831 100.65 75.2252 100.596 75.1561 100.562C75.087 100.528 75.0098 100.515 74.9338 100.525C74.8578 100.535 74.7864 100.568 74.7282 100.62C74.67 100.671 74.6276 100.739 74.6061 100.815L74.1117 103.437L74.8834 103.545C74.9619 102.901 74.902 102.246 74.7081 101.629C74.6819 101.536 74.6243 101.455 74.5457 101.402C74.4671 101.349 74.3727 101.327 74.2797 101.34C74.1867 101.353 74.1012 101.4 74.0387 101.472C73.9762 101.544 73.9408 101.637 73.939 101.734L73.8841 103.686C73.8861 103.783 73.9216 103.876 73.9842 103.948C74.0467 104.02 74.1322 104.067 74.2252 104.08C74.3183 104.093 74.4127 104.072 74.4917 104.019C74.5706 103.966 74.6288 103.887 74.6558 103.794L74.6977 103.661C74.7158 103.592 74.7161 103.52 74.6987 103.45C74.6812 103.381 74.6466 103.318 74.5982 103.267C73.7847 102.353 73.6198 103.807 73.3373 104.21L74.0698 104.415L73.9338 102.361C73.905 101.923 73.2771 101.788 73.162 102.253C72.9409 103.167 72.6343 104.057 72.2464 104.91L72.9789 105.115C72.9705 104.203 72.8829 103.293 72.7173 102.396C72.6493 102.023 72.1758 102.04 72.0005 102.299C71.4773 103.077 70.5721 104.778 71.2706 105.71C71.8802 106.521 73.7977 106.207 74.6166 106.156C75.9089 106.08 76.3772 105.234 76.5184 103.975C76.5857 103.372 76.553 102.761 76.4216 102.169C76.351 101.85 75.6368 99.8287 75.4223 99.8692C75.9194 99.7746 75.7075 98.9908 75.213 99.0854L75.1999 99.0746Z" fill="#17B8A6"/>
<path d="M73.68 100.896L71.5375 103.818L72.215 104.226L73.7846 101.88L73.0678 101.567L72.2856 104.65C72.2646 104.744 72.2762 104.842 72.3184 104.928C72.3606 105.014 72.4307 105.081 72.5164 105.119C72.6021 105.156 72.6978 105.161 72.7867 105.133C72.8756 105.105 72.952 105.045 73.0024 104.964C73.3584 104.355 73.758 103.774 74.198 103.226L73.544 102.831C73.3683 103.53 73.0297 104.173 72.5577 104.705L73.2143 105.099C73.2545 104.726 73.3507 104.361 73.4995 104.018C73.7009 103.55 73.0626 103.137 72.8219 103.607C72.6006 104.036 72.3478 104.446 72.0659 104.834L72.7827 104.932L72.9423 104.161L72.2255 104.064L72.3406 104.74C72.3595 104.808 72.3951 104.869 72.4441 104.919C72.493 104.968 72.5536 105.004 72.6198 105.022C72.686 105.04 72.7556 105.04 72.8218 105.021C72.8879 105.003 72.9484 104.968 72.9972 104.918C73.6607 104.209 74.1927 103.38 74.5668 102.472H73.8919C74.0693 102.81 74.1938 103.175 74.2608 103.553C74.355 104.04 74.9802 103.859 75.0299 103.445C75.1423 102.54 75.1999 101.628 75.2026 100.715H74.4177V102.415C74.4177 102.856 75.1162 102.986 75.1895 102.523C75.2413 102.113 75.372 101.718 75.574 101.361H74.886C75.0518 101.638 75.1422 101.955 75.1476 102.28C75.1476 102.388 75.189 102.491 75.2626 102.567C75.3361 102.643 75.4359 102.686 75.54 102.686C75.6441 102.686 75.7439 102.643 75.8175 102.567C75.8911 102.491 75.9324 102.388 75.9324 102.28L76.0318 101.74H75.2758C75.3517 102.218 75.6394 104.913 74.6166 104.596C74.4439 104.553 74.3942 104.564 74.4674 104.626L74.7003 104.113L75.247 102.915L74.5145 102.71C74.5616 103.267 74.6113 104.061 74.2869 104.537C74.0253 104.923 73.2196 105.078 72.8089 104.85C72.5377 104.651 72.306 104.399 72.1261 104.11L71.5898 104.65C72.024 104.978 72.7278 105.78 73.2876 105.826C73.714 105.861 74.0724 105.496 74.3523 105.205C74.7817 104.746 75.1165 104.202 75.3364 103.606C75.5563 103.01 75.6567 102.374 75.6316 101.737C75.6316 101.629 75.5902 101.526 75.5167 101.45C75.4431 101.374 75.3433 101.331 75.2392 101.331C75.1351 101.331 75.0353 101.374 74.9617 101.45C74.8881 101.526 74.8468 101.629 74.8468 101.737V102.661C74.8468 102.769 74.8881 102.872 74.9617 102.948C75.0353 103.024 75.1351 103.067 75.2392 103.067C75.3433 103.067 75.4431 103.024 75.5167 102.948C75.5902 102.872 75.6316 102.769 75.6316 102.661V100.394C75.6316 100.286 75.5902 100.183 75.5167 100.107C75.4431 100.031 75.3433 99.9881 75.2392 99.9881C75.1351 99.9881 75.0353 100.031 74.9617 100.107C74.8881 100.183 74.8468 100.286 74.8468 100.394C74.8453 100.937 74.7998 101.48 74.7107 102.015L75.4825 102.123C75.421 101.478 75.3922 100.829 75.3961 100.18C75.3949 100.083 75.36 99.9894 75.2977 99.9167C75.2354 99.8439 75.1498 99.7967 75.0567 99.7836C74.9635 99.7705 74.8689 99.7924 74.79 99.8453C74.7112 99.8982 74.6533 99.9787 74.627 100.072C74.5093 100.588 74.3654 101.096 74.2268 101.602L74.9436 101.504L74.8886 101.288C74.852 100.772 74.0672 100.769 74.1038 101.288C74.1124 101.507 74.1678 101.721 74.266 101.915C74.4177 102.245 74.8912 102.129 74.9828 101.818C75.1319 101.31 75.2653 100.802 75.3831 100.288L74.6113 100.18C74.6074 100.829 74.6362 101.478 74.6977 102.123C74.7369 102.54 75.3857 102.718 75.4668 102.231C75.5713 101.621 75.6264 101.003 75.6316 100.383H74.8468V102.65H75.6316V101.726H74.8468C74.8929 102.746 74.5501 103.743 73.8919 104.505C73.79 104.624 73.6798 104.736 73.5623 104.84C73.3765 105.023 73.2065 104.996 73.0574 104.756C72.6859 104.596 72.3013 104.186 71.9769 103.945C71.6526 103.705 71.2078 104.18 71.438 104.499C72.0397 105.326 72.937 106.248 74.0541 105.851C75.2287 105.421 75.3883 103.777 75.2993 102.696C75.2706 102.337 74.75 102.094 74.5695 102.494C74.3079 103.064 74.0463 103.632 73.7846 104.205C73.6491 104.418 73.5681 104.663 73.5492 104.918C73.6355 105.526 74.3497 105.426 74.7892 105.391C76.4923 105.259 76.2228 102.764 76.0266 101.51C75.9612 101.094 75.3752 101.158 75.2706 101.51C75.1874 101.757 75.1441 102.016 75.1424 102.277H75.9272C75.8988 101.813 75.7729 101.36 75.5583 100.95C75.5232 100.89 75.4736 100.84 75.4142 100.805C75.3549 100.77 75.2878 100.752 75.2196 100.752C75.1513 100.752 75.0843 100.77 75.0249 100.805C74.9655 100.84 74.9159 100.89 74.8808 100.95C74.6468 101.368 74.489 101.826 74.4151 102.302L75.1999 102.41V100.71C75.1999 100.602 75.1586 100.499 75.085 100.423C75.0114 100.347 74.9116 100.304 74.8075 100.304C74.7035 100.304 74.6036 100.347 74.5301 100.423C74.4565 100.499 74.4151 100.602 74.4151 100.71C74.4125 101.623 74.3548 102.534 74.2425 103.44L75.0142 103.332C74.9254 102.89 74.7747 102.464 74.5668 102.067C74.5318 102.006 74.4821 101.956 74.4227 101.921C74.3634 101.887 74.2963 101.868 74.2281 101.868C74.1598 101.868 74.0928 101.887 74.0334 101.921C73.974 101.956 73.9244 102.006 73.8893 102.067C73.5481 102.913 73.0576 103.687 72.4426 104.348L73.0992 104.526L72.9841 103.85C72.924 103.491 72.4321 103.48 72.2673 103.753C72.1373 103.956 72.0491 104.185 72.0081 104.425C71.9672 104.665 71.9744 104.911 72.0293 105.148C72.0947 105.532 72.5656 105.491 72.7461 105.245C73.028 104.858 73.2808 104.448 73.5021 104.021L72.8246 103.61C72.6437 104.014 72.5203 104.443 72.4583 104.883C72.4112 105.24 72.8219 105.613 73.1149 105.278C73.6773 104.642 74.0845 103.876 74.3026 103.045C74.3994 102.677 73.9076 102.329 73.646 102.65C73.1647 103.246 72.7275 103.879 72.338 104.542L73.0548 104.856L73.8527 101.783C73.8737 101.689 73.8621 101.591 73.8199 101.505C73.7777 101.42 73.7076 101.352 73.6219 101.315C73.5362 101.277 73.4405 101.272 73.3516 101.3C73.2627 101.329 73.1863 101.388 73.1359 101.469L71.5662 103.818C71.2732 104.253 71.9456 104.629 72.2438 104.226L74.3785 101.307C74.682 100.891 74.0018 100.496 73.7009 100.896H73.68Z" fill="#17B8A6"/>
<path d="M107.056 110.651C110.195 108.667 112.691 105.707 115.464 103.232C118.472 100.548 121.63 98.0476 124.882 95.6799C131.197 91.0851 137.828 86.9742 144.455 82.874C144.541 82.8179 144.602 82.7295 144.626 82.6276C144.65 82.5256 144.635 82.4179 144.584 82.3272C144.533 82.2365 144.45 82.1699 144.352 82.1413C144.254 82.1127 144.149 82.1244 144.06 82.174C137.433 86.2741 130.799 90.377 124.484 94.9799C121.504 97.1421 118.595 99.4341 115.806 101.867C112.772 104.515 110.069 107.813 106.65 109.951C106.219 110.221 106.614 110.924 107.045 110.651H107.056Z" fill="#17B8A6"/>
<path d="M154.587 70.2843C151.186 70.6411 147.524 71.5357 145.431 74.6088C143.623 77.2522 143.662 81.8632 145.36 84.5768C147.288 87.6607 151.228 87.7715 154.289 86.7741C157.35 85.7768 160.518 84.0281 160.489 80.2496C160.473 78.2225 159.764 76.1116 158.982 74.2737C158.307 72.6871 157.111 71.3006 155.301 71.4763C154.801 71.5249 154.796 72.3358 155.301 72.2871C157.726 72.0547 158.506 75.0304 159.081 76.9089C159.605 78.663 160.089 80.7388 159.267 82.4821C158.446 84.2254 156.465 85.1146 154.773 85.7525C152.941 86.439 150.93 86.8579 149.017 86.293C145.229 85.1984 144.183 80.2388 145.274 76.7197C146.529 72.6655 150.977 71.4736 154.6 71.0952C155.097 71.0438 155.102 70.233 154.6 70.2843H154.587Z" fill="#17B8A6"/>
<path d="M159.819 101.637C156.418 101.994 152.756 102.888 150.663 105.961C148.855 108.605 148.894 113.216 150.592 115.929C152.52 119.013 156.46 119.124 159.521 118.127C162.582 117.129 165.75 115.381 165.721 111.602C165.705 109.575 164.996 107.464 164.214 105.626C163.539 104.04 162.344 102.653 160.533 102.829C160.034 102.877 160.028 103.688 160.533 103.64C162.958 103.407 163.738 106.383 164.314 108.261C164.837 110.016 165.321 112.091 164.499 113.835C163.678 115.578 161.697 116.467 160.005 117.105C158.174 117.792 156.162 118.21 154.25 117.646C150.461 116.551 149.415 111.591 150.506 108.072C151.762 104.018 156.209 102.826 159.832 102.448C160.329 102.396 160.334 101.586 159.832 101.637H159.819Z" fill="#17B8A6"/>
<path d="M149.457 78.1792L151.934 81.0982C151.983 81.1471 152.044 81.1821 152.11 81.1997C152.176 81.2173 152.245 81.217 152.311 81.1988C152.377 81.1805 152.437 81.145 152.485 81.0957C152.534 81.0463 152.569 80.9848 152.588 80.9171C153.111 79.4955 153.012 78.0224 153.135 76.5278C153.271 74.983 153.646 73.4707 154.247 72.0492C155.454 69.1659 157.5 66.7428 160.102 65.1165C160.533 64.8462 160.138 64.1435 159.707 64.4165C157.142 66.0123 155.084 68.3477 153.786 71.1357C153.151 72.4923 152.711 73.9373 152.478 75.425C152.217 77.1791 152.455 79.0171 151.827 80.7009L152.484 80.5198L150.019 77.6062C149.684 77.2143 149.132 77.79 149.465 78.1792H149.457Z" fill="#17B8A6"/>
<path d="M108.319 113.81C121.813 113.385 135.31 113.295 148.811 113.54C148.915 113.54 149.015 113.497 149.088 113.421C149.162 113.345 149.203 113.242 149.203 113.135C149.203 113.027 149.162 112.924 149.088 112.848C149.015 112.772 148.915 112.729 148.811 112.729C135.314 112.481 121.816 112.571 108.319 112.999C107.814 113.016 107.812 113.827 108.319 113.81Z" fill="#17B8A6"/>
<path d="M151.631 105.815C156.244 107.686 160.681 109.989 164.886 112.697C165.315 112.967 165.711 112.272 165.281 111.997C161.02 109.256 156.525 106.925 151.851 105.034C151.382 104.842 151.178 105.626 151.644 105.815H151.631Z" fill="#17B8A6"/>
<path d="M160.007 102.142C155.33 107.776 152.62 114.87 152.314 122.286C152.293 122.808 153.078 122.808 153.098 122.286C153.396 115.083 156.024 108.192 160.562 102.715C160.889 102.321 160.337 101.745 160.007 102.142Z" fill="#17B8A6"/>
<path d="M55.378 110.867L84.6178 110.472L87.9794 110.426C88.5837 110.426 89.188 110.405 89.7923 110.402C90.6425 110.402 91.2155 111.132 91.1998 112.024C91.1605 113.916 90.0095 113.848 88.5026 113.916L84.8689 114.086L70.0724 114.759C67.4224 114.881 64.7697 115.029 62.1196 115.124C59.7285 115.2 55.1818 114.394 56.244 110.799C56.3904 110.299 55.6344 110.086 55.4853 110.583C54.9621 112.351 55.8882 114.146 57.3793 115.073C59.4957 116.386 62.2844 115.94 64.6206 115.832L82.7865 114.981L87.1972 114.778C88.3273 114.724 89.8996 114.962 90.9382 114.419C92.1572 113.783 92.3718 111.262 91.6026 110.199C91.2076 109.659 90.653 109.61 90.033 109.586C88.4058 109.521 86.7498 109.632 85.12 109.653L76.0632 109.778L55.3676 110.048C55.2635 110.048 55.1637 110.091 55.0901 110.167C55.0165 110.243 54.9752 110.346 54.9752 110.454C54.9752 110.561 55.0165 110.664 55.0901 110.74C55.1637 110.816 55.2635 110.859 55.3676 110.859L55.378 110.867Z" fill="#17B8A6"/>
<path d="M173.514 210.195C172.855 210.622 172.102 210.863 171.421 211.239C170.741 211.614 170.079 212.179 169.886 212.958C169.813 213.199 169.826 213.459 169.92 213.693C170.089 213.975 170.348 214.187 170.652 214.293C172.034 214.927 173.526 215.263 175.038 215.28C176.55 215.298 178.05 214.997 179.445 214.395C179.936 214.152 180.443 213.944 180.962 213.774C181.602 213.639 182.253 213.57 182.906 213.568C183.592 213.527 184.275 213.437 184.949 213.298C185.288 213.259 185.609 213.121 185.875 212.901C186.118 212.612 186.264 212.25 186.291 211.868C186.601 209.763 186.134 207.614 184.983 205.846C184.838 205.599 184.644 205.386 184.413 205.222C184.131 205.072 183.822 204.986 183.505 204.971C182.197 204.806 180.826 204.503 179.505 204.471C178.558 204.449 178.082 204.914 177.412 205.587C176.028 207.017 175.22 209.095 173.514 210.195Z" fill="#323444"/>
<path d="M192.792 209.995C192.792 211.32 192.946 212.722 193.723 213.779C194.079 214.236 194.509 214.625 194.995 214.928C196.638 216.009 198.814 216.406 200.546 215.49C200.826 215.36 201.065 215.152 201.237 214.89C201.498 214.42 201.36 213.833 201.213 213.314L198.707 204.341C197.087 204.598 194.707 204.779 193.268 205.627C192.224 206.241 192.792 208.811 192.792 209.995Z" fill="#323444"/>
<path d="M172.044 154.742C171.892 155.236 171.343 155.466 171.042 155.882C170.689 156.372 170.725 157.05 170.854 157.645C171.012 158.521 171.411 159.333 172.002 159.982C172.302 160.304 172.673 160.547 173.082 160.691C173.492 160.835 173.929 160.876 174.357 160.81C174.779 160.729 175.164 160.507 175.453 160.179C175.742 159.85 175.918 159.433 175.955 158.991C175.94 158.589 175.857 158.192 175.709 157.82L173.925 152.49C173.924 152.452 173.912 152.416 173.891 152.384C173.871 152.353 173.842 152.328 173.808 152.313C173.775 152.298 173.738 152.293 173.701 152.298C173.665 152.304 173.631 152.32 173.603 152.344C173.182 152.55 172.337 152.766 172.091 153.217C171.845 153.669 172.222 154.253 172.044 154.742Z" fill="#FBB3B2"/>
<path d="M171.209 154.474C171.861 154.369 172.431 153.974 173.041 153.715C173.65 153.455 174.414 153.355 174.927 153.788C175.073 153.912 175.215 154.082 175.406 154.08C175.146 152.758 174.753 151.468 174.234 150.231C174.215 150.171 174.18 150.12 174.132 150.082C174.06 150.052 173.981 150.052 173.909 150.082L172.149 150.558C171.497 150.733 171.421 150.679 171.471 151.342C171.484 151.636 171.631 154.474 171.209 154.474Z" fill="#323444"/>
<path d="M171.016 115.986C170.754 116.402 170.754 116.921 170.754 117.411C170.754 119.803 170.778 122.208 171.121 124.576C171.202 125.143 171.304 125.711 171.356 126.284C171.415 127.082 171.428 127.882 171.393 128.681L171.131 139.087C171.1 140.36 171.037 141.728 170.276 142.728C170.045 143.063 169.936 143.472 169.969 143.882C170.168 146.493 170.587 149.082 171.003 151.663C171.673 151.351 172.404 151.207 173.138 151.243C173.872 151.28 174.587 151.495 175.225 151.871C176.545 147.584 177.275 143.125 177.394 138.628C177.454 136.414 177.362 134.187 177.692 132C178.244 128.319 178.019 124.543 177.614 120.84C177.485 119.667 177.213 118.459 176.486 117.551C175.798 116.757 174.881 116.211 173.87 115.994C172.902 115.732 172.036 116.002 171.016 115.986Z" fill="#5B5583"/>
<path opacity="0.1" d="M171.016 115.986C170.754 116.402 170.754 116.921 170.754 117.411C170.754 119.803 170.778 122.208 171.121 124.576C171.202 125.143 171.304 125.711 171.356 126.284C171.415 127.082 171.428 127.882 171.393 128.681L171.131 139.087C171.1 140.36 171.037 141.728 170.276 142.728C170.045 143.063 169.936 143.472 169.969 143.882C170.168 146.493 170.587 149.082 171.003 151.663C171.673 151.351 172.404 151.207 173.138 151.243C173.872 151.28 174.587 151.495 175.225 151.871C176.545 147.584 177.275 143.125 177.394 138.628C177.454 136.414 177.362 134.187 177.692 132C178.244 128.319 178.019 124.543 177.614 120.84C177.485 119.667 177.213 118.459 176.486 117.551C175.798 116.757 174.881 116.211 173.87 115.994C172.902 115.732 172.036 116.002 171.016 115.986Z" fill="black"/>
<path d="M174.213 146.163C172.458 155.452 173.416 165.071 176.965 173.797C177.271 174.442 177.486 175.131 177.603 175.84C177.747 177.164 177.156 178.437 176.818 179.718C176.033 182.632 176.486 185.735 176.988 188.716C177.198 189.959 177.413 191.202 177.634 192.443C177.852 193.654 178.061 194.97 177.517 196.068C177.985 198.084 178.262 200.081 178.731 202.098C178.78 202.257 178.795 202.426 178.775 202.592C178.681 202.856 178.514 203.086 178.296 203.254C177.947 203.62 177.696 204.073 177.568 204.569C177.44 205.066 177.44 205.588 177.566 206.084C178.762 205.198 180.428 205.509 181.794 206.084C183.16 206.66 184.504 207.436 185.98 207.436C185.765 205.646 185.558 203.768 186.197 202.09C186.568 201.117 187.222 200.198 187.204 199.157C187.186 198.224 186.634 197.392 186.5 196.47C186.451 195.897 186.472 195.319 186.563 194.751C186.914 191.443 186.516 188.102 186.118 184.8C186.073 184.148 185.925 183.509 185.679 182.908C185.493 182.518 185.216 182.145 185.221 181.71C185.221 181.205 185.616 180.794 185.763 180.313C186.024 179.426 185.543 178.221 186.267 177.672C188.177 176.224 187.445 172.764 187.403 170.318C187.37 168.208 187.282 166.1 187.141 163.993C188.344 167.486 188.835 171.198 188.585 174.897C188.502 176.107 188.347 177.38 188.805 178.499C189.156 179.359 189.851 180.067 190.04 180.978C190.158 181.54 190.074 182.121 190.1 182.694C190.126 183.267 190.314 183.892 190.793 184.181C190.83 186.786 191.055 189.573 191.094 192.178C191.069 193.51 191.174 194.841 191.408 196.151C191.525 196.568 191.59 196.999 191.602 197.433C191.543 197.977 191.403 198.508 191.188 199.008C190.732 200.403 190.613 201.892 190.841 203.345C191.069 204.798 191.637 206.172 192.496 207.346C193.114 206.214 194.401 205.614 195.657 205.519C196.912 205.425 198.152 205.752 199.369 206.082C199.183 204.502 199.487 202.903 200.237 201.514C200.438 201.201 200.593 200.858 200.695 200.498C200.836 199.811 200.507 199.127 200.329 198.449C200.038 197.368 200.14 196.203 200.208 195.073C200.437 191.289 200.274 187.491 199.724 183.743C199.64 183.005 199.472 182.279 199.225 181.581C199.131 181.332 199.016 181.094 198.937 180.843C198.814 180.392 198.743 179.927 198.728 179.459L198.427 175.134C198.215 172.105 199.178 169.113 199.85 166.156C200.151 164.831 200.478 163.51 200.679 162.164C200.954 160.331 200.998 158.458 201.401 156.65C201.762 155.028 202.414 153.447 202.55 151.785C202.759 149.209 201.723 146.72 200.719 144.358C200.3 143.385 198.717 143.482 197.7 143.309C190.482 142.084 182.88 142.076 176.073 144.836C175.369 145.137 174.735 145.59 174.213 146.163Z" fill="#3C354C"/>
<path d="M179.416 98.1909L180.217 101.407C180.434 102.145 180.555 102.909 180.575 103.68C180.583 103.961 180.523 104.24 180.4 104.491C180.268 104.697 180.099 104.875 179.903 105.015C179.356 105.445 178.977 106.448 178.351 106.745C178.673 107.324 179.118 106.948 179.699 107.237C180.721 107.751 181.658 108.489 182.767 108.743C183.814 108.98 184.912 108.756 185.951 108.472C187.424 108.059 188.889 107.489 190.074 106.491C191.259 105.494 191.934 104.613 191.929 103.037C190.621 103.196 189.457 101.832 188.878 100.604C188.678 100.138 188.53 99.6492 188.439 99.1477L187.738 95.9611C186.974 96.134 186.351 96.6989 185.621 96.9935C184.891 97.2881 184.028 97.3152 183.217 97.353C181.778 97.4207 180.346 97.6123 178.937 97.926C178.744 97.9665 178.5 98.0936 178.548 98.2882" fill="#FBB3B2"/>
<path opacity="0.1" d="M179.416 98.1909L180.217 101.407C180.434 102.145 180.555 102.909 180.575 103.68C180.583 103.961 180.523 104.24 180.4 104.491C180.268 104.697 180.099 104.875 179.903 105.015C179.356 105.445 178.977 106.448 178.351 106.745C178.673 107.324 179.118 106.948 179.699 107.237C180.721 107.751 181.658 108.489 182.767 108.743C183.814 108.98 184.912 108.756 185.951 108.472C187.424 108.059 188.889 107.489 190.074 106.491C191.259 105.494 191.934 104.613 191.929 103.037C190.621 103.196 189.457 101.832 188.878 100.604C188.678 100.138 188.53 99.6492 188.439 99.1477L187.738 95.9611C186.974 96.134 186.351 96.6989 185.621 96.9935C184.891 97.2881 184.028 97.3152 183.217 97.353C181.778 97.4207 180.346 97.6123 178.937 97.926C178.744 97.9665 178.5 98.0936 178.548 98.2882" fill="black"/>
<path d="M182.854 99.9638C186.679 99.9638 189.781 96.7595 189.781 92.8068C189.781 88.8541 186.679 85.6498 182.854 85.6498C179.028 85.6498 175.926 88.8541 175.926 92.8068C175.926 96.7595 179.028 99.9638 182.854 99.9638Z" fill="#FBB3B2"/>
<path d="M184.761 104.605C185.131 103.778 185.666 103.041 186.33 102.442C187.306 101.559 188.64 100.842 188.871 99.5233L190.984 102.067C191.099 102.185 191.188 102.326 191.246 102.483C191.273 102.63 191.269 102.78 191.234 102.925C191.2 103.07 191.136 103.206 191.047 103.323C190.524 104.186 189.7 104.802 188.92 105.426C187.133 106.889 185.423 108.448 183.795 110.097C183.724 110.183 183.628 110.243 183.521 110.27C183.42 110.273 183.32 110.243 183.236 110.186C181.831 109.424 180.589 108.38 179.581 107.116C179.505 107.021 179.411 106.913 179.288 106.921C179.214 106.935 179.145 106.972 179.092 107.026C178.388 107.621 177.619 108.332 176.716 108.24C177.886 107.372 178.548 105.924 178.793 104.456C178.842 103.954 178.942 103.458 179.092 102.978C179.169 102.737 179.303 102.52 179.481 102.346C179.659 102.171 179.876 102.045 180.112 101.977C179.542 102.877 179.931 104.153 180.698 104.88C181.443 105.533 182.336 105.981 183.293 106.18C184.183 106.353 184.444 105.313 184.761 104.605Z" fill="#323444"/>
<path d="M175.748 146.898C176.735 147.15 177.669 147.577 178.626 147.893C180.371 148.457 182.208 148.657 184.028 148.479C184.589 148.467 185.133 148.287 185.598 147.963C185.721 147.86 185.833 147.739 185.964 147.644C186.183 147.509 186.42 147.407 186.668 147.344C189.067 146.568 191.076 144.895 193.025 143.258C193.088 143.203 193.158 143.136 193.153 143.049C193.144 142.991 193.116 142.936 193.075 142.895L192.049 141.679C189.36 142.152 186.605 141.974 183.876 141.903C183.316 141.878 182.755 141.893 182.197 141.949C181.658 142.014 181.127 142.155 180.596 142.274C178.579 142.728 176.517 142.901 174.474 143.198C174.331 143.209 174.193 143.253 174.069 143.328C173.983 143.397 173.909 143.481 173.852 143.576L173.135 144.617C172.857 144.967 172.652 145.373 172.533 145.809C172.366 146.62 172.716 146.89 173.383 146.785C174.171 146.666 174.974 146.704 175.748 146.898Z" fill="#323444"/>
<path d="M183.767 108.859C182.966 108.012 182.059 107.28 181.069 106.683C180.67 106.421 180.226 106.237 179.761 106.142C179.528 106.095 179.286 106.101 179.055 106.159C178.824 106.218 178.608 106.329 178.422 106.483C178.189 106.697 178.043 106.994 177.818 107.218C177.534 107.464 177.21 107.654 176.86 107.778C175.669 108.303 174.54 108.968 173.496 109.759C172.926 110.17 172.413 110.66 171.971 111.213C170.786 112.781 170.608 114.913 170.639 116.902C170.663 118.286 171.947 119.313 172.831 120.348C173.661 121.367 174.411 122.452 175.076 123.592C175.552 124.37 176.049 125.214 175.989 126.141C175.939 126.9 175.51 127.614 175.578 128.37C175.602 128.641 175.686 128.889 175.709 129.151C175.756 129.692 175.549 130.233 175.497 130.773C175.427 131.538 175.667 132.298 175.68 133.068C175.671 133.595 175.606 134.12 175.487 134.633C174.984 137.103 174.354 139.587 174.482 142.109L173.033 142.379C173.17 142.518 173.274 142.689 173.335 142.877C173.397 143.065 173.415 143.265 173.388 143.462C173.361 143.658 173.289 143.846 173.179 144.008C173.068 144.171 172.922 144.304 172.753 144.398C175.016 145.179 177.462 144.785 179.861 144.782C181.846 144.782 183.824 145.052 185.807 145.014C187.79 144.976 189.836 144.606 191.471 143.447C191.916 143.133 192.324 142.766 192.792 142.493C193.419 142.157 194.095 141.929 194.793 141.817C196.086 141.562 197.401 141.441 198.717 141.455C199.361 141.455 200.062 141.482 200.575 141.082C201.14 140.638 201.284 139.836 201.36 139.109C201.435 138.341 201.482 137.571 201.496 136.8C201.518 136.201 201.487 135.6 201.404 135.006C201.325 134.571 201.223 134.142 201.098 133.719L200.112 130.13C199.704 128.649 200.271 127.024 200.392 125.489C200.42 125.127 200.426 124.705 200.156 124.473C200.059 124.389 199.926 124.332 199.895 124.203C199.88 124.141 199.879 124.077 199.89 124.015C199.9 123.953 199.923 123.893 199.957 123.84C200.481 122.759 201.265 121.805 201.982 120.83C203.186 119.118 204.304 117.344 205.331 115.513C205.009 111.683 203.448 108.076 200.899 105.275C200.401 104.655 199.765 104.17 199.044 103.861C198.566 103.71 198.069 103.628 197.569 103.615C195.518 103.472 193.383 103.345 191.596 102.28C191.468 102.188 191.323 102.125 191.17 102.094C190.775 102.048 190.487 102.45 190.231 102.769C189.572 103.58 188.601 104.045 187.748 104.642C186.158 105.759 184.915 107.294 183.767 108.859Z" fill="#5B5583"/>
<path d="M205.509 116.619C205.917 117.954 205.878 119.381 206.011 120.773C206.09 121.613 206.233 122.445 206.437 123.262C206.531 123.711 206.699 124.14 206.934 124.53C207.17 124.886 207.507 125.176 207.656 125.578C207.738 125.851 207.774 126.136 207.764 126.422L207.795 128.287C207.862 129.275 207.717 130.266 207.369 131.189L206.241 134.733C205.632 136.652 205.006 138.6 203.908 140.271C203.753 140.554 203.518 140.781 203.235 140.922C203.014 140.983 202.787 141.019 202.558 141.03C202.159 141.104 201.797 141.319 201.535 141.638C201.273 141.957 201.127 142.36 201.122 142.779C200.86 142.384 200.533 142.039 200.156 141.76L197.862 139.868C197.077 139.209 196.258 138.538 195.306 138.157C196.587 137.744 197.724 136.956 198.579 135.888C199.435 134.82 199.972 133.518 200.125 132.141C200.124 131.731 200.213 131.326 200.386 130.957C200.577 130.638 200.931 130.395 200.957 130.019C200.988 129.546 200.47 129.189 200.47 128.716C200.47 128.403 200.695 128.143 200.795 127.849C200.887 127.485 200.887 127.102 200.795 126.738L200.478 124.922C200.459 124.74 200.406 124.563 200.321 124.403C200.203 124.249 200.071 124.106 199.929 123.976C199.384 123.346 199.625 122.354 199.929 121.578C200.625 119.856 201.523 118.229 202.602 116.732C202.986 116.229 203.342 115.704 203.667 115.159C203.944 114.662 204.007 113.973 204.3 113.537C204.677 114.559 205.187 115.567 205.509 116.619Z" fill="#5B5583"/>
<path d="M195.225 138.268C195.108 138.358 195.007 138.467 194.927 138.592C194.618 138.992 194.208 139.295 193.742 139.465C194.003 139.66 194.241 139.852 194.487 140.049C196.307 141.501 197.973 143.147 199.458 144.96C199.622 144.352 200.609 144.395 200.849 143.814C200.906 143.648 200.924 143.47 200.902 143.295C200.852 142.385 200.726 141.48 200.525 140.592C200.446 140.135 200.267 139.703 200.002 139.328C199.636 138.871 199.065 138.652 198.521 138.463C197.697 138.165 196.062 137.746 195.225 138.268Z" fill="#323444"/>
<path d="M191.955 140.393C191.17 140.993 190.482 141.744 189.6 142.155C188.978 142.447 188.269 142.574 187.725 143.009C188.02 143.682 188.789 144.031 189.504 144.003C190.218 143.931 190.904 143.671 191.494 143.249C191.963 142.952 192.512 142.606 193.022 142.814C193.101 143.225 192.761 143.612 192.761 144.028C192.761 144.444 193.095 144.747 193.425 144.966C194.995 146.012 197.014 145.925 198.885 145.804C198.992 145.808 199.098 145.775 199.186 145.712C199.226 145.663 199.257 145.606 199.276 145.545C199.296 145.484 199.303 145.419 199.298 145.355C199.322 144.928 199.332 144.504 199.335 144.076C199.388 143.732 199.344 143.379 199.21 143.06C199.076 142.74 198.856 142.466 198.576 142.271C197.561 141.37 196.466 140.569 195.306 139.879C194.155 139.19 192.988 139.598 191.955 140.393Z" fill="#FBB3B2"/>
<path d="M185.286 89.8149C184.125 89.9581 183.28 90.896 183.398 91.9149C183.515 92.9339 184.551 93.6366 185.713 93.4907C186.874 93.3447 187.719 92.4096 187.602 91.3933C187.484 90.377 186.448 89.6716 185.286 89.8149ZM185.681 93.2096C184.698 93.3312 183.821 92.7339 183.719 91.8744C183.617 91.0149 184.337 90.2203 185.318 90.0987C186.299 89.977 187.178 90.5744 187.28 91.4338C187.382 92.2933 186.663 93.088 185.681 93.2096Z" fill="#3C354C"/>
<path d="M179.625 90.5176C178.464 90.6609 177.619 91.5987 177.737 92.615C177.854 93.6312 178.89 94.3367 180.052 94.1934C181.213 94.0502 182.058 93.1123 181.941 92.0933C181.823 91.0744 180.787 90.3744 179.625 90.5176ZM180.02 93.9096C179.037 94.0313 178.16 93.4339 178.061 92.5771C177.962 91.7204 178.676 90.923 179.659 90.7987C180.643 90.6744 181.519 91.2744 181.619 92.1339C181.718 92.9934 181.001 93.788 180.02 93.9096Z" fill="#3C354C"/>
<path d="M175.421 91.0392L177.946 91.596L177.697 92.2825L175.317 91.5608L175.421 91.0392Z" fill="#3C354C"/>
<path d="M189.493 89.2932L187.165 90.4527L187.565 91.0581L189.713 89.7743L189.493 89.2932Z" fill="#3C354C"/>
<path d="M181.708 91.423L183.479 91.2041L183.387 91.6582L181.867 91.7636L181.708 91.423Z" fill="#3C354C"/>
<path d="M178.273 90.8095C178.439 90.4392 178.529 90.0367 178.534 89.6284C178.541 89.384 178.581 89.1418 178.655 88.9094C178.783 88.6143 178.979 88.3556 179.225 88.1553C180.041 87.4418 181.211 87.0742 182.364 87.0229C183.622 86.9631 184.874 87.2425 185.995 87.8337C186.338 87.9996 186.645 88.2349 186.898 88.5256C187.264 88.9878 187.343 89.5851 187.712 90.0419C187.963 90.3191 188.28 90.5244 188.631 90.638C188.982 90.7517 189.356 90.7698 189.715 90.6906C189.844 90.2203 189.676 89.723 189.742 89.2419C189.845 88.8296 189.984 88.428 190.158 88.0418C190.563 86.8066 189.972 85.3742 188.753 84.6363C188.326 84.366 187.821 84.1903 187.502 83.8254C187.183 83.4606 187.107 83.0822 186.888 82.7173C186.304 81.7524 184.795 81.301 183.646 81.747C183.285 81.8875 182.966 82.1011 182.6 82.2524C181.92 82.5416 181.145 82.593 180.397 82.6903C179.66 82.7607 178.938 82.9561 178.262 83.2687C177.616 83.5984 177.075 84.1282 176.926 84.7606C176.855 85.0525 176.871 85.3552 176.8 85.6444C176.439 87.1121 174.108 87.8256 173.977 89.323C173.93 89.8635 174.215 90.3825 174.571 90.823C174.817 91.123 175.406 91.9258 175.822 92.042C176.238 92.1582 176.554 91.7501 176.952 91.6095C177.58 91.4068 177.959 91.3636 178.273 90.8095Z" fill="#CBCEDA"/>
</g>
<defs>
<clipPath id="clip0_67_405">
<rect width="217" height="160" fill="white" transform="translate(33 56)"/>
</clipPath>
</defs>
</svg>
