<svg width="480" height="520" viewBox="0 0 480 520" fill="none" xmlns="http://www.w3.org/2000/svg">
<path fill-rule="evenodd" clip-rule="evenodd" d="M245.864 0.706114C355.292 3.17932 422.844 105.958 456.492 210.113C489.912 313.562 498.094 440.93 407.491 501.011C323.04 557.013 227.218 476.598 145.99 416.015C69.5551 359.007 -18.5522 292.591 3.7428 199.881C30.7575 87.5446 130.355 -1.90454 245.864 0.706114Z" fill="#8ACAC3"/>
<path d="M380.256 402.279H98.883C96.2627 402.276 93.7507 401.251 91.8979 399.429C90.0451 397.607 89.0029 395.137 89 392.56V82.7183C89.0029 80.1417 90.0451 77.6715 91.8979 75.8496C93.7507 74.0277 96.2627 73.0029 98.883 73H380.256C382.877 73.0029 385.389 74.0277 387.242 75.8496C389.094 77.6715 390.137 80.1417 390.139 82.7183V392.56C390.137 395.137 389.094 397.607 387.242 399.429C385.389 401.251 382.877 402.276 380.256 402.279Z" fill="#17B8A6"/>
<path d="M322.122 231.923H157.018C153.164 231.923 149.467 230.417 146.741 227.737C144.016 225.057 142.484 221.422 142.484 217.631C142.484 213.841 144.016 210.206 146.741 207.526C149.467 204.846 153.164 203.34 157.018 203.34H322.122C325.976 203.34 329.673 204.846 332.398 207.526C335.124 210.206 336.655 213.841 336.655 217.631C336.655 221.422 335.124 225.057 332.398 227.737C329.673 230.417 325.976 231.923 322.122 231.923Z" fill="white"/>
<path d="M322.122 285.087H157.018C153.164 285.087 149.467 283.581 146.741 280.901C144.016 278.221 142.484 274.586 142.484 270.796C142.484 267.005 144.016 263.37 146.741 260.69C149.467 258.01 153.164 256.504 157.018 256.504H322.122C325.976 256.504 329.673 258.01 332.398 260.69C335.124 263.37 336.655 267.005 336.655 270.796C336.655 274.586 335.124 278.221 332.398 280.901C329.673 283.581 325.976 285.087 322.122 285.087Z" fill="white"/>
<path d="M322.122 338.824H157.018C153.164 338.824 149.467 337.319 146.741 334.639C144.016 331.958 142.484 328.323 142.484 324.533C142.484 320.742 144.016 317.107 146.741 314.427C149.467 311.747 153.164 310.241 157.018 310.241H322.122C325.976 310.241 329.673 311.747 332.398 314.427C335.124 317.107 336.655 320.742 336.655 324.533C336.655 328.323 335.124 331.958 332.398 334.639C329.673 337.319 325.976 338.824 322.122 338.824Z" fill="white"/>
<path d="M271.544 161.609H207.595C203.741 161.609 200.044 160.103 197.318 157.423C194.593 154.743 193.062 151.107 193.062 147.317C193.062 143.527 194.593 139.892 197.318 137.211C200.044 134.531 203.741 133.025 207.595 133.025H271.544C275.398 133.025 279.095 134.531 281.821 137.211C284.546 139.892 286.078 143.527 286.078 147.317C286.078 151.107 284.546 154.743 281.821 157.423C279.095 160.103 275.398 161.609 271.544 161.609Z" fill="white"/>
</svg>
