<svg width="75" height="61" viewBox="0 0 75 61" fill="none" xmlns="http://www.w3.org/2000/svg">
<g clip-path="url(#clip0_3_18)">
<mask id="mask0_3_18" style="mask-type:luminance" maskUnits="userSpaceOnUse" x="0" y="0" width="75" height="61">
<path d="M75 0H0V60.9104H75V0Z" fill="white"/>
</mask>
<g mask="url(#mask0_3_18)">
<path d="M3.8289 42.7023H1.74797V28.1358H2.78843C3.80115 28.1358 4.8971 28.3301 6.07629 28.7185C7.26936 29.1069 8.46242 29.6549 9.65549 30.3624C10.8485 31.0699 11.9722 31.9162 13.0266 32.9011C14.0948 33.8722 15.0104 34.9543 15.7734 36.1474V28.1358H17.8543V42.7023H15.7734C15.7734 41.426 15.5098 40.2052 14.9827 39.0399C14.4694 37.8607 13.7827 36.7786 12.9225 35.7936C12.0624 34.7948 11.1052 33.9139 10.0509 33.1509C9.0104 32.374 7.94913 31.7428 6.86705 31.2572C5.78497 30.7578 4.77225 30.4387 3.8289 30.3V42.7023ZM36.6115 42.7023H27.2265C26.2138 42.7023 25.2982 42.515 24.4797 42.1405C23.6612 41.7659 22.9537 41.2457 22.3571 40.5798C21.7745 39.9139 21.3236 39.1439 21.0045 38.2699C20.6854 37.3821 20.5259 36.4318 20.5259 35.4191C20.5259 34.4202 20.6854 33.4838 21.0045 32.6098C21.3236 31.722 21.7745 30.9451 22.3571 30.2792C22.9537 29.5994 23.6612 29.0722 24.4797 28.6977C25.2982 28.3231 26.2138 28.1358 27.2265 28.1358H36.6115V30.2168H27.2265C26.2693 30.2168 25.4439 30.4526 24.7502 30.9243C24.0704 31.3821 23.5433 32.0064 23.1687 32.7971C22.7941 33.5879 22.6069 34.4618 22.6069 35.4191C22.6069 36.3763 22.7941 37.2503 23.1687 38.041C23.5433 38.8179 24.0704 39.4422 24.7502 39.9139C25.4439 40.3855 26.2693 40.6214 27.2265 40.6214H36.6115V42.7023ZM56.2868 35.4191C56.2868 36.4318 56.1273 37.3821 55.8082 38.2699C55.4892 39.1439 55.0314 39.9139 54.4348 40.5798C53.8522 41.2457 53.1446 41.7659 52.3123 42.1405C51.4938 42.515 50.5851 42.7023 49.5863 42.7023H42.2406V40.6214H49.5863C50.5435 40.6214 51.3689 40.3855 52.0626 39.9139C52.7562 39.4422 53.2834 38.8179 53.6441 38.041C54.0186 37.2503 54.2059 36.3763 54.2059 35.4191C54.2059 34.4618 54.0186 33.5879 53.6441 32.7971C53.2834 32.0064 52.7562 31.3821 52.0626 30.9243C51.3689 30.4526 50.5435 30.2168 49.5863 30.2168H41.2001V42.7023H39.1192V28.1358H49.5863C50.5851 28.1358 51.4938 28.3231 52.3123 28.6977C53.1446 29.0722 53.8522 29.5994 54.4348 30.2792C55.0314 30.9451 55.4892 31.722 55.8082 32.6098C56.1273 33.4838 56.2868 34.4202 56.2868 35.4191ZM74.0189 42.7023H58.953V28.1358H74.0189V30.2168H61.034V40.6214H74.0189V42.7023ZM72.2501 36.4595H62.0744V34.3786H72.2501V36.4595Z" fill="black"/>
<path d="M27.9082 58.3092H20.8634V56.1416C20.8634 55.7443 20.961 55.3829 21.156 55.0578C21.3511 54.7255 21.6113 54.4617 21.9364 54.2666C22.2687 54.0715 22.6337 53.974 23.031 53.974H25.7406C26.0369 53.974 26.2896 53.8693 26.4993 53.6597C26.716 53.4429 26.8244 53.1865 26.8244 52.8902C26.8244 52.5938 26.716 52.3411 26.4993 52.1315C26.2896 51.9147 26.0369 51.8063 25.7406 51.8063H21.4053V50.7225H25.7406C26.1379 50.7225 26.4993 50.8201 26.8244 51.0152C27.1567 51.2103 27.4205 51.4741 27.6156 51.8063C27.8107 52.1315 27.9082 52.4928 27.9082 52.8902C27.9082 53.2875 27.8107 53.6525 27.6156 53.9848C27.4205 54.31 27.1567 54.5701 26.8244 54.7652C26.4993 54.9602 26.1379 55.0578 25.7406 55.0578H23.031C22.7347 55.0578 22.4783 55.1662 22.2615 55.3829C22.0448 55.5925 21.9364 55.8453 21.9364 56.1416V57.2254H27.9082V58.3092ZM37.7284 54.5159C37.7284 55.0433 37.6452 55.5384 37.4792 56.0007C37.3129 56.4559 37.0745 56.8569 36.7639 57.2037C36.4604 57.5506 36.0919 57.8215 35.6584 58.0166C35.232 58.2117 34.7588 58.3092 34.2386 58.3092H32.4719C31.9443 58.3092 31.4675 58.2117 31.0413 58.0166C30.6149 57.8215 30.2464 57.5506 29.9358 57.2037C29.6323 56.8569 29.3974 56.4559 29.2313 56.0007C29.0651 55.5384 28.9821 55.0433 28.9821 54.5159C28.9821 53.9957 29.0651 53.5079 29.2313 53.0527C29.3974 52.5904 29.6323 52.1857 29.9358 51.8389C30.2464 51.4849 30.6149 51.2103 31.0413 51.0152C31.4675 50.8201 31.9443 50.7225 32.4719 50.7225H34.2386C34.7588 50.7225 35.232 50.8201 35.6584 51.0152C36.0919 51.2103 36.4604 51.4849 36.7639 51.8389C37.0745 52.1857 37.3129 52.5904 37.4792 53.0527C37.6452 53.5079 37.7284 53.9957 37.7284 54.5159ZM36.6446 54.5159C36.6446 54.0173 36.5471 53.5621 36.352 53.1503C36.1641 52.7384 35.8894 52.4133 35.5283 52.1748C35.167 51.9293 34.7371 51.8063 34.2386 51.8063H32.4719C31.9734 51.8063 31.5433 51.9293 31.1822 52.1748C30.828 52.4133 30.5536 52.7384 30.3585 53.1503C30.1634 53.5621 30.0659 54.0173 30.0659 54.5159C30.0659 55.0144 30.1634 55.4696 30.3585 55.8815C30.5536 56.2862 30.828 56.6113 31.1822 56.8569C31.5433 57.1025 31.9734 57.2254 32.4719 57.2254H34.2386C34.7371 57.2254 35.167 57.1025 35.5283 56.8569C35.8894 56.6113 36.1641 56.2862 36.352 55.8815C36.5471 55.4696 36.6446 55.0144 36.6446 54.5159ZM45.7743 58.3092H38.7295V56.1416C38.7295 55.7443 38.827 55.3829 39.0221 55.0578C39.2172 54.7255 39.4773 54.4617 39.8024 54.2666C40.1347 54.0715 40.4998 53.974 40.8971 53.974H43.6066C43.9029 53.974 44.1557 53.8693 44.3653 53.6597C44.5821 53.4429 44.6904 53.1865 44.6904 52.8902C44.6904 52.5938 44.5821 52.3411 44.3653 52.1315C44.1557 51.9147 43.9029 51.8063 43.6066 51.8063H39.2714V50.7225H43.6066C44.004 50.7225 44.3653 50.8201 44.6904 51.0152C45.0227 51.2103 45.2865 51.4741 45.4816 51.8063C45.6767 52.1315 45.7743 52.4928 45.7743 52.8902C45.7743 53.2875 45.6767 53.6525 45.4816 53.9848C45.2865 54.31 45.0227 54.5701 44.6904 54.7652C44.3653 54.9602 44.004 55.0578 43.6066 55.0578H40.8971C40.6008 55.0578 40.3443 55.1662 40.1276 55.3829C39.9108 55.5925 39.8024 55.8453 39.8024 56.1416V57.2254H45.7743V58.3092ZM54.0986 55.8707C54.0986 56.3187 53.9902 56.7269 53.7735 57.0954C53.5567 57.4639 53.2641 57.7602 52.8956 57.9841C52.5271 58.2009 52.1152 58.3092 51.66 58.3092H47.0321V57.2254H51.66C51.913 57.2254 52.1406 57.1641 52.3428 57.0412C52.5453 56.9183 52.7079 56.7557 52.8305 56.5535C52.9534 56.3438 53.0148 56.1162 53.0148 55.8707C53.0148 55.6177 52.9534 55.3901 52.8305 55.1879C52.7079 54.9856 52.5453 54.823 52.3428 54.7001C52.1406 54.5772 51.913 54.5159 51.66 54.5159H47.043V50.7225H53.5567V51.8063H48.1268V53.4321H51.66C52.1152 53.4321 52.5271 53.5441 52.8956 53.7681C53.2641 53.9848 53.5567 54.2774 53.7735 54.6459C53.9902 55.0144 54.0986 55.4226 54.0986 55.8707Z" fill="black"/>
<path d="M12.5722 17.5578C14.1285 17.5578 15.3902 16.2962 15.3902 14.7399C15.3902 13.1836 14.1285 11.922 12.5722 11.922C11.0159 11.922 9.75432 13.1836 9.75432 14.7399C9.75432 16.2962 11.0159 17.5578 12.5722 17.5578Z" fill="#17B8A6"/>
<path d="M22.5433 8.45375C24.0996 8.45375 25.3613 7.19213 25.3613 5.63584C25.3613 4.07954 24.0996 2.81792 22.5433 2.81792C20.987 2.81792 19.7254 4.07954 19.7254 5.63584C19.7254 7.19213 20.987 8.45375 22.5433 8.45375Z" fill="#17B8A6"/>
<path d="M33.5983 21.8931C35.1545 21.8931 36.4162 20.6314 36.4162 19.0751C36.4162 17.5189 35.1545 16.2572 33.5983 16.2572C32.042 16.2572 30.7803 17.5189 30.7803 19.0751C30.7803 20.6314 32.042 21.8931 33.5983 21.8931Z" fill="#17B8A6"/>
<path d="M42.4855 14.0896C44.0418 14.0896 45.3035 12.828 45.3035 11.2717C45.3035 9.71538 44.0418 8.45376 42.4855 8.45376C40.9292 8.45376 39.6676 9.71538 39.6676 11.2717C39.6676 12.828 40.9292 14.0896 42.4855 14.0896Z" fill="#17B8A6"/>
<path d="M62.4277 5.63584C63.984 5.63584 65.2457 4.37421 65.2457 2.81792C65.2457 1.26163 63.984 0 62.4277 0C60.8714 0 59.6098 1.26163 59.6098 2.81792C59.6098 4.37421 60.8714 5.63584 62.4277 5.63584Z" fill="#17B8A6"/>
<path d="M11.8683 14.9996L22.273 6.1123" stroke="#17B8A6" stroke-width="2.16763"/>
<path d="M33.328 19.3348L38.5303 14.8912L43.7326 10.4476" stroke="#17B8A6" stroke-width="2.16763"/>
<path d="M44.0675 10.356L61.6691 2.81792" stroke="#17B8A6" stroke-width="2.16763"/>
<path d="M33.6904 19.0407L23.8439 6.81481" stroke="#17B8A6" stroke-width="2.16763"/>
</g>
</g>
<defs>
<clipPath id="clip0_3_18">
<rect width="75" height="60.9104" fill="white"/>
</clipPath>
</defs>
</svg>
