<svg width="494" height="529" viewBox="0 0 494 529" fill="none" xmlns="http://www.w3.org/2000/svg">
<path fill-rule="evenodd" clip-rule="evenodd" d="M252.773 0.00386656C305.396 -0.422347 350.485 34.4661 392.744 65.8274C432.692 95.4743 474.143 128.217 489.359 175.581C503.996 221.143 479.964 267.944 472.881 315.273C465.847 362.27 475.022 413.681 447.886 452.692C419.786 493.087 373.524 522.754 324.64 528.381C277.949 533.756 238.656 498.14 194.569 481.852C154.134 466.914 109.359 464.178 76.2251 436.606C39.7888 406.286 1.36939 367.348 0.0256531 319.966C-1.31201 272.797 50.0246 242.908 69.5133 199.934C89.0778 156.792 82.2436 103.003 114.252 68.083C149.735 29.3724 200.263 0.429173 252.773 0.00386656Z" fill="#8ACAC3"/>
<g clip-path="url(#clip0_33_1410)">
<path d="M110.532 313.056C141.119 313.056 165.915 288.261 165.915 257.674C165.915 227.087 141.119 202.291 110.532 202.291C79.9453 202.291 55.1497 227.087 55.1497 257.674C55.1497 288.261 79.9453 313.056 110.532 313.056Z" fill="#F2F2F2"/>
<path d="M111.027 259.983C123.224 259.983 133.112 250.095 133.112 237.898C133.112 225.701 123.224 215.813 111.027 215.813C98.8298 215.813 88.9421 225.701 88.9421 237.898C88.9421 250.095 98.8298 259.983 111.027 259.983Z" fill="#2F2E41"/>
<path d="M166.215 130.578C166.195 141.532 162.928 152.234 156.827 161.33C150.725 170.427 142.063 177.51 131.935 181.684C121.808 185.858 110.671 186.935 99.9314 184.779C89.192 182.623 79.3332 177.331 71.6015 169.572C63.8699 161.813 58.6127 151.935 56.4948 141.188C54.3769 130.441 55.4934 119.308 59.7031 109.195C63.9128 99.0829 71.0267 90.4459 80.1451 84.3765C89.2635 78.3072 99.9768 75.078 110.93 75.0975C118.209 75.0915 125.416 76.5239 132.139 79.3124C138.862 82.1008 144.968 86.1904 150.105 91.346C155.243 96.5016 159.31 102.622 162.075 109.354C164.84 116.087 166.247 123.3 166.215 130.578Z" fill="#F2F2F2"/>
<path d="M241.953 313.056C272.54 313.056 297.336 288.261 297.336 257.674C297.336 227.087 272.54 202.291 241.953 202.291C211.366 202.291 186.571 227.087 186.571 257.674C186.571 288.261 211.366 313.056 241.953 313.056Z" fill="#F2F2F2"/>
<path d="M241.792 185.862C272.379 185.862 297.175 161.067 297.175 130.48C297.175 99.893 272.379 75.0974 241.792 75.0974C211.205 75.0974 186.41 99.893 186.41 130.48C186.41 161.067 211.205 185.862 241.792 185.862Z" fill="#F2F2F2"/>
<path d="M376.773 185.862C407.36 185.862 432.155 161.067 432.155 130.48C432.155 99.893 407.36 75.0974 376.773 75.0974C346.186 75.0974 321.39 99.893 321.39 130.48C321.39 161.067 346.186 185.862 376.773 185.862Z" fill="#F2F2F2"/>
<path d="M378.774 313.056C409.361 313.056 434.157 288.261 434.157 257.674C434.157 227.087 409.361 202.291 378.774 202.291C348.187 202.291 323.392 227.087 323.392 257.674C323.392 288.261 348.187 313.056 378.774 313.056Z" fill="#F2F2F2"/>
<path d="M166.212 393.249C166.11 404.202 162.762 414.879 156.592 423.929C150.421 432.98 141.706 439.997 131.547 444.094C121.389 448.191 110.243 449.184 99.5206 446.947C88.7979 444.709 78.9794 439.343 71.3067 431.525C63.634 423.708 58.4518 413.791 56.4153 403.028C54.3789 392.265 55.5797 381.14 59.8658 371.06C64.152 360.98 71.331 352.397 80.4951 346.397C89.6592 340.397 100.397 337.249 111.35 337.351C118.632 337.387 125.835 338.865 132.542 341.699C139.25 344.534 145.33 348.669 150.431 353.866C155.532 359.063 159.553 365.219 162.261 371.979C164.97 378.738 166.313 385.968 166.212 393.249Z" fill="#F2F2F2"/>
<path d="M245.351 448.115C275.938 448.115 300.734 423.319 300.734 392.732C300.734 362.145 275.938 337.35 245.351 337.35C214.764 337.35 189.969 362.145 189.969 392.732C189.969 423.319 214.764 448.115 245.351 448.115Z" fill="#F2F2F2"/>
<path d="M85.163 112.464C87.453 105.166 92.6607 98.4719 99.8627 96.0047C107.065 93.5374 117.611 97.2958 123.026 102.692C132.93 112.563 135.348 146.473 128.543 157.189C127.189 157.118 122.519 157.065 121.149 157.014L119.211 150.555V156.95C117.029 156.882 114.829 156.836 112.613 156.81C105.181 156.718 98.0743 153.748 92.7869 148.525C87.4995 143.301 84.4431 136.232 84.2603 128.802C84.083 121.694 84.2605 115.34 85.163 112.464Z" fill="#2F2E41"/>
<path d="M110.011 136.652C118.728 136.652 125.795 129.586 125.795 120.869C125.795 112.152 118.728 105.085 110.011 105.085C101.294 105.085 94.2273 112.152 94.2273 120.869C94.2273 129.586 101.294 136.652 110.011 136.652Z" fill="#9E616A"/>
<path d="M96.3892 107.007L114.562 97.907C118.278 99.5813 121.478 102.219 123.83 105.547C126.183 108.874 127.602 112.771 127.941 116.832L128.394 122.258L120.784 120.321L119.95 113.383L118.658 119.779L115.146 118.886L115.179 108.115L111.665 118.878L99.1217 115.996L96.3892 107.007Z" fill="#2F2E41"/>
<path d="M226.745 236.892C231.063 236.892 234.564 233.391 234.564 229.073C234.564 224.755 231.063 221.254 226.745 221.254C222.427 221.254 218.926 224.755 218.926 229.073C218.926 233.391 222.427 236.892 226.745 236.892Z" fill="#2F2E41"/>
<path d="M239.256 266.605C250.195 266.605 259.064 257.736 259.064 246.796C259.064 235.857 250.195 226.988 239.256 226.988C228.316 226.988 219.447 235.857 219.447 246.796C219.447 257.736 228.316 266.605 239.256 266.605Z" fill="#2F2E41"/>
<path d="M240.895 266.6C249.785 266.6 256.991 259.393 256.991 250.503C256.991 241.614 249.785 234.407 240.895 234.407C232.005 234.407 224.798 241.614 224.798 250.503C224.798 259.393 232.005 266.6 240.895 266.6Z" fill="#9E616A"/>
<path d="M251.826 234.095C249.005 232.376 245.775 231.446 242.471 231.402C239.168 231.358 235.914 232.203 233.049 233.848C230.184 235.492 227.814 237.876 226.185 240.751C224.557 243.625 223.731 246.884 223.794 250.187C231.996 252.246 240.612 253.822 249.359 250.679L251.425 245.624L252.643 250.683C255.306 251.772 257.977 252.693 260.647 250.673C260.757 247.379 259.999 244.115 258.451 241.205C256.903 238.296 254.619 235.845 251.826 234.095Z" fill="#2F2E41"/>
<path d="M219.465 207.847C214.058 205.368 207.274 206.531 202.772 210.419C198.27 214.306 196.13 220.633 196.999 226.517C197.886 232.52 201.535 237.689 204.899 242.74C208.263 247.79 211.549 253.324 211.545 259.392C211.543 263.762 209.807 267.953 206.718 271.046C203.63 274.138 199.442 275.88 195.071 275.889C200.201 278.097 205.554 280.348 211.133 280.087C216.711 279.825 222.558 276.239 223.468 270.729C224.124 266.758 222.176 262.887 220.552 259.206C217.906 253.207 215.993 246.911 214.855 240.454C214.313 237.372 213.959 234.132 214.964 231.169C215.764 228.973 217.249 227.092 219.199 225.804C221.149 224.516 223.462 223.888 225.795 224.014L227.639 222.356C228.459 216.464 224.872 210.326 219.465 207.847Z" fill="#2F2E41"/>
<path d="M354.17 108.817C353.41 112.901 352.164 116.879 350.457 120.667C340.688 141.334 368.51 134.598 378.452 134.598C389.323 134.598 399.724 140.314 398.136 114.914C397.457 104.065 389.323 95.231 378.452 95.231C369.167 95.2311 356.112 99.3582 354.17 108.817Z" fill="#2F2E41"/>
<path d="M376.823 134.593C385.657 134.593 392.818 127.432 392.818 118.598C392.818 109.764 385.657 102.603 376.823 102.603C367.99 102.603 360.829 109.764 360.829 118.598C360.829 127.432 367.99 134.593 376.823 134.593Z" fill="#FFB6B6"/>
<path d="M365.961 102.293C368.764 100.585 371.974 99.6604 375.257 99.6171C378.539 99.5739 381.773 100.413 384.62 102.047C387.466 103.682 389.822 106.051 391.44 108.907C393.058 111.763 393.879 115.001 393.817 118.283C385.666 120.33 377.104 121.896 368.412 118.773L366.36 113.749L365.15 118.777C362.503 119.858 359.849 120.774 357.195 118.766C357.087 115.493 357.84 112.249 359.378 109.359C360.916 106.468 363.186 104.032 365.961 102.293Z" fill="#2F2E41"/>
<path d="M111.036 262.884C121.932 262.884 130.765 254.051 130.765 243.155C130.765 232.258 121.932 223.425 111.036 223.425C100.14 223.425 91.3066 232.258 91.3066 243.155C91.3066 254.051 100.14 262.884 111.036 262.884Z" fill="#FFB8B8"/>
<path d="M244.132 398.477C253.411 398.477 260.934 390.954 260.934 381.675C260.934 372.396 253.411 364.873 244.132 364.873C234.853 364.873 227.33 372.396 227.33 381.675C227.33 390.954 234.853 398.477 244.132 398.477Z" fill="#9E616A"/>
<path d="M244.049 136.129C254.023 136.129 262.109 128.044 262.109 118.07C262.109 108.096 254.023 100.011 244.049 100.011C234.076 100.011 225.99 108.096 225.99 118.07C225.99 128.044 234.076 136.129 244.049 136.129Z" fill="#FFB8B8"/>
<path d="M259.95 106.14C259.95 106.14 264.652 97.1509 254.307 96.3337C254.307 96.3337 245.489 88.3339 236.5 94.8713C236.5 94.8713 231.597 94.8713 228.916 100.42C228.916 100.42 225.06 98.9571 224.212 102.871C224.212 102.871 221.39 111.043 224.212 118.397C227.034 125.752 227.971 126.569 227.971 126.569C227.971 126.569 225.991 117.442 237.277 116.625C248.563 115.808 258.917 108.738 259.857 117.727C260.798 126.715 261.832 122.655 261.832 122.655C261.832 122.655 270.765 109.817 259.95 106.14Z" fill="#2F2E41"/>
<path d="M377.246 264.534C387.009 264.534 394.924 256.619 394.924 246.856C394.924 237.092 387.009 229.177 377.246 229.177C367.482 229.177 359.567 237.092 359.567 246.856C359.567 256.619 367.482 264.534 377.246 264.534Z" fill="#FFB6B6"/>
<path d="M133.483 379.481L133.209 379.974C135.648 373.963 133.43 366.556 129.079 362.024C124.728 357.491 118.679 355.419 112.723 354.597C108.301 353.986 103.712 354.004 99.5073 355.624C93.4191 357.969 88.7675 363.398 84.8839 369.046C83.1074 371.63 81.3608 374.575 81.5378 377.804C81.7021 380.8 83.4807 383.343 84.9372 385.885C86.394 388.427 87.6104 391.581 86.5649 394.356C85.942 396.01 84.6254 397.2 83.5571 398.553C82.4888 399.906 81.61 401.734 82.126 403.431C82.3551 404.08 82.7488 404.659 83.2685 405.111C83.7882 405.562 84.4161 405.871 85.091 406.008C86.3825 406.309 87.7223 406.112 89.0302 405.914L122.98 400.785C125.287 400.437 127.476 399.535 129.359 398.158C131.242 396.781 132.765 394.969 133.796 392.876C134.828 390.783 135.338 388.472 135.283 386.14C135.229 383.807 134.611 381.523 133.483 379.481Z" fill="#2F2E41"/>
<path d="M124.614 386.608C126.083 377.559 119.938 369.033 110.889 367.565C101.84 366.096 93.314 372.242 91.8456 381.29C90.3772 390.339 96.5223 398.865 105.571 400.334C114.62 401.802 123.146 395.657 124.614 386.608Z" fill="#FFB9B9"/>
<path d="M152.418 429.299C142.823 440.216 129.32 446.923 114.823 447.97C100.327 449.018 85.9993 444.323 74.9343 434.898L79.6846 421.643C80.7581 419.289 82.4521 417.272 84.5851 415.807C86.7181 414.342 89.2095 413.486 91.7922 413.329L94.8142 413.144L102.02 406.929C102.02 406.929 121.436 406.236 121.148 405.904L132.909 412.978L132.899 412.929L137.523 413.212C140.106 413.368 142.597 414.224 144.731 415.689C146.864 417.154 148.558 419.172 149.63 421.526L152.418 429.299Z" fill="#17B8A6"/>
<path d="M286.188 429.299C276.593 440.216 263.09 446.923 248.593 447.97C234.096 449.018 219.769 444.323 208.704 434.898L213.454 421.643C214.528 419.289 216.222 417.272 218.355 415.807C220.488 414.342 222.979 413.486 225.562 413.329L228.584 413.144L235.79 406.929C235.79 406.929 255.206 406.236 254.918 405.904L266.679 412.978L266.669 412.929L271.292 413.212C273.875 413.368 276.367 414.224 278.5 415.689C280.633 417.154 282.327 419.172 283.4 421.526L286.188 429.299Z" fill="#17B8A6"/>
<path d="M123.974 368.544C123.546 366.277 121.234 365.24 119.253 364.738C113.508 363.272 107.531 362.944 101.66 363.772C97.38 364.382 92.9983 365.728 89.8927 369.069C87.3886 371.882 85.9697 375.496 85.891 379.261C85.7643 381.513 86.2674 383.755 87.3437 385.736C88.4614 387.628 90.3662 389 92.3327 388.952L92.5318 389.644C100.866 388.483 108.607 383.298 113.482 375.611C112.567 378.879 110.746 381.821 108.23 384.097C113.856 381.845 118.747 378.076 122.357 373.209C123.343 371.9 124.3 370.268 123.974 368.544Z" fill="#2F2E41"/>
<path d="M151.93 294.064C142.335 304.982 128.832 311.688 114.335 312.736C99.8383 313.784 85.511 309.088 74.446 299.664L79.1963 286.409C80.2698 284.055 81.9639 282.037 84.0968 280.573C86.2298 279.108 88.7212 278.251 91.3039 278.095L94.326 277.909L101.532 271.695C101.532 271.695 120.948 271.001 120.66 270.669L132.421 277.743L132.411 277.695L137.035 277.978C139.617 278.134 142.109 278.99 144.242 280.455C146.375 281.919 148.069 283.937 149.142 286.292L151.93 294.064Z" fill="#17B8A6"/>
<path d="M283.625 294.729C274.03 305.646 260.527 312.353 246.03 313.4C231.533 314.448 217.206 309.753 206.141 300.328L210.891 287.074C211.965 284.719 213.659 282.702 215.792 281.237C217.925 279.772 220.416 278.916 222.999 278.759L226.021 278.574L233.227 272.359C233.227 272.359 252.643 271.666 252.355 271.334L264.116 278.408L264.106 278.359L268.729 278.642C271.312 278.798 273.804 279.654 275.937 281.119C278.07 282.584 279.764 284.602 280.837 286.956L283.625 294.729Z" fill="#17B8A6"/>
<path d="M420.323 294.729C410.729 305.646 397.225 312.353 382.729 313.4C368.232 314.448 353.905 309.753 342.84 300.328L347.59 287.074C348.663 284.719 350.357 282.702 352.49 281.237C354.623 279.772 357.115 278.916 359.698 278.759L362.72 278.574L369.925 272.359C369.925 272.359 389.342 271.666 389.054 271.334L400.815 278.408L400.805 278.359L405.428 278.642C408.011 278.798 410.503 279.654 412.636 281.119C414.769 282.584 416.463 284.602 417.536 286.956L420.323 294.729Z" fill="#17B8A6"/>
<path d="M151.93 167.13C142.335 178.047 128.832 184.754 114.335 185.801C99.8383 186.849 85.511 182.154 74.446 172.73L79.1963 159.475C80.2698 157.12 81.9639 155.103 84.0968 153.638C86.2298 152.173 88.7212 151.317 91.3039 151.16L94.326 150.975L101.532 144.76C101.532 144.76 120.948 144.067 120.66 143.735L132.421 150.809L132.411 150.76L137.035 151.043C139.617 151.199 142.109 152.055 144.242 153.52C146.375 154.985 148.069 157.003 149.142 159.358L151.93 167.13Z" fill="#17B8A6"/>
<path d="M283.136 167.306C273.542 178.223 260.038 184.93 245.542 185.978C231.045 187.025 216.718 182.33 205.653 172.906L210.403 159.651C211.476 157.297 213.17 155.279 215.303 153.814C217.436 152.35 219.928 151.493 222.51 151.337L225.533 151.151L232.738 144.936C232.738 144.936 252.155 144.243 251.867 143.911L263.628 150.985L263.618 150.936L268.241 151.219C270.824 151.375 273.316 152.231 275.449 153.696C277.582 155.161 279.276 157.179 280.349 159.534L283.136 167.306Z" fill="#17B8A6"/>
<path d="M419.835 167.306C410.24 178.223 396.737 184.93 382.24 185.978C367.744 187.025 353.416 182.33 342.351 172.906L347.102 159.651C348.175 157.297 349.869 155.279 352.002 153.814C354.135 152.35 356.627 151.493 359.209 151.337L362.231 151.151L369.437 144.936C369.437 144.936 388.853 144.243 388.565 143.911L400.326 150.985L400.316 150.936L404.94 151.219C407.523 151.375 410.014 152.231 412.148 153.696C414.281 155.161 415.975 157.179 417.047 159.534L419.835 167.306Z" fill="#17B8A6"/>
<path d="M395.891 235.892C394.397 230.545 391.003 225.927 386.345 222.905C382.634 220.531 378.002 219.319 373.798 220.574C369.593 221.83 366.112 225.956 366.387 230.415C364.869 229.898 363.144 230.585 362.033 231.759C360.921 232.933 360.324 234.513 359.896 236.085C358.547 241.083 358.636 246.362 360.154 251.312L360.071 252.022C362.122 251.683 363.678 249.923 364.646 248.048C365.613 246.172 366.17 244.092 367.219 242.262C368.267 240.433 370.009 238.801 372.086 238.744L371.903 241.919C373.691 240.999 375.478 240.078 377.265 239.157C376.84 240.174 376.415 241.191 375.99 242.208C377.551 241.555 379.112 240.903 380.673 240.251C380.498 241.229 380.324 242.206 380.149 243.184C381.697 239.661 386.485 238.113 389.742 240.083C391.633 241.227 392.874 243.266 393.527 245.407C394.179 247.549 394.308 249.814 394.433 252.053C396.845 247.016 397.362 241.279 395.891 235.892Z" fill="#2F2E41"/>
<path d="M228.866 389.443C228.833 389.351 228.803 389.258 228.77 389.166C228.705 389.223 228.643 389.282 228.573 389.335L228.866 389.443Z" fill="#2F2E41"/>
<path d="M264.259 375.697C264.173 373.993 263.726 372.325 262.948 370.806C262.171 369.286 261.08 367.948 259.748 366.881C258.769 366.107 257.636 365.453 256.988 364.386C256.618 363.63 256.305 362.849 256.05 362.047C254.76 358.977 251.085 357.346 247.787 357.811C244.49 358.276 241.636 360.494 239.714 363.213C238.767 362.759 237.71 362.586 236.668 362.715C235.625 362.843 234.642 363.267 233.833 363.938C233.025 364.608 232.425 365.496 232.106 366.496C231.786 367.496 231.76 368.567 232.03 369.582C230.322 368.206 227.56 369.307 226.494 371.223C225.429 373.139 225.598 375.484 225.915 377.653C226.489 381.575 227.445 385.43 228.77 389.166C230.433 387.701 230.33 385.035 230.127 382.781C229.916 380.44 230.043 377.581 232.09 376.425C234.068 375.309 236.469 376.535 238.651 377.169C240.375 377.657 242.185 377.766 243.956 377.487C245.727 377.209 247.416 376.55 248.907 375.555C250.043 374.786 251.055 373.824 252.28 373.206C253.505 372.588 255.063 372.373 256.204 373.136C257.245 373.832 257.669 375.131 258.023 376.333C258.863 379.181 259.703 382.029 260.543 384.877C261.775 383.696 262.744 382.268 263.385 380.686C264.025 379.103 264.323 377.403 264.259 375.697Z" fill="#2F2E41"/>
<path d="M131.851 236.235C131.989 234.762 132.053 233.283 132.041 231.804C132.121 228.878 131.585 225.968 130.467 223.263C129.092 220.267 126.641 217.899 123.6 216.628C120.586 215.413 117.218 215.416 114.206 216.637C111.486 214.919 108.465 213.557 105.283 213.388C102.101 213.219 98.7367 214.4 96.7758 216.998C96.338 217.684 95.8406 218.33 95.2896 218.929C93.7134 220.389 91.3179 220.178 89.2229 219.88C90.1625 220.685 91.1025 221.49 92.0426 222.296C90.9052 222.593 89.7676 222.89 88.6299 223.187C89.9574 223.992 91.2848 224.797 92.6121 225.603C88.7585 227.916 87.0069 232.964 87.4696 237.549C87.9073 241.89 90.0031 245.86 92.5084 249.388C93.5078 247.279 93.2925 244.755 93.276 242.38C93.2668 241.609 93.3138 240.839 93.4166 240.076C101.883 242.105 110.73 243.408 119.702 240.184L121.502 235.778C121.755 235.804 122.008 235.828 122.26 235.855L123.304 240.189C125.668 241.155 128.038 242 130.409 241.112C130.524 241.782 130.594 242.465 130.647 243.121C130.851 242.336 131.027 241.545 131.186 240.75C131.5 240.582 131.8 240.391 132.084 240.177C132.141 238.859 132.063 237.538 131.851 236.235Z" fill="#2F2E41"/>
</g>
<defs>
<clipPath id="clip0_33_1410">
<rect width="379.007" height="373.017" fill="white" transform="translate(55.1497 75.0974)"/>
</clipPath>
</defs>
</svg>
