<svg width="593" height="529" viewBox="0 0 593 529" fill="none" xmlns="http://www.w3.org/2000/svg">
<path fill-rule="evenodd" clip-rule="evenodd" d="M274.773 0.00386656C327.396 -0.422347 372.485 34.4661 414.744 65.8274C454.692 95.4743 496.143 128.217 511.359 175.581C525.996 221.143 501.964 267.944 494.881 315.273C487.847 362.27 497.022 413.681 469.886 452.692C441.786 493.087 395.524 522.754 346.64 528.381C299.949 533.756 260.656 498.14 216.569 481.852C176.134 466.914 131.359 464.178 98.2251 436.606C61.7888 406.286 23.3694 367.348 22.0257 319.966C20.688 272.797 72.0246 242.908 91.5133 199.934C111.078 156.792 104.244 103.003 136.252 68.083C171.735 29.3724 222.263 0.429173 274.773 0.00386656Z" fill="#8ACAC3"/>
<g clip-path="url(#clip0_33_1987)">
<path d="M161.658 444.814H161.62C160.297 444.813 159.028 444.287 158.093 443.351C157.157 442.415 156.631 441.147 156.629 439.824V146.847C156.631 145.523 157.157 144.255 158.093 143.319C159.028 142.384 160.297 141.857 161.62 141.856H408.214C409.537 141.857 410.806 142.384 411.741 143.319C412.677 144.255 413.203 145.523 413.205 146.847V374.652C413.203 375.969 412.682 377.232 411.755 378.166C410.828 379.1 409.569 379.631 408.253 379.643L161.658 444.814Z" fill="#F2F2F2"/>
<path d="M343.923 100.463H229.433V34.1178C229.435 32.7169 229.992 31.3738 230.983 30.3831C231.973 29.3925 233.316 28.8353 234.717 28.8337H338.639C340.04 28.8353 341.383 29.3925 342.374 30.3831C343.364 31.3738 343.922 32.7169 343.923 34.1178V100.463ZM230.607 99.2891H342.749V34.1178C342.748 33.0282 342.314 31.9835 341.544 31.213C340.773 30.4425 339.729 30.0091 338.639 30.0079H234.717C233.628 30.0091 232.583 30.4425 231.812 31.213C231.042 31.9835 230.609 33.0282 230.607 34.1178V99.2891Z" fill="#3F3D56"/>
<path d="M262.019 54.0802H311.338C312.583 54.0802 313.778 54.5751 314.659 55.4559C315.54 56.3368 316.035 57.5315 316.035 58.7772V129.233H257.322V58.7772C257.322 57.5315 257.817 56.3368 258.698 55.4559C259.578 54.5751 260.773 54.0802 262.019 54.0802Z" fill="#E6E6E6"/>
<path d="M271.707 30.0079H247.634V5.93564C247.635 5.15734 247.945 4.41116 248.495 3.86081C249.045 3.31047 249.792 3.00089 250.57 3H268.771C269.549 3.00089 270.295 3.31047 270.846 3.86081C271.396 4.41116 271.706 5.15734 271.707 5.93564V30.0079ZM248.809 28.8337H270.532V5.93564C270.532 5.46865 270.346 5.02093 270.016 4.69072C269.686 4.3605 269.238 4.17477 268.771 4.17426H250.57C250.103 4.17477 249.655 4.3605 249.325 4.69072C248.995 5.02093 248.809 5.46865 248.809 5.93564V28.8337Z" fill="#3F3D56"/>
<path d="M469.516 383.952C469.282 383.952 469.054 383.952 468.82 383.946C454.295 383.786 440.328 378.327 429.544 368.595C429.146 368.232 428.75 367.864 428.358 367.492L428.176 367.318V254.794L428.232 254.675C428.621 253.851 429.015 253.039 429.409 252.226C441.622 227.432 455.865 213.779 469.516 213.779C489.202 213.779 504.47 240.783 511.818 256.88C522.037 279.264 529.174 307 529.174 324.33C529.17 340.029 522.975 355.093 511.934 366.254C500.893 377.415 485.896 383.773 470.198 383.947C469.978 383.952 469.744 383.952 469.516 383.952ZM429.351 366.815C429.676 367.122 430.004 367.425 430.333 367.725C440.907 377.266 454.6 382.617 468.841 382.773C469.079 382.778 469.304 382.772 469.532 382.778C469.745 382.778 469.963 382.778 470.176 382.773C502.064 382.419 528 356.201 528 324.33C528 307.15 520.907 279.615 510.75 257.368C503.519 241.527 488.546 214.953 469.516 214.953C456.336 214.953 442.467 228.374 430.464 252.742C430.092 253.508 429.719 254.278 429.35 255.057L429.351 366.815Z" fill="#3F3D56"/>
<path d="M469.513 455.141C469.334 455.141 469.162 455.07 469.036 454.943C468.909 454.816 468.838 454.645 468.838 454.465V316.567C468.837 316.478 468.854 316.39 468.888 316.308C468.922 316.225 468.972 316.15 469.034 316.087C469.097 316.024 469.172 315.974 469.254 315.94C469.336 315.906 469.424 315.888 469.513 315.888C469.602 315.888 469.691 315.906 469.773 315.94C469.855 315.974 469.93 316.024 469.992 316.087C470.055 316.15 470.105 316.225 470.139 316.308C470.172 316.39 470.189 316.478 470.189 316.567V454.465C470.189 454.645 470.118 454.816 469.991 454.943C469.864 455.07 469.693 455.141 469.513 455.141Z" fill="#CCCCCC"/>
<path d="M118.997 455.141C118.818 455.141 118.646 455.07 118.52 454.943C118.393 454.816 118.322 454.645 118.322 454.465V316.567C118.321 316.478 118.338 316.39 118.372 316.308C118.406 316.225 118.455 316.15 118.518 316.087C118.581 316.024 118.656 315.974 118.738 315.94C118.82 315.906 118.908 315.888 118.997 315.888C119.086 315.888 119.174 315.906 119.257 315.94C119.339 315.974 119.414 316.024 119.476 316.087C119.539 316.15 119.589 316.225 119.622 316.308C119.656 316.39 119.673 316.478 119.673 316.567V454.465C119.673 454.645 119.602 454.816 119.475 454.943C119.348 455.07 119.176 455.141 118.997 455.141Z" fill="#CCCCCC"/>
<path d="M469.514 342.331C469.417 342.332 469.321 342.311 469.233 342.271C469.145 342.23 469.066 342.172 469.003 342.099L435.03 302.919C434.913 302.784 434.854 302.608 434.867 302.429C434.88 302.251 434.963 302.085 435.098 301.967C435.233 301.85 435.41 301.791 435.588 301.804C435.767 301.816 435.933 301.899 436.05 302.034L470.024 341.213C470.109 341.311 470.163 341.431 470.182 341.559C470.2 341.688 470.182 341.818 470.128 341.936C470.074 342.054 469.988 342.154 469.879 342.224C469.77 342.294 469.643 342.331 469.514 342.331Z" fill="#CCCCCC"/>
<path d="M469.513 364.942C469.38 364.942 469.249 364.903 469.138 364.828C469.027 364.754 468.94 364.649 468.889 364.525C468.838 364.402 468.825 364.266 468.851 364.135C468.877 364.004 468.941 363.884 469.036 363.789L488.34 344.485C488.467 344.359 488.638 344.288 488.817 344.288C488.996 344.288 489.167 344.359 489.294 344.486C489.42 344.612 489.492 344.784 489.492 344.963C489.492 345.141 489.421 345.313 489.295 345.44L469.991 364.744C469.928 364.807 469.854 364.857 469.772 364.891C469.69 364.925 469.602 364.942 469.513 364.942Z" fill="#CCCCCC"/>
<path d="M532.011 455.42H481.515V454.833C481.514 451.516 482.165 448.232 483.434 445.167C484.702 442.102 486.561 439.318 488.906 436.972C491.25 434.626 494.034 432.765 497.098 431.496C500.162 430.226 503.447 429.573 506.763 429.573C510.08 429.573 513.364 430.226 516.428 431.496C519.492 432.765 522.276 434.626 524.621 436.972C526.965 439.318 528.825 442.102 530.093 445.167C531.361 448.232 532.013 451.516 532.011 454.833L532.011 455.42ZM482.696 454.246H530.83C530.677 447.964 528.074 441.992 523.577 437.604C519.08 433.215 513.046 430.759 506.763 430.759C500.48 430.759 494.446 433.215 489.949 437.604C485.453 441.992 482.85 447.964 482.696 454.246Z" fill="#3F3D56"/>
<path d="M506.764 440.503C506.587 440.503 506.417 440.573 506.292 440.698C506.167 440.823 506.097 440.992 506.097 441.169V448.25L499.2 442.33C499.133 442.272 499.056 442.229 498.973 442.201C498.89 442.174 498.802 442.163 498.714 442.17C498.627 442.176 498.542 442.2 498.463 442.239C498.385 442.279 498.316 442.334 498.258 442.4C498.201 442.467 498.158 442.544 498.131 442.627C498.103 442.71 498.093 442.798 498.1 442.886C498.106 442.973 498.13 443.058 498.17 443.137C498.21 443.215 498.265 443.284 498.331 443.341L506.097 450.006V454.166C506.097 454.254 506.114 454.341 506.147 454.422C506.181 454.503 506.23 454.577 506.291 454.639C506.353 454.701 506.427 454.75 506.508 454.784C506.589 454.817 506.676 454.835 506.764 454.835C506.851 454.835 506.938 454.817 507.019 454.784C507.1 454.75 507.174 454.701 507.236 454.639C507.297 454.577 507.347 454.503 507.38 454.422C507.413 454.341 507.43 454.254 507.43 454.166V441.169C507.43 440.992 507.36 440.823 507.235 440.698C507.11 440.573 506.94 440.503 506.764 440.503Z" fill="#3F3D56"/>
<path d="M108.691 455.42H58.1953V454.833C58.1937 451.516 58.8456 448.232 60.1137 445.167C61.3818 442.102 63.2413 439.318 65.586 436.972C67.9306 434.626 70.7145 432.765 73.7785 431.496C76.8426 430.226 80.1267 429.573 83.4434 429.573C86.76 429.573 90.0441 430.226 93.1082 431.496C96.1722 432.765 98.9561 434.626 101.301 436.972C103.645 439.318 105.505 442.102 106.773 445.167C108.041 448.232 108.693 451.516 108.691 454.833L108.691 455.42ZM59.3766 454.246H107.51C107.357 447.964 104.754 441.992 100.257 437.604C95.7607 433.215 89.7265 430.759 83.4434 430.759C77.1602 430.759 71.1261 433.215 66.6294 437.604C62.1327 441.992 59.5299 447.964 59.3766 454.246Z" fill="#3F3D56"/>
<path d="M83.4437 440.503C83.2669 440.503 83.0974 440.573 82.9724 440.698C82.8474 440.823 82.7771 440.992 82.7771 441.169V448.25L75.8798 442.33C75.8134 442.272 75.7364 442.229 75.6531 442.201C75.5699 442.174 75.482 442.163 75.3946 442.17C75.3072 442.176 75.2219 442.2 75.1437 442.239C75.0654 442.279 74.9957 442.334 74.9386 442.4C74.8815 442.467 74.8381 442.544 74.8109 442.627C74.7836 442.71 74.7731 442.798 74.7798 442.886C74.7866 442.973 74.8105 443.058 74.8503 443.137C74.89 443.215 74.9448 443.284 75.0114 443.341L82.7771 450.006V454.166C82.7769 454.254 82.7939 454.341 82.8273 454.422C82.8607 454.503 82.9097 454.577 82.9717 454.639C83.0336 454.701 83.1071 454.75 83.1881 454.784C83.2691 454.817 83.356 454.835 83.4437 454.835C83.5314 454.835 83.6182 454.817 83.6992 454.784C83.7802 454.75 83.8538 454.701 83.9157 454.639C83.9776 454.577 84.0267 454.503 84.06 454.422C84.0934 454.341 84.1105 454.254 84.1102 454.166V441.169C84.1102 440.992 84.04 440.823 83.915 440.698C83.79 440.573 83.6204 440.503 83.4437 440.503Z" fill="#3F3D56"/>
<path d="M119.587 383.952C119.353 383.952 119.126 383.952 118.892 383.946C103.195 383.769 88.2009 377.411 77.1619 366.25C66.1228 355.09 59.9288 340.027 59.9233 324.33C59.9233 306.999 67.0605 279.263 77.2798 256.88C84.6289 240.783 99.8978 213.779 119.587 213.779C127.698 213.779 135.864 218.402 143.86 227.519C144.257 227.968 144.654 228.431 145.046 228.906L145.18 229.068V378.191L144.849 378.351C144.454 378.543 144.053 378.723 143.652 378.896C136.284 382.157 128.326 383.876 120.269 383.947C120.05 383.952 119.815 383.952 119.587 383.952ZM119.587 214.953C100.554 214.953 85.58 241.527 78.3479 257.368C68.1912 279.614 61.0976 307.15 61.0976 324.33C61.0976 356.196 87.0335 382.413 118.913 382.772C119.15 382.778 119.372 382.78 119.603 382.778C119.816 382.778 120.035 382.778 120.248 382.773C128.15 382.704 135.955 381.018 143.182 377.82C143.459 377.7 143.734 377.578 144.006 377.452V229.491C143.666 229.083 143.322 228.684 142.979 228.294C135.214 219.441 127.344 214.953 119.587 214.953Z" fill="#3F3D56"/>
<path d="M119.585 342.331C119.488 342.332 119.392 342.311 119.304 342.271C119.216 342.23 119.138 342.172 119.074 342.099L85.1008 302.919C84.9839 302.784 84.9254 302.608 84.9383 302.429C84.9512 302.251 85.0343 302.085 85.1695 301.967C85.3047 301.85 85.4809 301.791 85.6594 301.804C85.8379 301.816 86.0041 301.899 86.1217 302.034L120.095 341.213C120.18 341.311 120.235 341.431 120.253 341.559C120.272 341.688 120.253 341.818 120.199 341.936C120.145 342.054 120.059 342.154 119.95 342.224C119.841 342.294 119.714 342.331 119.585 342.331Z" fill="#CCCCCC"/>
<path d="M119.585 364.942C119.451 364.942 119.32 364.903 119.209 364.828C119.098 364.754 119.012 364.649 118.961 364.525C118.909 364.402 118.896 364.266 118.922 364.135C118.948 364.004 119.013 363.884 119.107 363.789L138.411 344.485C138.538 344.359 138.71 344.288 138.889 344.288C139.067 344.288 139.239 344.359 139.365 344.486C139.492 344.612 139.563 344.784 139.563 344.963C139.563 345.141 139.493 345.313 139.367 345.44L120.062 364.744C120 364.807 119.925 364.857 119.843 364.891C119.761 364.925 119.673 364.942 119.585 364.942Z" fill="#CCCCCC"/>
<path d="M172.634 105.16L173.069 106.018C173.261 106.388 173.362 106.798 173.362 107.215V130.407H193.912V107.215C193.912 106.798 194.013 106.388 194.205 106.018L194.64 105.16H172.634ZM192.738 107.215V129.233H174.537V107.215C174.537 106.919 174.501 106.623 174.431 106.335H192.843C192.773 106.623 192.737 106.919 192.738 107.215ZM198.468 105.16L198.902 106.018C199.095 106.388 199.196 106.798 199.196 107.215V130.407H219.745V107.215C219.746 106.798 219.846 106.388 220.039 106.018L220.474 105.16H198.468ZM218.571 107.215V129.233H200.37V107.215C200.371 106.919 200.335 106.623 200.264 106.335H218.677C218.606 106.623 218.571 106.919 218.571 107.215ZM224.301 105.16L224.736 106.018C224.929 106.388 225.029 106.798 225.03 107.215V130.407H245.579V107.215C245.579 106.798 245.68 106.388 245.873 106.018L246.307 105.16H224.301ZM244.405 107.215V129.233H226.204V107.215C226.204 106.919 226.169 106.623 226.098 106.335H244.511C244.44 106.623 244.405 106.919 244.405 107.215ZM250.135 105.16L250.57 106.018C250.762 106.388 250.863 106.798 250.863 107.215V130.407H271.413V107.215C271.413 106.798 271.514 106.388 271.706 106.018L272.141 105.16H250.135ZM270.239 107.215V129.233H252.038V107.215C252.038 106.919 252.002 106.623 251.932 106.335H270.344C270.274 106.623 270.238 106.919 270.239 107.215ZM275.969 105.16L276.403 106.018C276.596 106.388 276.697 106.798 276.697 107.215V130.407H297.246V107.215C297.247 106.798 297.347 106.388 297.54 106.018L297.975 105.16H275.969ZM296.072 107.215V129.233H277.871V107.215C277.872 106.919 277.836 106.623 277.765 106.335H296.178C296.107 106.623 296.072 106.919 296.072 107.215ZM301.802 105.16L302.237 106.018C302.43 106.388 302.53 106.798 302.531 107.215V130.407H323.08V107.215C323.08 106.798 323.181 106.388 323.374 106.018L323.808 105.16H301.802ZM321.906 107.215V129.233H303.705V107.215C303.705 106.919 303.67 106.623 303.599 106.335H322.012C321.941 106.623 321.906 106.919 321.906 107.215ZM327.636 105.16L328.071 106.018C328.263 106.388 328.364 106.798 328.364 107.215V130.407H348.914V107.215C348.914 106.798 349.015 106.388 349.207 106.018L349.642 105.16H327.636ZM347.74 107.215V129.233H329.539V107.215C329.539 106.919 329.503 106.623 329.433 106.335H347.845C347.775 106.623 347.739 106.919 347.74 107.215ZM353.47 105.16L353.904 106.018C354.097 106.388 354.198 106.798 354.198 107.215V130.407H374.747V107.215C374.748 106.798 374.848 106.388 375.041 106.018L375.476 105.16H353.47ZM373.573 107.215V129.233H355.372V107.215C355.373 106.919 355.337 106.623 355.266 106.335H373.679C373.608 106.623 373.573 106.919 373.573 107.215ZM379.303 105.16L379.738 106.018C379.931 106.388 380.031 106.798 380.032 107.215V130.407H400.581V107.215C400.581 106.798 400.682 106.388 400.875 106.018L401.309 105.16H379.303ZM399.407 107.215V129.233H381.206V107.215C381.206 106.919 381.171 106.623 381.1 106.335H399.513C399.442 106.623 399.407 106.919 399.407 107.215ZM379.303 105.16L379.738 106.018C379.931 106.388 380.031 106.798 380.032 107.215V130.407H400.581V107.215C400.581 106.798 400.682 106.388 400.875 106.018L401.309 105.16H379.303ZM399.407 107.215V129.233H381.206V107.215C381.206 106.919 381.171 106.623 381.1 106.335H399.513C399.442 106.623 399.407 106.919 399.407 107.215ZM353.47 105.16L353.904 106.018C354.097 106.388 354.198 106.798 354.198 107.215V130.407H374.747V107.215C374.748 106.798 374.848 106.388 375.041 106.018L375.476 105.16H353.47ZM373.573 107.215V129.233H355.372V107.215C355.373 106.919 355.337 106.623 355.266 106.335H373.679C373.608 106.623 373.573 106.919 373.573 107.215ZM327.636 105.16L328.071 106.018C328.263 106.388 328.364 106.798 328.364 107.215V130.407H348.914V107.215C348.914 106.798 349.015 106.388 349.207 106.018L349.642 105.16H327.636ZM347.74 107.215V129.233H329.539V107.215C329.539 106.919 329.503 106.623 329.433 106.335H347.845C347.775 106.623 347.739 106.919 347.74 107.215ZM301.802 105.16L302.237 106.018C302.43 106.388 302.53 106.798 302.531 107.215V130.407H323.08V107.215C323.08 106.798 323.181 106.388 323.374 106.018L323.808 105.16H301.802ZM321.906 107.215V129.233H303.705V107.215C303.705 106.919 303.67 106.623 303.599 106.335H322.012C321.941 106.623 321.906 106.919 321.906 107.215ZM275.969 105.16L276.403 106.018C276.596 106.388 276.697 106.798 276.697 107.215V130.407H297.246V107.215C297.247 106.798 297.347 106.388 297.54 106.018L297.975 105.16H275.969ZM296.072 107.215V129.233H277.871V107.215C277.872 106.919 277.836 106.623 277.765 106.335H296.178C296.107 106.623 296.072 106.919 296.072 107.215ZM250.135 105.16L250.57 106.018C250.762 106.388 250.863 106.798 250.863 107.215V130.407H271.413V107.215C271.413 106.798 271.514 106.388 271.706 106.018L272.141 105.16H250.135ZM270.239 107.215V129.233H252.038V107.215C252.038 106.919 252.002 106.623 251.932 106.335H270.344C270.274 106.623 270.238 106.919 270.239 107.215ZM224.301 105.16L224.736 106.018C224.929 106.388 225.029 106.798 225.03 107.215V130.407H245.579V107.215C245.579 106.798 245.68 106.388 245.873 106.018L246.307 105.16H224.301ZM244.405 107.215V129.233H226.204V107.215C226.204 106.919 226.169 106.623 226.098 106.335H244.511C244.44 106.623 244.405 106.919 244.405 107.215ZM198.468 105.16L198.902 106.018C199.095 106.388 199.196 106.798 199.196 107.215V130.407H219.745V107.215C219.746 106.798 219.846 106.388 220.039 106.018L220.474 105.16H198.468ZM218.571 107.215V129.233H200.37V107.215C200.371 106.919 200.335 106.623 200.264 106.335H218.677C218.606 106.623 218.571 106.919 218.571 107.215ZM172.634 105.16L173.069 106.018C173.261 106.388 173.362 106.798 173.362 107.215V130.407H193.912V107.215C193.912 106.798 194.013 106.388 194.205 106.018L194.64 105.16H172.634ZM192.738 107.215V129.233H174.537V107.215C174.537 106.919 174.501 106.623 174.431 106.335H192.843C192.773 106.623 192.737 106.919 192.738 107.215ZM379.303 105.16L379.738 106.018C379.931 106.388 380.031 106.798 380.032 107.215V130.407H400.581V107.215C400.581 106.798 400.682 106.388 400.875 106.018L401.309 105.16H379.303ZM399.407 107.215V129.233H381.206V107.215C381.206 106.919 381.171 106.623 381.1 106.335H399.513C399.442 106.623 399.407 106.919 399.407 107.215ZM353.47 105.16L353.904 106.018C354.097 106.388 354.198 106.798 354.198 107.215V130.407H374.747V107.215C374.748 106.798 374.848 106.388 375.041 106.018L375.476 105.16H353.47ZM373.573 107.215V129.233H355.372V107.215C355.373 106.919 355.337 106.623 355.266 106.335H373.679C373.608 106.623 373.573 106.919 373.573 107.215ZM327.636 105.16L328.071 106.018C328.263 106.388 328.364 106.798 328.364 107.215V130.407H348.914V107.215C348.914 106.798 349.015 106.388 349.207 106.018L349.642 105.16H327.636ZM347.74 107.215V129.233H329.539V107.215C329.539 106.919 329.503 106.623 329.433 106.335H347.845C347.775 106.623 347.739 106.919 347.74 107.215ZM301.802 105.16L302.237 106.018C302.43 106.388 302.53 106.798 302.531 107.215V130.407H323.08V107.215C323.08 106.798 323.181 106.388 323.374 106.018L323.808 105.16H301.802ZM321.906 107.215V129.233H303.705V107.215C303.705 106.919 303.67 106.623 303.599 106.335H322.012C321.941 106.623 321.906 106.919 321.906 107.215ZM275.969 105.16L276.403 106.018C276.596 106.388 276.697 106.798 276.697 107.215V130.407H297.246V107.215C297.247 106.798 297.347 106.388 297.54 106.018L297.975 105.16H275.969ZM296.072 107.215V129.233H277.871V107.215C277.872 106.919 277.836 106.623 277.765 106.335H296.178C296.107 106.623 296.072 106.919 296.072 107.215ZM250.135 105.16L250.57 106.018C250.762 106.388 250.863 106.798 250.863 107.215V130.407H271.413V107.215C271.413 106.798 271.514 106.388 271.706 106.018L272.141 105.16H250.135ZM270.239 107.215V129.233H252.038V107.215C252.038 106.919 252.002 106.623 251.932 106.335H270.344C270.274 106.623 270.238 106.919 270.239 107.215ZM224.301 105.16L224.736 106.018C224.929 106.388 225.029 106.798 225.03 107.215V130.407H245.579V107.215C245.579 106.798 245.68 106.388 245.873 106.018L246.307 105.16H224.301ZM244.405 107.215V129.233H226.204V107.215C226.204 106.919 226.169 106.623 226.098 106.335H244.511C244.44 106.623 244.405 106.919 244.405 107.215ZM198.468 105.16L198.902 106.018C199.095 106.388 199.196 106.798 199.196 107.215V130.407H219.745V107.215C219.746 106.798 219.846 106.388 220.039 106.018L220.474 105.16H198.468ZM218.571 107.215V129.233H200.37V107.215C200.371 106.919 200.335 106.623 200.264 106.335H218.677C218.606 106.623 218.571 106.919 218.571 107.215ZM172.634 105.16L173.069 106.018C173.261 106.388 173.362 106.798 173.362 107.215V130.407H193.912V107.215C193.912 106.798 194.013 106.388 194.205 106.018L194.64 105.16H172.634ZM192.738 107.215V129.233H174.537V107.215C174.537 106.919 174.501 106.623 174.431 106.335H192.843C192.773 106.623 192.737 106.919 192.738 107.215ZM379.303 105.16L379.738 106.018C379.931 106.388 380.031 106.798 380.032 107.215V130.407H400.581V107.215C400.581 106.798 400.682 106.388 400.875 106.018L401.309 105.16H379.303ZM399.407 107.215V129.233H381.206V107.215C381.206 106.919 381.171 106.623 381.1 106.335H399.513C399.442 106.623 399.407 106.919 399.407 107.215ZM353.47 105.16L353.904 106.018C354.097 106.388 354.198 106.798 354.198 107.215V130.407H374.747V107.215C374.748 106.798 374.848 106.388 375.041 106.018L375.476 105.16H353.47ZM373.573 107.215V129.233H355.372V107.215C355.373 106.919 355.337 106.623 355.266 106.335H373.679C373.608 106.623 373.573 106.919 373.573 107.215ZM327.636 105.16L328.071 106.018C328.263 106.388 328.364 106.798 328.364 107.215V130.407H348.914V107.215C348.914 106.798 349.015 106.388 349.207 106.018L349.642 105.16H327.636ZM347.74 107.215V129.233H329.539V107.215C329.539 106.919 329.503 106.623 329.433 106.335H347.845C347.775 106.623 347.739 106.919 347.74 107.215ZM301.802 105.16L302.237 106.018C302.43 106.388 302.53 106.798 302.531 107.215V130.407H323.08V107.215C323.08 106.798 323.181 106.388 323.374 106.018L323.808 105.16H301.802ZM321.906 107.215V129.233H303.705V107.215C303.705 106.919 303.67 106.623 303.599 106.335H322.012C321.941 106.623 321.906 106.919 321.906 107.215ZM275.969 105.16L276.403 106.018C276.596 106.388 276.697 106.798 276.697 107.215V130.407H297.246V107.215C297.247 106.798 297.347 106.388 297.54 106.018L297.975 105.16H275.969ZM296.072 107.215V129.233H277.871V107.215C277.872 106.919 277.836 106.623 277.765 106.335H296.178C296.107 106.623 296.072 106.919 296.072 107.215ZM250.135 105.16L250.57 106.018C250.762 106.388 250.863 106.798 250.863 107.215V130.407H271.413V107.215C271.413 106.798 271.514 106.388 271.706 106.018L272.141 105.16H250.135ZM270.239 107.215V129.233H252.038V107.215C252.038 106.919 252.002 106.623 251.932 106.335H270.344C270.274 106.623 270.238 106.919 270.239 107.215ZM224.301 105.16L224.736 106.018C224.929 106.388 225.029 106.798 225.03 107.215V130.407H245.579V107.215C245.579 106.798 245.68 106.388 245.873 106.018L246.307 105.16H224.301ZM244.405 107.215V129.233H226.204V107.215C226.204 106.919 226.169 106.623 226.098 106.335H244.511C244.44 106.623 244.405 106.919 244.405 107.215ZM198.468 105.16L198.902 106.018C199.095 106.388 199.196 106.798 199.196 107.215V130.407H219.745V107.215C219.746 106.798 219.846 106.388 220.039 106.018L220.474 105.16H198.468ZM218.571 107.215V129.233H200.37V107.215C200.371 106.919 200.335 106.623 200.264 106.335H218.677C218.606 106.623 218.571 106.919 218.571 107.215ZM172.634 105.16L173.069 106.018C173.261 106.388 173.362 106.798 173.362 107.215V130.407H193.912V107.215C193.912 106.798 194.013 106.388 194.205 106.018L194.64 105.16H172.634ZM192.738 107.215V129.233H174.537V107.215C174.537 106.919 174.501 106.623 174.431 106.335H192.843C192.773 106.623 192.737 106.919 192.738 107.215ZM379.303 105.16L379.738 106.018C379.931 106.388 380.031 106.798 380.032 107.215V130.407H400.581V107.215C400.581 106.798 400.682 106.388 400.875 106.018L401.309 105.16H379.303ZM399.407 107.215V129.233H381.206V107.215C381.206 106.919 381.171 106.623 381.1 106.335H399.513C399.442 106.623 399.407 106.919 399.407 107.215ZM353.47 105.16L353.904 106.018C354.097 106.388 354.198 106.798 354.198 107.215V130.407H374.747V107.215C374.748 106.798 374.848 106.388 375.041 106.018L375.476 105.16H353.47ZM373.573 107.215V129.233H355.372V107.215C355.373 106.919 355.337 106.623 355.266 106.335H373.679C373.608 106.623 373.573 106.919 373.573 107.215ZM327.636 105.16L328.071 106.018C328.263 106.388 328.364 106.798 328.364 107.215V130.407H348.914V107.215C348.914 106.798 349.015 106.388 349.207 106.018L349.642 105.16H327.636ZM347.74 107.215V129.233H329.539V107.215C329.539 106.919 329.503 106.623 329.433 106.335H347.845C347.775 106.623 347.739 106.919 347.74 107.215ZM301.802 105.16L302.237 106.018C302.43 106.388 302.53 106.798 302.531 107.215V130.407H323.08V107.215C323.08 106.798 323.181 106.388 323.374 106.018L323.808 105.16H301.802ZM321.906 107.215V129.233H303.705V107.215C303.705 106.919 303.67 106.623 303.599 106.335H322.012C321.941 106.623 321.906 106.919 321.906 107.215ZM275.969 105.16L276.403 106.018C276.596 106.388 276.697 106.798 276.697 107.215V130.407H297.246V107.215C297.247 106.798 297.347 106.388 297.54 106.018L297.975 105.16H275.969ZM296.072 107.215V129.233H277.871V107.215C277.872 106.919 277.836 106.623 277.765 106.335H296.178C296.107 106.623 296.072 106.919 296.072 107.215ZM250.135 105.16L250.57 106.018C250.762 106.388 250.863 106.798 250.863 107.215V130.407H271.413V107.215C271.413 106.798 271.514 106.388 271.706 106.018L272.141 105.16H250.135ZM270.239 107.215V129.233H252.038V107.215C252.038 106.919 252.002 106.623 251.932 106.335H270.344C270.274 106.623 270.238 106.919 270.239 107.215ZM224.301 105.16L224.736 106.018C224.929 106.388 225.029 106.798 225.03 107.215V130.407H245.579V107.215C245.579 106.798 245.68 106.388 245.873 106.018L246.307 105.16H224.301ZM244.405 107.215V129.233H226.204V107.215C226.204 106.919 226.169 106.623 226.098 106.335H244.511C244.44 106.623 244.405 106.919 244.405 107.215ZM198.468 105.16L198.902 106.018C199.095 106.388 199.196 106.798 199.196 107.215V130.407H219.745V107.215C219.746 106.798 219.846 106.388 220.039 106.018L220.474 105.16H198.468ZM218.571 107.215V129.233H200.37V107.215C200.371 106.919 200.335 106.623 200.264 106.335H218.677C218.606 106.623 218.571 106.919 218.571 107.215ZM172.634 105.16L173.069 106.018C173.261 106.388 173.362 106.798 173.362 107.215V130.407H193.912V107.215C193.912 106.798 194.013 106.388 194.205 106.018L194.64 105.16H172.634ZM192.738 107.215V129.233H174.537V107.215C174.537 106.919 174.501 106.623 174.431 106.335H192.843C192.773 106.623 192.737 106.919 192.738 107.215ZM379.303 105.16L379.738 106.018C379.931 106.388 380.031 106.798 380.032 107.215V130.407H400.581V107.215C400.581 106.798 400.682 106.388 400.875 106.018L401.309 105.16H379.303ZM399.407 107.215V129.233H381.206V107.215C381.206 106.919 381.171 106.623 381.1 106.335H399.513C399.442 106.623 399.407 106.919 399.407 107.215ZM353.904 106.018C354.097 106.388 354.198 106.798 354.198 107.215V130.407H374.747V107.215C374.748 106.798 374.848 106.388 375.041 106.018L375.476 105.16H353.47L353.904 106.018ZM373.679 106.335C373.608 106.623 373.573 106.919 373.573 107.215V129.233H355.372V107.215C355.373 106.919 355.337 106.623 355.266 106.335H373.679ZM328.071 106.018C328.263 106.388 328.364 106.798 328.364 107.215V130.407H348.914V107.215C348.914 106.798 349.015 106.388 349.207 106.018L349.642 105.16H327.636L328.071 106.018ZM347.845 106.335C347.775 106.623 347.739 106.919 347.74 107.215V129.233H329.539V107.215C329.539 106.919 329.503 106.623 329.433 106.335H347.845ZM302.237 106.018C302.43 106.388 302.53 106.798 302.531 107.215V130.407H323.08V107.215C323.08 106.798 323.181 106.388 323.374 106.018L323.808 105.16H301.802L302.237 106.018ZM322.012 106.335C321.941 106.623 321.906 106.919 321.906 107.215V129.233H303.705V107.215C303.705 106.919 303.67 106.623 303.599 106.335H322.012ZM276.403 106.018C276.596 106.388 276.697 106.798 276.697 107.215V130.407H297.246V107.215C297.247 106.798 297.347 106.388 297.54 106.018L297.975 105.16H275.969L276.403 106.018ZM296.178 106.335C296.107 106.623 296.072 106.919 296.072 107.215V129.233H277.871V107.215C277.872 106.919 277.836 106.623 277.765 106.335H296.178ZM250.57 106.018C250.762 106.388 250.863 106.798 250.863 107.215V130.407H271.413V107.215C271.413 106.798 271.514 106.388 271.706 106.018L272.141 105.16H250.135L250.57 106.018ZM270.344 106.335C270.274 106.623 270.238 106.919 270.239 107.215V129.233H252.038V107.215C252.038 106.919 252.002 106.623 251.932 106.335H270.344ZM224.736 106.018C224.929 106.388 225.029 106.798 225.03 107.215V130.407H245.579V107.215C245.579 106.798 245.68 106.388 245.873 106.018L246.307 105.16H224.301L224.736 106.018ZM244.511 106.335C244.44 106.623 244.405 106.919 244.405 107.215V129.233H226.204V107.215C226.204 106.919 226.169 106.623 226.098 106.335H244.511ZM198.902 106.018C199.095 106.388 199.196 106.798 199.196 107.215V130.407H219.745V107.215C219.746 106.798 219.846 106.388 220.039 106.018L220.474 105.16H198.468L198.902 106.018ZM218.677 106.335C218.606 106.623 218.571 106.919 218.571 107.215V129.233H200.37V107.215C200.371 106.919 200.335 106.623 200.264 106.335H218.677ZM173.069 106.018C173.261 106.388 173.362 106.798 173.362 107.215V130.407H193.912V107.215C193.912 106.798 194.013 106.388 194.205 106.018L194.64 105.16H172.634L173.069 106.018ZM192.843 106.335C192.773 106.623 192.737 106.919 192.738 107.215V129.233H174.537V107.215C174.537 106.919 174.501 106.623 174.431 106.335H192.843ZM379.738 106.018C379.931 106.388 380.031 106.798 380.032 107.215V130.407H400.581V107.215C400.581 106.798 400.682 106.388 400.875 106.018L401.309 105.16H379.303L379.738 106.018ZM399.513 106.335C399.442 106.623 399.407 106.919 399.407 107.215V129.233H381.206V107.215C381.206 106.919 381.171 106.623 381.1 106.335H399.513ZM353.904 106.018C354.097 106.388 354.198 106.798 354.198 107.215V130.407H374.747V107.215C374.748 106.798 374.848 106.388 375.041 106.018L375.476 105.16H353.47L353.904 106.018ZM373.679 106.335C373.608 106.623 373.573 106.919 373.573 107.215V129.233H355.372V107.215C355.373 106.919 355.337 106.623 355.266 106.335H373.679ZM328.071 106.018C328.263 106.388 328.364 106.798 328.364 107.215V130.407H348.914V107.215C348.914 106.798 349.015 106.388 349.207 106.018L349.642 105.16H327.636L328.071 106.018ZM347.845 106.335C347.775 106.623 347.739 106.919 347.74 107.215V129.233H329.539V107.215C329.539 106.919 329.503 106.623 329.433 106.335H347.845ZM302.237 106.018C302.43 106.388 302.53 106.798 302.531 107.215V130.407H323.08V107.215C323.08 106.798 323.181 106.388 323.374 106.018L323.808 105.16H301.802L302.237 106.018ZM322.012 106.335C321.941 106.623 321.906 106.919 321.906 107.215V129.233H303.705V107.215C303.705 106.919 303.67 106.623 303.599 106.335H322.012ZM276.403 106.018C276.596 106.388 276.697 106.798 276.697 107.215V130.407H297.246V107.215C297.247 106.798 297.347 106.388 297.54 106.018L297.975 105.16H275.969L276.403 106.018ZM296.178 106.335C296.107 106.623 296.072 106.919 296.072 107.215V129.233H277.871V107.215C277.872 106.919 277.836 106.623 277.765 106.335H296.178ZM250.57 106.018C250.762 106.388 250.863 106.798 250.863 107.215V130.407H271.413V107.215C271.413 106.798 271.514 106.388 271.706 106.018L272.141 105.16H250.135L250.57 106.018ZM270.344 106.335C270.274 106.623 270.238 106.919 270.239 107.215V129.233H252.038V107.215C252.038 106.919 252.002 106.623 251.932 106.335H270.344ZM224.736 106.018C224.929 106.388 225.029 106.798 225.03 107.215V130.407H245.579V107.215C245.579 106.798 245.68 106.388 245.873 106.018L246.307 105.16H224.301L224.736 106.018ZM244.511 106.335C244.44 106.623 244.405 106.919 244.405 107.215V129.233H226.204V107.215C226.204 106.919 226.169 106.623 226.098 106.335H244.511ZM198.902 106.018C199.095 106.388 199.196 106.798 199.196 107.215V130.407H219.745V107.215C219.746 106.798 219.846 106.388 220.039 106.018L220.474 105.16H198.468L198.902 106.018ZM218.677 106.335C218.606 106.623 218.571 106.919 218.571 107.215V129.233H200.37V107.215C200.371 106.919 200.335 106.623 200.264 106.335H218.677ZM173.069 106.018C173.261 106.388 173.362 106.798 173.362 107.215V130.407H193.912V107.215C193.912 106.798 194.013 106.388 194.205 106.018L194.64 105.16H172.634L173.069 106.018ZM192.843 106.335C192.773 106.623 192.737 106.919 192.738 107.215V129.233H174.537V107.215C174.537 106.919 174.501 106.623 174.431 106.335H192.843ZM424.066 133.93H417.068C416.682 132.579 415.867 131.39 414.747 130.543C413.626 129.696 412.261 129.236 410.856 129.233H407.04V107.215C407.041 106.743 406.951 106.274 406.775 105.836C407.44 105.444 407.958 104.844 408.249 104.129C408.539 103.413 408.586 102.622 408.383 101.878C408.179 101.133 407.736 100.476 407.122 100.008C406.508 99.5405 405.757 99.2877 404.985 99.2891H168.959C168.187 99.2877 167.436 99.5405 166.822 100.008C166.207 100.476 165.764 101.133 165.561 101.878C165.357 102.622 165.404 103.413 165.695 104.129C165.985 104.844 166.503 105.444 167.168 105.836C166.992 106.274 166.902 106.743 166.904 107.215V129.233H163.088C161.683 129.236 160.317 129.696 159.197 130.543C158.076 131.39 157.262 132.579 156.876 133.93H149.29C147.889 133.932 146.546 134.489 145.556 135.48C144.565 136.47 144.008 137.813 144.006 139.214V449.218C144.009 450.618 144.567 451.961 145.557 452.951C146.547 453.941 147.89 454.499 149.29 454.502H424.066C425.467 454.5 426.81 453.943 427.8 452.952C428.791 451.961 429.348 450.619 429.35 449.218V139.214C429.348 137.813 428.791 136.47 427.8 135.48C426.81 134.489 425.467 133.932 424.066 133.93ZM428.176 449.218C428.175 450.057 427.918 450.876 427.438 451.564C426.958 452.252 426.28 452.778 425.493 453.069C425.038 453.243 424.554 453.33 424.066 453.328H149.29C148.803 453.33 148.319 453.243 147.863 453.069C147.077 452.778 146.398 452.252 145.918 451.564C145.439 450.876 145.181 450.057 145.18 449.218V139.214C145.181 138.124 145.615 137.08 146.385 136.309C147.156 135.539 148.2 135.105 149.29 135.104H157.815L157.909 134.634C158.156 133.442 158.805 132.372 159.748 131.602C160.691 130.832 161.87 130.41 163.088 130.407H168.078V107.215C168.078 106.738 168.208 106.269 168.454 105.859L168.818 105.254L168.154 105.008C167.636 104.82 167.2 104.455 166.924 103.977C166.649 103.5 166.55 102.94 166.646 102.397C166.742 101.854 167.027 101.363 167.45 101.009C167.873 100.655 168.407 100.462 168.959 100.463H404.985C405.536 100.462 406.07 100.655 406.493 101.009C406.916 101.363 407.201 101.854 407.297 102.397C407.393 102.94 407.295 103.5 407.019 103.977C406.743 104.455 406.307 104.82 405.789 105.008L405.126 105.254L405.489 105.859C405.735 106.269 405.865 106.738 405.865 107.215V130.407H410.856C412.073 130.41 413.252 130.832 414.195 131.602C415.138 132.372 415.787 133.442 416.034 134.634L416.128 135.104H424.066C425.156 135.105 426.201 135.539 426.971 136.309C427.742 137.08 428.175 138.124 428.176 139.214L428.176 449.218ZM172.634 105.16L173.069 106.018C173.261 106.388 173.362 106.798 173.362 107.215V130.407H193.912V107.215C193.912 106.798 194.013 106.388 194.205 106.018L194.64 105.16H172.634ZM192.738 107.215V129.233H174.537V107.215C174.537 106.919 174.501 106.623 174.431 106.335H192.843C192.773 106.623 192.737 106.919 192.738 107.215ZM198.468 105.16L198.902 106.018C199.095 106.388 199.196 106.798 199.196 107.215V130.407H219.745V107.215C219.746 106.798 219.846 106.388 220.039 106.018L220.474 105.16H198.468ZM218.571 107.215V129.233H200.37V107.215C200.371 106.919 200.335 106.623 200.264 106.335H218.677C218.606 106.623 218.571 106.919 218.571 107.215ZM224.301 105.16L224.736 106.018C224.929 106.388 225.029 106.798 225.03 107.215V130.407H245.579V107.215C245.579 106.798 245.68 106.388 245.873 106.018L246.307 105.16H224.301ZM244.405 107.215V129.233H226.204V107.215C226.204 106.919 226.169 106.623 226.098 106.335H244.511C244.44 106.623 244.405 106.919 244.405 107.215ZM250.135 105.16L250.57 106.018C250.762 106.388 250.863 106.798 250.863 107.215V130.407H271.413V107.215C271.413 106.798 271.514 106.388 271.706 106.018L272.141 105.16H250.135ZM270.239 107.215V129.233H252.038V107.215C252.038 106.919 252.002 106.623 251.932 106.335H270.344C270.274 106.623 270.238 106.919 270.239 107.215ZM275.969 105.16L276.403 106.018C276.596 106.388 276.697 106.798 276.697 107.215V130.407H297.246V107.215C297.247 106.798 297.347 106.388 297.54 106.018L297.975 105.16H275.969ZM296.072 107.215V129.233H277.871V107.215C277.872 106.919 277.836 106.623 277.765 106.335H296.178C296.107 106.623 296.072 106.919 296.072 107.215ZM301.802 105.16L302.237 106.018C302.43 106.388 302.53 106.798 302.531 107.215V130.407H323.08V107.215C323.08 106.798 323.181 106.388 323.374 106.018L323.808 105.16H301.802ZM321.906 107.215V129.233H303.705V107.215C303.705 106.919 303.67 106.623 303.599 106.335H322.012C321.941 106.623 321.906 106.919 321.906 107.215ZM327.636 105.16L328.071 106.018C328.263 106.388 328.364 106.798 328.364 107.215V130.407H348.914V107.215C348.914 106.798 349.015 106.388 349.207 106.018L349.642 105.16H327.636ZM347.74 107.215V129.233H329.539V107.215C329.539 106.919 329.503 106.623 329.433 106.335H347.845C347.775 106.623 347.739 106.919 347.74 107.215ZM353.47 105.16L353.904 106.018C354.097 106.388 354.198 106.798 354.198 107.215V130.407H374.747V107.215C374.748 106.798 374.848 106.388 375.041 106.018L375.476 105.16H353.47ZM373.573 107.215V129.233H355.372V107.215C355.373 106.919 355.337 106.623 355.266 106.335H373.679C373.608 106.623 373.573 106.919 373.573 107.215ZM379.303 105.16L379.738 106.018C379.931 106.388 380.031 106.798 380.032 107.215V130.407H400.581V107.215C400.581 106.798 400.682 106.388 400.875 106.018L401.309 105.16H379.303ZM399.407 107.215V129.233H381.206V107.215C381.206 106.919 381.171 106.623 381.1 106.335H399.513C399.442 106.623 399.407 106.919 399.407 107.215ZM172.634 105.16L173.069 106.018C173.261 106.388 173.362 106.798 173.362 107.215V130.407H193.912V107.215C193.912 106.798 194.013 106.388 194.205 106.018L194.64 105.16H172.634ZM192.738 107.215V129.233H174.537V107.215C174.537 106.919 174.501 106.623 174.431 106.335H192.843C192.773 106.623 192.737 106.919 192.738 107.215ZM198.468 105.16L198.902 106.018C199.095 106.388 199.196 106.798 199.196 107.215V130.407H219.745V107.215C219.746 106.798 219.846 106.388 220.039 106.018L220.474 105.16H198.468ZM218.571 107.215V129.233H200.37V107.215C200.371 106.919 200.335 106.623 200.264 106.335H218.677C218.606 106.623 218.571 106.919 218.571 107.215ZM224.301 105.16L224.736 106.018C224.929 106.388 225.029 106.798 225.03 107.215V130.407H245.579V107.215C245.579 106.798 245.68 106.388 245.873 106.018L246.307 105.16H224.301ZM244.405 107.215V129.233H226.204V107.215C226.204 106.919 226.169 106.623 226.098 106.335H244.511C244.44 106.623 244.405 106.919 244.405 107.215ZM250.135 105.16L250.57 106.018C250.762 106.388 250.863 106.798 250.863 107.215V130.407H271.413V107.215C271.413 106.798 271.514 106.388 271.706 106.018L272.141 105.16H250.135ZM270.239 107.215V129.233H252.038V107.215C252.038 106.919 252.002 106.623 251.932 106.335H270.344C270.274 106.623 270.238 106.919 270.239 107.215ZM275.969 105.16L276.403 106.018C276.596 106.388 276.697 106.798 276.697 107.215V130.407H297.246V107.215C297.247 106.798 297.347 106.388 297.54 106.018L297.975 105.16H275.969ZM296.072 107.215V129.233H277.871V107.215C277.872 106.919 277.836 106.623 277.765 106.335H296.178C296.107 106.623 296.072 106.919 296.072 107.215ZM301.802 105.16L302.237 106.018C302.43 106.388 302.53 106.798 302.531 107.215V130.407H323.08V107.215C323.08 106.798 323.181 106.388 323.374 106.018L323.808 105.16H301.802ZM321.906 107.215V129.233H303.705V107.215C303.705 106.919 303.67 106.623 303.599 106.335H322.012C321.941 106.623 321.906 106.919 321.906 107.215ZM327.636 105.16L328.071 106.018C328.263 106.388 328.364 106.798 328.364 107.215V130.407H348.914V107.215C348.914 106.798 349.015 106.388 349.207 106.018L349.642 105.16H327.636ZM347.74 107.215V129.233H329.539V107.215C329.539 106.919 329.503 106.623 329.433 106.335H347.845C347.775 106.623 347.739 106.919 347.74 107.215ZM353.47 105.16L353.904 106.018C354.097 106.388 354.198 106.798 354.198 107.215V130.407H374.747V107.215C374.748 106.798 374.848 106.388 375.041 106.018L375.476 105.16H353.47ZM373.573 107.215V129.233H355.372V107.215C355.373 106.919 355.337 106.623 355.266 106.335H373.679C373.608 106.623 373.573 106.919 373.573 107.215ZM379.303 105.16L379.738 106.018C379.931 106.388 380.031 106.798 380.032 107.215V130.407H400.581V107.215C400.581 106.798 400.682 106.388 400.875 106.018L401.309 105.16H379.303ZM399.407 107.215V129.233H381.206V107.215C381.206 106.919 381.171 106.623 381.1 106.335H399.513C399.442 106.623 399.407 106.919 399.407 107.215ZM172.634 105.16L173.069 106.018C173.261 106.388 173.362 106.798 173.362 107.215V130.407H193.912V107.215C193.912 106.798 194.013 106.388 194.205 106.018L194.64 105.16H172.634ZM192.738 107.215V129.233H174.537V107.215C174.537 106.919 174.501 106.623 174.431 106.335H192.843C192.773 106.623 192.737 106.919 192.738 107.215ZM198.468 105.16L198.902 106.018C199.095 106.388 199.196 106.798 199.196 107.215V130.407H219.745V107.215C219.746 106.798 219.846 106.388 220.039 106.018L220.474 105.16H198.468ZM218.571 107.215V129.233H200.37V107.215C200.371 106.919 200.335 106.623 200.264 106.335H218.677C218.606 106.623 218.571 106.919 218.571 107.215ZM224.301 105.16L224.736 106.018C224.929 106.388 225.029 106.798 225.03 107.215V130.407H245.579V107.215C245.579 106.798 245.68 106.388 245.873 106.018L246.307 105.16H224.301ZM244.405 107.215V129.233H226.204V107.215C226.204 106.919 226.169 106.623 226.098 106.335H244.511C244.44 106.623 244.405 106.919 244.405 107.215ZM250.135 105.16L250.57 106.018C250.762 106.388 250.863 106.798 250.863 107.215V130.407H271.413V107.215C271.413 106.798 271.514 106.388 271.706 106.018L272.141 105.16H250.135ZM270.239 107.215V129.233H252.038V107.215C252.038 106.919 252.002 106.623 251.932 106.335H270.344C270.274 106.623 270.238 106.919 270.239 107.215ZM275.969 105.16L276.403 106.018C276.596 106.388 276.697 106.798 276.697 107.215V130.407H297.246V107.215C297.247 106.798 297.347 106.388 297.54 106.018L297.975 105.16H275.969ZM296.072 107.215V129.233H277.871V107.215C277.872 106.919 277.836 106.623 277.765 106.335H296.178C296.107 106.623 296.072 106.919 296.072 107.215ZM301.802 105.16L302.237 106.018C302.43 106.388 302.53 106.798 302.531 107.215V130.407H323.08V107.215C323.08 106.798 323.181 106.388 323.374 106.018L323.808 105.16H301.802ZM321.906 107.215V129.233H303.705V107.215C303.705 106.919 303.67 106.623 303.599 106.335H322.012C321.941 106.623 321.906 106.919 321.906 107.215ZM327.636 105.16L328.071 106.018C328.263 106.388 328.364 106.798 328.364 107.215V130.407H348.914V107.215C348.914 106.798 349.015 106.388 349.207 106.018L349.642 105.16H327.636ZM347.74 107.215V129.233H329.539V107.215C329.539 106.919 329.503 106.623 329.433 106.335H347.845C347.775 106.623 347.739 106.919 347.74 107.215ZM353.47 105.16L353.904 106.018C354.097 106.388 354.198 106.798 354.198 107.215V130.407H374.747V107.215C374.748 106.798 374.848 106.388 375.041 106.018L375.476 105.16H353.47ZM373.573 107.215V129.233H355.372V107.215C355.373 106.919 355.337 106.623 355.266 106.335H373.679C373.608 106.623 373.573 106.919 373.573 107.215ZM379.303 105.16L379.738 106.018C379.931 106.388 380.031 106.798 380.032 107.215V130.407H400.581V107.215C400.581 106.798 400.682 106.388 400.875 106.018L401.309 105.16H379.303ZM399.407 107.215V129.233H381.206V107.215C381.206 106.919 381.171 106.623 381.1 106.335H399.513C399.442 106.623 399.407 106.919 399.407 107.215ZM172.634 105.16L173.069 106.018C173.261 106.388 173.362 106.798 173.362 107.215V130.407H193.912V107.215C193.912 106.798 194.013 106.388 194.205 106.018L194.64 105.16H172.634ZM192.738 107.215V129.233H174.537V107.215C174.537 106.919 174.501 106.623 174.431 106.335H192.843C192.773 106.623 192.737 106.919 192.738 107.215ZM198.468 105.16L198.902 106.018C199.095 106.388 199.196 106.798 199.196 107.215V130.407H219.745V107.215C219.746 106.798 219.846 106.388 220.039 106.018L220.474 105.16H198.468ZM218.571 107.215V129.233H200.37V107.215C200.371 106.919 200.335 106.623 200.264 106.335H218.677C218.606 106.623 218.571 106.919 218.571 107.215ZM224.301 105.16L224.736 106.018C224.929 106.388 225.029 106.798 225.03 107.215V130.407H245.579V107.215C245.579 106.798 245.68 106.388 245.873 106.018L246.307 105.16H224.301ZM244.405 107.215V129.233H226.204V107.215C226.204 106.919 226.169 106.623 226.098 106.335H244.511C244.44 106.623 244.405 106.919 244.405 107.215ZM250.135 105.16L250.57 106.018C250.762 106.388 250.863 106.798 250.863 107.215V130.407H271.413V107.215C271.413 106.798 271.514 106.388 271.706 106.018L272.141 105.16H250.135ZM270.239 107.215V129.233H252.038V107.215C252.038 106.919 252.002 106.623 251.932 106.335H270.344C270.274 106.623 270.238 106.919 270.239 107.215ZM275.969 105.16L276.403 106.018C276.596 106.388 276.697 106.798 276.697 107.215V130.407H297.246V107.215C297.247 106.798 297.347 106.388 297.54 106.018L297.975 105.16H275.969ZM296.072 107.215V129.233H277.871V107.215C277.872 106.919 277.836 106.623 277.765 106.335H296.178C296.107 106.623 296.072 106.919 296.072 107.215ZM301.802 105.16L302.237 106.018C302.43 106.388 302.53 106.798 302.531 107.215V130.407H323.08V107.215C323.08 106.798 323.181 106.388 323.374 106.018L323.808 105.16H301.802ZM321.906 107.215V129.233H303.705V107.215C303.705 106.919 303.67 106.623 303.599 106.335H322.012C321.941 106.623 321.906 106.919 321.906 107.215ZM327.636 105.16L328.071 106.018C328.263 106.388 328.364 106.798 328.364 107.215V130.407H348.914V107.215C348.914 106.798 349.015 106.388 349.207 106.018L349.642 105.16H327.636ZM347.74 107.215V129.233H329.539V107.215C329.539 106.919 329.503 106.623 329.433 106.335H347.845C347.775 106.623 347.739 106.919 347.74 107.215ZM353.47 105.16L353.904 106.018C354.097 106.388 354.198 106.798 354.198 107.215V130.407H374.747V107.215C374.748 106.798 374.848 106.388 375.041 106.018L375.476 105.16H353.47ZM373.573 107.215V129.233H355.372V107.215C355.373 106.919 355.337 106.623 355.266 106.335H373.679C373.608 106.623 373.573 106.919 373.573 107.215ZM379.303 105.16L379.738 106.018C379.931 106.388 380.031 106.798 380.032 107.215V130.407H400.581V107.215C400.581 106.798 400.682 106.388 400.875 106.018L401.309 105.16H379.303ZM399.407 107.215V129.233H381.206V107.215C381.206 106.919 381.171 106.623 381.1 106.335H399.513C399.442 106.623 399.407 106.919 399.407 107.215Z" fill="#3F3D56"/>
<path d="M242.439 207.908H199.143C198.231 207.907 197.356 207.544 196.712 206.899C196.067 206.255 195.704 205.38 195.703 204.468V181.404C195.704 180.492 196.067 179.618 196.712 178.973C197.356 178.328 198.231 177.965 199.143 177.964H242.439C243.351 177.965 244.225 178.328 244.87 178.973C245.515 179.618 245.878 180.492 245.879 181.404V204.468C245.878 205.38 245.515 206.255 244.87 206.899C244.225 207.544 243.351 207.907 242.439 207.908Z" fill="#17B8A6"/>
<path d="M308.327 207.908H265.03C264.118 207.907 263.244 207.544 262.599 206.899C261.954 206.255 261.591 205.38 261.59 204.468V181.404C261.591 180.492 261.954 179.618 262.599 178.973C263.244 178.328 264.118 177.965 265.03 177.964H308.327C309.238 177.965 310.113 178.328 310.758 178.973C311.402 179.618 311.765 180.492 311.766 181.404V204.468C311.765 205.38 311.402 206.255 310.758 206.899C310.113 207.544 309.238 207.907 308.327 207.908Z" fill="#17B8A6"/>
<path d="M374.214 207.908H330.917C330.005 207.907 329.131 207.544 328.486 206.899C327.841 206.255 327.479 205.38 327.478 204.468V181.404C327.479 180.492 327.841 179.618 328.486 178.973C329.131 178.328 330.005 177.965 330.917 177.964H374.214C375.126 177.965 376 178.328 376.645 178.973C377.29 179.618 377.652 180.492 377.653 181.404V204.468C377.652 205.38 377.29 206.255 376.645 206.899C376 207.544 375.126 207.907 374.214 207.908Z" fill="#17B8A6"/>
<path d="M242.439 284.822H199.143C198.231 284.821 197.356 284.458 196.712 283.813C196.067 283.168 195.704 282.294 195.703 281.382V258.318C195.704 257.406 196.067 256.532 196.712 255.887C197.356 255.242 198.231 254.879 199.143 254.878H242.439C243.351 254.879 244.225 255.242 244.87 255.887C245.515 256.532 245.878 257.406 245.879 258.318V281.382C245.878 282.294 245.515 283.168 244.87 283.813C244.225 284.458 243.351 284.821 242.439 284.822Z" fill="#17B8A6"/>
<path d="M308.327 284.822H265.03C264.118 284.821 263.244 284.458 262.599 283.813C261.954 283.168 261.591 282.294 261.59 281.382V258.318C261.591 257.406 261.954 256.532 262.599 255.887C263.244 255.242 264.118 254.879 265.03 254.878H308.327C309.238 254.879 310.113 255.242 310.758 255.887C311.402 256.532 311.765 257.406 311.766 258.318V281.382C311.765 282.294 311.402 283.168 310.758 283.813C310.113 284.458 309.238 284.821 308.327 284.822Z" fill="#17B8A6"/>
<path d="M374.214 284.822H330.917C330.005 284.821 329.131 284.458 328.486 283.813C327.841 283.168 327.479 282.294 327.478 281.382V258.318C327.479 257.406 327.841 256.532 328.486 255.887C329.131 255.242 330.005 254.879 330.917 254.878H374.214C375.126 254.879 376 255.242 376.645 255.887C377.29 256.532 377.652 257.406 377.653 258.318V281.382C377.652 282.294 377.29 283.168 376.645 283.813C376 284.458 375.126 284.821 374.214 284.822Z" fill="#17B8A6"/>
<path d="M242.439 361.736H199.143C198.231 361.735 197.356 361.372 196.712 360.727C196.067 360.082 195.704 359.208 195.703 358.296V335.232C195.704 334.32 196.067 333.445 196.712 332.801C197.356 332.156 198.231 331.793 199.143 331.792H242.439C243.351 331.793 244.225 332.156 244.87 332.801C245.515 333.445 245.878 334.32 245.879 335.232V358.296C245.878 359.208 245.515 360.082 244.87 360.727C244.225 361.372 243.351 361.735 242.439 361.736Z" fill="#17B8A6"/>
<path d="M308.327 361.736H265.03C264.118 361.735 263.244 361.372 262.599 360.727C261.954 360.082 261.591 359.208 261.59 358.296V335.232C261.591 334.32 261.954 333.445 262.599 332.801C263.244 332.156 264.118 331.793 265.03 331.792H308.327C309.238 331.793 310.113 332.156 310.758 332.801C311.402 333.445 311.765 334.32 311.766 335.232V358.296C311.765 359.208 311.402 360.082 310.758 360.727C310.113 361.372 309.238 361.735 308.327 361.736Z" fill="#17B8A6"/>
<path d="M374.214 361.736H330.917C330.005 361.735 329.131 361.372 328.486 360.727C327.841 360.082 327.479 359.208 327.478 358.296V335.232C327.479 334.32 327.841 333.445 328.486 332.801C329.131 332.156 330.005 331.793 330.917 331.792H374.214C375.126 331.793 376 332.156 376.645 332.801C377.29 333.445 377.652 334.32 377.653 335.232V358.296C377.652 359.208 377.29 360.082 376.645 360.727C376 361.372 375.126 361.735 374.214 361.736Z" fill="#17B8A6"/>
<path d="M235.43 210.867H185.273C184.061 210.866 182.899 210.384 182.042 209.527C181.185 208.67 180.703 207.508 180.702 206.296V179.577C180.703 178.365 181.185 177.203 182.042 176.346C182.899 175.488 184.061 175.006 185.273 175.005H235.43C236.642 175.006 237.804 175.488 238.661 176.346C239.518 177.203 240 178.365 240.002 179.577V206.296C240 207.508 239.518 208.67 238.661 209.527C237.804 210.384 236.642 210.866 235.43 210.867ZM185.273 176.179C184.372 176.18 183.509 176.538 182.872 177.175C182.235 177.812 181.877 178.676 181.876 179.577V206.296C181.877 207.196 182.235 208.06 182.872 208.697C183.509 209.334 184.372 209.692 185.273 209.693H235.43C236.331 209.692 237.194 209.334 237.831 208.697C238.468 208.06 238.826 207.196 238.827 206.296V179.577C238.826 178.676 238.468 177.812 237.831 177.175C237.194 176.538 236.331 176.18 235.43 176.179H185.273Z" fill="#3F3D56"/>
<path d="M311.757 210.867H261.6C260.388 210.866 259.226 210.384 258.369 209.527C257.512 208.67 257.03 207.508 257.028 206.296V179.577C257.03 178.365 257.512 177.203 258.369 176.346C259.226 175.488 260.388 175.006 261.6 175.005H311.757C312.969 175.006 314.131 175.488 314.988 176.346C315.845 177.203 316.327 178.365 316.328 179.577V206.296C316.327 207.508 315.845 208.67 314.988 209.527C314.131 210.384 312.969 210.866 311.757 210.867ZM261.6 176.179C260.699 176.18 259.836 176.538 259.199 177.175C258.562 177.812 258.204 178.676 258.203 179.577V206.296C258.204 207.196 258.562 208.06 259.199 208.697C259.836 209.334 260.699 209.692 261.6 209.693H311.757C312.657 209.692 313.521 209.334 314.158 208.697C314.795 208.06 315.153 207.196 315.154 206.296V179.577C315.153 178.676 314.795 177.812 314.158 177.175C313.521 176.538 312.657 176.18 311.757 176.179H261.6Z" fill="#3F3D56"/>
<path d="M388.083 210.867H337.927C336.715 210.866 335.553 210.384 334.695 209.527C333.838 208.67 333.356 207.508 333.355 206.296V179.577C333.356 178.365 333.838 177.203 334.695 176.346C335.553 175.488 336.715 175.006 337.927 175.005H388.083C389.295 175.006 390.457 175.488 391.315 176.346C392.172 177.203 392.654 178.365 392.655 179.577V206.296C392.654 207.508 392.172 208.67 391.315 209.527C390.457 210.384 389.295 210.866 388.083 210.867ZM337.927 176.179C337.026 176.18 336.162 176.538 335.525 177.175C334.888 177.812 334.53 178.676 334.529 179.577V206.296C334.53 207.196 334.888 208.06 335.525 208.697C336.162 209.334 337.026 209.692 337.927 209.693H388.083C388.984 209.692 389.848 209.334 390.485 208.697C391.122 208.06 391.48 207.196 391.481 206.296V179.577C391.48 178.676 391.122 177.812 390.485 177.175C389.848 176.538 388.984 176.18 388.083 176.179H337.927Z" fill="#3F3D56"/>
<path d="M235.43 287.781H185.273C184.061 287.78 182.899 287.298 182.042 286.441C181.185 285.584 180.703 284.422 180.702 283.209V256.491C180.703 255.278 181.185 254.116 182.042 253.259C182.899 252.402 184.061 251.92 185.273 251.919H235.43C236.642 251.92 237.804 252.402 238.661 253.259C239.518 254.116 240 255.278 240.002 256.491V283.209C240 284.422 239.518 285.584 238.661 286.441C237.804 287.298 236.642 287.78 235.43 287.781ZM185.273 253.093C184.372 253.094 183.509 253.452 182.872 254.089C182.235 254.726 181.877 255.59 181.876 256.491V283.209C181.877 284.11 182.235 284.974 182.872 285.611C183.509 286.248 184.372 286.606 185.273 286.607H235.43C236.331 286.606 237.194 286.248 237.831 285.611C238.468 284.974 238.826 284.11 238.827 283.209V256.491C238.826 255.59 238.468 254.726 237.831 254.089C237.194 253.452 236.331 253.094 235.43 253.093H185.273Z" fill="#3F3D56"/>
<path d="M311.757 287.781H261.6C260.388 287.78 259.226 287.298 258.369 286.441C257.512 285.584 257.03 284.422 257.028 283.209V256.491C257.03 255.278 257.512 254.116 258.369 253.259C259.226 252.402 260.388 251.92 261.6 251.919H311.757C312.969 251.92 314.131 252.402 314.988 253.259C315.845 254.116 316.327 255.278 316.328 256.491V283.209C316.327 284.422 315.845 285.584 314.988 286.441C314.131 287.298 312.969 287.78 311.757 287.781ZM261.6 253.093C260.699 253.094 259.836 253.452 259.199 254.089C258.562 254.726 258.204 255.59 258.203 256.491V283.209C258.204 284.11 258.562 284.974 259.199 285.611C259.836 286.248 260.699 286.606 261.6 286.607H311.757C312.657 286.606 313.521 286.248 314.158 285.611C314.795 284.974 315.153 284.11 315.154 283.209V256.491C315.153 255.59 314.795 254.726 314.158 254.089C313.521 253.452 312.657 253.094 311.757 253.093H261.6Z" fill="#3F3D56"/>
<path d="M388.083 287.781H337.927C336.715 287.78 335.553 287.298 334.695 286.441C333.838 285.584 333.356 284.422 333.355 283.209V256.491C333.356 255.278 333.838 254.116 334.695 253.259C335.553 252.402 336.715 251.92 337.927 251.919H388.083C389.295 251.92 390.457 252.402 391.315 253.259C392.172 254.116 392.654 255.278 392.655 256.491V283.209C392.654 284.422 392.172 285.584 391.315 286.441C390.457 287.298 389.295 287.78 388.083 287.781ZM337.927 253.093C337.026 253.094 336.162 253.452 335.525 254.089C334.888 254.726 334.53 255.59 334.529 256.491V283.209C334.53 284.11 334.888 284.974 335.525 285.611C336.162 286.248 337.026 286.606 337.927 286.607H388.083C388.984 286.606 389.848 286.248 390.485 285.611C391.122 284.974 391.48 284.11 391.481 283.209V256.491C391.48 255.59 391.122 254.726 390.485 254.089C389.848 253.452 388.984 253.094 388.083 253.093H337.927Z" fill="#3F3D56"/>
<path d="M235.43 364.695H185.273C184.061 364.694 182.899 364.212 182.042 363.354C181.185 362.497 180.703 361.335 180.702 360.123V333.404C180.703 332.192 181.185 331.03 182.042 330.173C182.899 329.316 184.061 328.834 185.273 328.833H235.43C236.642 328.834 237.804 329.316 238.661 330.173C239.518 331.03 240 332.192 240.002 333.404V360.123C240 361.335 239.518 362.497 238.661 363.355C237.804 364.212 236.642 364.694 235.43 364.695ZM185.273 330.007C184.372 330.008 183.509 330.366 182.872 331.003C182.235 331.64 181.877 332.504 181.876 333.404V360.123C181.877 361.024 182.235 361.888 182.872 362.525C183.509 363.162 184.372 363.52 185.273 363.521H235.43C236.331 363.52 237.194 363.162 237.831 362.525C238.468 361.888 238.826 361.024 238.827 360.123V333.404C238.826 332.504 238.468 331.64 237.831 331.003C237.194 330.366 236.331 330.008 235.43 330.007H185.273Z" fill="#3F3D56"/>
<path d="M311.757 364.695H261.6C260.388 364.694 259.226 364.212 258.369 363.355C257.512 362.497 257.03 361.335 257.028 360.123V333.404C257.03 332.192 257.512 331.03 258.369 330.173C259.226 329.316 260.388 328.834 261.6 328.833H311.757C312.969 328.834 314.131 329.316 314.988 330.173C315.845 331.03 316.327 332.192 316.328 333.404V360.123C316.327 361.335 315.845 362.497 314.988 363.354C314.131 364.212 312.969 364.694 311.757 364.695ZM261.6 330.007C260.699 330.008 259.836 330.366 259.199 331.003C258.562 331.64 258.204 332.504 258.203 333.404V360.123C258.204 361.024 258.562 361.888 259.199 362.525C259.836 363.162 260.699 363.52 261.6 363.521H311.757C312.657 363.52 313.521 363.162 314.158 362.525C314.795 361.888 315.153 361.024 315.154 360.123V333.404C315.153 332.504 314.795 331.64 314.158 331.003C313.521 330.366 312.657 330.008 311.757 330.007H261.6Z" fill="#3F3D56"/>
<path d="M388.083 364.695H337.927C336.715 364.694 335.553 364.212 334.695 363.355C333.838 362.497 333.356 361.335 333.355 360.123V333.404C333.356 332.192 333.838 331.03 334.695 330.173C335.553 329.316 336.715 328.834 337.927 328.833H388.083C389.295 328.834 390.457 329.316 391.315 330.173C392.172 331.03 392.654 332.192 392.655 333.404V360.123C392.654 361.335 392.172 362.497 391.315 363.354C390.457 364.212 389.295 364.694 388.083 364.695ZM337.927 330.007C337.026 330.008 336.162 330.366 335.525 331.003C334.888 331.64 334.53 332.504 334.529 333.404V360.123C334.53 361.024 334.888 361.888 335.525 362.525C336.162 363.162 337.026 363.52 337.927 363.521H388.083C388.984 363.52 389.848 363.162 390.485 362.525C391.122 361.888 391.48 361.024 391.481 360.123V333.404C391.48 332.504 391.122 331.64 390.485 331.003C389.848 330.366 388.984 330.008 388.083 330.007H337.927Z" fill="#3F3D56"/>
<path d="M592.413 455.383H0.587129C0.431412 455.383 0.282074 455.321 0.171966 455.211C0.0618576 455.101 0 454.951 0 454.796C0 454.64 0.0618576 454.49 0.171966 454.38C0.282074 454.27 0.431412 454.208 0.587129 454.208H592.413C592.569 454.208 592.718 454.27 592.828 454.38C592.938 454.49 593 454.64 593 454.796C593 454.951 592.938 455.101 592.828 455.211C592.718 455.321 592.569 455.383 592.413 455.383Z" fill="#3F3D56"/>
<path d="M316.328 398.555C316.344 397.215 315.828 395.923 314.892 394.964C313.956 394.005 312.678 393.457 311.338 393.441H286.678V454.208H316.328V398.555Z" fill="#3F3D56"/>
<path d="M287.266 453.621H256.441V398.725C256.443 397.246 257.031 395.828 258.077 394.783C259.123 393.737 260.54 393.149 262.019 393.147H287.266V453.621ZM257.616 452.447H286.091V394.321H262.019C260.852 394.323 259.732 394.787 258.907 395.612C258.081 396.438 257.617 397.557 257.616 398.725V452.447Z" fill="#3F3D56"/>
<path d="M260.257 427.494C261.23 427.494 262.019 426.705 262.019 425.733C262.019 424.76 261.23 423.971 260.257 423.971C259.285 423.971 258.496 424.76 258.496 425.733C258.496 426.705 259.285 427.494 260.257 427.494Z" fill="#3F3D56"/>
</g>
<defs>
<clipPath id="clip0_33_1987">
<rect width="593" height="452.42" fill="white" transform="translate(0 3)"/>
</clipPath>
</defs>
</svg>
