<svg width="96" height="96" viewBox="0 0 96 96" fill="none" xmlns="http://www.w3.org/2000/svg">
<g clip-path="url(#clip0_7_873)">
<path d="M74 44C74.68 44 75.36 44.04 76 44.12V27.48C76 23.36 72.64 20 68.52 20H15.48C11.36 20 8 23.36 8 27.48V68.52C8 72.64 11.36 76 15.48 76H54.4C52.88 73 52 69.6 52 66C52 53.84 61.84 44 74 44ZM41.6 52L16 36.76V28H16.92L41.64 42.72L66.96 28H68V36.64L41.6 52Z" fill="black"/>
<path d="M76 52L70.36 57.64L76.68 64H60V72H76.68L70.36 78.36L76 84L92 68L76 52Z" fill="black"/>
</g>
<defs>
<clipPath id="clip0_7_873">
<rect width="96" height="96" fill="white"/>
</clipPath>
</defs>
</svg>
