<svg width="439" height="476" viewBox="0 0 439 476" fill="none" xmlns="http://www.w3.org/2000/svg">
<path fill-rule="evenodd" clip-rule="evenodd" d="M224.753 0.0509864C324.877 2.31393 386.686 96.3547 417.474 191.655C448.053 286.309 455.539 402.849 372.639 457.822C295.367 509.063 207.692 435.484 133.37 380.052C63.4328 327.89 -17.1841 267.121 3.21552 182.293C27.9335 79.5068 119.063 -2.33772 224.753 0.0509864Z" fill="#8ACAC3"/>
<path d="M105.331 306.736H42.2814C39.0248 306.732 35.9026 305.437 33.5998 303.134C31.297 300.831 30.0017 297.709 29.998 294.453V42.2833C30.0017 39.0267 31.297 35.9045 33.5998 33.6018C35.9026 31.299 39.0248 30.0037 42.2814 30H213.295L244.595 57.9469V108.758H243.15V58.5939L212.743 31.4451H42.2814C39.4079 31.4483 36.653 32.5913 34.6212 34.6231C32.5893 36.655 31.4464 39.4098 31.4431 42.2833V294.453C31.4464 297.326 32.5893 300.081 34.6212 302.113C36.653 304.145 39.4079 305.288 42.2814 305.291H105.331V306.736Z" fill="black"/>
<path d="M243.872 58.9019H224.363C221.107 58.8983 217.985 57.603 215.682 55.3002C213.379 52.9974 212.084 49.8752 212.08 46.6186V30.7225C212.08 30.5309 212.156 30.3471 212.292 30.2116C212.427 30.0761 212.611 30 212.803 30C212.994 30 213.178 30.0761 213.314 30.2116C213.449 30.3471 213.525 30.5309 213.525 30.7225V46.6186C213.528 49.4921 214.671 52.2469 216.703 54.2788C218.735 56.3107 221.49 57.4536 224.363 57.4568H243.872C244.064 57.4568 244.248 57.533 244.383 57.6685C244.519 57.804 244.595 57.9878 244.595 58.1794C244.595 58.371 244.519 58.5548 244.383 58.6903C244.248 58.8258 244.064 58.9019 243.872 58.9019Z" fill="black"/>
<path d="M219.695 95.3906H54.9542C53.4212 95.3906 51.9509 95.9996 50.8669 97.0837C49.7828 98.1677 49.1738 99.638 49.1738 101.171C49.1738 102.704 49.7828 104.174 50.8669 105.258C51.9509 106.342 53.4212 106.951 54.9542 106.951H219.695C221.228 106.951 222.699 106.342 223.783 105.258C224.867 104.174 225.476 102.704 225.476 101.171C225.476 99.638 224.867 98.1677 223.783 97.0837C222.699 95.9996 221.228 95.3906 219.695 95.3906Z" fill="#E6E6E6"/>
<path d="M136.602 70.824H54.9542C53.4212 70.824 51.9509 71.433 50.8669 72.517C49.7828 73.601 49.1738 75.0713 49.1738 76.6044C49.1738 78.1374 49.7828 79.6077 50.8669 80.6917C51.9509 81.7757 53.4212 82.3847 54.9542 82.3847H136.602C138.135 82.3847 139.605 81.7757 140.69 80.6917C141.774 79.6077 142.383 78.1374 142.383 76.6044C142.383 75.0713 141.774 73.601 140.69 72.517C139.605 71.433 138.135 70.824 136.602 70.824Z" fill="#E6E6E6"/>
<path d="M54.9542 143.801C53.4212 143.801 51.9509 144.41 50.8669 145.494C49.7828 146.578 49.1738 148.049 49.1738 149.582C49.1738 151.115 49.7828 152.585 50.8669 153.669C51.9509 154.753 53.4212 155.362 54.9542 155.362H106.588V143.801H54.9542Z" fill="#E6E6E6"/>
<path d="M54.9542 119.235C54.1951 119.235 53.4435 119.384 52.7422 119.675C52.0409 119.965 51.4036 120.391 50.8669 120.928C50.3301 121.465 49.9043 122.102 49.6138 122.803C49.3233 123.504 49.1738 124.256 49.1738 125.015C49.1738 125.774 49.3233 126.526 49.6138 127.227C49.9043 127.928 50.3301 128.566 50.8669 129.102C51.4036 129.639 52.0409 130.065 52.7422 130.355C53.4435 130.646 54.1951 130.795 54.9542 130.795H106.588V119.235H54.9542Z" fill="#E6E6E6"/>
<path d="M106.95 266.273H60.6779C57.5171 266.27 54.4867 265.012 52.2517 262.777C50.0166 260.542 48.7594 257.512 48.7559 254.351V193.657C48.7594 190.496 50.0167 187.466 52.2517 185.231C54.4867 182.996 57.5171 181.739 60.6779 181.735H106.95V266.273Z" fill="#E6E6E6"/>
<path d="M181.559 384.41H118.51C115.253 384.406 112.131 383.111 109.828 380.808C107.526 378.505 106.23 375.383 106.227 372.127V119.957C106.23 116.701 107.526 113.578 109.828 111.276C112.131 108.973 115.253 107.678 118.51 107.674H289.523L320.823 135.621V183.541H319.378V136.268L288.972 109.119H118.51C115.636 109.122 112.882 110.265 110.85 112.297C108.818 114.329 107.675 117.084 107.672 119.957V372.127C107.675 375 108.818 377.755 110.85 379.787C112.882 381.819 115.636 382.962 118.51 382.965H181.559V384.41Z" fill="black"/>
<path d="M320.101 136.576H300.592C297.335 136.572 294.213 135.277 291.91 132.974C289.608 130.671 288.312 127.549 288.309 124.293V108.396C288.309 108.205 288.385 108.021 288.52 107.886C288.656 107.75 288.84 107.674 289.031 107.674C289.223 107.674 289.407 107.75 289.542 107.886C289.678 108.021 289.754 108.205 289.754 108.396V124.293C289.757 127.166 290.9 129.921 292.932 131.953C294.964 133.985 297.718 135.128 300.592 135.131H320.101C320.292 135.131 320.476 135.207 320.612 135.342C320.747 135.478 320.823 135.662 320.823 135.853C320.823 136.045 320.747 136.229 320.612 136.364C320.476 136.5 320.292 136.576 320.101 136.576Z" fill="black"/>
<path d="M295.924 173.065H131.183C129.65 173.065 128.179 173.674 127.095 174.758C126.011 175.842 125.402 177.312 125.402 178.845C125.402 180.378 126.011 181.848 127.095 182.932C128.179 184.016 129.65 184.625 131.183 184.625H295.924C297.457 184.625 298.927 184.016 300.011 182.932C301.095 181.848 301.704 180.378 301.704 178.845C301.704 177.312 301.095 175.842 300.011 174.758C298.927 173.674 297.457 173.065 295.924 173.065Z" fill="#E6E6E6"/>
<path d="M212.831 148.498H131.183C129.65 148.498 128.179 149.107 127.095 150.191C126.011 151.275 125.402 152.745 125.402 154.278C125.402 155.811 126.011 157.282 127.095 158.366C128.179 159.45 129.65 160.059 131.183 160.059H212.831C214.364 160.059 215.834 159.45 216.918 158.366C218.002 157.282 218.611 155.811 218.611 154.278C218.611 152.745 218.002 151.275 216.918 150.191C215.834 149.107 214.364 148.498 212.831 148.498Z" fill="#E6E6E6"/>
<path d="M131.183 221.475C129.65 221.475 128.179 222.084 127.095 223.168C126.011 224.252 125.402 225.723 125.402 227.256C125.402 228.789 126.011 230.259 127.095 231.343C128.179 232.427 129.65 233.036 131.183 233.036H182.816V221.475H131.183Z" fill="#E6E6E6"/>
<path d="M131.183 196.909C129.65 196.909 128.179 197.518 127.095 198.602C126.011 199.686 125.402 201.156 125.402 202.689C125.402 204.222 126.011 205.692 127.095 206.776C128.179 207.86 129.65 208.469 131.183 208.469H182.816V196.909H131.183Z" fill="#E6E6E6"/>
<path d="M183.178 343.947H136.906C133.746 343.944 130.715 342.686 128.48 340.451C126.245 338.216 124.988 335.186 124.984 332.025V271.331C124.988 268.17 126.245 265.14 128.48 262.905C130.715 260.67 133.746 259.413 136.906 259.409H183.178V343.947Z" fill="#E6E6E6"/>
<path d="M187.253 186.07C185.457 187.167 183.973 188.706 182.943 190.54C181.913 192.375 181.372 194.443 181.371 196.547V198.354H182.816V196.547C182.819 194.158 183.61 191.836 185.067 189.942C186.523 188.048 188.564 186.687 190.873 186.07H187.253ZM364.667 184.264H193.654C190.398 184.268 187.276 185.563 184.973 187.866C182.67 190.169 181.375 193.291 181.371 196.547V448.717C181.376 451.973 182.671 455.095 184.974 457.397C187.276 459.7 190.398 460.995 193.654 461H383.685C386.941 460.995 390.063 459.7 392.365 457.397C394.668 455.095 395.963 451.973 395.968 448.717V212.212L364.667 184.264ZM394.523 448.717C394.519 451.59 393.376 454.345 391.344 456.377C389.313 458.408 386.558 459.551 383.685 459.555H193.654C190.781 459.551 188.026 458.408 185.994 456.377C183.963 454.345 182.82 451.59 182.816 448.717L182.816 196.547C182.819 194.158 183.61 191.836 185.067 189.942C186.523 188.048 188.564 186.687 190.873 186.07C191.78 185.829 192.715 185.707 193.654 185.709H364.118L394.523 212.855V448.717ZM187.253 186.07C185.457 187.167 183.973 188.706 182.943 190.54C181.913 192.375 181.372 194.443 181.371 196.547V198.354H182.816V196.547C182.819 194.158 183.61 191.836 185.067 189.942C186.523 188.048 188.564 186.687 190.873 186.07H187.253Z" fill="#3F3D56"/>
<path d="M395.245 213.166H375.736C372.48 213.162 369.358 211.867 367.055 209.564C364.752 207.261 363.457 204.139 363.453 200.883V184.987C363.453 184.795 363.529 184.611 363.665 184.476C363.8 184.34 363.984 184.264 364.176 184.264C364.367 184.264 364.551 184.34 364.687 184.476C364.822 184.611 364.898 184.795 364.898 184.987V200.883C364.901 203.756 366.044 206.511 368.076 208.543C370.108 210.575 372.863 211.718 375.736 211.721H395.245C395.437 211.721 395.621 211.797 395.756 211.933C395.892 212.068 395.968 212.252 395.968 212.443C395.968 212.635 395.892 212.819 395.756 212.954C395.621 213.09 395.437 213.166 395.245 213.166Z" fill="#3F3D56"/>
<path d="M371.072 261.215H206.331C204.798 261.215 203.328 260.606 202.244 259.522C201.16 258.438 200.551 256.968 200.551 255.435C200.551 253.902 201.16 252.432 202.244 251.348C203.328 250.264 204.798 249.655 206.331 249.655H371.072C372.605 249.655 374.075 250.264 375.159 251.348C376.244 252.432 376.853 253.902 376.853 255.435C376.853 256.968 376.244 258.438 375.159 259.522C374.075 260.606 372.605 261.215 371.072 261.215Z" fill="#CCCCCC"/>
<path d="M287.979 236.649H206.331C204.798 236.649 203.328 236.04 202.244 234.956C201.16 233.872 200.551 232.401 200.551 230.868C200.551 229.335 201.16 227.865 202.244 226.781C203.328 225.697 204.798 225.088 206.331 225.088H287.979C289.512 225.088 290.982 225.697 292.066 226.781C293.15 227.865 293.759 229.335 293.759 230.868C293.759 232.401 293.15 233.872 292.066 234.956C290.982 236.04 289.512 236.649 287.979 236.649Z" fill="#CCCCCC"/>
<path d="M371.072 309.626H206.331C204.798 309.626 203.328 309.017 202.244 307.933C201.16 306.849 200.551 305.379 200.551 303.846C200.551 302.313 201.16 300.842 202.244 299.758C203.328 298.674 204.798 298.065 206.331 298.065H371.072C372.605 298.065 374.075 298.674 375.159 299.758C376.244 300.842 376.853 302.313 376.853 303.846C376.853 305.379 376.244 306.849 375.159 307.933C374.075 309.017 372.605 309.626 371.072 309.626Z" fill="#CCCCCC"/>
<path d="M287.979 285.06H206.331C204.798 285.06 203.328 284.451 202.244 283.366C201.16 282.282 200.551 280.812 200.551 279.279C200.551 277.746 201.16 276.276 202.244 275.192C203.328 274.108 204.798 273.499 206.331 273.499H287.979C289.512 273.499 290.982 274.108 292.066 275.192C293.15 276.276 293.759 277.746 293.759 279.279C293.759 280.812 293.15 282.282 292.066 283.366C290.982 284.451 289.512 285.06 287.979 285.06Z" fill="#CCCCCC"/>
<path d="M365.229 420.537H212.049C208.888 420.534 205.858 419.276 203.623 417.041C201.388 414.806 200.131 411.776 200.127 408.615V347.921C200.131 344.76 201.388 341.73 203.623 339.495C205.858 337.26 208.888 336.003 212.049 335.999H365.229C368.39 336.003 371.42 337.26 373.655 339.495C375.89 341.73 377.148 344.76 377.151 347.921V408.615C377.148 411.776 375.891 414.806 373.655 417.041C371.42 419.276 368.39 420.534 365.229 420.537Z" fill="#17B8A6"/>
</svg>
