<svg width="439" height="476" viewBox="0 0 439 476" fill="none" xmlns="http://www.w3.org/2000/svg">
<path fill-rule="evenodd" clip-rule="evenodd" d="M224.753 0.0509864C324.877 2.31393 386.686 96.3547 417.474 191.655C448.053 286.309 455.539 402.849 372.639 457.822C295.367 509.063 207.692 435.484 133.37 380.052C63.4328 327.89 -17.1841 267.121 3.21552 182.293C27.9335 79.5068 119.063 -2.33772 224.753 0.0509864Z" fill="#8ACAC3"/>
<g clip-path="url(#clip0_55_327)">
<path d="M36.7286 221C36.7991 221 36.8435 221 36.8586 220.998H45.2914V219.756H36.8279C36.632 219.763 32.6342 219.876 28.9523 215.411C23.4632 208.758 18.9554 192.287 28.6529 151.605C41.6925 96.9019 30.8168 48.5752 25.5356 30.3363C25.2754 29.4339 25.2288 28.4835 25.3996 27.5601C25.5704 26.6366 25.9538 25.7656 26.5196 25.0156C27.0854 24.2657 27.8181 23.6574 28.6597 23.239C29.5014 22.8205 30.4289 22.6032 31.369 22.6044H157.305C158.263 22.6058 159.206 22.8328 160.06 23.2668C160.913 23.7009 161.652 24.3297 162.216 25.1024C164.453 28.1762 167.523 34.0815 169.445 44.7587L170.668 44.5391C168.705 33.6296 165.535 27.551 163.222 24.3702C162.542 23.4394 161.651 22.682 160.623 22.1592C159.595 21.6365 158.458 21.3633 157.305 21.3618H31.3677C30.2346 21.3607 29.1168 21.6228 28.1026 22.1274C27.0884 22.632 26.2056 23.3652 25.524 24.2693C24.8423 25.1733 24.3805 26.2233 24.1751 27.3362C23.9696 28.4492 24.0261 29.5946 24.3401 30.682C29.5938 48.8258 40.4118 96.9024 27.4418 151.318C17.6078 192.571 22.3355 209.401 28.0329 216.252C31.7907 220.772 35.9314 221 36.7286 221Z" fill="#E6E6E6"/>
<path d="M59.4195 243.665C59.49 243.665 59.5344 243.665 59.5496 243.663H67.9824V242.421H59.5193C59.3224 242.427 55.3256 242.541 51.6437 238.076C46.1546 231.423 41.6468 214.952 51.3443 174.27C64.3839 119.567 53.5082 71.2403 48.227 53.0014C47.9668 52.099 47.9202 51.1486 48.091 50.2252C48.2618 49.3018 48.6452 48.4307 49.211 47.6807C49.7768 46.9308 50.5095 46.3225 51.3511 45.9041C52.1928 45.4856 53.1203 45.2683 54.0604 45.2695H179.997C180.954 45.2707 181.898 45.4974 182.751 45.9312C183.605 46.365 184.343 46.9937 184.908 47.7661C187.145 50.84 190.215 56.7452 192.137 67.4224L193.36 67.2029C191.398 56.2933 188.228 50.2148 185.914 47.0339C185.234 46.1032 184.344 45.3457 183.316 44.823C182.288 44.3003 181.151 44.027 179.997 44.0255H54.0591C52.9259 44.0243 51.8079 44.2864 50.7936 44.7911C49.7793 45.2958 48.8964 46.0292 48.2147 46.9334C47.533 47.8376 47.0712 48.8878 46.8659 50.0009C46.6605 51.1141 46.7172 52.2596 47.0315 53.3471C52.2852 71.4909 63.1032 119.568 50.1332 173.983C40.2992 215.236 45.0269 232.066 50.7243 238.917C54.4822 243.437 58.6228 243.665 59.4195 243.665Z" fill="#CCCCCC"/>
<path d="M82.1111 266.33C82.1816 266.33 82.226 266.33 82.2411 266.328H206.236C207.43 266.329 208.606 266.038 209.661 265.481C210.716 264.923 211.619 264.116 212.289 263.129C212.959 262.142 213.377 261.007 213.507 259.821C213.636 258.636 213.472 257.437 213.03 256.329C208.531 245.102 202.473 218.166 212.451 163.908C224.233 99.8381 213.685 76.6832 208.605 69.7013C207.925 68.7706 207.034 68.0131 206.006 67.4904C204.978 66.9677 203.841 66.6945 202.688 66.6929H76.7506C75.6177 66.6918 74.5 66.9539 73.4859 67.4585C72.4718 67.963 71.589 68.6962 70.9074 69.6001C70.2258 70.504 69.7639 71.5539 69.5584 72.6667C69.3528 73.7796 69.4092 74.9249 69.723 76.0122C74.9768 94.156 85.7947 142.233 72.8247 196.648C62.9908 237.901 67.718 254.731 73.4159 261.582C77.1737 266.102 81.3143 266.33 82.1111 266.33ZM202.687 67.9342C203.645 67.9355 204.589 68.1625 205.442 68.5966C206.296 69.0307 207.035 69.6597 207.599 70.4326C212.587 77.2846 222.924 100.087 211.23 163.685C201.698 215.518 206.321 242.927 211.877 256.793C212.252 257.708 212.392 258.701 212.286 259.684C212.18 260.667 211.831 261.607 211.27 262.422C210.714 263.243 209.964 263.916 209.087 264.381C208.209 264.846 207.231 265.089 206.238 265.088H82.2109C82.0149 265.098 78.0171 265.209 74.3353 260.744C68.8462 254.09 64.3383 237.62 74.0358 196.938C87.0754 142.234 76.1998 93.9077 70.9186 75.6688C70.6583 74.7664 70.6118 73.816 70.7826 72.8926C70.9533 71.9692 71.3368 71.0981 71.9026 70.3481C72.4684 69.5982 73.2011 68.9899 74.0427 68.5715C74.8843 68.153 75.8118 67.9357 76.752 67.9369L202.687 67.9342Z" fill="#3F3D56"/>
<path d="M190.348 122.579H91.5009C90.1818 122.579 88.9168 122.056 87.9841 121.124C87.0513 120.192 86.5273 118.929 86.5273 117.611C86.5273 116.294 87.0513 115.03 87.9841 114.099C88.9168 113.167 90.1818 112.644 91.5009 112.644H190.348C191.667 112.644 192.932 113.167 193.865 114.099C194.798 115.03 195.322 116.294 195.322 117.611C195.322 118.929 194.798 120.192 193.865 121.124C192.932 122.056 191.667 122.579 190.348 122.579Z" fill="#17B8A6"/>
<path d="M190.348 143.692H91.5009C90.1818 143.692 88.9168 143.168 87.9841 142.237C87.0513 141.305 86.5273 140.041 86.5273 138.724C86.5273 137.406 87.0513 136.143 87.9841 135.211C88.9168 134.28 90.1818 133.756 91.5009 133.756H190.348C191.667 133.756 192.932 134.28 193.865 135.211C194.798 136.143 195.322 137.406 195.322 138.724C195.322 140.041 194.798 141.305 193.865 142.237C192.932 143.168 191.667 143.692 190.348 143.692Z" fill="#CCCCCC"/>
<path d="M190.348 164.804H91.5009C90.1818 164.804 88.9168 164.281 87.9841 163.349C87.0513 162.417 86.5273 161.154 86.5273 159.836C86.5273 158.519 87.0513 157.255 87.9841 156.324C88.9168 155.392 90.1818 154.869 91.5009 154.869H190.348C191.667 154.869 192.932 155.392 193.865 156.324C194.798 157.255 195.322 158.519 195.322 159.836C195.322 161.154 194.798 162.417 193.865 163.349C192.932 164.281 191.667 164.804 190.348 164.804Z" fill="#CCCCCC"/>
<path d="M197.807 185.916H98.9599C97.6408 185.916 96.3758 185.393 95.443 184.461C94.5103 183.529 93.9863 182.266 93.9863 180.948C93.9863 179.631 94.5103 178.367 95.443 177.436C96.3758 176.504 97.6408 175.981 98.9599 175.981H197.807C199.126 175.981 200.391 176.504 201.324 177.436C202.257 178.367 202.781 179.631 202.781 180.948C202.781 182.266 202.257 183.529 201.324 184.461C200.391 185.393 199.126 185.916 197.807 185.916Z" fill="#CCCCCC"/>
<path d="M197.807 207.028H98.9599C98.3067 207.028 97.66 206.9 97.0566 206.65C96.4532 206.401 95.9049 206.035 95.443 205.573C94.9812 205.112 94.6149 204.564 94.3649 203.962C94.115 203.359 93.9863 202.713 93.9863 202.061C93.9863 201.408 94.115 200.762 94.3649 200.16C94.6149 199.557 94.9812 199.009 95.443 198.548C95.9049 198.087 96.4532 197.721 97.0566 197.471C97.66 197.222 98.3067 197.093 98.9599 197.093H197.807C198.46 197.093 199.107 197.222 199.711 197.471C200.314 197.721 200.862 198.087 201.324 198.548C201.786 199.009 202.152 199.557 202.402 200.16C202.652 200.762 202.781 201.408 202.781 202.061C202.781 202.713 202.652 203.359 202.402 203.962C202.152 204.564 201.786 205.112 201.324 205.573C200.862 206.035 200.314 206.401 199.711 206.65C199.107 206.9 198.46 207.028 197.807 207.028Z" fill="#CCCCCC"/>
<path d="M138.127 101.467H91.5009C90.1818 101.467 88.9168 100.943 87.9841 100.012C87.0513 99.0801 86.5273 97.8165 86.5273 96.499C86.5273 95.1815 87.0513 93.918 87.9841 92.9863C88.9168 92.0547 90.1818 91.5313 91.5009 91.5313H138.127C139.446 91.5313 140.711 92.0547 141.644 92.9863C142.577 93.918 143.101 95.1815 143.101 96.499C143.101 97.8165 142.577 99.0801 141.644 100.012C140.711 100.943 139.446 101.467 138.127 101.467Z" fill="#17B8A6"/>
<path d="M132.105 241.069C133.109 236.825 137.823 235.434 141.678 235.59C144.113 235.754 146.529 236.136 148.896 236.731C151.373 237.284 153.826 237.939 156.268 238.635C160.743 239.909 165.172 241.451 169.721 242.447C173.508 243.277 177.623 243.764 181.4 242.619C185.03 241.517 188.11 238.814 189.098 235.077C190.029 231.556 188.751 227.705 185.334 226.096C182.22 224.628 178.282 225.374 176.738 228.693C174.998 232.436 176.738 236.517 179.494 239.225C181.061 240.695 182.777 241.998 184.615 243.112C186.48 244.382 188.556 245.312 190.747 245.857C194.343 246.624 198.628 245.493 200.482 242.061C200.894 241.284 201.142 240.43 201.211 239.554C201.32 238.361 199.455 238.368 199.346 239.554C199.031 242.971 195.025 244.571 192.028 244.197C190.006 243.862 188.074 243.113 186.355 241.997C184.696 241.031 183.124 239.923 181.656 238.686C179.115 236.491 176.733 232.874 178.44 229.447C179.829 226.658 183.452 226.684 185.656 228.484C188.324 230.664 187.849 234.621 186.088 237.209C184.14 240.076 180.607 241.28 177.277 241.407C173.659 241.548 170.069 240.718 166.611 239.737C162.313 238.518 158.059 237.154 153.74 236.007C151.289 235.355 148.819 234.767 146.323 234.31C143.963 233.791 141.539 233.623 139.13 233.813C135.238 234.262 131.266 236.524 130.308 240.577C130.033 241.743 131.83 242.241 132.106 241.073L132.105 241.069Z" fill="#3F3D56"/>
<path d="M200.632 241.509C200.396 241.313 200.224 241.052 200.136 240.758C200.049 240.464 200.051 240.151 200.141 239.858C200.232 239.566 200.407 239.306 200.645 239.113C200.883 238.919 201.173 238.8 201.479 238.771C204.869 238.444 208.291 238.794 211.545 239.802L244.69 250.026C245.119 250.158 245.518 250.374 245.864 250.66C246.21 250.946 246.495 251.298 246.705 251.694C246.915 252.091 247.044 252.525 247.086 252.972C247.128 253.418 247.081 253.869 246.949 254.297C246.816 254.726 246.6 255.124 246.314 255.469C246.027 255.814 245.675 256.1 245.278 256.309C244.881 256.519 244.447 256.648 244 256.69C243.553 256.731 243.102 256.685 242.673 256.552L209.528 246.33C206.272 245.329 203.248 243.69 200.632 241.509Z" fill="#3F3D56"/>
<path d="M275.105 141.858C275.105 141.858 281.695 155.811 280.641 160.023C280.024 162.584 280.303 165.278 281.432 167.658L293.556 167.131L304.89 156.338C304.89 156.338 287.758 144.492 288.812 138.699C289.865 132.905 275.105 141.858 275.105 141.858Z" fill="#ED9DA0"/>
<path d="M305.68 163.972L310.951 196.617C310.951 196.617 310.951 226.103 309.37 226.63C307.788 227.157 300.936 226.63 300.936 226.63V193.458L303.045 164.499L305.68 163.972Z" fill="#17B8A6"/>
<path opacity="0.1" d="M305.68 163.972L310.951 196.617C310.951 196.617 310.951 226.103 309.37 226.63C307.788 227.157 300.936 226.63 300.936 226.63V193.458L303.045 164.499L305.68 163.972Z" fill="black"/>
<path d="M337.311 355.63L341.528 371.953L347.853 367.214L353.652 354.051L346.272 345.099L337.311 355.63Z" fill="#ED9DA0"/>
<path d="M353.651 351.944C353.651 351.944 346.798 357.209 346.798 362.475C346.798 362.475 343.109 368.267 338.891 367.74V378.797C338.891 378.797 325.712 385.642 335.728 387.221C345.744 388.801 353.124 376.164 353.124 376.164C353.124 376.164 362.613 360.895 361.031 358.789C359.449 356.683 353.651 351.944 353.651 351.944Z" fill="#090814"/>
<path d="M305.642 224.141C305.642 224.141 315.698 235.054 310.953 251.902C310.953 251.902 305.681 289.812 322.55 304.028C339.419 318.244 350.489 349.31 350.489 349.31L337.837 360.893C337.837 360.893 324.132 329.828 309.899 317.72C295.665 305.612 294.084 291.92 294.084 291.92V244.007L291.447 223.997L305.642 224.141Z" fill="#090814"/>
<path opacity="0.1" d="M305.642 224.141C305.642 224.141 315.698 235.054 310.953 251.902C310.953 251.902 305.681 289.812 322.55 304.028C339.419 318.244 350.489 349.31 350.489 349.31L337.837 360.893C337.837 360.893 324.132 329.828 309.899 317.72C295.665 305.612 294.084 291.92 294.084 291.92V244.007L291.447 223.997L305.642 224.141Z" fill="#6F6F6F"/>
<path d="M292.502 367.74L287.23 373.532L289.339 378.271L295.666 380.378L306.736 376.166L305.154 369.847L292.502 367.74Z" fill="#ED9DA0"/>
<path d="M306.735 373.532C306.735 373.532 294.538 379.85 291.488 377.218C290.6 376.474 289.872 375.557 289.349 374.523C288.827 373.49 288.52 372.361 288.447 371.205C288.447 371.205 282.34 371.953 278.274 374.583C274.208 377.214 269.204 378.129 266.076 380.375C262.949 382.622 263.027 386.693 272.684 387.22C282.34 387.746 306.735 386.693 306.735 384.06L306.735 373.532Z" fill="#090814"/>
<path d="M272.47 230.842C272.47 230.842 265.618 261.38 277.742 296.133C277.742 296.133 283.54 315.616 286.176 321.407C288.811 327.197 291.448 368.268 290.395 369.848C290.395 369.848 298.829 376.692 306.209 371.954C306.209 371.954 305.682 347.733 306.737 345.628C307.792 343.522 308.846 325.093 302.519 309.824C296.193 294.554 301.466 257.697 301.466 257.697C301.466 257.697 314.113 238.741 304.626 227.683L272.47 230.842Z" fill="#090814"/>
<path d="M280.378 145.544C288.529 145.544 295.138 138.944 295.138 130.801C295.138 122.659 288.529 116.058 280.378 116.058C272.226 116.058 265.617 122.659 265.617 130.801C265.617 138.944 272.226 145.544 280.378 145.544Z" fill="#ED9DA0"/>
<path d="M307.789 227.156C307.789 227.156 303.572 233.475 300.409 230.315C298.179 228.088 283.904 232.927 275.667 235.976C272.22 237.25 269.832 238.213 269.832 238.213C269.832 238.213 269.605 230.916 268.936 221.675C268.166 211.07 266.817 197.896 264.56 190.301C260.343 176.084 270.886 170.293 270.886 170.293C270.886 170.293 279.848 159.763 279.323 158.183C278.797 156.602 303.044 148.705 303.044 148.705C305.68 149.232 307.789 172.926 307.789 172.926C307.789 172.926 303.044 191.881 300.409 203.465C297.773 215.049 307.789 227.156 307.789 227.156Z" fill="#17B8A6"/>
<path d="M262.455 227.683C262.455 227.683 250.857 239.266 245.059 242.426C239.26 245.585 236.097 256.115 240.841 258.221C245.586 260.328 256.129 246.638 256.129 246.638L271.416 234.001L262.455 227.683Z" fill="#ED9DA0"/>
<path d="M264.647 121.994C263.299 122.114 262.528 123.81 262.964 125.091C263.399 126.371 264.65 127.209 265.927 127.656C267.205 128.103 268.57 128.257 269.849 128.701C271.121 129.165 272.301 129.85 273.336 130.723C276.979 133.704 279.137 138.245 279.823 142.899C280.51 147.553 279.823 152.32 278.531 156.845C277.844 159.241 276.724 161.867 274.38 162.718C276.943 162.086 279.447 161.238 281.866 160.182C283.639 159.348 285.303 158.292 287.096 157.5C289.748 156.419 292.53 155.69 295.372 155.331C297.368 155.02 299.477 154.783 301.351 155.536C302.501 156.07 303.558 156.783 304.485 157.647L310.514 162.707C310.619 160.507 310.689 158.306 310.722 156.104C310.752 154.19 310.744 152.221 310.038 150.442C309.34 148.684 308.017 147.252 307.131 145.583C304.939 141.449 305.654 136.474 305.694 131.798C305.736 126.957 304.957 122.023 302.713 117.732C300.469 113.44 296.638 109.847 291.964 108.562C285.666 106.829 279.025 109.406 273.237 112.429C271.874 113.076 270.604 113.902 269.46 114.884C268.243 116.126 267.21 117.534 266.39 119.066L263.522 123.863" fill="#090814"/>
<path opacity="0.1" d="M301.992 178.188C301.992 178.188 291.976 216.098 290.922 218.731C290.163 220.622 281.233 230.679 275.672 235.977C272.224 237.249 269.836 238.212 269.836 238.212C269.836 238.212 269.609 230.912 268.939 221.674C273.23 216.918 277.743 212.412 277.743 212.412C277.743 212.412 282.488 183.453 281.96 172.395C281.433 161.336 292.504 158.705 292.504 158.705C305.154 160.286 301.992 178.188 301.992 178.188Z" fill="black"/>
<path d="M290.92 156.601C290.92 156.601 279.849 159.233 280.376 170.29C280.903 181.347 276.159 210.308 276.159 210.308C276.159 210.308 258.236 228.209 259.818 230.316C261.399 232.422 268.175 236.562 269.795 237.125C271.415 237.687 288.285 219.256 289.338 216.625C290.391 213.993 300.408 176.082 300.408 176.082C300.408 176.082 303.571 158.18 290.92 156.601Z" fill="#17B8A6"/>
</g>
<defs>
<clipPath id="clip0_55_327">
<rect width="339.459" height="365.994" fill="white" transform="translate(21.75 21.3645)"/>
</clipPath>
</defs>
</svg>
