<svg width="113" height="113" viewBox="0 0 113 113" fill="none" xmlns="http://www.w3.org/2000/svg">
<path d="M55.3737 111.711C85.956 112.242 111.179 87.8808 111.71 57.2985C112.241 26.7162 87.8803 1.49353 57.298 0.96215C26.7157 0.430769 1.49306 24.7919 0.961678 55.3742C0.430297 85.9565 24.7914 111.179 55.3737 111.711Z" fill="#F2F2F2"/>
<path d="M56.7498 61.5532C67.6443 61.7424 76.6295 53.0642 76.8188 42.1696C77.0081 31.2751 68.3298 22.2899 57.4353 22.1006C46.5407 21.9113 37.5555 30.5896 37.3662 41.4841C37.1769 52.3786 45.8552 61.3639 56.7498 61.5532Z" fill="#FFB8B8"/>
<path d="M97.0959 93.4407C87.3129 104.19 73.6951 110.661 59.1824 111.456C44.6697 112.252 30.4261 107.309 19.5266 97.6935L24.5064 84.5232C25.6206 82.1879 27.3495 80.2 29.5076 78.7726C31.6656 77.3452 34.1716 76.5321 36.7566 76.4205L39.7814 76.2876L47.0943 70.1988C47.0943 70.1988 66.5195 69.8429 66.2372 69.506L77.8736 76.7834L77.8646 76.7344L82.4824 77.0979C85.0622 77.2985 87.5386 78.1979 89.6459 79.6995C91.7532 81.2011 93.4118 83.2482 94.4437 85.6212L97.0959 93.4407Z" fill="#17B8A6"/>
<path d="M78.0245 35.2709C78.1884 33.8005 78.2776 32.3228 78.2915 30.8434C78.4229 27.9193 77.9374 25.0002 76.8667 22.2761C75.544 19.2574 73.134 16.8469 70.1157 15.5235C67.1232 14.2556 63.7552 14.2 60.7225 15.3685C58.0334 13.6035 55.0362 12.1892 51.8576 11.9652C48.6791 11.7413 45.2948 12.8631 43.2891 15.4272C42.8393 16.1055 42.3309 16.7428 41.7695 17.332C40.1681 18.7641 37.7767 18.5119 35.6872 18.1771C36.6127 18.9987 37.5385 19.8203 38.4646 20.6418C37.3221 20.9192 36.1795 21.1966 35.0368 21.4739C36.3502 22.3019 37.6634 23.13 38.9764 23.958C35.0832 26.2037 33.2443 31.221 33.6272 35.8134C33.9894 40.1613 36.0159 44.1667 38.4596 47.7379C39.4955 45.6466 39.324 43.1196 39.3488 40.7443C39.353 39.9738 39.4134 39.2047 39.5294 38.4429C47.9598 40.6193 56.7826 42.0754 65.809 39.0083L67.6857 34.6337C67.9379 34.6641 68.1902 34.6929 68.4423 34.7241L69.4099 39.0749C71.7576 40.0825 74.1124 40.9683 76.4982 40.1219C76.602 40.7932 76.6595 41.4773 76.7015 42.1347C76.9186 41.353 77.1088 40.5651 77.2818 39.7737C77.5979 39.6111 77.9013 39.4246 78.1892 39.216C78.2694 37.8988 78.2142 36.5768 78.0245 35.2709Z" fill="#2F2E41"/>
</svg>
