<svg width="270" height="270" viewBox="0 0 270 270" fill="none" xmlns="http://www.w3.org/2000/svg">
<circle cx="135" cy="135" r="134.5" fill="#B1CAC7" stroke="black"/>
<path opacity="0.1" d="M127.967 218.687C149.867 218.687 167.62 216.526 167.62 213.861C167.62 211.196 149.867 209.036 127.967 209.036C106.068 209.036 88.3151 211.196 88.3151 213.861C88.3151 216.526 106.068 218.687 127.967 218.687Z" fill="black"/>
<path d="M127.801 217.356C148.504 217.356 165.287 199.476 165.287 177.421C165.287 155.366 148.504 137.486 127.801 137.486C107.098 137.486 90.3144 155.366 90.3144 177.421C90.3144 199.476 107.098 217.356 127.801 217.356Z" fill="#3F3D56"/>
<path d="M139.63 201.049H116.305V222.347H139.63V201.049Z" fill="#17B8A6"/>
<path d="M170.119 206.207L168.786 213.529L177.45 214.86L183.114 211.532L182.781 206.207H170.119Z" fill="#575A89"/>
<path d="M126.468 68.7653C126.468 68.7653 125.802 76.4195 124.136 76.7523C122.469 77.0851 127.801 90.3966 127.801 90.3966H135.798L142.129 88.7327L139.13 81.4113C139.13 81.4113 135.132 76.0867 138.13 71.7604C141.129 67.4342 126.468 68.7653 126.468 68.7653Z" fill="#A0616A"/>
<path opacity="0.1" d="M126.468 68.7653C126.468 68.7653 125.802 76.4195 124.136 76.7523C122.469 77.0851 127.801 90.3966 127.801 90.3966H135.798L142.129 88.7327L139.13 81.4113C139.13 81.4113 135.132 76.0867 138.13 71.7604C141.129 67.4342 126.468 68.7653 126.468 68.7653Z" fill="black"/>
<path d="M109.807 127.336C109.807 127.336 101.144 143.976 108.141 147.304C115.139 150.631 116.805 150.299 116.805 151.297C116.805 152.295 115.472 151.963 116.138 153.627C116.805 155.29 114.806 161.946 116.805 165.94C118.804 169.933 118.138 172.928 118.138 172.928C118.138 172.928 118.138 173.261 118.804 174.592C119.471 175.923 119.804 176.922 119.471 177.587C119.137 178.253 117.138 182.579 119.137 183.578C121.137 184.576 131.466 185.241 132.466 183.578C133.465 181.914 131.466 180.915 132.466 179.917C133.465 178.918 134.132 178.586 133.465 177.92C132.799 177.255 132.133 168.935 132.133 168.935C132.133 168.935 133.799 159.284 133.132 157.953C132.466 156.622 131.466 155.29 132.133 154.292C132.799 153.294 133.465 153.627 133.799 152.295C134.132 150.964 134.798 147.969 134.798 147.969L138.464 147.636L147.127 149.3C147.127 149.3 156.79 159.95 167.453 163.277C167.453 163.277 170.452 166.272 171.452 166.272C172.451 166.272 172.451 166.272 172.118 166.938C171.785 167.604 170.785 167.604 171.452 168.269C172.118 168.935 173.118 167.936 172.451 168.935C171.785 169.933 171.119 169.933 171.785 170.599C172.451 171.264 171.452 174.925 171.452 175.258C171.452 175.591 168.453 206.873 169.452 207.538C170.452 208.204 184.447 210.201 185.447 207.538C186.446 204.876 184.78 201.548 184.78 201.548C184.78 201.548 189.778 161.613 188.446 158.951C187.113 156.289 182.448 144.308 157.457 136.654C157.457 136.654 150.459 135.323 150.459 134.325C150.459 133.326 149.793 127.003 148.46 126.671C147.127 126.338 139.463 126.005 139.463 126.005L129.8 129L116.472 126.671L109.807 127.336Z" fill="#2F2E41"/>
<path d="M121.47 183.245L119.804 189.235C119.804 189.235 118.471 198.886 120.137 201.215C121.446 203.045 123.782 205.286 128.116 205.679C129.33 205.79 130.546 205.484 131.563 204.811C132.579 204.138 133.336 203.139 133.706 201.979C133.756 201.84 133.787 201.695 133.799 201.548C133.799 200.883 132.799 192.896 132.799 192.896L131.133 184.576L130.8 182.246L121.47 183.245Z" fill="#2F2E41"/>
<path d="M170.119 211.865C170.119 211.865 168.453 210.201 168.12 211.865C167.786 213.529 166.454 220.517 168.786 220.85C171.119 221.183 193.444 224.511 195.776 223.179C198.109 221.848 202.441 219.852 199.775 218.853C197.109 217.855 189.445 214.86 189.445 214.86C189.445 214.86 185.113 209.202 184.447 208.869C183.781 208.537 180.115 209.202 178.449 210.533C176.783 211.865 170.119 211.865 170.119 211.865Z" fill="#2F2E41"/>
<path d="M134.465 75.7539C140.17 75.7539 144.795 71.1351 144.795 65.4374C144.795 59.7398 140.17 55.121 134.465 55.121C128.76 55.121 124.135 59.7398 124.135 65.4374C124.135 71.1351 128.76 75.7539 134.465 75.7539Z" fill="#A0616A"/>
<path d="M133.465 88.7326L129.467 84.4063L125.035 75.7538C125.035 75.7538 121.803 74.7555 121.137 76.4194C120.47 78.0833 108.475 83.408 108.475 83.408C108.475 83.408 111.473 111.362 110.141 114.025C108.808 116.687 106.475 127.336 108.475 128.335C110.474 129.333 119.804 128.335 122.803 129.666C125.802 130.997 134.465 130.997 136.798 129.333C139.13 127.669 139.797 126.338 142.129 127.336C144.115 128.186 148.757 99.1286 150.093 90.4694C150.206 89.7422 150.112 88.9979 149.823 88.321C149.534 87.644 149.061 87.0614 148.458 86.6391C145.468 84.5446 140.083 80.9352 139.13 81.4113C137.797 82.0768 133.465 88.7326 133.465 88.7326Z" fill="#575A89"/>
<path d="M147.794 87.4015C148.576 87.5969 149.28 88.0267 149.811 88.6332C150.341 89.2397 150.674 89.9939 150.763 90.7945L153.458 115.023C153.458 115.023 146.794 129.333 143.462 119.682C140.13 110.031 147.794 87.4015 147.794 87.4015Z" fill="#575A89"/>
<path d="M147.127 117.352L154.458 115.356C154.458 115.356 155.791 124.674 157.124 124.674C158.456 124.674 152.459 129.998 149.46 129.333C146.461 128.667 142.129 126.338 141.796 124.674C141.463 123.01 144.795 116.021 144.795 116.021L147.127 117.352Z" fill="#575A89"/>
<path d="M126.667 69.8878C127.37 68.341 127.248 66.5367 127.828 64.9404C128.139 64.0856 128.644 63.3142 129.303 62.6864C129.962 62.0586 130.757 61.5915 131.626 61.3215C132.496 61.0514 133.416 60.9858 134.315 61.1298C135.215 61.2738 136.068 61.6234 136.81 62.1514C137.557 62.6833 138.305 63.4307 139.217 63.3291C140.199 63.2198 141.075 62.1258 141.978 62.5267C142.978 62.9711 142.708 64.762 143.722 65.1756C144.255 65.3934 144.886 65.0581 145.194 64.5714C145.463 64.0599 145.609 63.493 145.622 62.9154C145.762 61.496 145.888 59.9938 145.272 58.7073C145.013 58.2712 144.787 57.8162 144.596 57.3462C144.488 56.9072 144.445 56.455 144.468 56.0036C144.462 54.3353 144.34 52.5951 143.499 51.1534C142.566 49.5537 140.842 48.5307 139.043 48.0844C137.244 47.638 135.36 47.7065 133.513 47.8626C130.459 48.1208 127.275 48.6742 124.869 50.5699C124.542 50.8084 124.261 51.1037 124.039 51.4416C123.827 51.843 123.678 52.274 123.596 52.72C123.076 54.8353 122.296 56.8782 121.274 58.8025C120.783 59.6182 120.381 60.4847 120.076 61.3867C119.821 62.3034 119.838 63.348 120.372 64.1358C120.807 64.7773 121.502 65.1191 122.048 65.6435C122.589 66.1631 122.843 67.1625 123.442 67.556C123.965 67.8994 124.592 67.657 125.126 68.021C125.811 68.4885 125.86 69.5133 126.667 69.8878Z" fill="#2F2E41"/>
<path d="M135.132 93.7245L136.131 91.7278C136.131 91.7278 150.793 96.054 153.791 100.048C153.791 100.048 161.122 95.3885 165.121 96.054L169.119 96.7196L156.79 107.702L141.129 106.371L135.132 93.7245Z" fill="#F2F2F2"/>
<path d="M134.465 91.7278L120.803 110.697L140.463 120.348C140.463 120.348 142.301 121.346 143.714 120.348L156.79 114.357L169.119 96.7196L156.79 103.043C156.79 103.043 155.458 100.38 152.792 101.711L134.465 91.7278Z" fill="#17B8A6"/>
<path d="M155.458 125.339L158.123 118.351C158.123 118.351 164.121 110.697 160.789 107.036C157.457 103.375 153.791 117.685 153.791 117.685L155.458 125.339Z" fill="#A0616A"/>
<path d="M124.701 124.224L130.518 119.515C130.518 119.515 139.551 115.899 138.508 111.063C137.464 106.226 127.105 116.768 127.105 116.768L124.701 124.224Z" fill="#A0616A"/>
<path opacity="0.1" d="M110.307 90.563H109.974C109.974 90.563 104.809 84.4064 103.81 92.7261C102.81 101.046 99.4778 128.667 108.141 129.666C116.805 130.664 122.969 125.506 122.969 125.506C122.969 125.506 129.3 115.855 126.968 115.855C125.839 115.855 122.77 115.349 119.97 115.522C116.984 115.707 114.3 116.547 114.472 115.689C114.806 114.025 119.637 92.8925 110.307 90.563Z" fill="black"/>
<path d="M109.807 84.0735L108.474 83.408C108.474 83.408 103.143 84.4063 102.143 92.7261C101.144 101.046 97.8117 128.667 106.475 129.666C115.139 130.664 126.801 128.334 126.801 128.334C126.801 128.334 129.134 115.689 126.801 115.689C124.469 115.689 112.473 117.352 112.806 115.689C113.139 114.025 119.137 86.4031 109.807 84.0735Z" fill="#575A89"/>
<path d="M150.626 121.513L154.3 115.888L156.624 125.173L150.626 127.836V121.513Z" fill="#575A89"/>
</svg>
