<svg width="114" height="114" viewBox="0 0 114 114" fill="none" xmlns="http://www.w3.org/2000/svg">
<path d="M55.3653 112.111C85.9427 112.874 111.349 88.7044 112.111 58.1269C112.874 27.5495 88.7043 2.14341 58.1269 1.38081C27.5495 0.618209 2.14339 24.7879 1.38079 55.3653C0.618188 85.9427 24.7879 111.349 55.3653 112.111Z" fill="#F2F2F2"/>
<path d="M34.6905 34.5268C33.8288 38.5905 32.4836 42.5363 30.6836 46.2801C20.4018 66.6974 48.383 60.6567 58.3225 60.9046C69.1899 61.1756 79.4452 67.1495 78.4903 41.7182C78.0825 30.8551 70.1713 21.8213 59.304 21.5503C50.0215 21.3188 36.8674 25.1192 34.6905 34.5268Z" fill="#2F2E41"/>
<path d="M56.6944 60.8591C65.5254 61.0793 72.8628 54.0989 73.0831 45.2679C73.3033 36.437 66.3229 29.0995 57.492 28.8793C48.661 28.659 41.3235 35.6394 41.1033 44.4704C40.883 53.3013 47.8634 60.6388 56.6944 60.8591Z" fill="#FFB6B6"/>
<path d="M46.6408 28.2987C49.4854 26.6604 52.7178 25.8164 56.0001 25.855C59.2825 25.8936 62.4942 26.8133 65.2995 28.5179C68.1047 30.2226 70.4005 32.6496 71.9467 35.5453C73.4929 38.4409 74.2327 41.6987 74.0889 44.9781C65.8901 46.8206 57.2915 48.1726 48.6804 44.8341L46.7537 39.7609L45.4186 44.7564C42.7456 45.772 40.0698 46.6209 37.4669 44.5477C37.4402 41.2732 38.2734 38.0492 39.8833 35.1977C41.4932 32.3462 43.8233 29.9673 46.6408 28.2987Z" fill="#2F2E41"/>
<path d="M98.877 94.6343C89.013 105.309 75.3467 111.677 60.8284 112.363C46.31 113.049 32.1043 107.998 21.2777 98.3005L26.357 85.1681C27.4888 82.8414 29.2327 80.8666 31.4015 79.4555C33.5703 78.0445 36.0823 77.2504 38.6681 77.1584L41.6938 77.0483L49.0525 71.0149C49.0525 71.0149 68.4799 70.806 68.2002 70.4669L79.7811 77.8321L79.7726 77.7831L84.3875 78.1814C86.9657 78.4015 89.4353 79.3196 91.5312 80.8371C93.627 82.3546 95.2701 84.4142 96.284 86.7949L98.877 94.6343Z" fill="#17B8A6"/>
</svg>
