<svg width="505" height="520" viewBox="0 0 505 520" fill="none" xmlns="http://www.w3.org/2000/svg">
<path fill-rule="evenodd" clip-rule="evenodd" d="M253.864 0.706114C363.292 3.17932 430.844 105.958 464.492 210.113C497.912 313.562 506.094 440.93 415.491 501.011C331.04 557.013 235.218 476.598 153.99 416.015C77.5551 359.007 -10.5522 292.591 11.7428 199.881C38.7575 87.5446 138.355 -1.90454 253.864 0.706114Z" fill="#8ACAC3"/>
<g clip-path="url(#clip0_47_1832)">
<path d="M421.513 376.654H402.961V393.024H421.513V376.654Z" fill="#F0F0F0"/>
<path d="M505.001 219.505C505.009 244.189 498.371 268.42 485.785 289.653C473.199 310.887 455.129 328.341 433.471 340.183C432.243 340.854 430.999 341.509 429.749 342.141C425.115 344.504 420.347 346.596 415.47 348.406C413.527 349.137 411.565 349.817 409.582 350.446C409.391 350.512 409.195 350.577 409.004 350.632C389.587 356.796 369.042 358.561 348.858 355.797C328.675 353.034 309.36 345.812 292.315 334.655C290.029 333.16 287.79 331.599 285.598 329.973C284.36 329.051 283.137 328.113 281.931 327.147C278.521 324.44 275.247 321.572 272.11 318.542C258.771 305.729 248.163 290.35 240.924 273.33C233.686 256.31 229.966 238.001 229.99 219.505C229.99 143.561 291.551 82 367.496 82C443.44 82 505.001 143.561 505.001 219.505Z" fill="#F2F2F2"/>
<path d="M400.333 283.674L397.234 295.395L409.004 350.632C377.366 360.597 343.199 358.84 312.75 345.683L321.939 307.154L322.244 286.255L323.243 217.344L323.494 217.214C323.509 217.204 323.526 217.197 323.543 217.192L346.952 205.171L387.341 204.161L417.478 218.84L417.249 219.696L400.333 283.674Z" fill="#3F3D56"/>
<path d="M416.846 384.372C415.919 383.268 415.245 381.974 414.871 380.581C414.498 379.188 414.435 377.73 414.686 376.31C414.937 374.89 415.496 373.542 416.325 372.362C417.153 371.181 418.23 370.197 419.48 369.478L412.924 335.043L429.738 342.05L433.385 373.676C434.455 375.855 434.687 378.352 434.038 380.691C433.39 383.031 431.906 385.051 429.867 386.37C427.828 387.688 425.377 388.213 422.977 387.845C420.577 387.477 418.396 386.241 416.846 384.372Z" fill="#9E616A"/>
<path d="M411.4 219.911L415.714 218.507C415.714 218.507 429.399 227.29 428.097 248.525C428.097 248.525 428.61 259.513 428.12 266.826C427.559 275.214 435.088 358.566 435.088 358.566H410.701L400.25 283.084L411.4 219.911Z" fill="#3F3D56"/>
<path d="M397.256 166.484C397.256 172.021 395.614 177.434 392.538 182.039C389.461 186.643 385.088 190.232 379.972 192.351C374.856 194.47 369.227 195.024 363.796 193.944C358.365 192.864 353.376 190.197 349.46 186.282C345.545 182.366 342.878 177.377 341.798 171.946C340.717 166.515 341.272 160.885 343.391 155.769C345.51 150.653 349.099 146.281 353.703 143.204C358.307 140.128 363.72 138.486 369.258 138.486C372.926 138.476 376.559 139.19 379.951 140.585C383.343 141.98 386.427 144.029 389.027 146.616C391.627 149.203 393.691 152.277 395.103 155.662C396.515 159.047 397.247 162.677 397.256 166.344C397.256 166.391 397.256 166.437 397.256 166.484Z" fill="#9E616A"/>
<path d="M341.354 128.877C344.634 121.824 350.981 123.219 356.532 125.609C363.561 124.05 370.247 119.382 377.821 122.143C385.281 132.994 410.33 129.801 405.001 147.467C404.994 151.7 412.966 149.236 411.574 156.169C415.797 169.511 396.33 194.778 385.155 189.457C387.919 184.392 394.233 172.887 384.656 171.745C364.056 190.913 382.531 135.246 356.648 151.435C348.078 159.278 336.345 136.722 341.354 128.877Z" fill="#2F2E41"/>
<path d="M384.199 353.466L339.506 344.615L350.966 286.754C366.779 292.735 381.677 295.685 395.658 295.605C383.44 313.525 377.889 332.767 384.199 353.466Z" fill="#E4E4E4"/>
<path d="M377.699 356.865L333.006 348.013C329.337 321.8 332.672 302.065 344.466 290.152C360.28 296.134 375.177 299.084 389.159 299.004C381.772 317.41 377.886 337.033 377.699 356.865Z" fill="#17B8A6"/>
<path d="M348.088 340.747C347.911 339.316 347.422 337.941 346.656 336.72C345.89 335.498 344.866 334.459 343.655 333.676C342.444 332.893 341.076 332.385 339.647 332.188C338.219 331.991 336.764 332.109 335.387 332.535L314.631 304.288L308.314 321.373L328.993 345.578C329.862 347.845 331.532 349.715 333.687 350.833C335.842 351.951 338.332 352.239 340.686 351.644C343.04 351.049 345.093 349.61 346.458 347.602C347.822 345.594 348.402 343.155 348.088 340.747Z" fill="#9E616A"/>
<path d="M329.478 218.835L325.718 216.295C325.718 216.295 303.347 218.378 298.743 239.149C298.743 239.149 295.378 251.628 293.832 258.792C293.037 262.477 282.436 298.08 282.436 298.08L318.386 337.367L328.208 322.634L318.386 298.08L329.478 218.835Z" fill="#3F3D56"/>
<path d="M18.5523 151.036H0V167.406H18.5523V151.036Z" fill="#17B8A6"/>
<path d="M58.3853 216.515H39.833V232.884H58.3853V216.515Z" fill="#17B8A6"/>
<path d="M87.3033 328.374H68.751V344.744H87.3033V328.374Z" fill="#17B8A6"/>
<path d="M68.8861 113.456C68.3361 113.456 67.8087 113.675 67.4198 114.064C67.031 114.453 66.8125 114.98 66.8125 115.53C66.8125 116.08 67.031 116.607 67.4198 116.996C67.8087 117.385 68.3361 117.604 68.8861 117.604H220.28C220.829 117.602 221.355 117.383 221.743 116.995C222.131 116.606 222.348 116.079 222.348 115.53C222.348 114.981 222.131 114.454 221.743 114.065C221.355 113.677 220.829 113.458 220.28 113.456H68.8861Z" fill="#E4E4E4"/>
<path d="M68.8884 125.898C68.616 125.897 68.346 125.95 68.094 126.053C67.842 126.157 67.6128 126.309 67.4197 126.501C67.2265 126.693 67.0731 126.922 66.9683 127.173C66.8634 127.425 66.8092 127.694 66.8086 127.967C66.808 128.239 66.8612 128.509 66.9649 128.761C67.0687 129.013 67.2212 129.242 67.4135 129.435C67.6058 129.628 67.8343 129.781 68.0859 129.886C68.3375 129.991 68.6072 130.045 68.8797 130.045H164.592C165.142 130.045 165.67 129.826 166.059 129.438C166.447 129.049 166.666 128.521 166.666 127.971C166.666 127.421 166.447 126.894 166.059 126.505C165.67 126.116 165.142 125.898 164.592 125.898H68.8884Z" fill="#E4E4E4"/>
<path d="M49.2435 262.421C48.6935 262.421 48.1661 262.639 47.7773 263.028C47.3884 263.417 47.1699 263.944 47.1699 264.494C47.1699 265.044 47.3884 265.571 47.7773 265.96C48.1661 266.349 48.6935 266.568 49.2435 266.568H200.637C201.186 266.566 201.712 266.347 202.1 265.959C202.488 265.57 202.706 265.043 202.706 264.494C202.706 263.945 202.488 263.418 202.1 263.03C201.712 262.641 201.186 262.422 200.637 262.421H49.2435Z" fill="#E4E4E4"/>
<path d="M49.2448 274.862C48.9724 274.861 48.7024 274.914 48.4504 275.017C48.1984 275.121 47.9693 275.273 47.7761 275.465C47.583 275.658 47.4296 275.886 47.3247 276.137C47.2199 276.389 47.1656 276.659 47.165 276.931C47.1645 277.203 47.2176 277.473 47.3214 277.725C47.4252 277.977 47.5776 278.206 47.77 278.399C47.9623 278.592 48.1908 278.745 48.4424 278.85C48.6939 278.955 48.9637 279.009 49.2361 279.009H144.949C145.499 279.009 146.026 278.79 146.415 278.402C146.804 278.013 147.022 277.485 147.022 276.935C147.022 276.385 146.804 275.858 146.415 275.469C146.026 275.08 145.499 274.862 144.949 274.862H49.2448Z" fill="#E4E4E4"/>
<path d="M135.458 368.823C134.908 368.823 134.381 369.042 133.992 369.431C133.603 369.82 133.385 370.347 133.385 370.897C133.385 371.447 133.603 371.974 133.992 372.363C134.381 372.752 134.908 372.971 135.458 372.971H286.852C287.401 372.969 287.927 372.75 288.315 372.362C288.703 371.973 288.921 371.446 288.921 370.897C288.921 370.348 288.703 369.821 288.315 369.432C287.927 369.044 287.401 368.825 286.852 368.823H135.458Z" fill="#E4E4E4"/>
<path d="M135.458 381.265C135.185 381.264 134.915 381.317 134.663 381.42C134.411 381.524 134.182 381.676 133.989 381.868C133.796 382.06 133.642 382.289 133.538 382.54C133.433 382.792 133.379 383.061 133.378 383.334C133.377 383.606 133.43 383.876 133.534 384.128C133.638 384.38 133.79 384.609 133.983 384.802C134.175 384.995 134.404 385.148 134.655 385.253C134.907 385.357 135.177 385.411 135.449 385.412H231.162C231.712 385.412 232.239 385.193 232.628 384.804C233.017 384.416 233.235 383.888 233.235 383.338C233.235 382.788 233.017 382.261 232.628 381.872C232.239 381.483 231.712 381.265 231.162 381.265H135.458Z" fill="#E4E4E4"/>
<path d="M8.7231 159.295C13.1676 158.319 17.3721 156.464 21.0893 153.839C24.8066 151.215 27.9615 147.873 30.3686 144.012C31.7352 141.816 32.8366 139.466 33.6497 137.012C33.7112 136.808 33.6913 136.589 33.5943 136.4C33.4973 136.211 33.3308 136.067 33.1298 135.999C32.9288 135.931 32.709 135.943 32.5169 136.033C32.3247 136.124 32.1752 136.285 32.0998 136.484C30.7045 140.587 28.5022 144.369 25.6227 147.608C22.7431 150.847 19.2446 153.477 15.333 155.343C13.1289 156.396 10.8072 157.183 8.41702 157.687C7.38597 157.904 7.68988 159.513 8.7231 159.295Z" fill="#3F3D56"/>
<path d="M24.6735 140.146C27.6242 138.485 30.575 136.823 33.5258 135.161C33.6625 135.084 34.0452 134.794 34.1882 134.829C34.0736 134.801 34.1776 134.886 34.181 134.99C34.1856 135.129 34.2032 135.271 34.2084 135.412C34.2404 136.273 34.2561 137.136 34.28 137.998L34.4172 142.955C34.4461 143.999 36.0798 144.123 36.0506 143.067L35.8895 137.248C35.8526 135.914 36.1862 132.956 34.0254 133.212C33.2456 133.304 32.5246 133.85 31.8596 134.225L29.1653 135.742L23.9694 138.668C23.0544 139.184 23.7545 140.664 24.6735 140.146Z" fill="#3F3D56"/>
<path d="M49.2783 224.642C44.8789 225.796 40.7547 227.819 37.148 230.59C33.5413 233.361 30.525 236.825 28.2762 240.779C26.9995 243.026 25.9942 245.417 25.2812 247.901C25.2319 248.108 25.2647 248.325 25.3727 248.508C25.4807 248.691 25.6555 248.825 25.8603 248.881C26.065 248.938 26.2836 248.912 26.47 248.811C26.6565 248.709 26.7962 248.539 26.8597 248.336C28.0951 244.179 30.1501 240.311 32.9037 236.961C35.6572 233.61 39.0536 230.845 42.8927 228.827C45.0546 227.69 47.3443 226.815 49.7134 226.22C50.7342 225.963 50.3017 224.383 49.2783 224.642Z" fill="#3F3D56"/>
<path d="M34.0977 244.416L25.5435 249.69C25.3969 249.78 25.2528 249.879 25.1002 249.959C24.9487 250.039 24.793 250.036 24.8909 250.133C24.7588 250.003 24.7925 249.522 24.7826 249.375L24.616 246.901L24.2828 241.953C24.2124 240.908 22.5749 240.9 22.6458 241.953L23.037 247.762C23.1261 249.084 22.8797 251.822 24.9045 251.711C25.806 251.662 26.6649 250.921 27.4037 250.466L29.8478 248.959L34.9239 245.829C35.819 245.278 34.9978 243.861 34.0977 244.416Z" fill="#3F3D56"/>
<path d="M77.4246 335.897C81.6201 336.995 85.5532 338.923 88.9922 341.565C92.4312 344.207 95.3064 347.511 97.4484 351.282C98.656 353.405 99.606 355.665 100.278 358.013C100.342 358.216 100.482 358.386 100.668 358.487C100.854 358.589 101.073 358.614 101.278 358.558C101.482 358.501 101.657 358.368 101.765 358.185C101.873 358.002 101.906 357.785 101.857 357.578C100.565 353.217 98.4153 349.158 95.5328 345.639C92.6503 342.121 89.0935 339.215 85.0715 337.091C82.7858 335.884 80.3649 334.954 77.8598 334.319C76.838 334.061 76.4021 335.639 77.4246 335.897Z" fill="#3F3D56"/>
<path d="M92.2139 355.506L97.29 358.636L99.7341 360.142C100.475 360.599 101.33 361.338 102.233 361.388C104.258 361.498 104.012 358.762 104.101 357.439L104.492 351.63C104.563 350.578 102.926 350.583 102.855 351.63L102.522 356.578L102.362 358.944C102.35 359.126 102.398 359.659 102.247 359.809C102.355 359.702 102.242 359.753 102.122 359.68C101.948 359.574 101.769 359.474 101.594 359.366L93.0401 354.093C92.1409 353.538 91.3178 354.954 92.2139 355.506Z" fill="#3F3D56"/>
<path d="M37.105 128.664C41.324 128.664 44.7442 125.244 44.7442 121.025C44.7442 116.806 41.324 113.386 37.105 113.386C32.886 113.386 29.4658 116.806 29.4658 121.025C29.4658 125.244 32.886 128.664 37.105 128.664Z" fill="#17B8A6"/>
<path d="M24.0083 278.354C28.2273 278.354 31.6475 274.934 31.6475 270.715C31.6475 266.496 28.2273 263.076 24.0083 263.076C19.7893 263.076 16.3691 266.496 16.3691 270.715C16.3691 274.934 19.7893 278.354 24.0083 278.354Z" fill="#17B8A6"/>
<path d="M106.403 384.577C110.622 384.577 114.042 381.156 114.042 376.937C114.042 372.718 110.622 369.298 106.403 369.298C102.184 369.298 98.7637 372.718 98.7637 376.937C98.7637 381.156 102.184 384.577 106.403 384.577Z" fill="#17B8A6"/>
</g>
<defs>
<clipPath id="clip0_47_1832">
<rect width="505" height="311.024" fill="white" transform="translate(0 82)"/>
</clipPath>
</defs>
</svg>
