<svg width="439" height="476" viewBox="0 0 439 476" fill="none" xmlns="http://www.w3.org/2000/svg">
<path fill-rule="evenodd" clip-rule="evenodd" d="M224.753 0.0509864C324.877 2.31393 386.686 96.3547 417.474 191.655C448.053 286.309 455.539 402.849 372.639 457.822C295.367 509.063 207.692 435.484 133.37 380.052C63.4328 327.89 -17.1841 267.121 3.21552 182.293C27.9335 79.5068 119.063 -2.33772 224.753 0.0509864Z" fill="#8ACAC3"/>
<path d="M439 85.1355H14V349.787H439V85.1355Z" fill="#E6E6E6"/>
<path d="M120.339 136.12H42.5V186.715H120.339V136.12Z" fill="white"/>
<path d="M217.06 136.12H139.221V186.715H217.06V136.12Z" fill="white"/>
<path d="M313.78 136.12H235.941V186.715H313.78V136.12Z" fill="white"/>
<path d="M410.499 136.12H332.66V186.715H410.499V136.12Z" fill="white"/>
<path d="M120.339 207.732H42.5V258.327H120.339V207.732Z" fill="white"/>
<path d="M217.06 207.732H139.221V258.327H217.06V207.732Z" fill="white"/>
<path d="M313.78 207.732H235.941V258.327H313.78V207.732Z" fill="white"/>
<path d="M410.499 207.732H332.66V258.327H410.499V207.732Z" fill="white"/>
<path d="M120.339 279.343H42.5V329.939H120.339V279.343Z" fill="white"/>
<path d="M217.06 279.343H139.221V329.939H217.06V279.343Z" fill="white"/>
<path d="M313.78 279.343H235.941V329.939H313.78V279.343Z" fill="white"/>
<path d="M410.499 279.343H332.66V329.939H410.499V279.343Z" fill="white"/>
<path d="M125.309 116.271C131.757 116.271 136.984 111.044 136.984 104.595C136.984 98.1469 131.757 92.9194 125.309 92.9194C118.86 92.9194 113.633 98.1469 113.633 104.595C113.633 111.044 118.86 116.271 125.309 116.271Z" fill="white"/>
<path d="M318.35 116.271C324.798 116.271 330.025 111.044 330.025 104.595C330.025 98.1469 324.798 92.9194 318.35 92.9194C311.901 92.9194 306.674 98.1469 306.674 104.595C306.674 111.044 311.901 116.271 318.35 116.271Z" fill="white"/>
<path d="M129.979 54H120.639V107.709H129.979V54Z" fill="#E6E6E6"/>
<path d="M323.02 54H313.68V107.709H323.02V54Z" fill="#E6E6E6"/>
<path d="M389.184 161.418C389.18 165.645 387.65 169.728 384.877 172.918C382.103 176.108 378.272 178.19 374.086 178.781C369.901 179.372 365.642 178.433 362.094 176.137C358.545 173.84 355.944 170.34 354.77 166.279C353.595 162.219 353.925 157.871 355.699 154.034C357.473 150.197 360.572 147.13 364.427 145.395C368.282 143.66 372.633 143.374 376.681 144.59C380.729 145.807 384.203 148.443 386.463 152.015C388.243 154.828 389.187 158.089 389.184 161.418Z" fill="#17B8A6"/>
<path d="M386.463 152.015L369.137 169.339C368.048 167.653 361.98 159.817 361.98 159.817C362.758 159.032 363.588 158.299 364.464 157.625L369.495 164.333L384.434 149.394C385.192 150.201 385.871 151.079 386.463 152.015Z" fill="white"/>
<path d="M195.742 233.029C195.738 237.256 194.209 241.34 191.435 244.53C188.662 247.72 184.83 249.801 180.645 250.393C176.459 250.984 172.201 250.045 168.652 247.748C165.104 245.451 162.503 241.951 161.328 237.891C160.153 233.83 160.483 229.482 162.258 225.645C164.032 221.809 167.131 218.741 170.986 217.006C174.84 215.271 179.191 214.986 183.24 216.202C187.288 217.418 190.761 220.055 193.022 223.627C194.802 226.439 195.745 229.7 195.742 233.029Z" fill="#17B8A6"/>
<path d="M193.022 223.626L175.695 240.95C174.606 239.264 168.539 231.429 168.539 231.429C169.317 230.643 170.146 229.911 171.023 229.237L176.054 235.945L190.993 221.005C191.751 221.813 192.43 222.691 193.022 223.626Z" fill="white"/>
<path d="M99.0216 233.029C99.0176 237.256 97.4883 241.34 94.7147 244.53C91.9411 247.72 88.1095 249.802 83.924 250.393C79.7385 250.984 75.4802 250.045 71.9316 247.748C68.3829 245.452 65.7823 241.951 64.6075 237.891C63.4327 233.83 63.7628 229.482 65.5369 225.646C67.3111 221.809 70.4102 218.741 74.2649 217.006C78.1195 215.271 82.4708 214.986 86.5191 216.202C90.5674 217.418 94.0409 220.055 96.3012 223.627C98.0813 226.439 99.0248 229.701 99.0216 233.029Z" fill="#17B8A6"/>
<path d="M96.3014 223.626L78.9744 240.95C77.8854 239.264 71.8184 231.429 71.8184 231.429C72.5959 230.643 73.4256 229.911 74.3019 229.237L79.3329 235.945L94.2724 221.005C95.03 221.813 95.7094 222.691 96.3014 223.626Z" fill="white"/>
</svg>
