<svg width="505" height="430" viewBox="0 0 505 430" fill="none" xmlns="http://www.w3.org/2000/svg">
<path fill-rule="evenodd" clip-rule="evenodd" d="M227.408 0.0460574C317.853 2.09023 373.687 87.0398 401.498 173.127C429.121 258.631 435.883 363.904 360.997 413.563C291.196 459.85 211.996 393.384 144.859 343.311C81.6833 296.192 8.86 241.298 27.2875 164.67C49.6159 71.8206 131.936 -2.11172 227.408 0.0460574Z" fill="#8ACAC3"/>
<path d="M242.34 294.667L77.1901 337.195C71.5881 338.631 65.6452 337.786 60.6653 334.846C55.6854 331.905 52.0752 327.11 50.6267 321.511L0.683795 127.555C-0.751996 121.953 0.0929648 116.01 3.03331 111.031C5.97365 106.051 10.7693 102.441 16.3681 100.992L170.013 61.4268L209.336 79.0311L258.025 268.103C259.461 273.705 258.616 279.648 255.675 284.628C252.735 289.608 247.939 293.219 242.34 294.667Z" fill="#F2F2F2"/>
<path d="M17.9336 107.073C13.9466 108.105 10.5314 110.675 8.43752 114.222C6.34359 117.768 5.74184 122 6.76424 125.989L56.7103 319.945C57.7418 323.932 60.3126 327.347 63.8589 329.441C67.4051 331.535 71.6371 332.137 75.6265 331.115L240.777 288.587C244.764 287.556 248.179 284.985 250.273 281.439C252.367 277.893 252.968 273.661 251.946 269.671L204.012 83.5271L169.452 68.0554L17.9336 107.073Z" fill="white"/>
<path d="M208.918 80.0334L183.359 86.6153C181.493 87.0957 179.513 86.8152 177.854 85.8355C176.195 84.8559 174.993 83.2573 174.512 81.3914L169.651 62.5136C169.63 62.431 169.632 62.3441 169.658 62.2629C169.684 62.1817 169.732 62.1094 169.797 62.0543C169.863 61.9992 169.942 61.9635 170.026 61.9514C170.111 61.9393 170.197 61.9512 170.275 61.9857L208.99 79.1787C209.076 79.217 209.148 79.2812 209.196 79.3623C209.244 79.4434 209.265 79.5374 209.258 79.6313C209.25 79.7253 209.213 79.8144 209.152 79.8865C209.091 79.9585 209.01 80.0098 208.918 80.0334Z" fill="#F2F2F2"/>
<path d="M195.471 245.665L120.28 265.03C119.349 265.264 118.364 265.12 117.538 264.629C116.713 264.139 116.116 263.342 115.876 262.412C115.637 261.483 115.775 260.496 116.261 259.669C116.747 258.841 117.54 258.239 118.469 257.994L193.659 238.63C194.122 238.508 194.605 238.479 195.079 238.544C195.553 238.609 196.01 238.767 196.423 239.01C196.836 239.252 197.197 239.573 197.485 239.956C197.773 240.338 197.983 240.773 198.103 241.237C198.222 241.701 198.249 242.183 198.181 242.657C198.113 243.131 197.952 243.587 197.707 243.998C197.463 244.41 197.139 244.769 196.756 245.055C196.372 245.341 195.935 245.549 195.471 245.665Z" fill="#CCCCCC"/>
<path d="M213.04 253.801L123.339 276.9C122.876 277.022 122.394 277.052 121.92 276.986C121.445 276.921 120.989 276.763 120.576 276.521C120.163 276.279 119.802 275.957 119.513 275.575C119.225 275.193 119.015 274.757 118.896 274.293C118.777 273.83 118.75 273.347 118.818 272.873C118.886 272.399 119.046 271.943 119.291 271.532C119.536 271.12 119.859 270.761 120.243 270.475C120.627 270.189 121.064 269.982 121.528 269.865L211.229 246.766C212.16 246.531 213.145 246.675 213.971 247.166C214.796 247.656 215.393 248.453 215.633 249.383C215.872 250.312 215.734 251.299 215.248 252.126C214.762 252.954 213.969 253.556 213.04 253.801Z" fill="#CCCCCC"/>
<path d="M89.5889 288.348C96.6797 288.348 102.428 282.6 102.428 275.509C102.428 268.419 96.6797 262.671 89.5889 262.671C82.4982 262.671 76.75 268.419 76.75 275.509C76.75 282.6 82.4982 288.348 89.5889 288.348Z" fill="#17B8A6"/>
<path d="M187.475 212.066L87.6138 237.772C84.7278 238.511 81.6662 238.076 79.1009 236.561C76.5356 235.046 74.6761 232.575 73.9303 229.69L53.0038 148.394C52.2651 145.508 52.701 142.447 54.2159 139.882C55.7309 137.318 58.2012 135.458 61.085 134.713L160.946 109.007C163.832 108.267 166.893 108.703 169.458 110.218C172.024 111.733 173.883 114.204 174.629 117.088L195.556 198.385C196.295 201.271 195.859 204.332 194.344 206.896C192.829 209.461 190.359 211.32 187.475 212.066Z" fill="white"/>
<path d="M187.475 212.066L87.6138 237.772C84.7278 238.511 81.6662 238.076 79.1009 236.561C76.5356 235.046 74.6761 232.575 73.9303 229.69L53.0038 148.394C52.2651 145.508 52.701 142.447 54.2159 139.882C55.7309 137.318 58.2012 135.458 61.085 134.713L160.946 109.007C163.832 108.267 166.893 108.703 169.458 110.218C172.024 111.733 173.883 114.204 174.629 117.088L195.556 198.385C196.295 201.271 195.859 204.332 194.344 206.896C192.829 209.461 190.359 211.32 187.475 212.066ZM61.4142 135.99C58.8697 136.649 56.6904 138.29 55.3542 140.554C54.0181 142.817 53.6342 145.518 54.2868 148.064L75.2138 229.361C75.8726 231.906 77.5137 234.085 79.7771 235.421C82.0406 236.757 84.7416 237.141 87.2877 236.489L187.146 210.786C189.691 210.127 191.87 208.486 193.206 206.222C194.543 203.959 194.926 201.258 194.274 198.712L173.349 117.415C172.69 114.87 171.049 112.691 168.785 111.355C166.522 110.019 163.821 109.635 161.275 110.287L61.4142 135.99Z" fill="#E6E6E6"/>
<path d="M155.879 136.34L105.482 149.313C105.042 149.436 104.571 149.387 104.165 149.177C103.759 148.966 103.448 148.609 103.296 148.178C103.224 147.953 103.2 147.715 103.224 147.48C103.247 147.245 103.319 147.017 103.433 146.811C103.548 146.604 103.703 146.423 103.89 146.278C104.077 146.134 104.292 146.029 104.52 145.97L155.823 132.764C157.895 133.814 157.35 135.962 155.88 136.341L155.879 136.34Z" fill="#F2F2F2"/>
<path d="M158.153 145.177L107.756 158.151C107.315 158.274 106.844 158.225 106.439 158.014C106.033 157.803 105.722 157.446 105.569 157.015C105.498 156.79 105.473 156.553 105.497 156.318C105.521 156.082 105.592 155.855 105.707 155.648C105.821 155.441 105.977 155.26 106.164 155.116C106.351 154.971 106.565 154.867 106.794 154.808L158.096 141.602C160.169 142.652 159.623 144.8 158.153 145.178L158.153 145.177Z" fill="#F2F2F2"/>
<path d="M98.1572 165.991L82.7763 169.949C82.5276 170.013 82.2687 170.027 82.0143 169.991C81.76 169.955 81.5152 169.87 81.294 169.739C81.0729 169.608 80.8796 169.435 80.7253 169.23C80.5709 169.025 80.4586 168.791 80.3946 168.542L75.722 150.396C75.6579 150.147 75.6435 149.888 75.6795 149.634C75.7155 149.379 75.8012 149.134 75.9318 148.913C76.0625 148.692 76.2354 148.499 76.4407 148.344C76.6461 148.19 76.8798 148.078 77.1286 148.014L92.5095 144.055C93.0118 143.926 93.5446 144.002 93.9911 144.266C94.4376 144.529 94.7612 144.959 94.8912 145.461L99.5638 163.612C99.6279 163.861 99.6423 164.12 99.6063 164.374C99.5703 164.629 99.4846 164.873 99.354 165.095C99.2234 165.316 99.0504 165.509 98.8451 165.663C98.6397 165.818 98.406 165.93 98.1572 165.994V165.991Z" fill="#17B8A6"/>
<path d="M162.669 163.318L85.7519 183.118C85.3113 183.241 84.8406 183.192 84.4346 182.981C84.0287 182.77 83.7179 182.413 83.565 181.982C83.4939 181.757 83.4695 181.52 83.4931 181.285C83.5168 181.049 83.5881 180.822 83.7028 180.615C83.8174 180.408 83.9729 180.227 84.1598 180.083C84.3468 179.938 84.5612 179.834 84.79 179.775L162.612 159.742C164.685 160.792 164.138 162.94 162.669 163.318Z" fill="#F2F2F2"/>
<path d="M164.944 172.16L88.0253 191.96C87.5848 192.083 87.114 192.034 86.7081 191.824C86.3022 191.613 85.9914 191.256 85.8385 190.825C85.7674 190.6 85.7429 190.362 85.7666 190.127C85.7902 189.892 85.8616 189.664 85.9762 189.458C86.0908 189.251 86.2464 189.07 86.4333 188.925C86.6202 188.781 86.8346 188.676 87.0634 188.617L164.885 168.585C166.958 169.635 166.413 171.782 164.943 172.161L164.944 172.16Z" fill="#F2F2F2"/>
<path d="M167.22 180.998L90.3026 200.798C89.8621 200.921 89.3913 200.872 88.9854 200.661C88.5795 200.45 88.2687 200.093 88.1158 199.662C88.0447 199.437 88.0202 199.2 88.0439 198.964C88.0676 198.729 88.1389 198.502 88.2535 198.295C88.3682 198.088 88.5237 197.907 88.7106 197.763C88.8975 197.618 89.112 197.514 89.3408 197.455L167.162 177.422C169.235 178.472 168.689 180.62 167.22 180.998Z" fill="#F2F2F2"/>
<path d="M169.498 189.84L92.58 209.639C92.1395 209.762 91.6687 209.714 91.2628 209.503C90.8568 209.292 90.546 208.935 90.3932 208.504C90.322 208.279 90.2976 208.041 90.3213 207.806C90.3449 207.571 90.4163 207.343 90.5309 207.137C90.6455 206.93 90.801 206.749 90.988 206.605C91.1749 206.46 91.3893 206.355 91.6181 206.296L169.44 186.264C171.512 187.314 170.967 189.462 169.498 189.84Z" fill="#F2F2F2"/>
<path d="M171.766 198.678L94.8495 218.477C94.409 218.6 93.9382 218.551 93.5323 218.34C93.1264 218.13 92.8156 217.773 92.6627 217.342C92.5916 217.116 92.5671 216.879 92.5908 216.644C92.6145 216.409 92.6858 216.181 92.8004 215.974C92.915 215.768 93.0706 215.587 93.2575 215.442C93.4444 215.298 93.6588 215.193 93.8876 215.134L171.71 195.101C173.782 196.152 173.236 198.299 171.766 198.678Z" fill="#F2F2F2"/>
<path d="M90.5355 280.01C90.2559 280.082 89.9604 280.062 89.6934 279.952L89.677 279.945L86.1795 278.462C86.0175 278.393 85.8706 278.293 85.7472 278.167C85.6239 278.042 85.5265 277.893 85.4606 277.73C85.3947 277.566 85.3617 277.392 85.3633 277.215C85.365 277.039 85.4013 276.865 85.4702 276.703C85.5391 276.541 85.6393 276.394 85.765 276.271C85.8907 276.148 86.0394 276.05 86.2028 275.984C86.3661 275.918 86.5408 275.885 86.7169 275.887C86.893 275.889 87.067 275.925 87.2291 275.994L89.4954 276.958L92.465 269.972C92.6041 269.644 92.8674 269.386 93.1971 269.253C93.5268 269.12 93.8957 269.123 94.2229 269.263L94.2052 269.308L94.2235 269.262C94.5505 269.401 94.8089 269.665 94.9418 269.994C95.0748 270.324 95.0714 270.693 94.9325 271.02L91.4387 279.235C91.3577 279.424 91.2341 279.592 91.0776 279.726C90.921 279.86 90.7358 279.956 90.5361 280.007L90.5355 280.01Z" fill="white"/>
<path d="M404.457 345.693L237.052 313.153C231.376 312.043 226.372 308.726 223.138 303.931C219.904 299.136 218.704 293.254 219.802 287.576L258.018 90.9727C259.127 85.297 262.443 80.2933 267.238 77.0593C272.032 73.8254 277.914 72.6253 283.592 73.7224L439.335 103.996L467.285 136.787L430.032 328.441C428.922 334.117 425.606 339.121 420.812 342.355C416.017 345.59 410.135 346.79 404.457 345.693Z" fill="#E6E6E6"/>
<path d="M282.393 79.8868C278.349 79.1056 274.161 79.9602 270.747 82.2631C267.332 84.566 264.971 88.1292 264.181 92.171L225.965 288.774C225.184 292.818 226.038 297.006 228.341 300.42C230.644 303.835 234.207 306.196 238.249 306.986L405.654 339.527C409.697 340.308 413.886 339.453 417.3 337.15C420.714 334.847 423.075 331.284 423.866 327.242L460.542 138.559L435.98 109.741L282.393 79.8868Z" fill="white"/>
<path d="M406.123 163.265L329.906 148.449C328.96 148.266 328.126 147.714 327.588 146.915C327.049 146.116 326.85 145.136 327.033 144.191C327.217 143.245 327.769 142.411 328.568 141.872C329.367 141.333 330.347 141.134 331.292 141.318L407.511 156.133C408.457 156.317 409.291 156.869 409.83 157.668C410.368 158.467 410.568 159.447 410.384 160.392C410.2 161.338 409.648 162.172 408.849 162.711C408.051 163.249 407.071 163.449 406.125 163.265L406.123 163.265Z" fill="#17B8A6"/>
<path d="M418.492 178.158L327.566 160.484C326.621 160.3 325.787 159.748 325.248 158.95C324.709 158.151 324.51 157.171 324.694 156.225C324.877 155.28 325.429 154.446 326.228 153.907C327.027 153.368 328.007 153.169 328.952 153.353L419.878 171.027C420.824 171.211 421.658 171.763 422.197 172.561C422.735 173.36 422.935 174.34 422.751 175.286C422.567 176.231 422.015 177.065 421.217 177.604C420.418 178.143 419.438 178.342 418.492 178.158Z" fill="#17B8A6"/>
<path d="M397.027 210.063L320.812 195.248C319.866 195.064 318.886 195.264 318.087 195.802C317.289 196.341 316.737 197.175 316.553 198.12C316.369 199.066 316.569 200.046 317.107 200.845C317.646 201.643 318.48 202.195 319.425 202.379L395.641 217.194C396.581 217.364 397.549 217.156 398.338 216.617C399.126 216.078 399.67 215.25 399.852 214.312C400.035 213.375 399.84 212.403 399.311 211.608C398.783 210.812 397.962 210.257 397.027 210.063Z" fill="#CCCCCC"/>
<path d="M409.401 224.958L318.476 207.284C318.005 207.186 317.519 207.182 317.047 207.274C316.575 207.365 316.125 207.549 315.725 207.815C315.324 208.082 314.98 208.425 314.713 208.825C314.447 209.226 314.262 209.675 314.17 210.147C314.078 210.619 314.081 211.105 314.179 211.576C314.276 212.047 314.466 212.494 314.738 212.891C315.01 213.288 315.357 213.628 315.761 213.889C316.165 214.151 316.616 214.329 317.09 214.415L408.014 232.089C408.485 232.187 408.971 232.19 409.443 232.099C409.915 232.008 410.365 231.824 410.765 231.557C411.166 231.291 411.51 230.948 411.776 230.547C412.043 230.147 412.228 229.698 412.32 229.226C412.411 228.753 412.409 228.268 412.311 227.796C412.214 227.325 412.024 226.878 411.752 226.481C411.48 226.084 411.133 225.745 410.729 225.484C410.325 225.222 409.874 225.043 409.401 224.958Z" fill="#CCCCCC"/>
<path d="M385.158 271.128L308.941 256.313C307.996 256.129 307.162 255.577 306.623 254.778C306.084 253.979 305.885 252.999 306.069 252.054C306.252 251.108 306.804 250.274 307.603 249.735C308.402 249.197 309.382 248.997 310.327 249.181L386.546 263.996C387.492 264.18 388.326 264.732 388.865 265.531C389.403 266.33 389.603 267.31 389.419 268.255C389.235 269.201 388.683 270.035 387.885 270.574C387.086 271.112 386.106 271.312 385.16 271.128L385.158 271.128Z" fill="#CCCCCC"/>
<path d="M397.527 286.021L306.601 268.347C305.656 268.163 304.822 267.611 304.283 266.812C303.744 266.013 303.545 265.033 303.729 264.088C303.913 263.142 304.465 262.308 305.263 261.769C306.062 261.231 307.042 261.031 307.988 261.215L398.914 278.889C399.859 279.073 400.693 279.625 401.232 280.424C401.771 281.222 401.97 282.202 401.786 283.148C401.602 284.094 401.05 284.928 400.252 285.466C399.453 286.005 398.473 286.205 397.527 286.021Z" fill="#CCCCCC"/>
<path d="M295.243 157.335C302.203 158.688 308.942 154.142 310.295 147.182C311.648 140.221 307.103 133.482 300.142 132.129C293.182 130.776 286.442 135.322 285.089 142.282C283.736 149.243 288.282 155.982 295.243 157.335Z" fill="#17B8A6"/>
<path d="M295.511 149.296C295.227 149.242 294.969 149.096 294.775 148.882L294.763 148.869L292.241 146.027C292.011 145.76 291.895 145.413 291.919 145.061C291.943 144.709 292.104 144.381 292.368 144.147C292.632 143.914 292.977 143.793 293.33 143.812C293.682 143.831 294.012 143.988 294.249 144.249L295.883 146.094L301.565 141.06C301.696 140.944 301.85 140.854 302.016 140.797C302.183 140.739 302.359 140.715 302.535 140.726C302.71 140.737 302.882 140.782 303.041 140.859C303.199 140.936 303.34 141.044 303.457 141.176L303.422 141.208L303.458 141.175C303.694 141.441 303.814 141.79 303.792 142.145C303.771 142.5 303.609 142.831 303.343 143.067L296.658 148.985C296.503 149.121 296.319 149.22 296.121 149.274C295.922 149.327 295.713 149.335 295.511 149.295L295.511 149.296Z" fill="white"/>
<path d="M301.109 201.363C300.788 203.019 300.144 204.594 299.214 206.001C298.283 207.407 297.085 208.617 295.687 209.56C294.29 210.503 292.72 211.162 291.068 211.498C289.415 211.835 287.713 211.843 286.058 211.521C285.949 211.502 285.841 211.477 285.736 211.445C283.27 210.9 281.02 209.64 279.267 207.822C277.514 206.004 276.336 203.71 275.881 201.226C275.425 198.743 275.712 196.18 276.706 193.858C277.7 191.537 279.356 189.56 281.467 188.175C283.579 186.79 286.052 186.059 288.577 186.073C291.102 186.087 293.567 186.845 295.664 188.252C297.76 189.66 299.395 191.654 300.364 193.987C301.332 196.319 301.591 198.884 301.109 201.363Z" fill="#17B8A6"/>
<path d="M274.278 265.197C281.238 266.55 287.978 262.005 289.331 255.044C290.684 248.084 286.138 241.344 279.177 239.991C272.217 238.638 265.477 243.184 264.124 250.145C262.771 257.105 267.317 263.844 274.278 265.197Z" fill="#17B8A6"/>
<path d="M466.476 137.511L440.568 132.475C438.677 132.107 437.009 131.003 435.931 129.406C434.854 127.808 434.455 125.848 434.823 123.957L438.542 104.822C438.559 104.738 438.598 104.66 438.657 104.598C438.715 104.536 438.79 104.491 438.872 104.469C438.955 104.448 439.042 104.45 439.123 104.475C439.205 104.5 439.277 104.548 439.333 104.613L466.908 136.768C466.969 136.839 467.007 136.928 467.015 137.022C467.024 137.116 467.003 137.21 466.956 137.291C466.908 137.373 466.837 137.437 466.751 137.476C466.665 137.515 466.569 137.527 466.477 137.509L466.476 137.511Z" fill="#CCCCCC"/>
<path d="M312.906 328.835C312.109 330.143 310.824 331.08 309.335 331.441C307.846 331.802 306.275 331.557 304.967 330.759L237.569 289.649C236.261 288.851 235.324 287.567 234.963 286.078C234.602 284.589 234.848 283.017 235.646 281.709C236.444 280.402 237.728 279.464 239.217 279.103C240.706 278.743 242.277 278.988 243.585 279.786L310.982 320.896C312.29 321.694 313.228 322.978 313.588 324.467C313.949 325.956 313.704 327.527 312.906 328.835Z" fill="#3F3D56"/>
<path d="M245.508 287.728C240.749 295.531 233.783 301.748 225.491 305.591C217.198 309.435 207.952 310.734 198.922 309.323C189.892 307.912 181.483 303.855 174.758 297.665C168.034 291.475 163.296 283.43 161.143 274.547C158.991 265.665 159.521 256.343 162.666 247.762C165.812 239.18 171.431 231.724 178.814 226.336C186.197 220.948 195.012 217.871 204.144 217.493C213.276 217.114 222.315 219.453 230.118 224.212C235.299 227.372 239.807 231.521 243.385 236.423C246.962 241.326 249.539 246.884 250.968 252.783C252.397 258.681 252.651 264.802 251.714 270.798C250.777 276.794 248.668 282.547 245.508 287.728ZM176.468 245.613C172.898 251.465 171.144 258.245 171.428 265.094C171.711 271.943 174.02 278.554 178.06 284.091C182.101 289.629 187.693 293.843 194.13 296.202C200.566 298.561 207.557 298.959 214.219 297.345C220.881 295.73 226.915 292.177 231.558 287.133C236.2 282.09 239.243 275.783 240.301 269.01C241.359 262.237 240.385 255.303 237.502 249.084C234.619 242.864 229.957 237.64 224.104 234.07C216.257 229.284 206.829 227.811 197.895 229.976C188.962 232.141 181.254 237.765 176.468 245.613Z" fill="#3F3D56"/>
<path d="M193.835 297.179C212.612 303.644 233.075 293.664 239.54 274.887C246.005 256.111 236.025 235.648 217.248 229.182C198.472 222.717 178.009 232.697 171.543 251.474C165.078 270.251 175.058 290.714 193.835 297.179Z" fill="#17B8A6"/>
</svg>
