<svg width="270" height="270" viewBox="0 0 270 270" fill="none" xmlns="http://www.w3.org/2000/svg">
<circle cx="135" cy="135" r="134.5" fill="#B1CAC7" stroke="black"/>
<path d="M111.178 108.537C109.453 106.775 107.15 106.241 106.033 107.342C104.916 108.444 105.409 110.765 107.135 112.526C107.814 113.239 108.654 113.779 109.584 114.1L116.985 121.47L120.358 117.911L112.703 111.023C112.399 110.084 111.876 109.231 111.177 108.537H111.178Z" fill="#ED9DA0"/>
<path d="M134.85 102.453L127.089 119.729L114.696 112.998L110.262 115.361C110.262 115.361 120.392 132.356 127.328 130.422C134.265 128.487 146.582 110.943 144.363 105.529C142.145 100.115 134.85 102.452 134.85 102.452L134.85 102.453Z" fill="#E6E6E6"/>
<path d="M138.252 217.592H132.594L129.902 195.689H138.254L138.252 217.592Z" fill="#ED9DA0"/>
<path d="M118.865 217.463C118.689 217.761 118.596 218.722 118.596 219.068C118.596 219.58 118.798 220.07 119.159 220.431C119.519 220.793 120.007 220.996 120.517 220.996H138.041C138.213 220.996 138.383 220.962 138.542 220.896C138.701 220.83 138.846 220.733 138.967 220.611C139.089 220.489 139.185 220.344 139.251 220.184C139.317 220.025 139.351 219.854 139.351 219.681V218.949C139.351 218.949 140.218 216.748 138.433 214.036C138.433 214.036 136.215 216.16 132.9 212.834L131.923 211.057L124.847 216.249L120.925 216.734C120.068 216.841 119.307 216.718 118.865 217.464L118.865 217.463Z" fill="#090814"/>
<path d="M133.97 103.562L133.856 95.903L138.562 92.9586L143.68 99.241L133.97 103.562Z" fill="#ED9DA0"/>
<path d="M133.956 98.286C138.579 98.286 142.326 94.5253 142.326 89.8864C142.326 85.2474 138.579 81.4868 133.956 81.4868C129.333 81.4868 125.586 85.2474 125.586 89.8864C125.586 94.5253 129.333 98.286 133.956 98.286Z" fill="#ED9DA0"/>
<path d="M122.54 154.205L130.338 207.45H140.12L138.82 177.056L138.135 161.075L140.12 153.468C140.751 152.256 141.308 151.007 141.788 149.728C142.648 147.415 143.327 144.643 142.319 143.327C141.948 142.843 140.984 142.484 139.674 142.216C138.768 142.04 137.854 141.909 136.935 141.825C131.15 141.251 122.921 141.609 122.921 141.609L122.711 148.537L122.595 152.405L122.54 154.204L122.54 154.205Z" fill="#090814"/>
<path d="M148.22 214.988L142.622 215.814L136.783 194.537L145.045 193.319L148.22 214.988Z" fill="#ED9DA0"/>
<path d="M129.021 217.69C128.89 218.011 128.937 218.975 128.987 219.318C129.061 219.824 129.332 220.279 129.741 220.584C130.15 220.889 130.663 221.019 131.167 220.944L148.504 218.386C148.848 218.336 149.158 218.15 149.365 217.87C149.572 217.59 149.66 217.239 149.61 216.894L149.503 216.17C149.503 216.17 150.042 213.867 147.883 211.444C147.883 211.444 145.996 213.869 142.235 211.062L141.01 209.446L134.763 215.616L130.954 216.668C130.12 216.898 129.35 216.888 129.021 217.69H129.021Z" fill="#090814"/>
<path d="M122.418 145.325L123.487 154.569L129.32 174.045L138.921 206.11L148.598 204.683L139.913 159.091L140.773 151.273C140.773 151.273 141.053 150.496 141.374 149.358C142.011 147.107 142.81 143.442 141.931 141.572C141.822 141.329 141.668 141.107 141.479 140.919C141.133 140.583 140.43 140.378 139.489 140.27C135.552 139.823 127.445 141.1 123.837 141.727L122.417 145.325H122.418Z" fill="#090814"/>
<path d="M142.604 97.6204L133.095 102.201C133.095 102.201 123.016 132.163 123.016 133.69C123.016 135.217 120.162 136.171 121.875 137.888C123.587 139.606 118.689 141.061 121.328 142.432C123.966 143.804 140.429 151.309 142.259 150.632C147.307 148.766 142.046 141.907 142.046 141.907C142.046 141.907 145.838 138.842 145.268 137.316C144.697 135.789 148.691 106.59 148.691 106.59L142.605 97.62L142.604 97.6204Z" fill="#E6E6E6"/>
<path d="M134.467 91.8982L133.39 94.059C133.39 94.059 132.314 90.1699 130.591 89.3054C128.869 88.4408 128.653 87.1446 128.653 87.1446C128.653 87.1446 126.5 89.9535 124.993 89.3054C123.486 88.6573 122.84 88.225 124.562 85.6321C126.285 83.0392 125.854 84.3357 125.854 84.3357C125.854 84.3357 127.361 82.1749 127.146 82.8232C126.931 83.4715 128.438 81.0947 128.438 81.7428C128.438 82.3909 129.515 80.4464 129.515 81.0947C129.515 81.743 134.036 79.5822 133.39 80.4466C132.744 81.311 137.266 78.7181 139.419 82.1751C140.203 83.4335 142.399 87.1448 142.399 87.1448L142.499 93.4111L140.453 95.1394C140.453 95.1394 136.835 89.3056 134.467 91.8982Z" fill="#090814"/>
<path d="M120.037 118.64L109.661 130.401L94.5162 116.973L104.893 105.212L120.037 118.64Z" fill="#17B8A6"/>
<path d="M106.231 112.223L101.631 117.447C101.367 117.746 101.395 118.203 101.693 118.467C101.991 118.731 102.446 118.703 102.709 118.403L107.309 113.179C107.573 112.88 107.545 112.423 107.247 112.159C106.949 111.895 106.494 111.923 106.231 112.223Z" fill="white"/>
<path d="M109.037 114.714L104.437 119.938C104.174 120.237 104.201 120.694 104.499 120.958C104.797 121.222 105.252 121.194 105.516 120.894L110.116 115.67C110.379 115.37 110.352 114.914 110.054 114.65C109.756 114.386 109.301 114.414 109.037 114.714Z" fill="white"/>
<path d="M111.844 117.205L107.244 122.429C106.98 122.729 107.008 123.185 107.306 123.449C107.603 123.713 108.059 123.685 108.322 123.385L112.922 118.161C113.186 117.862 113.158 117.405 112.86 117.141C112.562 116.877 112.107 116.905 111.844 117.205Z" fill="white"/>
<path d="M113.629 124.022C111.27 123.322 108.997 123.977 108.553 125.484C108.11 126.991 109.663 128.78 112.024 129.48C112.963 129.772 113.959 129.835 114.927 129.662L124.963 132.5L126.19 127.746L116.166 125.453C115.446 124.78 114.577 124.289 113.629 124.023V124.022Z" fill="#ED9DA0"/>
<path d="M131.381 107.172L132.954 126.056L118.864 126.208L116.129 130.434C116.129 130.434 133.207 140.357 138.336 135.287C143.464 130.216 145.746 108.879 141.186 105.227C136.626 101.574 131.381 107.172 131.381 107.172Z" fill="#E6E6E6"/>
<path d="M171.68 70.8187C171.385 71.2915 171.049 71.7367 170.675 72.1492C170.154 72.6479 169.568 73.0748 168.935 73.4187C167.715 74.0854 166.856 74.0807 165.719 74.7691C165.589 74.782 165.461 74.7865 165.332 74.789C165.075 74.7926 164.694 75.3597 164.438 75.3376C164.435 75.338 164.434 75.3371 164.432 75.3378C164.308 75.4021 164.202 75.4954 164.122 75.6098L164.121 75.6125C163.664 76.1269 162.85 77.2452 162.32 77.8765C162.254 77.9521 162.194 78.0216 162.139 78.0811C161.991 78.2437 161.884 78.3393 161.837 78.3297C161.249 78.2159 161.203 77.838 160.642 77.5804C160.341 77.4429 158.776 76.7792 158.486 76.5977C157.665 76.0824 157.395 75.523 156.918 74.8053C156.884 74.7562 156.85 74.7057 156.815 74.6537C156.801 74.6356 156.791 74.6183 156.777 74.6009C156.637 74.3999 157.73 72.2411 158.033 71.3547C158.033 71.3538 158.033 71.353 158.033 71.3522C158.033 71.3513 158.033 71.3506 158.034 71.3499C158.097 71.1655 158.125 71.0372 158.101 70.9927L158.083 70.9593C158.008 70.8172 157.939 70.6705 157.874 70.5225C157.901 68.9523 157.257 67.0383 157.71 64.8544C157.931 64.0821 158.256 63.3439 158.676 62.6602C159.206 61.7987 159.901 61.051 160.72 60.4601C161.54 59.8692 162.468 59.4467 163.451 59.217C164.434 58.9873 165.453 58.9548 166.45 59.1215C167.446 59.2881 168.4 59.6507 169.257 60.1882C170.113 60.7257 170.856 61.4276 171.442 62.2536C172.028 63.0795 172.445 64.0133 172.67 65.0011C172.895 65.989 172.924 67.0115 172.754 68.0099C172.584 69.0082 172.219 69.9629 171.68 70.8187Z" fill="#E6E6E6"/>
<path d="M170.676 72.1495C170.154 72.6482 169.569 73.0751 168.935 73.4191C167.716 74.0857 166.857 74.0811 165.719 74.7695C164.962 75.2285 164.083 75.9954 162.89 77.4707C162.819 77.5576 162.777 77.6811 162.706 77.7659C162.547 77.9529 162.608 77.9391 162.367 78.0469C162.29 78.043 162.283 77.9762 162.32 77.8768C162.428 77.637 162.565 77.4111 162.727 77.2043C163.136 76.6273 163.603 76.094 164.12 75.6127L164.122 75.61C164.226 75.5142 164.33 75.4241 164.431 75.3382C166.213 73.8484 167.876 73.7095 169 73.0501C174.901 69.5977 173.492 60.7273 166.757 59.2801C166.395 59.2031 166.372 59.2755 166.352 59.2735C165.827 59.1941 165.443 59.0621 164.872 59.0833C161.405 59.2161 158.488 61.952 157.901 65.3456C157.583 67.1828 158.314 68.7897 158.083 70.9589C158.071 71.0858 158.055 71.216 158.034 71.3495C158.033 71.3502 158.033 71.351 158.033 71.3518C158.033 71.3526 158.033 71.3535 158.033 71.3543C157.833 72.5203 157.42 73.6388 156.815 74.6534C156.805 74.6724 156.796 74.6897 156.785 74.7069C156.83 74.7409 156.875 74.7727 156.918 74.805C157.584 75.3084 157.97 75.7077 158.283 75.7335L158.526 75.9233C158.537 76.0984 160.079 76.8603 160.312 77.0028L160.372 77.0403C160.942 77.4186 161.532 77.7659 162.139 78.0807C162.17 78.0964 162.203 78.1114 162.235 78.1258C162.268 78.159 162.287 78.2037 162.288 78.2506C162.29 78.2976 162.273 78.3432 162.242 78.3782C162.156 78.557 161.577 78.8687 161.448 78.8644C161.077 78.8533 156.595 76.1538 156.358 75.5891C156.288 75.4251 156.276 75.2424 156.324 75.0709C156.371 74.8993 156.475 74.7491 156.619 74.6448C156.634 74.6025 156.537 74.3938 156.552 74.355C156.755 73.8523 157.563 72.7642 157.825 71.1288C157.856 70.928 157.872 70.7251 157.874 70.5218C157.901 68.952 157.257 67.0383 157.711 64.8533C157.963 63.6855 158.478 62.5913 159.216 61.6545C161.008 59.3015 164.691 58.1911 167.493 59.0851C173.357 60.9553 174.764 68.2265 170.676 72.1495Z" fill="#010001"/>
<path d="M161.419 79.0461C161.59 79.7104 161.281 79.7052 160.795 80.0495C160.582 79.8388 156.185 77.4569 155.729 76.8722C155.659 76.7748 155.615 76.6612 155.6 76.5419C155.586 76.4226 155.601 76.3017 155.646 76.1903C155.691 76.0789 155.763 75.9809 155.856 75.9052C155.949 75.8296 156.06 75.7789 156.178 75.7579C157.798 77.0455 159.556 78.1484 161.419 79.0461Z" fill="#010001"/>
<path d="M160.919 80.3754C160.855 80.8479 160.397 80.8755 160.073 81.076L159.742 80.9505L155.126 77.9727C154.879 77.7424 154.946 77.2381 155.036 76.9318C155.053 76.8936 155.081 76.8615 155.117 76.8398C155.153 76.8181 155.194 76.8078 155.235 76.8102L155.692 76.9323C157.152 78.0216 158.671 79.0293 160.242 79.9506C160.382 79.9551 160.518 79.9967 160.637 80.0714C160.756 80.146 160.853 80.2509 160.919 80.3754Z" fill="#010001"/>
<path d="M160.099 73.1728L159.976 73.0961L161.222 71.0954L161.946 64.907L162.089 64.9239L161.362 71.1438L160.099 73.1728Z" fill="#0F0F10"/>
<path d="M171.382 56.7017C171.738 56.6879 170.499 58.6866 170.382 58.7036C169.938 58.7665 171.263 56.7064 171.382 56.7017Z" fill="#010001"/>
<path d="M169.27 55.6233C169.545 55.6194 168.82 57.793 168.73 57.8724C168.217 58.3244 169.14 55.6247 169.27 55.6233Z" fill="#010001"/>
<path d="M173.274 58.135C173.546 58.2202 172.009 59.8107 171.909 59.8667C170.965 60.3953 173.127 58.0889 173.274 58.135Z" fill="#010001"/>
<path d="M161.995 74.3667L163.279 72.0805L163.287 72.0734L167.547 67.9003L167.648 68.0038L163.395 72.1696L162.12 74.4379L161.995 74.3667Z" fill="#0F0F10"/>
<path d="M117.055 71.5802L108.589 75.183C108.409 75.2602 108.213 75.2953 108.017 75.2857C107.82 75.2761 107.629 75.2221 107.456 75.1276C107.286 75.0363 107.139 74.9075 107.026 74.751C106.912 74.5944 106.836 74.4142 106.801 74.2238C106.098 70.328 104.488 66.6526 102.104 63.4969C101.935 63.2735 101.842 63.0014 101.84 62.7212C101.839 62.441 101.927 62.1679 102.093 61.9427C104.4 58.8437 107.698 57.5047 111.896 57.9636C112.094 57.9833 112.285 58.0482 112.454 58.1532C112.623 58.2583 112.767 58.4008 112.873 58.5698C115.088 62.1197 116.752 65.9876 117.805 70.0398C117.887 70.3444 117.857 70.6685 117.719 70.9519C117.581 71.2352 117.346 71.4587 117.056 71.5807L117.055 71.5802Z" fill="#E6E6E6"/>
<path d="M109.606 65.0129L106.692 66.2533C106.531 66.3219 106.349 66.3233 106.187 66.2573C106.024 66.1913 105.895 66.0632 105.826 65.9013C105.758 65.7393 105.756 65.5568 105.821 65.3938C105.887 65.2308 106.014 65.1006 106.175 65.0321L109.089 63.7916C109.25 63.7231 109.432 63.7216 109.595 63.7876C109.757 63.8537 109.887 63.9817 109.955 64.1437C110.024 64.3056 110.026 64.4882 109.96 64.6512C109.895 64.8142 109.767 64.9443 109.606 65.0129Z" fill="#090814"/>
<path d="M114.189 65.905L107.711 68.6629C107.55 68.7315 107.369 68.733 107.206 68.6669C107.044 68.6009 106.914 68.4728 106.845 68.3108C106.777 68.1488 106.775 67.9662 106.841 67.8031C106.906 67.64 107.033 67.5099 107.194 67.4413L113.672 64.6833C113.834 64.6147 114.015 64.6133 114.178 64.6793C114.34 64.7454 114.47 64.8735 114.538 65.0355C114.607 65.1975 114.609 65.3801 114.543 65.5432C114.478 65.7062 114.351 65.8364 114.189 65.905Z" fill="#090814"/>
<path d="M108.708 75.1288C108.508 75.2147 108.29 75.2537 108.073 75.2429C107.855 75.2322 107.642 75.1718 107.451 75.0665C107.262 74.965 107.098 74.8216 106.972 74.6472C106.846 74.4728 106.761 74.272 106.724 74.0599C106.375 72.1301 105.802 70.2478 105.015 68.4517C104.228 66.6555 103.234 64.9581 102.053 63.3945C101.865 63.1462 101.762 62.8436 101.76 62.5321C101.758 62.2206 101.856 61.9169 102.04 61.6664C103.09 60.2135 104.508 59.0703 106.149 58.356C107.839 57.6365 109.8 57.3922 111.976 57.6298C112.196 57.6511 112.408 57.7228 112.596 57.8394C112.783 57.956 112.942 58.1143 113.06 58.3022C115.284 61.8645 116.953 65.7463 118.01 69.8132C118.1 70.1511 118.066 70.5104 117.914 70.8246C117.761 71.1389 117.501 71.3871 117.18 71.5234L108.708 75.1288ZM106.262 58.6235C104.669 59.3179 103.291 60.4288 102.273 61.8404C102.126 62.0404 102.047 62.2828 102.049 62.5314C102.051 62.78 102.133 63.0214 102.283 63.2196C103.478 64.8013 104.484 66.5183 105.28 68.3353C106.076 70.1523 106.656 72.0566 107.008 74.0089C107.038 74.1779 107.106 74.338 107.206 74.477C107.307 74.6159 107.437 74.7302 107.588 74.8109C107.741 74.8953 107.911 74.9437 108.086 74.9524C108.26 74.9611 108.434 74.9299 108.595 74.8611L117.066 71.256C117.323 71.1469 117.531 70.9484 117.653 70.6969C117.775 70.4454 117.802 70.1579 117.73 69.8876C116.68 65.8491 115.023 61.9944 112.814 58.457C112.72 58.3066 112.593 58.1798 112.442 58.0865C112.292 57.9932 112.122 57.936 111.946 57.9191C109.819 57.6864 107.907 57.9234 106.262 58.6235Z" fill="#090814"/>
<path d="M136.824 64.3879C140.738 64.3879 143.911 61.2039 143.911 57.2762C143.911 53.3486 140.738 50.1646 136.824 50.1646C132.91 50.1646 129.737 53.3486 129.737 57.2762C129.737 61.2039 132.91 64.3879 136.824 64.3879Z" fill="#E6E6E6"/>
<path d="M140.51 53.1121C140.336 53.012 140.129 52.9845 139.935 53.0356C139.741 53.0868 139.574 53.2123 139.471 53.3854L136.944 58.4098C136.258 57.3411 135.393 56.3995 134.387 55.627C134.062 55.3752 133.536 55.5774 133.348 55.9003C133.119 56.2939 133.295 56.6909 133.62 56.9428C134.788 57.8686 135.713 59.0664 136.314 60.4321C136.546 60.9463 137.383 60.9138 137.625 60.4321L140.783 54.1551C140.88 53.9795 140.905 53.7732 140.855 53.579C140.804 53.3849 140.681 53.2178 140.51 53.1125L140.51 53.1121Z" fill="#090814"/>
<path d="M136.824 50C138.497 50.001 140.118 50.5822 141.413 51.6453C142.707 52.7083 143.596 54.1878 143.928 55.8331C144.26 57.4784 144.015 59.1883 143.235 60.6732C142.455 62.1581 141.187 63.3266 139.646 63.9808C137.876 64.7226 135.885 64.7304 134.109 64.0024C132.333 63.2745 130.917 61.8701 130.17 60.0967C129.424 58.3233 129.408 56.3254 130.126 54.5403C130.844 52.7551 132.238 51.3282 134.002 50.5718C134.895 50.1927 135.855 49.9982 136.824 50ZM136.824 64.2234C138.421 64.2216 139.967 63.6663 141.203 62.6514C142.438 61.6365 143.286 60.2244 143.603 58.6541C143.92 57.0838 143.687 55.4518 142.943 54.0344C142.198 52.617 140.989 51.5013 139.519 50.8761C137.831 50.1842 135.941 50.1877 134.256 50.8856C132.572 51.5836 131.229 52.9198 130.52 54.6046C129.811 56.2893 129.792 58.1866 130.468 59.8851C131.144 61.5836 132.459 62.9463 134.13 63.6776C134.982 64.0395 135.898 64.2252 136.824 64.2234Z" fill="#090814"/>
</svg>
