<svg width="270" height="270" viewBox="0 0 270 270" fill="none" xmlns="http://www.w3.org/2000/svg">
<circle cx="135" cy="135" r="134.5" fill="#B1CAC7" stroke="black"/>
<path d="M97.365 72.7217C97.3661 67.731 98.7512 62.8383 101.367 58.5868C103.982 54.3353 107.725 50.8914 112.181 48.6374C116.636 46.3834 121.63 45.4076 126.607 45.8183C131.584 46.2289 136.349 48.0101 140.375 50.9638C144.4 53.9176 147.527 57.9285 149.409 62.5511C151.292 67.1737 151.855 72.2272 151.037 77.1504C150.219 82.0736 148.051 86.674 144.775 90.4406C141.499 94.2072 137.243 96.9927 132.478 98.4879L131.575 150.451L90.2788 109.718C90.2788 109.718 106.381 103.488 109.465 95.2315C105.743 92.7715 102.69 89.4279 100.579 85.4997C98.467 81.5715 97.3628 77.1815 97.365 72.7224V72.7217Z" fill="#ED9DA0"/>
<path d="M109.585 95.2468C109.585 95.2468 100.367 91.9658 95.6414 82.3837C91.3008 73.5834 90.8247 58.5886 103.149 54.9472C103.149 54.9472 96.0487 48.8206 109.14 45.0881L107.399 46.6935C107.399 46.6935 108.935 43.9202 116.524 45.5603C116.524 45.5603 144.564 42.2965 149.541 51.5231C149.541 51.5231 164.592 54.6053 156.576 66.046C156.576 66.046 156.162 68.2724 153.302 68.2303L154.731 66.363L150.377 68.2303C150.377 68.2303 144.321 58.5903 138.605 63.9206C138.605 63.9206 127.673 63.461 122.444 62.5038C122.444 62.5038 123.494 76.5369 113.459 79.2699C103.424 82.0029 109.585 95.2468 109.585 95.2468Z" fill="#090814"/>
<path d="M202.291 185.932L152.908 215.371L148.803 196.244L195.594 174.028C196.48 170.666 198.93 167.452 202.565 165.409C208.925 161.835 216.48 163.2 219.44 168.459C222.401 173.718 219.644 180.88 213.285 184.454C209.65 186.497 205.628 186.919 202.294 185.93L202.291 185.932Z" fill="#ED9DA0"/>
<path d="M206.482 184.416H196.423C195.58 184.412 194.763 184.122 194.107 183.593C193.45 183.065 192.993 182.329 192.81 181.506C192.674 180.876 192.705 180.221 192.899 179.606C193.094 178.991 193.445 178.438 193.919 178L224.59 149.789C225.065 149.352 225.692 149.119 226.337 149.142L236.074 149.478C236.549 149.495 237.008 149.649 237.396 149.921C237.785 150.193 238.086 150.572 238.264 151.012C238.441 151.452 238.488 151.934 238.397 152.399C238.306 152.865 238.082 153.294 237.753 153.635L208.92 183.385C208.603 183.71 208.224 183.969 207.806 184.146C207.387 184.323 206.937 184.415 206.483 184.416L206.482 184.416Z" fill="#090814"/>
<path d="M99.4052 102.869C110.787 114.299 121.596 117.366 131.542 107.837L145.588 210.691L139.748 219.147L104.232 219.248L99.4052 102.869Z" fill="#D6D6E3"/>
<path d="M97.5362 101.835L91.5972 106.713L73.567 116.997C69.7189 118.426 66.2497 120.717 63.4256 123.694C60.6015 126.671 58.4976 130.256 57.2754 134.172C54.3948 143.423 52.3517 152.914 51.1708 162.53C48.2073 186.847 50.3593 218.91 50.3593 218.91L77.7711 219.148L76.5782 203.069L72.1706 163.288L72.2875 219.248H104.23C104.23 219.248 106.416 124.335 101.653 103.227C101.554 102.804 101.349 102.412 101.057 102.09C100.765 101.767 100.395 101.525 99.9822 101.385C99.5699 101.246 99.1287 101.214 98.7006 101.293C98.2724 101.372 97.8715 101.558 97.5359 101.835L97.5362 101.835Z" fill="#090814"/>
<path d="M131.541 107.837L153.139 118.215C156.793 119.971 159.992 122.546 162.487 125.741C164.982 128.935 166.706 132.661 167.523 136.63L176.573 180.558L179.531 207.129C179.531 207.129 166.807 218.516 158.457 214.742L159.054 219.149H139.746L131.541 107.837Z" fill="#090814"/>
<path d="M163.225 187.942L188.611 173.888L195.881 194.017C195.881 194.017 181.288 212.085 158.457 214.742L163.224 187.944L163.225 187.942Z" fill="#090814"/>
<path d="M205.921 181.887C205.868 181.887 205.814 181.883 205.76 181.875L196.131 180.528C195.913 180.497 195.708 180.406 195.539 180.264C195.37 180.123 195.245 179.937 195.177 179.727C195.109 179.518 195.102 179.293 195.155 179.08C195.209 178.866 195.322 178.672 195.481 178.52L224.253 150.894C224.483 150.68 224.786 150.563 225.1 150.567L235.246 150.858C235.476 150.864 235.7 150.938 235.888 151.071C236.077 151.203 236.222 151.388 236.306 151.603C236.39 151.817 236.409 152.052 236.361 152.277C236.313 152.502 236.199 152.708 236.034 152.869L206.746 181.552C206.525 181.766 206.23 181.886 205.922 181.886L205.921 181.887Z" fill="#17B8A6"/>
<path d="M219.895 159.967C219.957 160.005 219.974 160.16 219.988 160.242C220.018 160.413 220.217 163.671 220.209 163.861C220.221 163.961 220.21 164.062 220.178 164.157C220.146 164.253 220.093 164.34 220.023 164.412C219.953 164.484 219.868 164.541 219.774 164.576C219.68 164.612 219.579 164.626 219.479 164.618C219.291 164.628 216.141 164.449 215.905 164.415C215.523 164.361 215.347 164.205 215.778 163.697C216.128 163.281 218.693 160.816 219.37 160.104C219.438 160.036 219.522 159.987 219.615 159.963C219.708 159.939 219.805 159.941 219.897 159.967H219.895Z" fill="#17B8A6"/>
<path d="M163.302 221.296C158.199 212.638 154.34 203.306 151.839 193.573C149.34 183.892 148.183 173.914 148.4 163.919C148.523 158.299 149.095 152.698 150.111 147.169C150.233 146.508 149.219 146.223 149.096 146.889C148.178 151.868 147.615 156.906 147.409 161.965C147.206 167.027 147.356 172.097 147.86 177.138C148.358 182.152 149.197 187.127 150.37 192.028C151.55 196.954 153.072 201.792 154.925 206.508C156.774 211.219 158.955 215.794 161.451 220.198C161.761 220.744 162.075 221.286 162.394 221.825C162.465 221.946 162.58 222.033 162.715 222.069C162.85 222.104 162.994 222.084 163.114 222.014C163.235 221.944 163.322 221.828 163.358 221.693C163.393 221.558 163.373 221.415 163.303 221.295L163.302 221.296Z" fill="white"/>
<path d="M181.314 175.348C179.966 177.686 178.131 179.709 175.934 181.278C173.737 182.848 171.229 183.928 168.578 184.446C167.914 184.574 168.195 185.588 168.859 185.46C171.641 184.907 174.273 183.766 176.578 182.114C178.882 180.461 180.807 178.335 182.222 175.878C182.293 175.758 182.312 175.615 182.277 175.48C182.242 175.345 182.154 175.229 182.034 175.159C181.913 175.089 181.769 175.069 181.634 175.104C181.499 175.14 181.384 175.227 181.314 175.348Z" fill="white"/>
<path d="M77.9006 224.496C77.3697 218.306 77.7476 212.008 78.2468 205.829C78.7801 198.724 79.7399 191.657 81.1213 184.667C81.707 181.561 82.5174 178.502 83.5459 175.513C83.7761 174.875 82.7593 174.602 82.5309 175.233C81.6153 177.876 80.8797 180.578 80.3291 183.32C79.6137 186.664 79.0492 190.04 78.57 193.425C77.5426 200.54 76.9125 207.705 76.6824 214.89C76.5542 218.092 76.6095 221.299 76.848 224.495C76.9056 225.164 77.9584 225.17 77.9006 224.495V224.496Z" fill="white"/>
<path d="M112.763 211.372L73.6526 215.839L77.4066 200.833L112.088 197.732C114.383 195.12 118.012 193.337 122.177 193.131C129.464 192.771 135.614 197.365 135.912 203.392C136.209 209.419 130.544 214.597 123.257 214.957C119.092 215.163 115.304 213.746 112.763 211.373L112.763 211.372Z" fill="#ED9DA0"/>
<path d="M76.9108 195.739L105.905 194.492L103.416 215.747C103.416 215.747 82.2849 225.4 60.6708 217.589L76.9108 195.739Z" fill="#090814"/>
<path d="M131.684 108.347L145.59 210.184L146.802 208.431L132.756 105.574C123.67 114.281 113.863 112.472 103.556 103.378C103.318 103.167 103.025 103.03 102.711 102.981C102.397 102.932 102.076 102.974 101.785 103.102C101.494 103.23 101.246 103.439 101.071 103.703C100.895 103.968 100.799 104.277 100.793 104.594C111.719 115.012 122.102 117.528 131.684 108.346V108.347Z" fill="#090814"/>
<path d="M195.896 221.023H31.8256C31.5961 220.989 31.3864 220.873 31.2349 220.698C31.0834 220.522 31 220.298 31 220.066C31 219.834 31.0834 219.61 31.2349 219.434C31.3864 219.259 31.5961 219.143 31.8256 219.109H195.896C196.128 219.14 196.341 219.254 196.495 219.43C196.649 219.606 196.734 219.832 196.734 220.066C196.734 220.3 196.649 220.526 196.495 220.702C196.341 220.878 196.128 220.992 195.896 221.023Z" fill="#CCCCCC"/>
</svg>
