<svg width="499" height="520" viewBox="0 0 499 520" fill="none" xmlns="http://www.w3.org/2000/svg">
<path fill-rule="evenodd" clip-rule="evenodd" d="M245.635 0.0557238C355.063 2.52893 422.615 105.308 456.264 209.463C489.683 312.912 497.865 440.28 407.263 500.361C322.811 556.363 226.989 475.947 145.762 415.365C69.3266 358.356 -18.7807 291.941 3.51429 199.23C30.5289 86.8942 130.126 -2.55493 245.635 0.0557238Z" fill="#8ACAC3"/>
<path d="M490.492 90.3496H41.6833C39.5677 90.3702 37.5466 91.229 36.0634 92.7378C34.5802 94.2466 33.7561 96.2821 33.7717 98.3977V403.318C33.7595 405.431 34.5853 407.463 36.0682 408.969C37.5511 410.474 39.5703 411.33 41.6833 411.35H490.492C492.605 411.33 494.624 410.474 496.107 408.968C497.59 407.463 498.416 405.431 498.404 403.318V98.3977C498.419 96.2823 497.595 94.247 496.113 92.7382C494.63 91.2295 492.609 90.3705 490.493 90.3496H490.492Z" fill="#090814"/>
<path d="M477.229 91.9438H42.1598C40.1241 91.9476 38.173 92.759 36.7348 94.1997C35.2965 95.6405 34.4886 97.5929 34.4883 99.6287V390.803C34.4912 392.836 35.3004 394.786 36.7385 396.224C38.1765 397.662 40.1261 398.471 42.1598 398.474H477.229C479.263 398.471 481.213 397.662 482.651 396.224C484.089 394.786 484.898 392.836 484.901 390.803V99.6293C484.901 97.5942 484.093 95.6422 482.656 94.2016C481.219 92.7609 479.268 91.9491 477.233 91.9444L477.229 91.9438Z" fill="white"/>
<path d="M361.975 213.756H361.972C361.484 213.756 361.09 213.621 361.092 213.456L361.533 167.69C361.533 167.525 361.93 167.392 362.417 167.392H362.42C362.909 167.392 363.303 167.527 363.301 167.692L362.859 213.459C362.857 213.623 362.462 213.756 361.975 213.756Z" fill="#D6D6E3"/>
<path d="M248.854 320.575H248.851C248.363 320.575 247.969 320.401 247.971 320.187L248.412 262.612C248.412 262.4 248.809 262.227 249.296 262.227H249.299C249.787 262.227 250.182 262.401 250.18 262.615L249.738 320.189C249.736 320.403 249.341 320.575 248.854 320.575Z" fill="#D6D6E3"/>
<path d="M164.898 238.501H164.895C164.407 238.501 164.013 238.385 164.014 238.244L164.455 199.626C164.455 199.485 164.852 199.372 165.339 199.371H165.342C165.83 199.371 166.224 199.487 166.223 199.628L165.781 238.246C165.78 238.387 165.385 238.501 164.898 238.501Z" fill="#D6D6E3"/>
<path d="M128.405 274.028C130.107 264.839 140.552 260.603 149.019 261.322C161.116 262.35 171.212 270.315 182.471 274.069C187.912 275.884 193.766 276.88 199.467 275.835C203.961 274.91 208.129 272.805 211.543 269.739C218.089 264.144 222.515 256.513 229.066 250.924C232.569 247.77 237.001 245.835 241.696 245.41C247.476 245.025 253.137 246.984 258.201 249.61C268.267 254.826 276.508 263.126 287.228 267.152C292.15 269.05 297.49 269.601 302.696 268.75C307.893 267.715 312.834 265.664 317.237 262.715C326.468 256.884 334.075 248.791 343.78 243.677C348.553 241.162 353.855 239.239 359.307 239.202C364.576 239.209 369.641 241.237 373.459 244.868C380.809 251.551 386.605 262.097 397.832 262.283C400.173 262.326 402.477 261.694 404.468 260.461C405.916 259.566 404.584 257.271 403.131 258.172C398.555 261.002 393.044 259.218 388.873 256.472C384.431 253.549 381.278 249.081 377.652 245.275C374.049 241.494 369.849 238.309 364.668 237.129C359.492 236.107 354.133 236.555 349.199 238.422C338.594 242.117 330.566 249.722 321.767 256.34C313.093 262.861 302.965 268.503 291.774 265.787C280.63 263.083 272.176 254.644 262.54 248.98C253.224 243.505 241.803 240.008 231.771 245.77C224.19 250.123 219.397 257.812 213.575 264.077C210.702 267.168 207.498 270.04 203.618 271.796C198.226 274.236 192.131 273.951 186.514 272.505C174.798 269.488 164.915 261.599 152.984 259.239C144.128 257.488 133.647 259.695 128.241 267.523C127.046 269.268 126.232 271.246 125.852 273.326C125.543 274.994 128.098 275.709 128.409 274.031L128.405 274.028Z" fill="#3F3D56"/>
<path d="M165.338 279.817C171.683 279.817 176.827 274.673 176.827 268.328C176.827 261.983 171.683 256.839 165.338 256.839C158.993 256.839 153.85 261.983 153.85 268.328C153.85 274.673 158.993 279.817 165.338 279.817Z" fill="#17B8A6"/>
<path d="M247.971 255.513C254.316 255.513 259.46 250.37 259.46 244.025C259.46 237.68 254.316 232.536 247.971 232.536C241.626 232.536 236.482 237.68 236.482 244.025C236.482 250.37 241.626 255.513 247.971 255.513Z" fill="#17B8A6"/>
<path d="M361.092 247.559C367.437 247.559 372.581 242.416 372.581 236.071C372.581 229.726 367.437 224.582 361.092 224.582C354.747 224.582 349.604 229.726 349.604 236.071C349.604 242.416 354.747 247.559 361.092 247.559Z" fill="#17B8A6"/>
<path d="M177.455 187.538H152.255C151.41 187.539 150.575 187.353 149.811 186.992C149.047 186.63 148.373 186.103 147.838 185.449C147.29 184.78 146.898 183.998 146.69 183.158C146.482 182.319 146.464 181.444 146.637 180.597C148.661 170.523 148.661 160.147 146.637 150.073C146.464 149.225 146.482 148.35 146.69 147.511C146.898 146.671 147.29 145.889 147.838 145.22C148.362 144.579 149.019 144.061 149.764 143.7C150.508 143.34 151.323 143.146 152.15 143.133C159.811 139.381 168.354 139.381 177.543 143.133C178.914 143.154 180.232 143.665 181.26 144.572C182.288 145.479 182.958 146.723 183.15 148.08C184.706 159.53 184.706 171.138 183.15 182.588C182.956 183.961 182.273 185.217 181.227 186.127C180.181 187.036 178.841 187.537 177.455 187.538Z" fill="#E6E6E6"/>
<path d="M376.465 160.818H351.265C349.879 160.817 348.54 160.316 347.493 159.407C346.447 158.498 345.764 157.242 345.569 155.869C344.013 144.419 344.013 132.811 345.569 121.361C345.762 120.005 346.431 118.762 347.457 117.855C348.483 116.948 349.799 116.437 351.168 116.413C359.097 112.859 367.636 112.859 376.552 116.413C377.382 116.424 378.2 116.616 378.948 116.977C379.696 117.338 380.356 117.858 380.882 118.501C381.43 119.17 381.822 119.952 382.03 120.791C382.237 121.631 382.256 122.506 382.083 123.353C380.059 133.427 380.059 143.803 382.083 153.877C382.256 154.724 382.238 155.599 382.03 156.439C381.822 157.278 381.43 158.06 380.882 158.729C380.347 159.384 379.673 159.911 378.909 160.272C378.145 160.633 377.31 160.82 376.465 160.818Z" fill="#17B8A6"/>
<path d="M373.826 129.571H352.613C352.261 129.571 351.924 129.431 351.675 129.183C351.427 128.934 351.287 128.597 351.287 128.245C351.287 127.894 351.427 127.556 351.675 127.308C351.924 127.059 352.261 126.92 352.613 126.92H373.826C374.177 126.92 374.515 127.059 374.763 127.308C375.012 127.556 375.151 127.894 375.151 128.245C375.151 128.597 375.012 128.934 374.763 129.183C374.515 129.431 374.177 129.571 373.826 129.571Z" fill="white"/>
<path d="M373.826 140.176H352.613C352.261 140.176 351.924 140.037 351.675 139.788C351.427 139.539 351.287 139.202 351.287 138.851C351.287 138.499 351.427 138.162 351.675 137.913C351.924 137.665 352.261 137.525 352.613 137.525H373.826C374.177 137.525 374.515 137.665 374.763 137.913C375.012 138.162 375.151 138.499 375.151 138.851C375.151 139.202 375.012 139.539 374.763 139.788C374.515 140.037 374.177 140.176 373.826 140.176Z" fill="white"/>
<path d="M373.826 150.782H352.613C352.261 150.782 351.924 150.642 351.675 150.393C351.427 150.145 351.287 149.808 351.287 149.456C351.287 149.104 351.427 148.767 351.675 148.519C351.924 148.27 352.261 148.13 352.613 148.13H373.826C374.177 148.13 374.515 148.27 374.763 148.519C375.012 148.767 375.151 149.104 375.151 149.456C375.151 149.808 375.012 150.145 374.763 150.393C374.515 150.642 374.177 150.782 373.826 150.782Z" fill="white"/>
<path d="M177.841 154.551H156.628C156.277 154.551 155.94 154.411 155.691 154.162C155.442 153.914 155.303 153.576 155.303 153.225C155.303 152.873 155.442 152.536 155.691 152.287C155.94 152.039 156.277 151.899 156.628 151.899H177.841C178.193 151.899 178.53 152.039 178.779 152.287C179.027 152.536 179.167 152.873 179.167 153.225C179.167 153.576 179.027 153.914 178.779 154.162C178.53 154.411 178.193 154.551 177.841 154.551Z" fill="white"/>
<path d="M177.841 165.155H156.628C156.277 165.155 155.94 165.016 155.691 164.767C155.442 164.518 155.303 164.181 155.303 163.83C155.303 163.478 155.442 163.141 155.691 162.892C155.94 162.644 156.277 162.504 156.628 162.504H177.841C178.193 162.504 178.53 162.644 178.779 162.892C179.027 163.141 179.167 163.478 179.167 163.83C179.167 164.181 179.027 164.518 178.779 164.767C178.53 165.016 178.193 165.155 177.841 165.155Z" fill="white"/>
<path d="M177.841 175.761H156.628C156.277 175.761 155.94 175.621 155.691 175.372C155.442 175.124 155.303 174.787 155.303 174.435C155.303 174.083 155.442 173.746 155.691 173.498C155.94 173.249 156.277 173.109 156.628 173.109H177.841C178.193 173.109 178.53 173.249 178.779 173.498C179.027 173.746 179.167 174.083 179.167 174.435C179.167 174.787 179.027 175.124 178.779 175.372C178.53 175.621 178.193 175.761 177.841 175.761Z" fill="white"/>
<path d="M262.541 376.926H237.341C235.955 376.925 234.616 376.424 233.57 375.515C232.523 374.606 231.84 373.35 231.646 371.978C230.089 360.528 230.089 348.92 231.646 337.47C231.837 336.117 232.503 334.876 233.526 333.97C234.548 333.063 235.859 332.55 237.225 332.521C245.431 328.115 253.983 328.113 262.647 332.521C263.473 332.535 264.287 332.729 265.031 333.089C265.775 333.45 266.432 333.968 266.955 334.609C267.503 335.277 267.895 336.06 268.103 336.899C268.311 337.739 268.329 338.614 268.156 339.461C266.132 349.535 266.132 359.912 268.156 369.986C268.329 370.833 268.311 371.708 268.103 372.548C267.895 373.387 267.503 374.169 266.955 374.838C266.42 375.492 265.747 376.019 264.983 376.38C264.22 376.741 263.386 376.928 262.541 376.926Z" fill="#17B8A6"/>
<path d="M260.914 343.273H239.701C239.349 343.273 239.012 343.133 238.763 342.885C238.515 342.636 238.375 342.299 238.375 341.947C238.375 341.596 238.515 341.258 238.763 341.01C239.012 340.761 239.349 340.622 239.701 340.622H260.914C261.265 340.622 261.602 340.761 261.851 341.01C262.1 341.258 262.239 341.596 262.239 341.947C262.239 342.299 262.1 342.636 261.851 342.885C261.602 343.133 261.265 343.273 260.914 343.273Z" fill="white"/>
<path d="M260.914 353.878H239.701C239.349 353.878 239.012 353.738 238.763 353.49C238.515 353.241 238.375 352.904 238.375 352.552C238.375 352.201 238.515 351.864 238.763 351.615C239.012 351.366 239.349 351.227 239.701 351.227H260.914C261.265 351.227 261.602 351.366 261.851 351.615C262.1 351.864 262.239 352.201 262.239 352.552C262.239 352.904 262.1 353.241 261.851 353.49C261.602 353.738 261.265 353.878 260.914 353.878Z" fill="white"/>
<path d="M260.914 364.483H239.701C239.349 364.483 239.012 364.343 238.763 364.095C238.515 363.846 238.375 363.509 238.375 363.157C238.375 362.806 238.515 362.468 238.763 362.22C239.012 361.971 239.349 361.832 239.701 361.832H260.914C261.265 361.832 261.602 361.971 261.851 362.22C262.1 362.468 262.239 362.806 262.239 363.157C262.239 363.509 262.1 363.846 261.851 364.095C261.602 364.343 261.265 364.483 260.914 364.483Z" fill="white"/>
<path d="M437.433 278.669L444.465 282.002C441.58 277.975 439.094 271.686 437.763 266.682C435.509 271.343 431.876 277.047 428.28 280.456L435.715 278.543C431.133 300.997 413.901 317.116 394.168 317.116V318.826C414.782 318.824 432.755 302.029 437.433 278.669Z" fill="#3F3D56"/>
<path d="M415.517 250.849H459.966C461.851 250.849 463.385 253.387 463.385 256.506C463.385 259.626 461.851 262.164 459.966 262.164H415.517C413.631 262.164 412.098 259.626 412.098 256.506C412.098 253.387 413.631 250.849 415.517 250.849Z" fill="#17B8A6"/>
<path d="M397.338 339.262L377.302 357.076C376.061 358.177 374.434 358.741 372.778 358.644C371.121 358.547 369.571 357.797 368.468 356.558C360.141 349.945 353.31 342.493 348.382 333.969C347.28 332.729 346.716 331.101 346.813 329.445C346.911 327.789 347.661 326.239 348.899 325.135L368.933 307.321C370.174 306.22 371.801 305.656 373.457 305.753C375.113 305.85 376.663 306.6 377.767 307.839L397.853 330.428C398.954 331.668 399.518 333.295 399.421 334.952C399.324 336.608 398.574 338.158 397.335 339.262H397.338Z" fill="white"/>
<path d="M397.338 339.262L377.302 357.076C376.061 358.177 374.434 358.741 372.778 358.644C371.121 358.547 369.571 357.797 368.468 356.558C358.968 350.742 351.85 343.47 348.382 333.969C347.28 332.729 346.716 331.101 346.813 329.445C346.911 327.789 347.661 326.239 348.899 325.135L368.933 307.321C370.174 306.22 371.801 305.656 373.457 305.753C375.113 305.85 376.663 306.6 377.767 307.839L397.853 330.428C398.954 331.668 399.518 333.295 399.421 334.952C399.324 336.608 398.574 338.158 397.335 339.262H397.338ZM349.472 325.778C348.402 326.731 347.754 328.069 347.67 329.498C347.586 330.928 348.073 332.333 349.024 333.404C353.467 342.417 360.318 349.844 369.11 355.992C370.063 357.062 371.401 357.71 372.831 357.794C374.261 357.878 375.665 357.39 376.736 356.439L396.771 338.623C397.841 337.67 398.489 336.332 398.572 334.902C398.656 333.473 398.169 332.068 397.218 330.997L377.132 308.409C376.179 307.339 374.841 306.691 373.412 306.607C371.982 306.523 370.577 307.01 369.506 307.961L349.472 325.778Z" fill="#3F3D56"/>
<path d="M379.126 322.858L362.62 337.536C362.454 337.689 362.26 337.806 362.047 337.883C361.835 337.959 361.61 337.993 361.385 337.982C361.16 337.97 360.939 337.914 360.736 337.817C360.532 337.719 360.351 337.582 360.201 337.414C360.051 337.245 359.936 337.048 359.863 336.835C359.79 336.622 359.76 336.396 359.775 336.171C359.79 335.946 359.85 335.726 359.951 335.525C360.052 335.323 360.192 335.143 360.362 334.996L376.868 320.318C377.034 320.166 377.229 320.048 377.441 319.971C377.653 319.895 377.878 319.861 378.103 319.872C378.329 319.884 378.549 319.94 378.753 320.037C378.956 320.135 379.138 320.272 379.287 320.441C379.437 320.609 379.552 320.806 379.625 321.019C379.698 321.232 379.728 321.458 379.713 321.683C379.698 321.908 379.638 322.128 379.537 322.329C379.437 322.531 379.297 322.711 379.126 322.858Z" fill="#17B8A6"/>
<path d="M385.377 329.883L368.871 344.561C368.705 344.711 368.51 344.827 368.299 344.901C368.088 344.975 367.864 345.007 367.64 344.995C367.416 344.982 367.197 344.926 366.996 344.829C366.794 344.731 366.613 344.595 366.465 344.427C366.316 344.26 366.201 344.065 366.128 343.853C366.055 343.641 366.025 343.417 366.038 343.194C366.052 342.97 366.11 342.751 366.209 342.55C366.307 342.349 366.445 342.169 366.613 342.022L383.118 327.343C383.284 327.191 383.479 327.073 383.691 326.996C383.903 326.92 384.129 326.886 384.354 326.898C384.579 326.909 384.8 326.965 385.003 327.063C385.206 327.16 385.388 327.297 385.538 327.466C385.688 327.634 385.802 327.831 385.875 328.044C385.949 328.258 385.978 328.483 385.963 328.708C385.948 328.933 385.889 329.153 385.788 329.355C385.687 329.556 385.547 329.736 385.376 329.883H385.377Z" fill="#17B8A6"/>
<path d="M372.878 315.83L356.372 330.508C356.206 330.661 356.011 330.779 355.799 330.855C355.587 330.932 355.362 330.965 355.137 330.954C354.912 330.943 354.691 330.887 354.488 330.789C354.284 330.691 354.103 330.554 353.953 330.386C353.803 330.217 353.688 330.021 353.615 329.807C353.542 329.594 353.512 329.368 353.527 329.143C353.542 328.918 353.602 328.699 353.703 328.497C353.804 328.295 353.944 328.116 354.114 327.969L370.62 313.29C370.786 313.138 370.981 313.02 371.193 312.943C371.405 312.867 371.63 312.833 371.855 312.845C372.081 312.856 372.301 312.912 372.504 313.01C372.708 313.107 372.89 313.244 373.039 313.413C373.189 313.581 373.304 313.778 373.377 313.991C373.45 314.205 373.48 314.43 373.465 314.655C373.45 314.88 373.39 315.1 373.289 315.302C373.189 315.504 373.049 315.683 372.878 315.83Z" fill="#17B8A6"/>
<path d="M102.715 254.907L106.728 252.319C105.082 255.446 103.664 260.332 102.905 264.219C101.619 260.598 99.5465 256.167 97.4949 253.52L101.738 255.006C99.1222 237.564 89.2939 225.042 78.0371 225.042V223.714C89.7943 223.714 100.047 236.76 102.715 254.907Z" fill="#3F3D56"/>
<path d="M67.3156 286.445H111.765C113.65 286.445 115.184 283.988 115.184 280.969C115.184 277.95 113.65 275.493 111.765 275.493H67.3156C65.4302 275.493 63.8965 277.95 63.8965 280.969C63.8965 283.988 65.4291 286.445 67.3156 286.445Z" fill="#17B8A6"/>
<path d="M64.366 217.173H91.1745C92.8332 217.171 94.4235 216.511 95.5964 215.338C96.7693 214.166 97.429 212.575 97.4309 210.917V180.69C97.429 179.031 96.7693 177.441 95.5964 176.268C94.4235 175.095 92.8332 174.435 91.1745 174.433H64.366C62.7075 174.436 61.1177 175.095 59.9452 176.268C58.7727 177.441 58.1132 179.031 58.1113 180.69V210.917C58.1133 212.576 58.7729 214.165 59.9454 215.338C61.1179 216.511 62.7076 217.171 64.366 217.173Z" fill="white"/>
<path d="M64.3667 217.173H91.1752C92.8339 217.171 94.424 216.511 95.5967 215.338C96.7695 214.165 97.4292 212.575 97.431 210.917V180.69C97.4292 179.031 96.7694 177.441 95.5965 176.268C94.4237 175.095 92.8334 174.435 91.1746 174.433H64.3667C62.7082 174.435 61.1181 175.095 59.9454 176.268C58.7726 177.44 58.1129 179.03 58.1109 180.689C55.1068 190.199 55.4119 200.333 58.1109 210.917C58.1127 212.575 58.7724 214.165 59.9452 215.338C61.118 216.511 62.7081 217.171 64.3667 217.173ZM91.1752 175.288C92.6075 175.289 93.9809 175.858 94.9936 176.871C96.0064 177.884 96.5758 179.257 96.5767 180.69V210.917C96.5758 212.349 96.0064 213.723 94.9936 214.736C93.9809 215.748 92.6075 216.318 91.1752 216.319H64.3667C62.9344 216.318 61.5611 215.748 60.5483 214.736C59.5355 213.723 58.9661 212.349 58.9652 210.917V180.69C58.9661 179.257 59.5355 177.884 60.5483 176.871C61.5611 175.858 62.9344 175.289 64.3667 175.288H91.1752Z" fill="#3F3D56"/>
<path d="M67.0726 192.811H89.1614C89.6066 192.803 90.0307 192.62 90.3427 192.303C90.6546 191.985 90.8293 191.557 90.8293 191.112C90.8293 190.667 90.6546 190.239 90.3427 189.922C90.0307 189.604 89.6066 189.421 89.1614 189.413H67.0726C66.8468 189.409 66.6225 189.45 66.4127 189.533C66.2029 189.617 66.0118 189.741 65.8507 189.899C65.6896 190.058 65.5616 190.246 65.4742 190.455C65.3868 190.663 65.3418 190.886 65.3418 191.112C65.3418 191.338 65.3868 191.561 65.4742 191.77C65.5616 191.978 65.6896 192.167 65.8507 192.325C66.0118 192.483 66.2029 192.607 66.4127 192.691C66.6225 192.774 66.8468 192.815 67.0726 192.811Z" fill="#F2F2F2"/>
<path d="M67.0726 202.214H89.1614C89.6066 202.206 90.0307 202.023 90.3427 201.705C90.6546 201.388 90.8293 200.96 90.8293 200.515C90.8293 200.07 90.6546 199.642 90.3427 199.325C90.0307 199.007 89.6066 198.824 89.1614 198.816H67.0726C66.8468 198.812 66.6225 198.853 66.4127 198.936C66.2029 199.02 66.0118 199.144 65.8507 199.302C65.6896 199.46 65.5616 199.649 65.4742 199.857C65.3868 200.066 65.3418 200.289 65.3418 200.515C65.3418 200.741 65.3868 200.964 65.4742 201.173C65.5616 201.381 65.6896 201.569 65.8507 201.728C66.0118 201.886 66.2029 202.01 66.4127 202.094C66.6225 202.177 66.8468 202.218 67.0726 202.214Z" fill="#F2F2F2"/>
</svg>
